<?xml version="1.0" encoding="utf-8"?>
<!-- Generator: Adobe Illustrator 16.0.0, SVG Export Plug-In . SVG Version: 6.00 Build 0)  -->
<!DOCTYPE svg PUBLIC "-//W3C//DTD SVG 1.1//EN" "http://www.w3.org/Graphics/SVG/1.1/DTD/svg11.dtd">
<svg version="1.1" id="Layer_1" xmlns="http://www.w3.org/2000/svg" xmlns:xlink="http://www.w3.org/1999/xlink" x="0px" y="0px"
	 width="50px" height="50px" viewBox="0 0 50 50" enable-background="new 0 0 50 50" xml:space="preserve">
<g>
	<path d="M37,10H13c-1.65,0-3,1.351-3,3v24c0,1.65,1.35,3,3,3h24c1.65,0,3-1.35,3-3V13C40,11.351,38.65,10,37,10z M39,24.5h-6v1h6
		V36H11V25.5h6v-1h-6V14h28V24.5z"/>
	<path d="M25,31.32c4.31,0,7.816-3.506,7.816-7.816S29.31,15.688,25,15.688s-7.816,3.506-7.816,7.816S20.69,31.32,25,31.32z
		 M18.876,19.708c0.024,0.104,0.063,0.18,0.118,0.18c0.121,0,0.362-0.412,0.362-0.412s0.531-0.363,0.507,0.025
		c-0.022,0.387,0.05,0.798,0.05,1.04s0.436,0.823,0.436,0.677c0-0.145,0.193-0.556,0.193-0.774c0-0.217,0.121-0.121,0.437,0.097
		c0.314,0.217,0.531,0.653,0.531,0.653s0.314,0.29,0.362,0.412c0.051,0.121,0.388-0.048,0.46-0.194
		c0.073-0.145,0.12-0.218,0.316-0.265c0.194-0.049,0.436-0.049,0.508-0.314c0.073-0.267,0.291-0.582,0-0.945
		c-0.291-0.363-0.435-0.604-0.654-0.774c-0.217-0.169-0.386-0.605-0.386-0.605s0.46-0.412,0.605-0.556
		c0.144-0.146,0.362-0.048,0.386,0.121c0.023,0.17-0.217,0.314-0.265,0.678c-0.05,0.363,0.288,0.484,0.387,0.363
		c0.095-0.122,0.338-0.412,0.338-0.483c0-0.073-0.17-0.05-0.193-0.315c-0.024-0.267,0.313-0.461,0.436-0.388
		c0.122,0.072,0.896-0.096,1.259-0.291c0.363-0.193,0.58-0.604,0.798-0.774c0.104-0.082,0.329-0.252,0.529-0.436
		c3.313,0.652,5.82,3.576,5.82,7.077c0,0.408-0.043,0.805-0.108,1.193c-0.052-0.028-0.101-0.056-0.167-0.089
		c-0.388-0.194-1.259-0.194-1.283-0.073c-0.023,0.122,0,0-0.289-0.097c-0.292-0.096-0.509,0-0.581-0.168
		c-0.072-0.169-0.242-0.218-0.461,0c-0.18,0.181-0.265,0.193,0.146,0.266c0.411,0.073,0.533,0.073,0.364,0.266
		c-0.17,0.194-0.292,0.436-0.146,0.46c0.146,0.025,0.58-0.097,0.628,0c0.049,0.097-0.097,0.121,0.387,0.193
		c0.485,0.074,0.581,0.243,0.679,0.339c0.096,0.098,0.388,0.412,0.192,0.412c-0.192,0-0.409,0.242-0.266,0.266
		c0.058,0.009,0.159,0,0.263-0.01c-0.186,0.41-0.406,0.799-0.661,1.164c-0.137-0.155-0.764-0.017-0.837-0.017
		c-0.07,0-0.217-0.242-0.361-0.242c-0.146,0-0.122,0.484-0.122,0.484s-0.145-0.169-0.361-0.387c-0.22-0.217,0.021,0.145-0.194,0.363
		c-0.218,0.218-0.146,0.146-0.243,0.388c-0.097,0.242-0.313,0.145-0.531-0.098c-0.22-0.241-0.339-0.072-0.485,0
		c-0.145,0.073-0.266,0.484-0.338,0.58c-0.072,0.097-0.582,0.218-0.701,0.34c-0.122,0.121-0.17,0.508-0.17,0.605
		c0,0.096-0.509,0.048-0.678,0.169c-0.169,0.12-0.436,0.048-0.604,0.048c-0.172,0-0.751,0.459-0.944,0.581
		c-0.072,0.045-0.118,0.134-0.141,0.233c-3.604-0.399-6.417-3.461-6.417-7.169C17.785,22.111,18.188,20.812,18.876,19.708z"/>
	<path d="M26.277,17.782c0.291-0.024,0.605-0.846,0.291-0.798C26.21,17.04,25.986,17.806,26.277,17.782z"/>
	<path d="M20.93,25.091c0.12,0.097,0.725,0.461,0.822,0.654s0.316,0.243,0.316-0.024c0-0.267,0.048-0.581,0.167-0.726
		c0.122-0.146,0.073-0.364-0.119-0.338c-0.193,0.024-0.364-0.315-0.678-0.533c-0.315-0.218-0.558-0.362-0.848-0.677
		c-0.289-0.315-0.653-0.508-0.848-0.677c-0.192-0.17-0.483-0.243-0.604-0.219c-0.302,0.061,0.437,0.581,0.509,0.654
		c0.071,0.073,0.726,0.629,0.726,0.896C20.373,24.366,20.809,24.995,20.93,25.091z"/>
	<path d="M20.397,22.259c0.12,0.437,0.363,0.872,0.459,1.041c0.097,0.17,0.509,0.411,0.653,0.532
		c0.145,0.122,0.362-0.048,0.267-0.193c-0.098-0.146-0.29-0.363-0.314-0.532c-0.023-0.17-0.146-0.437-0.339-0.727
		c-0.193-0.29-0.362-0.362-0.483-0.556c-0.122-0.195-0.559-0.557-0.559-0.557c-0.193,0.024-0.193,0.387-0.096,0.509
		C20.081,21.897,20.277,21.825,20.397,22.259z"/>
	<path d="M22.116,25.842c-0.177,0.221,0.047,0.387,0.119,0.436c0.073,0.048,0.341,0.096,0.582,0.072
		c0.155-0.015,0.349-0.051,0.397-0.113c0.006,0.025,0.023,0.054,0.063,0.089c0.194,0.169,0.313,0.242,0.604,0.217
		c0.29-0.024,0.726,0.145,0.751,0s-0.265-0.363-0.389-0.363c-0.12,0-0.725-0.145-0.725-0.145c-0.112,0.047-0.261,0.086-0.3,0.153
		c-0.009-0.024-0.032-0.05-0.089-0.081c-0.266-0.145-0.58,0-0.679-0.193C22.357,25.72,22.212,25.72,22.116,25.842z"/>
	<path d="M25.891,26.834c-0.055,0.216,0.362,0.315,0.387,0.073S25.939,26.64,25.891,26.834z"/>
	<path d="M27.559,26.446c-0.145,0.193-0.409,0.388-0.384,0.557c0.036,0.265,0.529-0.145,0.529-0.145s0.389-0.048,0.389-0.218
		C28.093,26.471,27.704,26.253,27.559,26.446z"/>
	<path d="M25.866,25.237c0.193,0.121,0.557-0.412,0.653-0.242s-0.023,0.242,0.146,0.459c0.17,0.219,0.484,0.194,0.484,0.194
		s-0.025-0.581-0.292-0.727c-0.265-0.146-0.435-0.313-0.119-0.265c0.314,0.048,0.483-0.073,0.411-0.219
		c-0.072-0.145-0.533-0.072-0.678-0.048c-0.146,0.024-0.363-0.097-0.363-0.097c-0.146,0.048-0.122,0.169-0.169,0.411
		C25.891,24.946,25.672,25.115,25.866,25.237z"/>
	<path d="M27.608,23.711c-0.097,0-0.773,0.121-0.847,0.146c-0.072,0.024-0.509-0.048-0.509-0.048
		c-0.168,0.17-0.048,0.338,0.219,0.314c0.267-0.023,0.823-0.097,0.942-0.097C27.536,24.026,27.704,23.711,27.608,23.711z"/>
	<path d="M28.385,24.341c0.288,0.072,0.507-0.799,0.337-0.871C28.5,23.375,28.093,24.269,28.385,24.341z"/>
	<path d="M23.932,25.115c0.12,0,0.361,0,0.531,0.049c0.17,0.048,0.727,0.097,0.701-0.121c-0.024-0.218-0.072-0.557,0.17-0.774
		c0.242-0.218,0.484-0.339,0.362-0.654c-0.12-0.315-0.362-0.508-0.193-0.653s0.363-0.193,0.363-0.314c0-0.122-0.411,0.338-0.46-0.46
		c-0.01-0.17-0.387,0.048-0.411,0.218c-0.024,0.169,0.267,0.315-0.193,0.315c-0.459,0-0.485,0.363-0.581,0.436
		c-0.097,0.072-0.192,0.096-0.388,0.145c-0.192,0.048-0.242,0.242-0.29,0.363c-0.048,0.121-0.387-0.218-0.483-0.121
		c-0.098,0.097-0.026,0.557,0.146,0.943C23.374,24.873,23.81,25.115,23.932,25.115z"/>
	<path d="M26.543,20.372c-0.12,0.121-0.483,0.363-0.53,0.58c-0.05,0.218,0.58-0.339,0.749-0.556c0.17-0.218,0.509-0.097,0.581-0.218
		c0.071-0.122,0.071-0.122,0.071-0.122s-0.265-0.047-0.482-0.12c-0.219-0.073-0.484,0.193-0.363-0.194
		c0.121-0.386,0.484-0.313,0.411-0.604c-0.072-0.291-0.314-0.363-0.387-0.363c-0.17,0,0.023,0.266-0.218,0.436
		c-0.243,0.168-0.509,0.241-0.362,0.531C26.156,20.033,26.665,20.251,26.543,20.372z"/>
	<path d="M27.414,21.292c-0.096-0.122-0.337-0.508-0.604-0.412c-0.081,0.03-0.29,0.459-0.023,0.459S27.512,21.413,27.414,21.292z"/>
	<path d="M27.633,21.001c0.436-0.023,0.315-0.459-0.024-0.484C27.512,20.511,27.198,21.025,27.633,21.001z"/>
	<path d="M27.682,21.413c-0.339,0.436-0.314,0.339-0.558,0.242c-0.241-0.097-0.628,0.218-0.556,0.339
		c0.072,0.121,0.606-0.024,0.727,0.193c0.119,0.218,0.119,0.243,0.363,0.193c0.241-0.047,0.482-0.387,0.41-0.556
		C27.996,21.655,27.682,21.413,27.682,21.413z"/>
	<path d="M19.554,32.894c-0.322,0-0.739,0.139-0.739,0.723v1.173c0,0.472,0.295,0.673,0.732,0.673c0.443,0,0.728-0.201,0.728-0.673
		v-1.173C20.274,33.032,19.945,32.894,19.554,32.894z M19.699,34.899c0,0.122-0.065,0.167-0.156,0.167s-0.152-0.045-0.152-0.167
		v-1.443c0-0.122,0.062-0.167,0.152-0.167s0.156,0.045,0.156,0.167V34.899z"/>
	<path d="M21.905,32.942h-0.697l-0.673,1.51v0.396h0.833v0.565h0.537v-0.565h0.191v-0.396h-0.191V32.942z M21.368,34.452h-0.452
		l0.445-0.996h0.007V34.452z"/>
	<rect x="22.439" y="34.831" width="0.539" height="0.583"/>
	<path d="M24.099,32.894c-0.322,0-0.739,0.139-0.739,0.723v1.173c0,0.472,0.294,0.673,0.732,0.673c0.443,0,0.729-0.201,0.729-0.673
		v-1.173C24.82,33.032,24.49,32.894,24.099,32.894z M24.244,34.899c0,0.122-0.065,0.167-0.156,0.167
		c-0.09,0-0.152-0.045-0.152-0.167v-1.443c0-0.122,0.063-0.167,0.152-0.167c0.091,0,0.156,0.045,0.156,0.167V34.899z"/>
	<path d="M26.45,32.942h-0.697l-0.674,1.51v0.396h0.833v0.565h0.538v-0.565h0.19v-0.396h-0.19V32.942z M25.912,34.452h-0.451
		l0.445-0.996h0.006V34.452z"/>
	<rect x="26.984" y="34.831" width="0.539" height="0.583"/>
	<path d="M27.984,33.22v0.36h0.405v1.833h0.576v-2.471h-0.486C28.438,33.161,28.178,33.22,27.984,33.22z"/>
	<path d="M30.995,32.942h-0.697l-0.674,1.51v0.396h0.833v0.565h0.538v-0.565h0.19v-0.396h-0.19V32.942z M30.457,34.452h-0.451
		l0.445-0.996h0.006V34.452z"/>
</g>
</svg>
