<?xml version="1.0" encoding="utf-8"?>
<!-- Generator: Adobe Illustrator 16.0.0, SVG Export Plug-In . SVG Version: 6.00 Build 0)  -->
<!DOCTYPE svg PUBLIC "-//W3C//DTD SVG 1.1//EN" "http://www.w3.org/Graphics/SVG/1.1/DTD/svg11.dtd">
<svg version="1.1" id="Layer_1" xmlns="http://www.w3.org/2000/svg" xmlns:xlink="http://www.w3.org/1999/xlink" x="0px" y="0px"
	 width="50px" height="50px" viewBox="0 0 50 50" enable-background="new 0 0 50 50" xml:space="preserve">
<g>
	<path d="M38.25,10.25h-1.123c0.029-0.093,0.058-0.186,0.058-0.289C37.185,9.431,36.754,9,36.223,9s-0.961,0.431-0.961,0.961
		c0,0.103,0.028,0.196,0.059,0.289h-3.68c0.029-0.093,0.058-0.186,0.058-0.289C31.698,9.431,31.268,9,30.736,9
		c-0.53,0-0.961,0.431-0.961,0.961c0,0.103,0.029,0.196,0.059,0.289h-3.681c0.029-0.093,0.058-0.186,0.058-0.289
		C26.211,9.431,25.781,9,25.25,9s-0.961,0.431-0.961,0.961c0,0.103,0.028,0.196,0.058,0.289h-3.681
		c0.029-0.093,0.059-0.186,0.059-0.289C20.725,9.431,20.294,9,19.764,9c-0.531,0-0.962,0.431-0.962,0.961
		c0,0.103,0.028,0.196,0.058,0.289h-3.68c0.03-0.093,0.059-0.186,0.059-0.289c0-0.531-0.43-0.961-0.961-0.961
		s-0.962,0.431-0.962,0.961c0,0.103,0.028,0.196,0.058,0.289H12.25c-1.518,0-2.75,1.233-2.75,2.75v26c0,1.517,1.232,2.75,2.75,2.75
		h22.895L41,35.895V13C41,11.484,39.767,10.25,38.25,10.25z M39.5,35.273l-0.311,0.311h-2.355c-1.101,0-2,0.9-2,2v2.356l-0.311,0.31
		H12.25C11.561,40.25,11,39.69,11,39V14h28.5V35.273z"/>
	<path d="M15.618,33.493c-0.448,0.464-0.704,0.943-0.672,1.599h4.741v-1.359h-2.614c0.296-0.208,0.728-0.424,1.135-0.68
		c0.736-0.456,1.495-0.863,1.495-1.855c0-1.311-1.095-1.823-2.263-1.823c-1.463,0-2.367,0.671-2.391,2.327h1.495
		c-0.008-0.544,0.176-1.08,0.815-1.08c0.336,0,0.68,0.208,0.68,0.568C18.041,32.126,16.562,32.51,15.618,33.493z"/>
	<path d="M22.505,29.375c-1.287,0-2.438,0.775-2.446,2.846c0,1.615,0.624,2.991,2.446,2.991c1.823,0,2.439-1.392,2.439-2.999
		C24.944,30.343,23.968,29.375,22.505,29.375z M22.505,33.965c-0.631,0-0.783-0.664-0.783-1.647c0-0.536,0.016-1.695,0.768-1.695
		c0.823,0,0.792,1.087,0.792,1.679C23.281,33.245,23.097,33.965,22.505,33.965z"/>
	<path d="M25.954,30.671v1.135h1.303v3.286h1.663v-5.717h-1.263C27.473,30.351,26.833,30.655,25.954,30.671z"/>
	<path d="M34.888,29.456h-1.551l-2.631,3.126v1.335h2.599v1.175h1.583v-1.175h0.704v-1.239h-0.704V29.456z M33.305,32.678h-1.343
		l1.343-1.719V32.678z"/>
	<path d="M17.065,25.375c1.152,0,1.89-0.522,1.89-1.747v-3.043c0-1.512-0.855-1.873-1.873-1.873c-0.837,0-1.917,0.36-1.917,1.873
		v3.043C15.165,24.854,15.93,25.375,17.065,25.375z M16.66,20.172c0-0.315,0.162-0.432,0.396-0.432s0.405,0.117,0.405,0.432v3.745
		c0,0.315-0.171,0.432-0.405,0.432s-0.396-0.117-0.396-0.432V20.172z"/>
	<path d="M21.051,25.25h1.495v-6.41h-1.26c-0.108,0.567-0.783,0.72-1.288,0.72v0.937h1.053V25.25z"/>
	<rect x="24.57" y="20.1" width="1.395" height="1.512"/>
	<rect x="24.57" y="23.737" width="1.395" height="1.512"/>
	<path d="M28.854,25.375c1.152,0,1.891-0.522,1.891-1.747v-3.043c0-1.512-0.855-1.873-1.873-1.873c-0.837,0-1.917,0.36-1.917,1.873
		v3.043C26.955,24.854,27.72,25.375,28.854,25.375z M28.449,20.172c0-0.315,0.162-0.432,0.396-0.432s0.405,0.117,0.405,0.432v3.745
		c0,0.315-0.171,0.432-0.405,0.432s-0.396-0.117-0.396-0.432V20.172z"/>
	<path d="M35.335,24.313H33.03c0-0.261,0.117-0.415,0.234-0.622c0.675-1.152,2.071-1.81,2.071-3.286c0-1.351-1-1.693-1.855-1.693
		c-0.846,0-1.944,0.153-1.944,1.71v0.703h1.495v-0.927c0-0.315,0.144-0.459,0.405-0.459c0.261,0,0.405,0.144,0.405,0.459
		c0,1.278-2.305,2.196-2.305,4.258v0.792h3.799V24.313z"/>
	<rect x="15.072" y="27.296" width="20.392" height="0.329"/>
</g>
</svg>
