<?xml version="1.0" encoding="utf-8"?>
<!-- Generator: Adobe Illustrator 16.0.0, SVG Export Plug-In . SVG Version: 6.00 Build 0)  -->
<!DOCTYPE svg PUBLIC "-//W3C//DTD SVG 1.1//EN" "http://www.w3.org/Graphics/SVG/1.1/DTD/svg11.dtd">
<svg version="1.1" id="Layer_1" xmlns="http://www.w3.org/2000/svg" xmlns:xlink="http://www.w3.org/1999/xlink" x="0px" y="0px"
	 width="50px" height="50px" viewBox="0 0 50 50" enable-background="new 0 0 50 50" xml:space="preserve">
<g>
	<polygon points="30.816,16.576 29.83,17.707 30.816,17.707 	"/>
	<path d="M23.569,16.73c-0.039-0.122-0.1-0.224-0.183-0.308c-0.083-0.083-0.196-0.125-0.34-0.125c-0.15,0-0.268,0.041-0.351,0.122
		s-0.145,0.182-0.186,0.302c-0.04,0.12-0.064,0.248-0.072,0.385s-0.012,0.26-0.012,0.368c0,0.104,0.004,0.225,0.012,0.362
		s0.032,0.266,0.072,0.386c0.041,0.12,0.102,0.221,0.183,0.304c0.082,0.083,0.195,0.125,0.343,0.125
		c0.146,0,0.262-0.042,0.345-0.125s0.145-0.185,0.186-0.304c0.04-0.12,0.065-0.248,0.075-0.383s0.015-0.257,0.015-0.365
		c0-0.104-0.005-0.224-0.015-0.359S23.607,16.852,23.569,16.73z"/>
	<path d="M37.269,14.215h-3.346l-8.035-6.837c0.045-0.111,0.072-0.233,0.072-0.36c0-0.529-0.43-0.96-0.96-0.96
		c-0.531,0-0.961,0.431-0.961,0.96c0,0.127,0.027,0.249,0.072,0.36l-8.034,6.837h-3.346c-1.432,0-2.595,1.164-2.595,2.595v24.538
		c0,1.432,1.163,2.595,2.595,2.595h21.606l5.525-5.525V16.81C39.863,15.379,38.698,14.215,37.269,14.215z M24.514,7.825
		C24.658,7.913,24.818,7.979,25,7.979s0.342-0.065,0.488-0.153l7.508,6.39H17.004L24.514,7.825z M29.024,18.692v-1.09l1.844-2.145
		h1.153v2.25h0.545v0.986h-0.545v0.8h-1.205v-0.8H29.024z M25.65,17.167v-0.835c0.147,0.004,0.29-0.009,0.43-0.038
		c0.139-0.029,0.265-0.077,0.376-0.145c0.112-0.068,0.204-0.159,0.275-0.272c0.072-0.114,0.111-0.254,0.119-0.42h0.951v4.035h-1.206
		v-2.325H25.65z M24.758,17.475c0,0.391-0.055,0.717-0.166,0.98c-0.109,0.263-0.249,0.474-0.417,0.635
		c-0.168,0.16-0.354,0.275-0.557,0.345c-0.202,0.07-0.396,0.104-0.577,0.104s-0.373-0.035-0.576-0.104s-0.389-0.185-0.557-0.345
		c-0.168-0.161-0.307-0.372-0.418-0.635c-0.109-0.263-0.165-0.589-0.165-0.98c0-0.39,0.056-0.717,0.165-0.98
		c0.111-0.263,0.25-0.474,0.418-0.635c0.168-0.16,0.353-0.275,0.554-0.345c0.2-0.07,0.393-0.104,0.574-0.104
		c0.185,0,0.379,0.035,0.579,0.104c0.201,0.07,0.387,0.185,0.557,0.345c0.17,0.161,0.311,0.372,0.42,0.635
		C24.703,16.758,24.758,17.084,24.758,17.475z M19.561,16.434c-0.095-0.072-0.21-0.107-0.346-0.107
		c-0.231,0-0.393,0.076-0.483,0.229s-0.132,0.353-0.125,0.6h-1.09c-0.016-0.278,0.014-0.525,0.087-0.742
		c0.074-0.216,0.186-0.399,0.337-0.548c0.15-0.148,0.335-0.262,0.554-0.339c0.218-0.078,0.463-0.116,0.732-0.116
		c0.244,0,0.467,0.026,0.67,0.078c0.203,0.052,0.377,0.131,0.521,0.235c0.146,0.104,0.258,0.236,0.337,0.397
		c0.079,0.16,0.119,0.347,0.119,0.56c0,0.259-0.057,0.477-0.168,0.655c-0.112,0.178-0.256,0.333-0.43,0.467
		s-0.365,0.254-0.573,0.362c-0.21,0.108-0.408,0.22-0.598,0.336v0.005h1.826v0.986h-3.496c-0.012-0.197,0.009-0.379,0.061-0.545
		c0.053-0.166,0.129-0.317,0.229-0.452c0.085-0.116,0.183-0.224,0.293-0.325c0.109-0.101,0.228-0.194,0.354-0.281
		s0.256-0.17,0.392-0.25c0.135-0.079,0.266-0.157,0.395-0.234c0.05-0.031,0.106-0.066,0.17-0.104
		c0.064-0.039,0.124-0.081,0.18-0.127c0.057-0.046,0.103-0.099,0.14-0.157s0.056-0.124,0.056-0.197
		C19.703,16.634,19.655,16.506,19.561,16.434z M38.448,37.831l-0.293,0.292h-2.224c-1.038,0-1.887,0.851-1.887,1.888v2.224
		l-0.293,0.293H12.731c-0.651,0-1.18-0.529-1.18-1.18V20.585h26.896V37.831z"/>
	<path d="M19.807,29.108c0.017,0.133,0.029,0.266,0.054,0.391c0.033,0.175,0.075,0.337,0.12,0.491
		c0.011,0.033,0.025,0.068,0.035,0.101c0.042,0.127,0.086,0.252,0.135,0.368c0.005,0.012,0.009,0.024,0.012,0.036
		c0.006,0.008,0.01,0.013,0.013,0.02c0.216,0.499,0.486,0.912,0.756,1.315c0.552,0.828,1.671,1.623,1.729,3.182
		c-0.063,0.078-0.705,0.172-0.705,0.28v2.307c0,0.608,0.742,0.939,1.626,1.082c-0.006,0.033-0.016,0.065-0.016,0.1
		c0,0.39,0.517,0.707,1.151,0.707c0.638,0,1.155-0.316,1.155-0.707c0-0.035-0.01-0.067-0.016-0.1
		c0.884-0.142,1.627-0.473,1.627-1.082v-2.307c0-0.108-0.645-0.202-0.707-0.28c0.059-1.559,1.178-2.354,1.729-3.182
		c0.54-0.807,1.088-1.649,1.158-3.155l0.016,0v-0.318c0-2.513-1.881-4.588-4.304-4.911c-0.016-0.003-0.032-0.004-0.049-0.006
		c-0.044-0.007-0.084-0.015-0.13-0.019c-0.164-0.018-0.327-0.024-0.479-0.024c-2.732,0-4.959,2.224-4.959,4.959
		c0,0.208,0.011,0.408,0.027,0.601C19.791,29.011,19.802,29.057,19.807,29.108z"/>
</g>
</svg>
