<?xml version="1.0" encoding="utf-8"?>
<!-- Generator: Adobe Illustrator 16.0.0, SVG Export Plug-In . SVG Version: 6.00 Build 0)  -->
<!DOCTYPE svg PUBLIC "-//W3C//DTD SVG 1.1//EN" "http://www.w3.org/Graphics/SVG/1.1/DTD/svg11.dtd">
<svg version="1.1" id="Layer_1" xmlns="http://www.w3.org/2000/svg" xmlns:xlink="http://www.w3.org/1999/xlink" x="0px" y="0px"
	 width="50px" height="50px" viewBox="0 0 50 50" enable-background="new 0 0 50 50" xml:space="preserve">
<g>
	<path d="M38.25,10.25h-1.123c0.029-0.092,0.058-0.186,0.058-0.288c0-0.53-0.431-0.962-0.962-0.962s-0.961,0.432-0.961,0.962
		c0,0.103,0.028,0.196,0.059,0.288h-3.68c0.029-0.092,0.058-0.186,0.058-0.288c0-0.53-0.431-0.962-0.962-0.962
		c-0.53,0-0.961,0.432-0.961,0.962c0,0.103,0.029,0.196,0.059,0.288h-3.681c0.029-0.092,0.058-0.186,0.058-0.288
		c0-0.53-0.43-0.962-0.961-0.962s-0.961,0.432-0.961,0.962c0,0.103,0.028,0.196,0.058,0.288h-3.681
		c0.029-0.092,0.059-0.186,0.059-0.288c0-0.53-0.431-0.962-0.961-0.962c-0.531,0-0.962,0.432-0.962,0.962
		c0,0.103,0.028,0.196,0.058,0.288h-3.68c0.03-0.092,0.059-0.186,0.059-0.288c0-0.53-0.43-0.962-0.961-0.962
		s-0.962,0.432-0.962,0.962c0,0.103,0.028,0.196,0.058,0.288H12.25c-1.518,0-2.75,1.234-2.75,2.75v26c0,1.518,1.232,2.75,2.75,2.75
		h22.895L41,35.895V13C41,11.484,39.767,10.25,38.25,10.25z M39.5,35.273l-0.311,0.311h-2.355c-1.101,0-2,0.9-2,2v2.356l-0.311,0.31
		H12.25C11.561,40.25,11,39.689,11,39V14h28.5V35.273z"/>
	<path d="M15.259,20.779h1.346v-0.998h0.598v-1.054h-0.598v-2.739h-1.318l-2.236,2.658v1.135h2.208V20.779z M14.117,18.728
		l1.142-1.461v1.461H14.117z"/>
	<path d="M15.16,31.338l8.899-4.031c0,4.099,0,8.126,0,8.126l-2.673,2.715v0.503L25,37.402l3.614,1.248v-0.503l-2.672-2.715
		c0,0,0-4.027,0-8.126l8.899,4.031v-1.273l-2.298-1.948v-1.877h-1.001v1.026l-2.132-1.805v-1.769h-1.003v0.919l-2.465-2.089
		c0-1.788,0-3.18,0-3.635c0-1.512-0.934-2.907-0.941-2.899c-0.007-0.008-0.941,1.388-0.941,2.899c0,0.455,0,1.847,0,3.635
		l-2.465,2.089v-0.919h-1.003v1.769l-2.131,1.805v-1.026h-1.002v1.877l-2.298,1.948V31.338z"/>
</g>
</svg>
