<?xml version="1.0" encoding="utf-8"?>
<!-- Generator: Adobe Illustrator 16.0.0, SVG Export Plug-In . SVG Version: 6.00 Build 0)  -->
<!DOCTYPE svg PUBLIC "-//W3C//DTD SVG 1.1//EN" "http://www.w3.org/Graphics/SVG/1.1/DTD/svg11.dtd">
<svg version="1.1" id="Layer_1" xmlns="http://www.w3.org/2000/svg" xmlns:xlink="http://www.w3.org/1999/xlink" x="0px" y="0px"
	 width="50px" height="50px" viewBox="0 0 50 50" enable-background="new 0 0 50 50" xml:space="preserve">
<path d="M37,10H13c-1.65,0-3,1.351-3,3v24c0,1.649,1.35,3,3,3h24c1.65,0,3-1.351,3-3V13C40,11.351,38.65,10,37,10z M16.477,12.705
	c0-0.388,0.317-0.705,0.705-0.705h15.638c0.387,0,0.705,0.317,0.705,0.705v1.137c0,0.388-0.317,0.705-0.705,0.705H17.181
	c-0.387,0-0.705-0.317-0.705-0.705V12.705z M18.095,36.402H13.5v-4.086h4.595V36.402z M18.095,30.946H13.5V26.86h4.595V30.946z
	 M24.23,36.402h-4.596v-4.086h4.596V36.402z M24.23,30.946h-4.596V26.86h4.596V30.946z M24.23,25.49h-4.596v-4.088h4.596V25.49z
	 M30.365,36.402h-4.595v-4.086h4.595V36.402z M30.365,30.946h-4.595V26.86h4.595V30.946z M30.365,25.49h-4.595v-4.088h4.595V25.49z
	 M36.5,36.402h-4.596v-4.086H36.5V36.402z M36.5,30.946h-4.596V26.86H36.5V30.946z M36.5,25.49h-4.596v-4.088H36.5V25.49z"/>
</svg>
