<?xml version="1.0" encoding="utf-8"?>
<!-- Generator: Adobe Illustrator 16.0.0, SVG Export Plug-In . SVG Version: 6.00 Build 0)  -->
<!DOCTYPE svg PUBLIC "-//W3C//DTD SVG 1.1//EN" "http://www.w3.org/Graphics/SVG/1.1/DTD/svg11.dtd">
<svg version="1.1" id="Layer_1" xmlns="http://www.w3.org/2000/svg" xmlns:xlink="http://www.w3.org/1999/xlink" x="0px" y="0px"
	 width="50px" height="50px" viewBox="0 0 50 50" enable-background="new 0 0 50 50" xml:space="preserve">
<g>
	<path d="M37,8.5H13c-2.481,0-4.5,2.019-4.5,4.5v24c0,2.481,2.019,4.5,4.5,4.5h24c2.481,0,4.5-2.019,4.5-4.5V13
		C41.5,10.519,39.481,8.5,37,8.5z M40,37c0,1.649-1.35,3-3,3H13c-1.65,0-3-1.351-3-3V13c0-1.649,1.35-3,3-3h24c1.65,0,3,1.351,3,3
		V37z"/>
	<circle cx="17.75" cy="13.273" r="1.273"/>
	<circle cx="25" cy="13.273" r="1.273"/>
	<circle cx="32.25" cy="13.273" r="1.273"/>
	<rect x="19.634" y="21.402" width="4.596" height="4.088"/>
	<rect x="25.771" y="21.402" width="4.595" height="4.088"/>
	<rect x="31.904" y="21.402" width="4.596" height="4.088"/>
	<rect x="13.5" y="26.86" width="4.595" height="4.086"/>
	<rect x="19.634" y="26.86" width="4.596" height="4.086"/>
	<rect x="25.771" y="26.86" width="4.595" height="4.086"/>
	<rect x="31.904" y="26.86" width="4.596" height="4.086"/>
	<rect x="13.5" y="32.316" width="4.595" height="4.086"/>
	<rect x="19.634" y="32.316" width="4.596" height="4.086"/>
	<rect x="25.771" y="32.316" width="4.595" height="4.086"/>
	<rect x="31.904" y="32.316" width="4.596" height="4.086"/>
</g>
</svg>
