<?xml version="1.0" encoding="utf-8"?>
<!-- Generator: Adobe Illustrator 16.0.0, SVG Export Plug-In . SVG Version: 6.00 Build 0)  -->
<!DOCTYPE svg PUBLIC "-//W3C//DTD SVG 1.1//EN" "http://www.w3.org/Graphics/SVG/1.1/DTD/svg11.dtd">
<svg version="1.1" id="Layer_1" xmlns="http://www.w3.org/2000/svg" xmlns:xlink="http://www.w3.org/1999/xlink" x="0px" y="0px"
	 width="50px" height="50px" viewBox="0 0 50 50" enable-background="new 0 0 50 50" xml:space="preserve">
<g>
	<rect x="12.497" y="23.768" width="3.482" height="3.482"/>
	<rect x="17.878" y="23.768" width="3.482" height="3.482"/>
	<rect x="23.259" y="23.768" width="3.482" height="3.482"/>
	<rect x="28.641" y="23.768" width="3.482" height="3.482"/>
	<rect x="34.022" y="23.768" width="3.482" height="3.482"/>
	<rect x="12.496" y="29.149" width="3.482" height="3.482"/>
	<rect x="17.877" y="29.149" width="3.482" height="3.482"/>
	<rect x="23.259" y="29.149" width="3.482" height="3.482"/>
	<rect x="28.64" y="29.149" width="3.482" height="3.482"/>
	<rect x="34.021" y="29.149" width="3.482" height="3.482"/>
	<path d="M37.901,15.45V14h-1.174v1.45h-1.904V14h-1.174v1.45h-1.904V14H30.57v1.45h-1.904V14h-1.174v1.45h-1.904V14h-1.174v1.45
		h-1.904V14h-1.174v1.45H19.43V14h-1.174v1.45h-1.904V14h-1.174v1.45h-1.904V14h-1.174v1.45H8.5V36h33V15.45H37.901z M39.5,33.946
		h-29V22.435h29V33.946z"/>
</g>
</svg>
