<?xml version="1.0" encoding="utf-8"?>
<!-- Generator: Adobe Illustrator 16.0.0, SVG Export Plug-In . SVG Version: 6.00 Build 0)  -->
<!DOCTYPE svg PUBLIC "-//W3C//DTD SVG 1.1//EN" "http://www.w3.org/Graphics/SVG/1.1/DTD/svg11.dtd">
<svg version="1.1" id="Layer_1" xmlns="http://www.w3.org/2000/svg" xmlns:xlink="http://www.w3.org/1999/xlink" x="0px" y="0px"
	 width="50px" height="50px" viewBox="0 0 50 50" enable-background="new 0 0 50 50" xml:space="preserve">
<g>
	<path fill-rule="evenodd" clip-rule="evenodd" d="M18.54,34.291h3.36v-14.16h-2.36c-0.04,0.227-0.117,0.47-0.23,0.73
		c-0.113,0.26-0.29,0.5-0.53,0.72c-0.24,0.22-0.563,0.403-0.97,0.55c-0.407,0.147-0.93,0.22-1.57,0.22h-0.42v2.12h2.72V34.291z"/>
	<path fill-rule="evenodd" clip-rule="evenodd" d="M30.52,34.291h3.12v-2.74h1.32v-2.6h-1.32v-8.54h-3.6l-4.6,8.54v2.6h5.08V34.291z
		 M28.1,28.951l2.38-4.74h0.04v4.74H28.1z"/>
	<polygon fill-rule="evenodd" clip-rule="evenodd" points="21.12,12.163 21.109,12.163 20.784,13.912 21.456,13.912 	"/>
	<path fill-rule="evenodd" clip-rule="evenodd" d="M23.971,14.731c0.042,0.048,0.102,0.071,0.179,0.071
		c0.081,0,0.144-0.021,0.19-0.063c0.046-0.043,0.08-0.104,0.102-0.182c0.022-0.079,0.036-0.174,0.042-0.283
		c0.005-0.11,0.008-0.233,0.008-0.369c0-0.121-0.003-0.237-0.008-0.349c-0.005-0.112-0.02-0.211-0.042-0.298
		c-0.022-0.086-0.057-0.155-0.104-0.209c-0.047-0.053-0.112-0.079-0.192-0.079c-0.132,0-0.218,0.077-0.258,0.23
		c-0.041,0.154-0.061,0.376-0.061,0.666c0,0.132,0.002,0.255,0.008,0.368c0.005,0.114,0.019,0.213,0.041,0.297
		C23.897,14.618,23.929,14.684,23.971,14.731z"/>
	<path fill-rule="evenodd" clip-rule="evenodd" d="M38,9.875h-1.123c0.029-0.093,0.058-0.186,0.058-0.289
		c0-0.53-0.431-0.961-0.962-0.961s-0.961,0.431-0.961,0.961c0,0.104,0.028,0.196,0.059,0.289h-3.68
		c0.029-0.093,0.058-0.186,0.058-0.289c0-0.53-0.431-0.961-0.962-0.961c-0.53,0-0.961,0.431-0.961,0.961
		c0,0.104,0.029,0.196,0.059,0.289h-3.681c0.029-0.093,0.058-0.186,0.058-0.289c0-0.53-0.43-0.961-0.961-0.961
		s-0.961,0.431-0.961,0.961c0,0.104,0.028,0.196,0.058,0.289h-3.681c0.029-0.093,0.059-0.186,0.059-0.289
		c0-0.53-0.431-0.961-0.961-0.961c-0.531,0-0.962,0.431-0.962,0.961c0,0.104,0.028,0.196,0.058,0.289h-3.68
		c0.03-0.093,0.059-0.186,0.059-0.289c0-0.53-0.43-0.961-0.961-0.961s-0.962,0.431-0.962,0.961c0,0.104,0.028,0.196,0.058,0.289H12
		c-1.518,0-2.75,1.233-2.75,2.75v26c0,1.517,1.232,2.75,2.75,2.75h22.895l5.855-5.855V12.625C40.75,11.108,39.517,9.875,38,9.875z
		 M29.293,11.448h0.891v3.927h-0.891V11.448z M27.863,11.404h0.891v0.682h-0.891V11.404z M27.863,12.399h0.891v2.976h-0.891V12.399z
		 M25.806,12.399h0.858v0.418h0.011c0.059-0.132,0.146-0.247,0.261-0.347c0.115-0.099,0.267-0.148,0.454-0.148h0.066
		c0.015,0,0.041,0.004,0.077,0.012v0.836c-0.044-0.008-0.085-0.014-0.124-0.017c-0.039-0.004-0.08-0.006-0.124-0.006
		c-0.18,0-0.323,0.04-0.429,0.121s-0.159,0.22-0.159,0.418v1.688h-0.891V12.399z M22.951,12.399h0.858v0.363h0.011
		c0.015-0.048,0.038-0.099,0.068-0.151c0.031-0.053,0.074-0.101,0.126-0.144c0.053-0.042,0.117-0.076,0.19-0.104
		c0.073-0.027,0.16-0.041,0.258-0.041c0.147,0,0.278,0.028,0.394,0.086c0.115,0.057,0.212,0.146,0.289,0.27
		c0.077,0.122,0.136,0.281,0.176,0.476c0.04,0.194,0.061,0.431,0.061,0.709c0,0.231-0.011,0.444-0.033,0.639
		s-0.064,0.361-0.126,0.503c-0.063,0.141-0.15,0.251-0.264,0.33c-0.114,0.078-0.26,0.118-0.44,0.118
		c-0.121,0-0.244-0.026-0.369-0.08c-0.125-0.053-0.224-0.16-0.297-0.321h-0.011v1.292h-0.891V12.399z M20.559,11.448h1.155
		l0.979,3.927h-0.957l-0.143-0.748h-0.94l-0.138,0.748h-0.957L20.559,11.448z M39.25,34.898l-0.311,0.311h-2.355
		c-1.101,0-2,0.899-2,2v2.355l-0.311,0.311H12c-0.689,0-1.25-0.561-1.25-1.25v-21h28.5V34.898z"/>
</g>
</svg>
