<?xml version="1.0" encoding="utf-8"?>
<!-- Generator: Adobe Illustrator 16.0.0, SVG Export Plug-In . SVG Version: 6.00 Build 0)  -->
<!DOCTYPE svg PUBLIC "-//W3C//DTD SVG 1.1//EN" "http://www.w3.org/Graphics/SVG/1.1/DTD/svg11.dtd">
<svg version="1.1" id="Layer_1" xmlns="http://www.w3.org/2000/svg" xmlns:xlink="http://www.w3.org/1999/xlink" x="0px" y="0px"
	 width="50px" height="50px" viewBox="0 0 50 50" enable-background="new 0 0 50 50" xml:space="preserve">
<g>
	<path d="M37,10H13c-1.65,0-3,1.351-3,3v24c0,1.65,1.35,3,3,3h24c1.65,0,3-1.35,3-3V13C40,11.351,38.65,10,37,10z M39,24.5h-4v1h4
		V36H11V25.5h4v-1h-4V14h28V24.5z"/>
	<path d="M19.547,17.462c0.443,0,0.728-0.201,0.728-0.673v-1.173c0-0.584-0.329-0.723-0.721-0.723c-0.322,0-0.739,0.139-0.739,0.723
		v1.173C18.814,17.261,19.109,17.462,19.547,17.462z M19.391,15.457c0-0.122,0.062-0.167,0.152-0.167s0.156,0.045,0.156,0.167v1.443
		c0,0.122-0.065,0.167-0.156,0.167s-0.152-0.045-0.152-0.167V15.457z"/>
	<path d="M21.368,17.413h0.537v-0.565h0.191v-0.396h-0.191v-1.51h-0.697l-0.673,1.51v0.396h0.833V17.413z M20.916,16.452
		l0.445-0.996h0.007v0.996H20.916z"/>
	<rect x="22.439" y="16.831" width="0.539" height="0.583"/>
	<path d="M24.092,17.462c0.443,0,0.729-0.201,0.729-0.673v-1.173c0-0.584-0.33-0.723-0.722-0.723c-0.322,0-0.739,0.139-0.739,0.723
		v1.173C23.359,17.261,23.653,17.462,24.092,17.462z M23.936,15.457c0-0.122,0.063-0.167,0.152-0.167
		c0.091,0,0.156,0.045,0.156,0.167v1.443c0,0.122-0.065,0.167-0.156,0.167c-0.09,0-0.152-0.045-0.152-0.167V15.457z"/>
	<path d="M25.912,17.413h0.538v-0.565h0.19v-0.396h-0.19v-1.51h-0.697l-0.674,1.51v0.396h0.833V17.413z M25.461,16.452l0.445-0.996
		h0.006v0.996H25.461z"/>
	<rect x="26.984" y="16.831" width="0.539" height="0.583"/>
	<path d="M28.39,17.413h0.576v-2.471h-0.486c-0.041,0.219-0.302,0.278-0.495,0.278v0.36h0.405V17.413z"/>
	<path d="M30.457,17.413h0.538v-0.565h0.19v-0.396h-0.19v-1.51h-0.697l-0.674,1.51v0.396h0.833V17.413z M30.006,16.452l0.445-0.996
		h0.006v0.996H30.006z"/>
	<path d="M27.591,22.374c0.473,0,1.156,0.199,1.558,0.453l1.377,0.878v-3.082c0-0.405-0.331-0.737-0.736-0.737h-2.538l-0.746-1.597
		h-3.01l-0.746,1.597h-2.538c-0.405,0-0.736,0.332-0.736,0.737v3.082l1.378-0.879c0.401-0.254,1.084-0.453,1.558-0.453H27.591z
		 M23.495,19.102h3.01l0.547,0.785h-4.104L23.495,19.102z"/>
	<path d="M30.763,29.641h-0.237v-5.063l-1.773-1.129c-0.282-0.18-0.825-0.338-1.161-0.338h-2.372
		c0.001,0.008,0.009,0.012,0.009,0.02v0.304c0,0.125-0.103,0.227-0.228,0.227s-0.228-0.102-0.228-0.227V23.13
		c0-0.008,0.009-0.012,0.009-0.02H22.41c-0.336,0-0.879,0.158-1.16,0.338l-1.775,1.131v5.062h-0.237
		c-0.177,0-0.321,0.192-0.321,0.427v2.989c0,0.235,0.145,0.427,0.321,0.427h0.237v0.403c0,0.406,0.331,0.737,0.736,0.737h0.52v0.503
		c0,0.046,0.039,0.084,0.084,0.084h1.099c0.046,0,0.084-0.038,0.084-0.084v-0.503h6.006v0.503c0,0.046,0.038,0.084,0.084,0.084
		h1.099c0.045,0,0.083-0.038,0.083-0.084v-0.503h0.521c0.405,0,0.736-0.331,0.736-0.737v-0.403h0.237
		c0.177,0,0.321-0.192,0.321-0.427v-2.989C31.084,29.833,30.939,29.641,30.763,29.641z M24.772,24.119
		c0-0.126,0.103-0.229,0.228-0.229s0.228,0.102,0.228,0.229v0.684c0,0.125-0.103,0.228-0.228,0.228s-0.228-0.103-0.228-0.228V24.119
		z M24.772,25.487c0-0.126,0.103-0.229,0.228-0.229s0.228,0.103,0.228,0.229v0.684c0,0.126-0.103,0.229-0.228,0.229
		s-0.228-0.102-0.228-0.229V25.487z M24.772,26.855c0-0.125,0.103-0.227,0.228-0.227s0.228,0.102,0.228,0.227v0.685
		c0,0.126-0.103,0.227-0.228,0.227s-0.228-0.101-0.228-0.227V26.855z M25.51,28.579c0,0.282-0.229,0.511-0.51,0.511
		s-0.51-0.229-0.51-0.511v-0.072c0-0.281,0.229-0.51,0.51-0.51s0.51,0.229,0.51,0.51V28.579z"/>
</g>
</svg>
