<?xml version="1.0" encoding="utf-8"?>
<!-- Generator: Adobe Illustrator 16.0.0, SVG Export Plug-In . SVG Version: 6.00 Build 0)  -->
<!DOCTYPE svg PUBLIC "-//W3C//DTD SVG 1.1//EN" "http://www.w3.org/Graphics/SVG/1.1/DTD/svg11.dtd">
<svg version="1.1" id="Layer_1" xmlns="http://www.w3.org/2000/svg" xmlns:xlink="http://www.w3.org/1999/xlink" x="0px" y="0px"
	 width="50px" height="50px" viewBox="0 0 50 50" enable-background="new 0 0 50 50" xml:space="preserve">
<g>
	<path d="M37,10H13c-1.65,0-3,1.351-3,3v24c0,1.65,1.35,3,3,3h24c1.649,0,3-1.35,3-3V13C40,11.351,38.65,10,37,10z M39,24.5h-1v1h1
		V36H11V25.5h1v-1h-1V14h28V24.5z"/>
	<path d="M14.629,27.442c0.844,0,1.385-0.382,1.385-1.28v-2.23c0-1.11-0.625-1.374-1.372-1.374c-0.613,0-1.405,0.264-1.405,1.374
		v2.23C13.237,27.06,13.799,27.442,14.629,27.442z M14.333,23.628c0-0.231,0.119-0.317,0.29-0.317c0.172,0,0.298,0.085,0.298,0.317
		v2.745c0,0.23-0.126,0.316-0.298,0.316c-0.171,0-0.29-0.085-0.29-0.316V23.628z"/>
	<path d="M18.093,27.349h1.023v-1.075h0.364v-0.752h-0.364v-2.871H17.79l-1.281,2.871v0.752h1.583V27.349z M17.235,25.522
		l0.845-1.894h0.013v1.894H17.235z"/>
	<rect x="20.132" y="26.241" width="1.022" height="1.108"/>
	<path d="M23.272,27.442c0.844,0,1.386-0.382,1.386-1.28v-2.23c0-1.11-0.627-1.374-1.373-1.374c-0.613,0-1.405,0.264-1.405,1.374
		v2.23C21.879,27.06,22.44,27.442,23.272,27.442z M22.975,23.628c0-0.231,0.119-0.317,0.291-0.317c0.171,0,0.296,0.085,0.296,0.317
		v2.745c0,0.23-0.125,0.316-0.296,0.316c-0.172,0-0.291-0.085-0.291-0.316V23.628z"/>
	<path d="M26.735,27.349h1.023v-1.075h0.363v-0.752h-0.363v-2.871h-1.326l-1.28,2.871v0.752h1.583V27.349z M25.877,25.522
		l0.846-1.894h0.012v1.894H25.877z"/>
	<rect x="28.774" y="26.241" width="1.022" height="1.108"/>
	<path d="M31.445,27.349h1.096v-4.698h-0.924c-0.079,0.416-0.574,0.528-0.943,0.528v0.686h0.771V27.349z"/>
	<path d="M35.377,27.349H36.4v-1.075h0.363v-0.752H36.4v-2.871h-1.326l-1.28,2.871v0.752h1.583V27.349z M34.52,25.522l0.845-1.894
		h0.013v1.894H34.52z"/>
</g>
</svg>
