<?xml version="1.0" encoding="utf-8"?>
<!-- Generator: Adobe Illustrator 16.0.0, SVG Export Plug-In . SVG Version: 6.00 Build 0)  -->
<!DOCTYPE svg PUBLIC "-//W3C//DTD SVG 1.1//EN" "http://www.w3.org/Graphics/SVG/1.1/DTD/svg11.dtd">
<svg version="1.1" id="Layer_1" xmlns="http://www.w3.org/2000/svg" xmlns:xlink="http://www.w3.org/1999/xlink" x="0px" y="0px"
	 width="50px" height="50px" viewBox="0 0 50 50" enable-background="new 0 0 50 50" xml:space="preserve">
<g>
	<path d="M18.54,34.291h3.36v-14.16h-2.36c-0.04,0.227-0.116,0.47-0.229,0.73c-0.113,0.26-0.291,0.5-0.53,0.72
		c-0.24,0.22-0.563,0.403-0.97,0.55c-0.407,0.147-0.931,0.22-1.57,0.22h-0.42v2.12h2.72V34.291z"/>
	<path d="M26.4,33.321c0.346,0.394,0.826,0.7,1.439,0.92s1.4,0.33,2.36,0.33s1.747-0.117,2.36-0.351
		c0.613-0.232,1.093-0.553,1.439-0.96c0.347-0.406,0.583-0.876,0.71-1.41c0.126-0.532,0.19-1.1,0.19-1.699
		c0-0.96-0.211-1.727-0.631-2.301c-0.42-0.572-1.01-0.92-1.77-1.04v-0.039c0.653-0.147,1.15-0.48,1.49-1
		c0.34-0.521,0.51-1.181,0.51-1.98c0-0.56-0.076-1.063-0.23-1.51c-0.152-0.447-0.399-0.83-0.74-1.15
		c-0.34-0.32-0.783-0.566-1.329-0.74c-0.547-0.173-1.214-0.26-2-0.26c-0.787,0-1.454,0.09-2,0.271c-0.547,0.18-0.99,0.433-1.33,0.76
		c-0.341,0.327-0.587,0.713-0.74,1.16c-0.153,0.446-0.229,0.937-0.229,1.47c0,0.84,0.173,1.507,0.52,2s0.82,0.82,1.42,0.98v0.039
		c-0.427,0.067-0.787,0.204-1.08,0.41c-0.293,0.207-0.533,0.46-0.72,0.761c-0.187,0.3-0.323,0.637-0.41,1.01s-0.13,0.76-0.13,1.16
		c0,0.64,0.063,1.229,0.189,1.77S26.053,32.928,26.4,33.321z M29.27,22.771c0.167-0.347,0.477-0.521,0.931-0.521
		c0.453,0,0.763,0.174,0.93,0.521s0.25,0.767,0.25,1.26c0,0.693-0.101,1.17-0.3,1.43c-0.2,0.26-0.494,0.39-0.88,0.39
		c-0.388,0-0.681-0.13-0.88-0.39c-0.2-0.26-0.301-0.736-0.301-1.43C29.02,23.538,29.104,23.118,29.27,22.771z M28.92,29.311
		c0.04-0.266,0.109-0.5,0.21-0.699c0.101-0.2,0.237-0.356,0.41-0.471c0.173-0.112,0.394-0.17,0.66-0.17s0.486,0.058,0.659,0.17
		c0.174,0.114,0.311,0.271,0.41,0.471c0.101,0.199,0.17,0.434,0.211,0.699c0.039,0.268,0.06,0.561,0.06,0.881
		c0,0.319-0.021,0.616-0.06,0.89c-0.041,0.273-0.11,0.51-0.211,0.71c-0.1,0.2-0.236,0.36-0.41,0.48
		c-0.173,0.119-0.393,0.18-0.659,0.18s-0.487-0.061-0.66-0.18c-0.173-0.12-0.31-0.28-0.41-0.48s-0.17-0.437-0.21-0.71
		s-0.061-0.57-0.061-0.89C28.859,29.871,28.88,29.578,28.92,29.311z"/>
	<path d="M38,9.875h-1.123c0.029-0.093,0.058-0.186,0.058-0.289c0-0.53-0.431-0.961-0.962-0.961s-0.961,0.431-0.961,0.961
		c0,0.104,0.028,0.196,0.059,0.289h-3.68c0.029-0.093,0.058-0.186,0.058-0.289c0-0.53-0.431-0.961-0.962-0.961
		c-0.53,0-0.961,0.431-0.961,0.961c0,0.104,0.029,0.196,0.059,0.289h-3.681c0.029-0.093,0.058-0.186,0.058-0.289
		c0-0.53-0.43-0.961-0.961-0.961s-0.961,0.431-0.961,0.961c0,0.104,0.028,0.196,0.058,0.289h-3.681
		c0.029-0.093,0.059-0.186,0.059-0.289c0-0.53-0.431-0.961-0.961-0.961c-0.531,0-0.962,0.431-0.962,0.961
		c0,0.104,0.028,0.196,0.058,0.289h-3.68c0.03-0.093,0.059-0.186,0.059-0.289c0-0.53-0.43-0.961-0.961-0.961
		s-0.962,0.431-0.962,0.961c0,0.104,0.028,0.196,0.058,0.289H12c-1.518,0-2.75,1.233-2.75,2.75v26c0,1.517,1.232,2.75,2.75,2.75
		h22.895l5.855-5.855V12.625C40.75,11.108,39.517,9.875,38,9.875z M39.25,34.898l-0.311,0.311h-2.355c-1.101,0-2,0.899-2,2v2.355
		l-0.311,0.311H12c-0.689,0-1.25-0.561-1.25-1.25v-21h28.5V34.898z M39.25,15.833c0,0.55-0.45,1-1,1h-26.5c-0.55,0-1-0.45-1-1v-4
		c0-0.55,0.45-1,1-1h26.5c0.55,0,1,0.45,1,1V15.833z"/>
	<path d="M18.013,11.448l-1.001,3.927h0.957l0.137-0.748h0.941l0.143,0.748h0.957l-0.979-3.927H18.013z M18.238,13.912l0.324-1.749
		h0.012l0.335,1.749H18.238z"/>
	<path d="M21.873,14.347c0,0.146-0.031,0.254-0.096,0.321c-0.064,0.068-0.139,0.102-0.223,0.102c-0.085,0-0.148-0.029-0.193-0.09
		c-0.043-0.061-0.065-0.145-0.065-0.251v-2.029h-0.892v2.228c0,0.286,0.066,0.495,0.198,0.627s0.325,0.198,0.577,0.198
		c0.166,0,0.311-0.039,0.436-0.115c0.124-0.077,0.218-0.182,0.279-0.313h0.012v0.352h0.857v-2.976h-0.891V14.347z"/>
	<path d="M24.794,12.801h-0.011c-0.052-0.136-0.132-0.249-0.24-0.341c-0.107-0.092-0.263-0.138-0.465-0.138
		c-0.193,0-0.348,0.047-0.461,0.141c-0.114,0.094-0.201,0.213-0.262,0.357s-0.1,0.308-0.118,0.489s-0.027,0.36-0.027,0.536
		c0,0.206,0.014,0.397,0.041,0.575s0.073,0.332,0.138,0.462s0.148,0.232,0.256,0.308c0.105,0.075,0.24,0.113,0.401,0.113
		c0.153,0,0.294-0.03,0.421-0.091c0.126-0.061,0.221-0.177,0.283-0.35h0.011v0.182c0,0.144-0.005,0.263-0.014,0.357
		c-0.009,0.096-0.028,0.174-0.056,0.234c-0.027,0.06-0.063,0.104-0.109,0.129s-0.105,0.038-0.179,0.038
		c-0.085,0-0.157-0.02-0.22-0.061c-0.048-0.04-0.079-0.101-0.094-0.182h-0.825c0,0.11,0.018,0.216,0.052,0.316
		c0.035,0.102,0.096,0.189,0.182,0.265s0.201,0.135,0.344,0.179c0.144,0.044,0.323,0.065,0.539,0.065
		c0.234,0,0.432-0.026,0.589-0.079c0.157-0.054,0.285-0.129,0.382-0.226c0.098-0.098,0.166-0.215,0.207-0.353
		c0.04-0.138,0.061-0.29,0.061-0.459v-2.871h-0.825V12.801z M24.742,14.223c-0.014,0.108-0.033,0.194-0.059,0.259
		s-0.061,0.109-0.104,0.135s-0.095,0.038-0.153,0.038c-0.063,0-0.114-0.014-0.154-0.041c-0.041-0.027-0.074-0.072-0.1-0.135
		s-0.043-0.146-0.055-0.253c-0.011-0.106-0.017-0.236-0.017-0.391c0-0.121,0.004-0.232,0.011-0.336
		c0.008-0.103,0.023-0.19,0.047-0.264s0.059-0.13,0.102-0.17c0.045-0.041,0.104-0.061,0.176-0.061c0.129,0,0.215,0.064,0.26,0.195
		c0.043,0.13,0.065,0.332,0.065,0.607C24.761,13.977,24.754,14.114,24.742,14.223z"/>
	<path d="M27.582,14.347c0,0.146-0.031,0.254-0.096,0.321c-0.064,0.068-0.139,0.102-0.223,0.102c-0.085,0-0.148-0.029-0.193-0.09
		c-0.043-0.061-0.065-0.145-0.065-0.251v-2.029h-0.892v2.228c0,0.286,0.066,0.495,0.198,0.627s0.325,0.198,0.577,0.198
		c0.166,0,0.311-0.039,0.436-0.115c0.124-0.077,0.218-0.182,0.279-0.313h0.012v0.352h0.857v-2.976h-0.891V14.347z"/>
	<path d="M30.762,13.736c-0.107-0.07-0.222-0.123-0.344-0.16c-0.123-0.036-0.238-0.072-0.344-0.106
		c-0.107-0.035-0.195-0.075-0.265-0.121s-0.104-0.113-0.104-0.201c0-0.081,0.021-0.146,0.063-0.198
		c0.042-0.051,0.122-0.077,0.239-0.077c0.096,0,0.168,0.023,0.217,0.069c0.05,0.046,0.074,0.133,0.074,0.261v0.056h0.793v-0.1
		c0-0.106-0.018-0.21-0.053-0.311s-0.094-0.189-0.176-0.267c-0.083-0.077-0.193-0.14-0.33-0.188
		c-0.138-0.047-0.311-0.071-0.52-0.071c-0.363,0-0.643,0.075-0.84,0.226c-0.195,0.15-0.293,0.374-0.293,0.671
		c0,0.158,0.021,0.288,0.065,0.391s0.11,0.189,0.2,0.262c0.09,0.071,0.203,0.135,0.339,0.189s0.295,0.113,0.479,0.176
		c0.14,0.048,0.231,0.103,0.274,0.165c0.045,0.063,0.066,0.129,0.066,0.198c0,0.084-0.027,0.156-0.08,0.215
		s-0.133,0.088-0.238,0.088c-0.074,0-0.132-0.013-0.174-0.039c-0.043-0.025-0.076-0.059-0.102-0.099
		c-0.022-0.044-0.037-0.095-0.045-0.151c-0.007-0.057-0.012-0.118-0.016-0.185h-0.792v0.132c0,0.298,0.089,0.521,0.267,0.669
		s0.467,0.223,0.866,0.223c0.374,0,0.657-0.087,0.85-0.262c0.192-0.174,0.289-0.411,0.289-0.712c0-0.19-0.035-0.345-0.104-0.462
		C30.955,13.899,30.867,13.806,30.762,13.736z"/>
	<path d="M32.521,11.525H31.63v0.874h-0.368v0.616h0.368v1.59c0,0.172,0.013,0.312,0.036,0.418c0.023,0.105,0.066,0.188,0.127,0.244
		s0.142,0.095,0.244,0.113c0.103,0.018,0.23,0.027,0.385,0.027c0.169,0,0.34-0.011,0.512-0.033v-0.594
		c-0.019,0.004-0.039,0.006-0.063,0.008c-0.023,0.002-0.045,0.003-0.063,0.003c-0.105,0-0.18-0.02-0.223-0.058
		c-0.042-0.039-0.063-0.111-0.063-0.218v-1.501h0.412v-0.616h-0.412V11.525z"/>
</g>
</svg>
