<?xml version="1.0" encoding="utf-8"?>
<!-- Generator: Adobe Illustrator 16.0.0, SVG Export Plug-In . SVG Version: 6.00 Build 0)  -->
<!DOCTYPE svg PUBLIC "-//W3C//DTD SVG 1.1//EN" "http://www.w3.org/Graphics/SVG/1.1/DTD/svg11.dtd">
<svg version="1.1" id="Layer_1" xmlns="http://www.w3.org/2000/svg" xmlns:xlink="http://www.w3.org/1999/xlink" x="0px" y="0px"
	 width="50px" height="50px" viewBox="0 0 50 50" enable-background="new 0 0 50 50" xml:space="preserve">
<g>
	<path d="M37,10.724h-1.098V9.526c0-1.516-1.197-2.75-2.67-2.75s-2.67,1.234-2.67,2.75v1.197h-2.74V9.526
		c0-1.516-1.197-2.75-2.67-2.75s-2.67,1.234-2.67,2.75v1.197h-2.74V9.526c0-1.516-1.197-2.75-2.67-2.75s-2.67,1.234-2.67,2.75v1.197
		H13c-2.343,0-4.25,1.907-4.25,4.25v24c0,2.343,1.907,4.25,4.25,4.25h24c2.344,0,4.25-1.907,4.25-4.25v-24
		C41.25,12.63,39.344,10.724,37,10.724z M32.063,9.526c0-0.689,0.525-1.25,1.17-1.25s1.17,0.561,1.17,1.25v4.895
		c0,0.689-0.525,1.25-1.17,1.25s-1.17-0.561-1.17-1.25V9.526z M23.982,9.526c0-0.689,0.525-1.25,1.17-1.25s1.17,0.561,1.17,1.25
		v4.895c0,0.689-0.525,1.25-1.17,1.25s-1.17-0.561-1.17-1.25V9.526z M15.902,9.526c0-0.689,0.525-1.25,1.17-1.25
		s1.17,0.561,1.17,1.25v4.895c0,0.689-0.525,1.25-1.17,1.25s-1.17-0.561-1.17-1.25V9.526z M38.75,38.974
		c0,0.965-0.785,1.75-1.75,1.75H13c-0.965,0-1.75-0.785-1.75-1.75v-22h27.5V38.974z"/>
	<path d="M27.318,33.375c0.061-0.414,0.401-1.423,0.597-2.087c-0.069,0.001-0.14-0.004-0.208-0.023
		c-0.146-0.039-0.274-0.12-0.37-0.23c-0.147,0.023-0.296,0.002-0.431-0.061c-0.137-0.064-0.248-0.166-0.323-0.291
		c-0.148-0.003-0.291-0.049-0.413-0.135c-0.051-0.036-0.093-0.081-0.133-0.126c0.049,0.775,0.082,1.472,0.093,1.684
		c0.027,0.527-0.288,1.753-0.179,2.263c0.109,0.51,0.911,1.924,0.938,2.163c0.027,0.239-0.224,0.342-0.352,0.475
		s-0.087,0.337,0.016,0.456s0.385,0.228,0.489,0.456c0.103,0.228-0.054,1.108-0.065,1.334c-0.011,0.227,0.288,0.164,0.391,0
		c0.104-0.162,0.559-0.922,0.586-1.383c0.027-0.461-0.182-1.08-0.228-1.352C27.679,36.246,27.253,33.815,27.318,33.375z"/>
	<path d="M16.539,24.176c0.38,0.13,0.643,0.212,1.042,0.341c0.286,0.092,4.24,1.569,6.538,2.509
		c-0.003-0.018-0.012-0.034-0.013-0.052c-0.013-0.152,0.02-0.3,0.09-0.427c-0.07-0.127-0.103-0.274-0.09-0.424
		c0.014-0.152,0.072-0.292,0.164-0.405c-0.041-0.118-0.044-0.245-0.022-0.371c-0.338-0.097-0.674-0.193-0.966-0.276
		c-1.08-0.307-5.104-1.1-5.471-1.172c-0.366-0.073-0.593-0.223-0.733-0.301c-0.139-0.079-1.112-1.18-1.546-1.213
		c-0.435-0.033-0.629,0.358-0.456,0.57C15.248,23.167,16.159,24.046,16.539,24.176z"/>
	<path d="M22.4,20.529c0.245-0.065,0.807-0.333,0.978-0.228c0.17,0.105,4.559,3.655,4.722,3.907
		c0.163,0.252,0.282,1.249,0.146,1.465c-0.033,0.053-0.09,0.083-0.161,0.099c-0.885-0.772-2.13-1.855-2.253-1.941
		c-0.191-0.134-0.457-0.087-0.591,0.104c-0.096,0.138-0.096,0.311-0.02,0.447c-0.157,0.004-0.307,0.09-0.376,0.241
		c-0.071,0.151-0.041,0.322,0.058,0.444c-0.154,0.03-0.286,0.142-0.329,0.302c-0.043,0.162,0.016,0.323,0.133,0.427
		c-0.146,0.057-0.257,0.189-0.271,0.355c-0.014,0.166,0.072,0.315,0.206,0.397c-0.134,0.081-0.22,0.231-0.206,0.396
		c0.015,0.167,0.126,0.298,0.271,0.355c-0.118,0.104-0.176,0.266-0.134,0.426c0.043,0.162,0.175,0.273,0.33,0.303
		c-0.099,0.122-0.128,0.293-0.058,0.442c0.071,0.152,0.22,0.239,0.376,0.243c-0.076,0.137-0.075,0.31,0.02,0.446
		c0.096,0.136,0.257,0.196,0.412,0.172c-0.049,0.148-0.019,0.317,0.099,0.436c0.117,0.118,0.288,0.147,0.436,0.098
		c-0.023,0.154,0.036,0.316,0.172,0.412c0.137,0.096,0.309,0.096,0.446,0.021c0.004,0.155,0.091,0.305,0.242,0.375
		c0.151,0.071,0.321,0.04,0.443-0.057c0.03,0.153,0.141,0.285,0.303,0.328c0.161,0.043,0.323-0.016,0.425-0.134
		c0.057,0.147,0.189,0.257,0.356,0.271c0.166,0.015,0.315-0.072,0.396-0.205c0.082,0.134,0.23,0.22,0.397,0.205
		c0.166-0.015,0.298-0.125,0.354-0.271c0.104,0.118,0.266,0.176,0.428,0.134c0.161-0.044,0.271-0.176,0.302-0.328
		c0.122,0.097,0.292,0.126,0.445,0.057c0.149-0.071,0.236-0.22,0.24-0.377c0.137,0.076,0.31,0.076,0.446-0.021
		c0.191-0.134,0.238-0.398,0.104-0.591c-0.089-0.127-1.251-1.461-2.027-2.349c0.875-0.708,1.793-1.424,1.874-1.63
		c0.157-0.402-0.075-1.01-0.098-1.319s1.995-4.871,2.1-5.128c0.106-0.258,0.814,0.041,1.14-0.114
		c0.325-0.155,0.407-0.733,0.195-0.83c-0.212-0.098-1.555,0.341-1.84,0.667s-2,3.921-2.263,4.429
		c0.017-0.122-0.333-0.513-0.226-0.714c0.107-0.202,0.633-0.531,0.666-0.661c0.032-0.13-0.358-0.439-0.31-0.529
		c0.048-0.089,0.138-0.171,0.081-0.244c-0.057-0.073-0.456-0.065-0.57-0.147c-0.114-0.081-0.369-0.291-0.538-0.423
		c-0.168-0.132-1.009-0.016-1.335,0.261s-0.435,0.698-0.472,0.814c-0.038,0.115-0.188,0.122-0.212,0.26
		c-0.024,0.138,0.35,0.586,0.473,0.635c0.122,0.048,0.677,0.379,0.806,0.456c0.129,0.076-0.008,0.171-0.106,0.114
		c-0.098-0.057-4.926-3.157-5.259-3.37s-2.141-0.122-2.377,0C21.155,19.983,22.157,20.594,22.4,20.529z"/>
</g>
</svg>
