<?xml version="1.0" encoding="utf-8"?>
<!-- Generator: Adobe Illustrator 16.0.0, SVG Export Plug-In . SVG Version: 6.00 Build 0)  -->
<!DOCTYPE svg PUBLIC "-//W3C//DTD SVG 1.1//EN" "http://www.w3.org/Graphics/SVG/1.1/DTD/svg11.dtd">
<svg version="1.1" id="Layer_1" xmlns="http://www.w3.org/2000/svg" xmlns:xlink="http://www.w3.org/1999/xlink" x="0px" y="0px"
	 width="50px" height="50px" viewBox="0 0 50 50" enable-background="new 0 0 50 50" xml:space="preserve">
<g>
	<path d="M38.25,10.25h-1.123c0.029-0.093,0.058-0.186,0.058-0.289C37.185,9.431,36.754,9,36.223,9s-0.961,0.431-0.961,0.961
		c0,0.103,0.028,0.196,0.059,0.289h-3.68c0.029-0.093,0.058-0.186,0.058-0.289C31.698,9.431,31.268,9,30.736,9
		c-0.53,0-0.961,0.431-0.961,0.961c0,0.103,0.029,0.196,0.059,0.289h-3.681c0.029-0.093,0.058-0.186,0.058-0.289
		C26.211,9.431,25.781,9,25.25,9s-0.961,0.431-0.961,0.961c0,0.103,0.028,0.196,0.058,0.289h-3.681
		c0.029-0.093,0.059-0.186,0.059-0.289C20.725,9.431,20.294,9,19.764,9c-0.531,0-0.962,0.431-0.962,0.961
		c0,0.103,0.028,0.196,0.058,0.289h-3.68c0.03-0.093,0.059-0.186,0.059-0.289c0-0.531-0.43-0.961-0.961-0.961
		s-0.962,0.431-0.962,0.961c0,0.103,0.028,0.196,0.058,0.289H12.25c-1.518,0-2.75,1.233-2.75,2.75v26c0,1.517,1.232,2.75,2.75,2.75
		h22.895L41,35.895V13C41,11.484,39.767,10.25,38.25,10.25z M39.5,35.273l-0.311,0.311h-2.355c-1.101,0-2,0.9-2,2v2.356l-0.311,0.31
		H12.25C11.561,40.25,11,39.69,11,39V14h28.5V35.273z"/>
	<path d="M15.259,20.78h1.346v-0.999h0.598v-1.053h-0.598v-2.739h-1.318l-2.236,2.657v1.135h2.208V20.78z M14.117,18.728
		l1.142-1.461v1.461H14.117z"/>
	<path d="M16.461,24.203c0,0,1.738,3.053,5.269,6.584c0.238,0.237,0.473,0.465,0.705,0.686c-0.064,0.05-0.131,0.096-0.191,0.155
		c-0.725,0.726-0.725,1.902,0,2.628c0.728,0.726,1.903,0.726,2.629,0c0.123-0.123,0.217-0.263,0.298-0.407
		c1.854,1.466,3.13,2.193,3.13,2.193c-0.658-3.285,2.581-7.374,3.991-9.248c2.157-2.867,1.093-5.376-0.05-6.519
		c-1.144-1.144-3.65-2.205-6.519-0.051C23.847,21.633,19.761,24.874,16.461,24.203z M24.739,22.553
		c1.856-1.858,4.046-2.679,4.636-2.088c0.591,0.591-1.997,1.014-3.854,2.871c-1.857,1.857-4.69,2.056-6.034,1.591
		C20.836,24.865,22.881,24.411,24.739,22.553z"/>
</g>
</svg>
