<?xml version="1.0" encoding="utf-8"?>
<!-- Generator: Adobe Illustrator 16.0.0, SVG Export Plug-In . SVG Version: 6.00 Build 0)  -->
<!DOCTYPE svg PUBLIC "-//W3C//DTD SVG 1.1//EN" "http://www.w3.org/Graphics/SVG/1.1/DTD/svg11.dtd">
<svg version="1.1" id="Layer_1" xmlns="http://www.w3.org/2000/svg" xmlns:xlink="http://www.w3.org/1999/xlink" x="0px" y="0px"
	 width="50px" height="50px" viewBox="0 0 50 50" enable-background="new 0 0 50 50" xml:space="preserve">
<g>
	<path d="M37,10.724h-1.098V9.526c0-1.516-1.197-2.75-2.67-2.75s-2.67,1.234-2.67,2.75v1.197h-2.74V9.526
		c0-1.516-1.197-2.75-2.67-2.75s-2.67,1.234-2.67,2.75v1.197h-2.74V9.526c0-1.516-1.197-2.75-2.67-2.75s-2.67,1.234-2.67,2.75v1.197
		H13c-2.343,0-4.25,1.907-4.25,4.25v24c0,2.343,1.907,4.25,4.25,4.25h24c2.344,0,4.25-1.907,4.25-4.25v-24
		C41.25,12.63,39.344,10.724,37,10.724z M32.063,9.526c0-0.689,0.525-1.25,1.17-1.25s1.17,0.561,1.17,1.25v4.895
		c0,0.689-0.525,1.25-1.17,1.25s-1.17-0.561-1.17-1.25V9.526z M23.982,9.526c0-0.689,0.525-1.25,1.17-1.25s1.17,0.561,1.17,1.25
		v4.895c0,0.689-0.525,1.25-1.17,1.25s-1.17-0.561-1.17-1.25V9.526z M15.902,9.526c0-0.689,0.525-1.25,1.17-1.25
		s1.17,0.561,1.17,1.25v4.895c0,0.689-0.525,1.25-1.17,1.25s-1.17-0.561-1.17-1.25V9.526z M38.75,38.974
		c0,0.965-0.785,1.75-1.75,1.75H13c-0.965,0-1.75-0.785-1.75-1.75v-22h27.5V38.974z"/>
	<path d="M31.263,33.491l-5.701,3.291v-4.247l-0.182,0.091c-0.125,0.047-0.254,0.071-0.38,0.071c-0.123,0-0.248-0.023-0.375-0.069
		l-0.03-0.004l-0.099-0.046l-0.059-0.029v4.234l-5.7-3.291v-3.813l-1.123-0.566v4.703c0,0.201,0.107,0.386,0.281,0.486l6.823,3.94
		c0.087,0.05,0.185,0.075,0.281,0.075s0.194-0.025,0.281-0.075l6.823-3.94c0.174-0.1,0.281-0.286,0.281-0.486v-4.704l-1.123,0.563
		V33.491z"/>
	<path d="M25.406,22.231l-0.23-0.075c-0.114-0.038-0.237-0.038-0.352,0l-0.23,0.075c0.15,0.345,0.287,0.691,0.406,1.02
		C25.119,22.922,25.256,22.576,25.406,22.231z"/>
	<path d="M17.137,28.243l7.61,3.832c0.008,0.004,0.017,0.002,0.025,0.006c0.072,0.033,0.148,0.054,0.228,0.054
		s0.155-0.021,0.228-0.054c0.009-0.003,0.018-0.001,0.025-0.006l7.61-3.832c0.188-0.096,0.309-0.289,0.309-0.502v-2.552
		c0-0.004-0.002-0.009-0.002-0.014c0-0.004,0.001-0.007,0.001-0.011c0-0.012-0.005-0.022-0.007-0.034
		c-0.003-0.038-0.01-0.075-0.021-0.11c-0.006-0.018-0.013-0.034-0.02-0.051c-0.014-0.032-0.029-0.061-0.049-0.089
		c-0.011-0.016-0.021-0.03-0.032-0.045c-0.022-0.027-0.048-0.051-0.075-0.074c-0.014-0.011-0.024-0.023-0.039-0.032
		c-0.003-0.002-0.005-0.005-0.009-0.008c-0.04-0.027-0.084-0.047-0.129-0.063c-0.001,0-0.003-0.001-0.004-0.001l-1.412-0.464
		c-0.066,0.072-0.131,0.141-0.193,0.203c-0.646,0.646-1.734,1.184-2.745,1.583l1.203,0.488v2.771l-1.667,0.84v-2.895l-1.909-1.009
		c0.492-0.132,3.532-0.987,4.721-2.177c0.348-0.346,0.805-0.883,0.775-1.545c-0.029-0.661-0.491-1.047-0.861-1.358
		c-0.105-0.088-0.219-0.182-0.327-0.29c-0.106-0.107-0.201-0.221-0.29-0.327c-0.305-0.364-0.722-0.863-1.418-0.863
		c-0.636,0-1.152,0.442-1.485,0.775c-1.19,1.191-2.045,4.236-2.177,4.725c-0.131-0.486-0.986-3.533-2.178-4.724
		c-0.333-0.333-0.849-0.776-1.484-0.776c-0.696,0-1.113,0.499-1.419,0.863c-0.089,0.106-0.182,0.219-0.289,0.327
		c-0.108,0.108-0.222,0.201-0.327,0.29c-0.371,0.311-0.832,0.697-0.861,1.358c-0.03,0.662,0.428,1.199,0.774,1.545
		c1.188,1.19,4.231,2.044,4.723,2.177l-1.91,1.009v2.895l-1.667-0.84v-2.771l1.204-0.489c-1.012-0.4-2.103-0.938-2.747-1.583
		c-0.062-0.062-0.126-0.131-0.192-0.203l-1.412,0.464c-0.001,0-0.002,0.001-0.003,0.001c-0.045,0.016-0.089,0.036-0.13,0.063
		c-0.004,0.002-0.006,0.006-0.009,0.008c-0.015,0.009-0.025,0.021-0.039,0.032c-0.027,0.023-0.053,0.047-0.075,0.074
		c-0.012,0.015-0.022,0.029-0.032,0.045c-0.02,0.028-0.035,0.058-0.049,0.089c-0.007,0.017-0.014,0.034-0.02,0.051
		c-0.012,0.035-0.019,0.072-0.021,0.11c-0.002,0.012-0.007,0.022-0.007,0.034c0,0.004,0.001,0.007,0.001,0.011
		c0,0.004-0.002,0.009-0.002,0.014v2.552C16.828,27.954,16.948,28.147,17.137,28.243z M27.772,20.986
		c1.097-1.096,1.334-0.253,2.003,0.415c0.666,0.667,1.509,0.905,0.412,2.002c-1.096,1.097-4.384,1.969-4.384,1.969
		S26.676,22.083,27.772,20.986z M19.812,23.402c-1.097-1.097-0.254-1.334,0.413-2.002c0.668-0.667,0.906-1.51,2.002-0.414
		c1.098,1.097,1.97,4.385,1.97,4.385S20.908,24.499,19.812,23.402z"/>
</g>
</svg>
