<?xml version="1.0" encoding="utf-8"?>
<!-- Generator: Adobe Illustrator 16.0.0, SVG Export Plug-In . SVG Version: 6.00 Build 0)  -->
<!DOCTYPE svg PUBLIC "-//W3C//DTD SVG 1.1//EN" "http://www.w3.org/Graphics/SVG/1.1/DTD/svg11.dtd">
<svg version="1.1" id="Layer_1" xmlns="http://www.w3.org/2000/svg" xmlns:xlink="http://www.w3.org/1999/xlink" x="0px" y="0px"
	 width="50px" height="50px" viewBox="0 0 50 50" enable-background="new 0 0 50 50" xml:space="preserve">
<g>
	<path d="M38,9.25h-1.123c0.029-0.093,0.058-0.186,0.058-0.289C36.935,8.431,36.504,8,35.973,8s-0.961,0.431-0.961,0.961
		c0,0.103,0.028,0.196,0.059,0.289h-3.68c0.029-0.093,0.058-0.186,0.058-0.289C31.448,8.431,31.018,8,30.486,8
		c-0.53,0-0.961,0.431-0.961,0.961c0,0.103,0.029,0.196,0.059,0.289h-3.681c0.029-0.093,0.058-0.186,0.058-0.289
		C25.961,8.431,25.531,8,25,8s-0.961,0.431-0.961,0.961c0,0.103,0.028,0.196,0.058,0.289h-3.681
		c0.029-0.093,0.059-0.186,0.059-0.289C20.475,8.431,20.044,8,19.514,8c-0.531,0-0.962,0.431-0.962,0.961
		c0,0.103,0.028,0.196,0.058,0.289h-3.68c0.03-0.093,0.059-0.186,0.059-0.289c0-0.531-0.43-0.961-0.961-0.961
		s-0.962,0.431-0.962,0.961c0,0.103,0.028,0.196,0.058,0.289H12c-1.518,0-2.75,1.233-2.75,2.75v26c0,1.517,1.232,2.75,2.75,2.75
		h22.895l5.855-5.856V12C40.75,10.483,39.517,9.25,38,9.25z M39.25,34.273l-0.311,0.311h-2.355c-1.101,0-2,0.9-2,2v2.356
		l-0.311,0.31H12c-0.689,0-1.25-0.561-1.25-1.25V13h28.5V34.273z"/>
	<path d="M20.426,28.467l4.455,8.043c0.002,0.005,0.01,0.003,0.013,0.008c0.009,0.013,0.017,0.022,0.029,0.031
		c0.006,0.005,0.006,0.011,0.011,0.015c0.02,0.01,0.039,0.015,0.061,0.015c0.002,0.001,0.004,0.003,0.006,0.003
		s0.004-0.002,0.006-0.003c0.021,0,0.041-0.005,0.061-0.015c0.005-0.004,0.005-0.01,0.011-0.015
		c0.012-0.009,0.021-0.019,0.029-0.031c0.005-0.004,0.011-0.003,0.013-0.008l4.455-8.043c1.879-0.017,3.4-2.653,3.4-4.946
		c0-2.3-1.529-4.163-3.419-4.163c-0.021,0-0.041,0.007-0.063,0.007c0.029,0.244,0.063,0.486,0.063,0.739
		c0,0.624-0.1,1.262-0.271,1.881l0.07-0.01l0.337-0.683l0.337,0.683l0.755,0.109l-0.547,0.531l0.13,0.751l-0.675-0.354l-0.675,0.354
		l0.13-0.751l-0.045-0.043c-0.216,0.592-0.506,1.148-0.852,1.644l0.182,0.37l0.755,0.109l-0.547,0.532l0.129,0.75l-0.674-0.354
		l-0.674,0.354l0.129-0.75l-0.103-0.101c-0.268,0.247-0.547,0.47-0.853,0.637c0.545,1.383,1.53,2.514,2.684,2.675l-4.143,7.479
		V25.03c1.823-0.127,3.28-2.683,3.28-4.926c0-2.301-1.529-4.164-3.417-4.164c-1.887,0-3.417,1.863-3.417,4.164
		c0,2.243,1.458,4.799,3.28,4.926v10.887l-4.143-7.479c1.154-0.162,2.139-1.292,2.684-2.675c-0.306-0.167-0.585-0.39-0.853-0.637
		l-0.103,0.101l0.129,0.75l-0.675-0.354l-0.673,0.354l0.129-0.75l-0.547-0.532l0.755-0.109l0.182-0.37
		c-0.346-0.496-0.636-1.052-0.852-1.644l-0.045,0.043l0.13,0.751l-0.675-0.354l-0.675,0.354l0.13-0.751l-0.547-0.531l0.755-0.109
		l0.337-0.683l0.337,0.683l0.07,0.01c-0.171-0.62-0.271-1.257-0.271-1.881c0-0.253,0.034-0.496,0.063-0.739
		c-0.022,0-0.042-0.007-0.063-0.007c-1.888,0-3.419,1.863-3.419,4.163C17.025,25.813,18.548,28.45,20.426,28.467z M30.952,24.585
		l0.336-0.683l0.338,0.683l0.754,0.109l-0.546,0.532l0.129,0.75l-0.675-0.354l-0.674,0.354l0.129-0.75l-0.545-0.532L30.952,24.585z
		 M26.596,20.253l0.338,0.683l0.754,0.109l-0.545,0.532l0.128,0.751l-0.675-0.354l-0.673,0.354l0.129-0.751l-0.547-0.532
		l0.753-0.109L26.596,20.253z M24.077,22.328l-0.673-0.354l-0.675,0.354l0.128-0.751l-0.545-0.532l0.754-0.109l0.338-0.683
		l0.335,0.683l0.756,0.109l-0.547,0.532L24.077,22.328z M24.325,19.717l0.13-0.751l-0.547-0.532l0.754-0.109L25,17.643l0.338,0.683
		l0.754,0.109l-0.547,0.532l0.129,0.751L25,19.363L24.325,19.717z M17.62,24.694l0.754-0.109l0.338-0.683l0.337,0.683l0.753,0.109
		l-0.545,0.532l0.129,0.75l-0.674-0.354l-0.675,0.354l0.129-0.75L17.62,24.694z"/>
</g>
</svg>
