<?xml version="1.0" encoding="utf-8"?>
<!-- Generator: Adobe Illustrator 16.0.0, SVG Export Plug-In . SVG Version: 6.00 Build 0)  -->
<!DOCTYPE svg PUBLIC "-//W3C//DTD SVG 1.1//EN" "http://www.w3.org/Graphics/SVG/1.1/DTD/svg11.dtd">
<svg version="1.1" id="Layer_1" xmlns="http://www.w3.org/2000/svg" xmlns:xlink="http://www.w3.org/1999/xlink" x="0px" y="0px"
	 width="50px" height="50px" viewBox="0 0 50 50" enable-background="new 0 0 50 50" xml:space="preserve">
<path d="M38,9.25h-1.123c0.029-0.093,0.058-0.186,0.058-0.289C36.935,8.431,36.504,8,35.973,8s-0.961,0.431-0.961,0.961
	c0,0.103,0.028,0.196,0.059,0.289h-3.68c0.029-0.093,0.058-0.186,0.058-0.289C31.448,8.431,31.018,8,30.486,8
	c-0.53,0-0.961,0.431-0.961,0.961c0,0.103,0.029,0.196,0.059,0.289h-3.681c0.029-0.093,0.058-0.186,0.058-0.289
	C25.961,8.431,25.531,8,25,8s-0.961,0.431-0.961,0.961c0,0.103,0.028,0.196,0.058,0.289h-3.681c0.029-0.093,0.059-0.186,0.059-0.289
	C20.475,8.431,20.044,8,19.514,8c-0.531,0-0.962,0.431-0.962,0.961c0,0.103,0.028,0.196,0.058,0.289h-3.68
	c0.03-0.093,0.059-0.186,0.059-0.289c0-0.531-0.43-0.961-0.961-0.961s-0.962,0.431-0.962,0.961c0,0.103,0.028,0.196,0.058,0.289H12
	c-1.518,0-2.75,1.233-2.75,2.75v26c0,1.517,1.232,2.75,2.75,2.75h22.895l5.855-5.856V12C40.75,10.483,39.517,9.25,38,9.25z
	 M12,39.25c-0.689,0-1.25-0.561-1.25-1.25V13h28.5v21.273l-0.311,0.311h-2.355c-1.101,0-2,0.9-2,2v2.356l-0.311,0.31H12z"/>
<path d="M26.479,27.591v-6.067c0-0.257-0.6-0.463-1.355-0.484v-0.449c0.662-1.131,1.28-2.488-0.249-3.807
	c-0.221,0.971-1.999,2.396,0.004,3.692v0.563c-0.755,0.021-1.355,0.227-1.355,0.484v6.067c-2.601,0.132-4.533,0.6-4.533,1.161v1.202
	l1.202,4.809c0,0.664,2.153,1.202,4.808,1.202c2.656,0,4.811-0.538,4.811-1.202l1.202-4.809v-1.202
	C31.012,28.191,29.079,27.724,26.479,27.591z M24.999,29.629c-1.326,0-2.403-0.293-2.403-0.657c0-0.209,0.366-0.394,0.927-0.514
	v0.453c0,0.272,0.662,0.492,1.477,0.492c0.817,0,1.479-0.22,1.479-0.492v-0.453c0.561,0.12,0.927,0.304,0.927,0.514
	C27.405,29.336,26.328,29.629,24.999,29.629z"/>
</svg>
