<?xml version="1.0" encoding="utf-8"?>
<!-- Generator: Adobe Illustrator 16.0.0, SVG Export Plug-In . SVG Version: 6.00 Build 0)  -->
<!DOCTYPE svg PUBLIC "-//W3C//DTD SVG 1.1//EN" "http://www.w3.org/Graphics/SVG/1.1/DTD/svg11.dtd">
<svg version="1.1" id="Layer_1" xmlns="http://www.w3.org/2000/svg" xmlns:xlink="http://www.w3.org/1999/xlink" x="0px" y="0px"
	 width="50px" height="50px" viewBox="0 0 50 50" enable-background="new 0 0 50 50" xml:space="preserve">
<path d="M35.91,9H35V8c0-0.553-0.447-1-1-1s-1,0.447-1,1v1h-7V8c0-0.553-0.447-1-1-1s-1,0.447-1,1v1h-7V8c0-0.553-0.447-1-1-1
	s-1,0.447-1,1v1h-0.91C11.283,9,9,11.283,9,14.09v21.82C9,38.717,11.283,41,14.09,41h21.82c2.807,0,5.09-2.283,5.09-5.09V14.09
	C41,11.283,38.717,9,35.91,9z M11,14.09c0-1.704,1.386-3.09,3.09-3.09H15v3c0,0.553,0.447,1,1,1s1-0.447,1-1v-3h7v3
	c0,0.553,0.447,1,1,1s1-0.447,1-1v-3h7v3c0,0.553,0.447,1,1,1s1-0.447,1-1v-3h0.91c1.704,0,3.09,1.386,3.09,3.09V17H11V14.09z
	 M39,19v11.052H11V19H39z M38.982,36.084H11.018C11.015,36.025,11,35.97,11,35.91v-0.875h28v0.875
	C39,35.97,38.985,36.025,38.982,36.084z M11,33.068V32.02h28v1.049H11z M35.91,39H14.09c-0.872,0-1.656-0.366-2.219-0.948h26.258
	C37.566,38.634,36.782,39,35.91,39z"/>
</svg>
