<?xml version="1.0" encoding="utf-8"?>
<!-- Generator: Adobe Illustrator 16.0.0, SVG Export Plug-In . SVG Version: 6.00 Build 0)  -->
<!DOCTYPE svg PUBLIC "-//W3C//DTD SVG 1.1//EN" "http://www.w3.org/Graphics/SVG/1.1/DTD/svg11.dtd">
<svg version="1.1" id="Layer_1" xmlns="http://www.w3.org/2000/svg" xmlns:xlink="http://www.w3.org/1999/xlink" x="0px" y="0px"
	 width="50px" height="50px" viewBox="0 0 50 50" enable-background="new 0 0 50 50" xml:space="preserve">
<g>
	<path d="M37,10.724h-1.098V9.526c0-1.516-1.197-2.75-2.67-2.75s-2.67,1.234-2.67,2.75v1.197h-2.74V9.526
		c0-1.516-1.197-2.75-2.67-2.75s-2.67,1.234-2.67,2.75v1.197h-2.74V9.526c0-1.516-1.197-2.75-2.67-2.75s-2.67,1.234-2.67,2.75v1.197
		H13c-2.343,0-4.25,1.907-4.25,4.25v24c0,2.343,1.907,4.25,4.25,4.25h24c2.344,0,4.25-1.907,4.25-4.25v-24
		C41.25,12.63,39.344,10.724,37,10.724z M32.063,9.526c0-0.689,0.525-1.25,1.17-1.25s1.17,0.561,1.17,1.25v4.895
		c0,0.689-0.525,1.25-1.17,1.25s-1.17-0.561-1.17-1.25V9.526z M23.982,9.526c0-0.689,0.525-1.25,1.17-1.25s1.17,0.561,1.17,1.25
		v4.895c0,0.689-0.525,1.25-1.17,1.25s-1.17-0.561-1.17-1.25V9.526z M15.902,9.526c0-0.689,0.525-1.25,1.17-1.25
		s1.17,0.561,1.17,1.25v4.895c0,0.689-0.525,1.25-1.17,1.25s-1.17-0.561-1.17-1.25V9.526z M38.75,38.974
		c0,0.965-0.785,1.75-1.75,1.75H13c-0.965,0-1.75-0.785-1.75-1.75v-22h27.5V38.974z"/>
	<path d="M13.791,32.22h1.497l1.515,3.874c0.036,0.19,0.664,1.14,9.442,1.14c9.049,0,9.995-0.515,10.03-0.536
		c0.039-0.023,0.063-0.065,0.063-0.111v-2.426c0-0.05-0.028-0.096-0.074-0.117l-2.199-1.035c-0.018-0.008-0.036-0.012-0.056-0.012
		h-0.991c-0.057-0.361-0.184-1.528,0.301-2.619l0.697-0.95c0.043-0.058,0.031-0.138-0.027-0.181
		c-0.058-0.042-0.138-0.029-0.182,0.028l-0.436,0.594c-0.709-0.425-1.081-0.85-0.574-2.216l0.841-0.858
		c0.051-0.051,0.05-0.133-0.003-0.183c-0.051-0.049-0.132-0.05-0.182,0.001l-0.775,0.792c-1.594-0.041-2.352-0.995-2.681-1.644
		v-0.662c0.284-0.172,0.484-0.54,0.484-0.621c0-0.093-0.263-0.171-0.613-0.19v-4.629c0-0.072-0.06-0.13-0.131-0.13
		s-0.128,0.058-0.128,0.13v4.627c-0.384,0.013-0.679,0.093-0.679,0.192c0,0.087,0.231,0.5,0.548,0.652v5.796h-2.186l-0.771-1.483
		c-0.023-0.043-0.067-0.069-0.115-0.069h-2.361c-0.071,0-0.131,0.058-0.131,0.129v1.514l-0.973,1.462l-4.429,0.004l-1.973-0.49
		v-0.582c0-0.071-0.058-0.129-0.13-0.129h-2.62c-0.07,0-0.129,0.058-0.129,0.129v0.679C13.662,32.162,13.721,32.22,13.791,32.22z
		 M32.891,33.028c-0.021,0.018-0.036,0.04-0.043,0.067c-0.014,0.058,0.014,0.118,0.066,0.145l0.529,0.274h-2.425l2.018-2.75
		C32.731,31.754,32.841,32.712,32.891,33.028z M29.997,26.008c0.384,0.643,1.147,1.441,2.56,1.521l-2.56,2.614V26.008z
		 M29.997,30.512l2.591-2.646c-0.394,1.249,0.013,1.69,0.707,2.107l-2.597,3.54h-0.701V30.512z M27.41,31.75h1.326v0.858H27.41
		V31.75z M25.566,31.75h1.326v0.858h-1.326V31.75z M24.239,31.75h0.81v0.858h-1.326L24.239,31.75z M22.239,32.855
		c0.123,0,0.223,0.101,0.223,0.225s-0.1,0.224-0.223,0.224c-0.124,0-0.226-0.1-0.226-0.224S22.115,32.855,22.239,32.855z
		 M21.313,32.855c0.123,0,0.223,0.101,0.223,0.225s-0.1,0.224-0.223,0.224c-0.124,0-0.224-0.1-0.224-0.224
		S21.189,32.855,21.313,32.855z M20.388,32.855c0.124,0,0.224,0.101,0.224,0.225s-0.1,0.224-0.224,0.224s-0.224-0.1-0.224-0.224
		S20.264,32.855,20.388,32.855z M15.841,31.541h0.442v0.42h-0.442V31.541z M15.408,31.541h0.302v0.42h-0.302V31.541z M14.978,31.541
		h0.303v0.42h-0.303V31.541z M14.546,31.541h0.303v0.42h-0.303V31.541z M14.116,31.541h0.302v0.42h-0.302V31.541z M13.921,31.541
		h0.064v0.42h-0.064V31.541z"/>
</g>
</svg>
