<?xml version="1.0" encoding="utf-8"?>
<!-- Generator: Adobe Illustrator 16.0.0, SVG Export Plug-In . SVG Version: 6.00 Build 0)  -->
<!DOCTYPE svg PUBLIC "-//W3C//DTD SVG 1.1//EN" "http://www.w3.org/Graphics/SVG/1.1/DTD/svg11.dtd">
<svg version="1.1" id="Layer_1" xmlns="http://www.w3.org/2000/svg" xmlns:xlink="http://www.w3.org/1999/xlink" x="0px" y="0px"
	 width="50px" height="50px" viewBox="0 0 50 50" enable-background="new 0 0 50 50" xml:space="preserve">
<g>
	<path d="M38,9.875h-1.123c0.029-0.093,0.058-0.186,0.058-0.289c0-0.531-0.431-0.961-0.962-0.961s-0.961,0.431-0.961,0.961
		c0,0.103,0.028,0.196,0.059,0.289h-3.68c0.029-0.093,0.058-0.186,0.058-0.289c0-0.531-0.431-0.961-0.962-0.961
		c-0.53,0-0.961,0.431-0.961,0.961c0,0.103,0.029,0.196,0.059,0.289h-3.681c0.029-0.093,0.058-0.186,0.058-0.289
		c0-0.531-0.43-0.961-0.961-0.961s-0.961,0.431-0.961,0.961c0,0.103,0.028,0.196,0.058,0.289h-3.681
		c0.029-0.093,0.059-0.186,0.059-0.289c0-0.531-0.431-0.961-0.961-0.961c-0.531,0-0.962,0.431-0.962,0.961
		c0,0.103,0.028,0.196,0.058,0.289h-3.68c0.03-0.093,0.059-0.186,0.059-0.289c0-0.531-0.43-0.961-0.961-0.961
		s-0.962,0.431-0.962,0.961c0,0.103,0.028,0.196,0.058,0.289H12c-1.518,0-2.75,1.233-2.75,2.75v26c0,1.518,1.232,2.75,2.75,2.75
		h22.895l5.855-5.855V12.625C40.75,11.109,39.517,9.875,38,9.875z M39.25,34.898l-0.311,0.311h-2.355c-1.101,0-2,0.9-2,2v2.356
		l-0.311,0.31H12c-0.689,0-1.25-0.561-1.25-1.25v-25h28.5V34.898z"/>
	<path d="M20.06,35.281h6.19v-5.866c-0.155,0.033-0.316,0.047-0.48,0.028c-0.386-0.042-0.74-0.238-0.988-0.548
		c-0.249-0.311-0.361-0.698-0.316-1.094l0.171-1.541h-0.005V24.43h0.208l0.094-0.845h-0.784v-1.403h-1.989v1.403h-0.995v0.276H20.06
		v10.851h-0.482V21.748h-1.149v-1.401h-1.136v-2.391h-0.285v2.391H15.87v1.401h-1.148v13.533h4.855H20.06z M24.631,30.771h1.051
		v1.829h-1.051V30.771z M24.347,34.712h-1.05v-1.829h1.05V34.712z M24.347,32.599h-1.05v-1.829h1.05V32.599z M24.347,30.486h-1.05
		v-1.83h1.05V30.486z M24.347,26.543v1.83h-1.05v-1.83H24.347z M22.444,22.466h1.421v0.977h-1.421V22.466z M21.962,24.43h1.051
		v1.829h-1.051V24.43z M21.962,28.656h1.051v1.83h-1.051V28.656z M21.962,32.884h1.051v1.829h-1.051V32.884z M20.628,26.543h1.05
		v1.83h-1.05V26.543z M20.628,30.771h1.05v1.829h-1.05V30.771z M16.154,20.631h1.989v1.117h-1.989V20.631z M16.34,32.599h-1.051
		v-1.829h1.051V32.599z M16.34,30.486h-1.051v-1.83h1.051V30.486z M16.34,28.373h-1.051v-1.83h1.051V28.373z M16.34,24.145h-1.051
		v-1.829h0.581h0.47V24.145z M17.675,34.712h-1.051v-1.829h1.051V34.712z M17.675,32.599h-1.051v-1.829h1.051V32.599z
		 M17.675,26.259h-1.051V24.43h1.051V26.259z M17.675,24.145h-1.051v-1.829h1.051V24.145z M19.009,32.599h-1.05v-1.829h1.05V32.599z
		 M19.009,30.486h-1.05v-1.83h1.05V30.486z M19.009,28.373h-1.05v-1.83h1.05V28.373z M19.009,26.259h-1.05V24.43h1.05V26.259z"/>
	<path d="M29.909,20.358c1.153,0,2.09-1.338,2.09-2.492c0-1.154-0.937-2.09-2.09-2.09s-2.09,0.936-2.09,2.09
		C27.819,19.02,28.756,20.358,29.909,20.358z"/>
	<path d="M25.852,28.786c0.031,0.004,0.062,0.005,0.092,0.005c0.415,0,0.773-0.313,0.82-0.735l0.603-5.421
		c0.07-0.021,0.147-0.043,0.229-0.066v5.641l-0.658,8.179c-0.044,0.546,0.363,1.024,0.909,1.068
		c0.026,0.002,0.054,0.003,0.081,0.003c0.511,0,0.945-0.394,0.987-0.913l0.594-7.392c0.123,0.054,0.258,0.085,0.4,0.085
		s0.277-0.031,0.4-0.085l0.595,7.392c0.042,0.519,0.476,0.913,0.987,0.913c0.027,0,0.054-0.001,0.081-0.003
		c0.546-0.043,0.953-0.521,0.909-1.068l-0.659-8.179v-5.641c0.083,0.023,0.16,0.046,0.23,0.066l0.603,5.421
		c0.044,0.397,0.366,0.688,0.749,0.722v0.401h-0.593c-0.182,0-0.33,0.149-0.33,0.331v5.014c0,0.182,0.148,0.331,0.33,0.331h1.736
		c0.183,0,0.33-0.148,0.33-0.331v-5.014c0-0.182-0.147-0.331-0.33-0.331h-0.592v-0.558c0.23-0.169,0.375-0.444,0.341-0.748
		l-0.661-5.951c-0.004-0.04-0.025-0.072-0.035-0.109c-0.016-0.061-0.028-0.12-0.058-0.176c-0.021-0.042-0.053-0.074-0.08-0.111
		c-0.037-0.049-0.07-0.098-0.118-0.138c-0.038-0.031-0.081-0.05-0.123-0.075c-0.043-0.024-0.077-0.058-0.125-0.076
		c-0.075-0.027-1.738-0.623-3.268-0.701l-0.211,0.42h-0.005l0.557,4.334l-0.661,1.155l-0.66-1.155l0.556-4.334h-0.006l-0.21-0.42
		c-1.528,0.078-3.191,0.674-3.267,0.701c-0.049,0.018-0.084,0.052-0.126,0.077s-0.086,0.043-0.121,0.074
		c-0.05,0.042-0.084,0.091-0.122,0.141c-0.026,0.036-0.057,0.067-0.078,0.107c-0.028,0.056-0.041,0.117-0.058,0.179
		c-0.01,0.037-0.03,0.068-0.035,0.107l-0.661,5.951C25.071,28.327,25.397,28.736,25.852,28.786z"/>
</g>
</svg>
