<?xml version="1.0" encoding="utf-8"?>
<!-- Generator: Adobe Illustrator 16.0.0, SVG Export Plug-In . SVG Version: 6.00 Build 0)  -->
<!DOCTYPE svg PUBLIC "-//W3C//DTD SVG 1.1//EN" "http://www.w3.org/Graphics/SVG/1.1/DTD/svg11.dtd">
<svg version="1.1" id="Layer_1" xmlns="http://www.w3.org/2000/svg" xmlns:xlink="http://www.w3.org/1999/xlink" x="0px" y="0px"
	 width="50px" height="50px" viewBox="0 0 50 50" enable-background="new 0 0 50 50" xml:space="preserve">
<g>
	<path d="M38,9.875h-1.123c0.029-0.093,0.058-0.186,0.058-0.289c0-0.531-0.431-0.961-0.962-0.961s-0.961,0.431-0.961,0.961
		c0,0.103,0.028,0.196,0.059,0.289h-3.68c0.029-0.093,0.058-0.186,0.058-0.289c0-0.531-0.431-0.961-0.962-0.961
		c-0.53,0-0.961,0.431-0.961,0.961c0,0.103,0.029,0.196,0.059,0.289h-3.681c0.029-0.093,0.058-0.186,0.058-0.289
		c0-0.531-0.43-0.961-0.961-0.961s-0.961,0.431-0.961,0.961c0,0.103,0.028,0.196,0.058,0.289h-3.681
		c0.029-0.093,0.059-0.186,0.059-0.289c0-0.531-0.431-0.961-0.961-0.961c-0.531,0-0.962,0.431-0.962,0.961
		c0,0.103,0.028,0.196,0.058,0.289h-3.68c0.03-0.093,0.059-0.186,0.059-0.289c0-0.531-0.43-0.961-0.961-0.961
		s-0.962,0.431-0.962,0.961c0,0.103,0.028,0.196,0.058,0.289H12c-1.518,0-2.75,1.233-2.75,2.75v26c0,1.518,1.232,2.75,2.75,2.75
		h22.895l5.855-5.855V12.625C40.75,11.109,39.517,9.875,38,9.875z M39.25,34.898l-0.311,0.311h-2.355c-1.101,0-2,0.9-2,2v2.356
		l-0.311,0.31H12c-0.689,0-1.25-0.561-1.25-1.25v-25h28.5V34.898z"/>
	<path d="M17.228,29.732c-0.196,0.278-0.206,0.642-0.023,0.994c0.275,0.529,0.909,0.913,1.509,0.913
		c0.054,0,0.108-0.003,0.162-0.009c0.045,0.15,0.119,0.295,0.22,0.432c0.335,0.454,0.95,0.759,1.531,0.759
		c0.079,0,0.157-0.006,0.233-0.017c0.061,0.177,0.158,0.347,0.29,0.504c0.371,0.442,0.957,0.717,1.53,0.717
		c0.055,0,0.109-0.003,0.162-0.008c0.05,0.193,0.141,0.376,0.273,0.539c0.301,0.373,0.779,0.604,1.246,0.604
		c0.382,0,0.711-0.163,0.904-0.447c0.202-0.298,0.579-0.957,0.944-1.594c0.081-0.141,0.159-0.276,0.233-0.407
		c0.514,0.218,0.832,0.354,0.832,0.354c1.114,0.439,1.688-1.215,1.17-1.664l0.776,0.273c1.137,0.457,2.15-0.939,1.256-1.796
		c0.428,0.192,0.825,0.099,1.125-0.13L31.6,29.753l0.995-0.205l3.841-1.077l0.367-0.104l-0.061-0.376l-1.215-7.538l-0.074-0.462
		L35,20.107l-4.321,1.103c-0.359-0.004-1.937-0.946-2.784-1.452c-1.255-0.75-1.685-0.992-1.971-0.992
		c-0.338,0-1.375,0.487-2.253,1.058c-0.151-0.128-0.27-0.204-0.346-0.192c-0.912,0.147-3.611,2.329-4.152,2.194
		c-0.54-0.135-4.827-1.249-4.827-1.249l-1.147,7.393c0,0,3.099,0.83,4.424,1.184L17.228,29.732z M22.729,21.219
		c0.157-0.563,2.722-2.026,3.195-2.026c0.458,0,3.914,2.439,4.781,2.439c0.03,0,0.057-0.002,0.08-0.009
		c0.706-0.18,4.321-1.103,4.321-1.103l1.215,7.539l-3.841,1.077c0.065-0.233,0.082-0.465,0.044-0.682
		c0.563-0.095,1.064-0.518,1.267-1.09c0.208-0.588,0.046-1.188-0.422-1.566l-0.059-0.039c-0.032-0.018-3.234-1.793-6.275-3.666
		l-0.847,0.031c-0.213,0.099-0.796,0.393-0.872,0.67c-0.093,0.338-0.54,1.958-0.742,2.745c-0.053,0.208-0.268,0.295-0.551,0.295
		c-0.788,0-2.107-0.674-1.981-1.286C22.212,23.717,22.57,21.781,22.729,21.219z M18.88,28.533c0.529,0,1.168,0.57,1.103,1.057
		c0.327-0.542,0.664-0.973,1.08-1.057c0.073-0.014,0.146-0.021,0.218-0.021c0.705,0,1.333,0.66,1.312,1.191
		c0.266-0.441,0.63-0.612,0.994-0.612c0.806,0,1.611,0.84,1.349,1.442c0.145-0.135,0.332-0.194,0.526-0.194
		c0.679,0,1.464,0.73,0.957,1.569c-0.381,0.632-1.194,2.103-1.508,2.566c-0.121,0.178-0.326,0.259-0.551,0.259
		c-0.57,0-1.275-0.517-1.111-1.28c-0.173,0.1-0.37,0.145-0.57,0.145c-0.762,0-1.582-0.65-1.453-1.386
		c-0.171,0.126-0.381,0.183-0.6,0.183c-0.736,0-1.566-0.636-1.34-1.374c-0.177,0.135-0.375,0.192-0.572,0.192
		c-0.73,0-1.457-0.778-1.132-1.239l0.781-1.147C18.488,28.618,18.676,28.533,18.88,28.533z"/>
</g>
</svg>
