<?xml version="1.0" encoding="utf-8"?>
<!-- Generator: Adobe Illustrator 16.0.0, SVG Export Plug-In . SVG Version: 6.00 Build 0)  -->
<!DOCTYPE svg PUBLIC "-//W3C//DTD SVG 1.1//EN" "http://www.w3.org/Graphics/SVG/1.1/DTD/svg11.dtd">
<svg version="1.1" id="Layer_1" xmlns="http://www.w3.org/2000/svg" xmlns:xlink="http://www.w3.org/1999/xlink" x="0px" y="0px"
	 width="50px" height="50px" viewBox="0 0 50 50" enable-background="new 0 0 50 50" xml:space="preserve">
<g>
	<path d="M38,9.25h-1.123c0.029-0.093,0.058-0.186,0.058-0.289C36.935,8.431,36.504,8,35.973,8s-0.961,0.431-0.961,0.961
		c0,0.103,0.028,0.196,0.059,0.289h-3.68c0.029-0.093,0.058-0.186,0.058-0.289C31.448,8.431,31.018,8,30.486,8
		c-0.53,0-0.961,0.431-0.961,0.961c0,0.103,0.029,0.196,0.059,0.289h-3.681c0.029-0.093,0.058-0.186,0.058-0.289
		C25.961,8.431,25.531,8,25,8s-0.961,0.431-0.961,0.961c0,0.103,0.028,0.196,0.058,0.289h-3.681
		c0.029-0.093,0.059-0.186,0.059-0.289C20.475,8.431,20.044,8,19.514,8c-0.531,0-0.962,0.431-0.962,0.961
		c0,0.103,0.028,0.196,0.058,0.289h-3.68c0.03-0.093,0.059-0.186,0.059-0.289c0-0.531-0.43-0.961-0.961-0.961
		s-0.962,0.431-0.962,0.961c0,0.103,0.028,0.196,0.058,0.289H12c-1.518,0-2.75,1.233-2.75,2.75v26c0,1.517,1.232,2.75,2.75,2.75
		h22.895l5.855-5.856V12C40.75,10.483,39.517,9.25,38,9.25z M32.516,12.258l0.365,1.201c0.041,0.145,0.091,0.325,0.121,0.456h0.015
		c0.035-0.13,0.075-0.315,0.11-0.456l0.3-1.201h0.815l-0.57,1.611c-0.35,0.971-0.586,1.361-0.86,1.607
		c-0.266,0.23-0.546,0.31-0.735,0.335l-0.16-0.646c0.095-0.015,0.215-0.06,0.33-0.13c0.115-0.061,0.24-0.181,0.314-0.306
		c0.025-0.035,0.041-0.075,0.041-0.11c0-0.025-0.006-0.065-0.035-0.125l-0.896-2.237H32.516z M30.467,12.258l0.024,0.45h0.021
		c0.125-0.355,0.425-0.505,0.66-0.505c0.07,0,0.105,0,0.16,0.01v0.716c-0.055-0.01-0.12-0.02-0.205-0.02
		c-0.28,0-0.471,0.15-0.521,0.385c-0.01,0.05-0.015,0.11-0.015,0.17v1.241H29.83v-1.642c0-0.36-0.01-0.596-0.02-0.806H30.467z
		 M27.896,12.724c-0.25,0-0.516,0.085-0.676,0.185l-0.141-0.49c0.171-0.095,0.506-0.215,0.951-0.215c0.816,0,1.076,0.48,1.076,1.056
		v0.851c0,0.235,0.01,0.46,0.035,0.596h-0.686l-0.045-0.245h-0.016c-0.16,0.195-0.41,0.3-0.7,0.3c-0.495,0-0.791-0.36-0.791-0.751
		c0-0.636,0.571-0.941,1.437-0.936v-0.035C28.342,12.909,28.271,12.724,27.896,12.724z M24.016,12.258h0.766v1.316
		c0,0.355,0.115,0.571,0.381,0.571c0.21,0,0.33-0.145,0.38-0.265c0.021-0.045,0.024-0.105,0.024-0.165v-1.457h0.767v1.662
		c0,0.32,0.01,0.581,0.02,0.786h-0.66l-0.035-0.345h-0.015c-0.096,0.15-0.326,0.4-0.766,0.4c-0.496,0-0.861-0.311-0.861-1.066
		V12.258z M21.611,12.258l0.035,0.335h0.015c0.101-0.155,0.351-0.391,0.756-0.391c0.5,0,0.876,0.33,0.876,1.051v1.452h-0.762v-1.356
		c0-0.315-0.109-0.53-0.385-0.53c-0.21,0-0.336,0.145-0.385,0.285c-0.021,0.045-0.031,0.12-0.031,0.19v1.412h-0.76v-1.667
		c0-0.306-0.01-0.565-0.021-0.781H21.611z M19.036,12.724c-0.251,0-0.516,0.085-0.676,0.185l-0.14-0.49
		c0.17-0.095,0.505-0.215,0.95-0.215c0.815,0,1.076,0.48,1.076,1.056v0.851c0,0.235,0.011,0.46,0.035,0.596h-0.686l-0.045-0.245
		h-0.015c-0.16,0.195-0.411,0.3-0.701,0.3c-0.496,0-0.791-0.36-0.791-0.751c0-0.636,0.57-0.941,1.437-0.936v-0.035
		C19.481,12.909,19.411,12.724,19.036,12.724z M15.824,14.065c0.105,0.035,0.24,0.06,0.391,0.06c0.32,0,0.521-0.145,0.521-0.671
		v-2.122h0.761v2.132c0,0.961-0.46,1.296-1.201,1.296c-0.175,0-0.405-0.03-0.555-0.08L15.824,14.065z M39.25,34.273l-0.311,0.311
		h-2.355c-1.101,0-2,0.9-2,2v2.356l-0.311,0.31H12c-0.689,0-1.25-0.561-1.25-1.25V17h28.5V34.273z"/>
	<path d="M18.796,13.935c0,0.195,0.13,0.291,0.3,0.291c0.19,0,0.346-0.125,0.396-0.28c0.011-0.04,0.015-0.085,0.015-0.13v-0.265
		C19.105,13.544,18.796,13.64,18.796,13.935z"/>
	<path d="M27.656,13.935c0,0.195,0.13,0.291,0.301,0.291c0.189,0,0.345-0.125,0.395-0.28c0.01-0.04,0.016-0.085,0.016-0.13v-0.265
		C27.967,13.544,27.656,13.64,27.656,13.935z"/>
	<path d="M23.211,35.659L25,30.766l-0.556-1.189h1.111L25,30.766l1.789,4.893l-1.124,1.553c2.28-0.381,5.92-2.404,7.685-2.404
		l-0.618-2.665c-0.189-0.194-0.413-0.356-0.671-0.49c-1.294-0.663-2.634-1.214-3.99-1.734c-0.1-0.038-0.222-0.115-0.262-0.204
		c-0.11-0.245-0.188-0.504-0.268-0.761c-0.048-0.163-0.092-0.317-0.272-0.396c-0.049-0.022-0.093-0.116-0.093-0.177
		c0.011-0.595-0.127-1.219,0.313-1.739c0.015-0.016,0.021-0.039,0.029-0.058c0.238-0.521,0.279-1.117,0.612-1.602
		c0.01-0.011,0.011-0.026,0.013-0.041c0.037-0.37,0.078-0.739,0.108-1.109c0.003-0.045-0.036-0.127-0.075-0.141
		c-0.183-0.065-0.175-0.212-0.174-0.359c0-0.723,0-0.828-0.001-1.55c0-0.42-0.122-0.794-0.44-1.08
		c-0.361-0.324-0.732-0.639-1.104-0.953c-0.179-0.152-0.195-0.269-0.027-0.435c0.074-0.074,0.171-0.127,0.257-0.188
		c-0.021-0.029-0.038-0.057-0.056-0.085c-0.114,0-0.228-0.016-0.336,0.001c-0.412,0.066-0.824,0.125-1.228,0.22
		c-0.771,0.182-1.519,0.422-2.144,0.938c-0.428,0.353-0.769,0.762-0.813,1.344c-0.021,0.305-0.02,0.611-0.021,0.915
		c-0.003,0.497,0.004,0.376-0.006,0.871c-0.002,0.081-0.048,0.214-0.103,0.232c-0.202,0.065-0.206,0.192-0.182,0.361
		c0.021,0.115,0.007,0.235,0.03,0.347c0.07,0.31,0.145,0.621,0.233,0.926c0.067,0.228,0.196,0.442,0.232,0.674
		c0.071,0.462,0.243,0.864,0.555,1.213c0.051,0.058,0.09,0.154,0.084,0.231c-0.024,0.355-0.061,0.71-0.107,1.064
		c-0.01,0.069-0.083,0.172-0.143,0.184c-0.236,0.049-0.272,0.231-0.329,0.416c-0.074,0.243-0.153,0.485-0.249,0.72
		c-0.028,0.074-0.103,0.149-0.175,0.182c-0.419,0.182-0.847,0.351-1.271,0.528c-0.45,0.19-0.906,0.371-1.346,0.58
		c-0.452,0.216-0.893,0.461-1.337,0.698c-0.261,0.139-0.505,0.295-0.71,0.487l-0.618,2.632c3.01,0,4.582,2.175,7.713,2.443
		L23.211,35.659z M27.935,33.069h2.6v0.463h-2.6V33.069z"/>
</g>
</svg>
