<?xml version="1.0" encoding="utf-8"?>
<!-- Generator: Adobe Illustrator 16.0.0, SVG Export Plug-In . SVG Version: 6.00 Build 0)  -->
<!DOCTYPE svg PUBLIC "-//W3C//DTD SVG 1.1//EN" "http://www.w3.org/Graphics/SVG/1.1/DTD/svg11.dtd">
<svg version="1.1" id="Layer_1" xmlns="http://www.w3.org/2000/svg" xmlns:xlink="http://www.w3.org/1999/xlink" x="0px" y="0px"
	 width="50px" height="50px" viewBox="0 0 50 50" enable-background="new 0 0 50 50" xml:space="preserve">
<g>
	<path d="M38.25,10.25h-1.123c0.029-0.092,0.058-0.186,0.058-0.288c0-0.53-0.431-0.962-0.962-0.962s-0.961,0.432-0.961,0.962
		c0,0.103,0.028,0.196,0.059,0.288h-3.68c0.029-0.092,0.058-0.186,0.058-0.288c0-0.53-0.431-0.962-0.962-0.962
		c-0.53,0-0.961,0.432-0.961,0.962c0,0.103,0.029,0.196,0.059,0.288h-3.681c0.029-0.092,0.058-0.186,0.058-0.288
		c0-0.53-0.43-0.962-0.961-0.962s-0.961,0.432-0.961,0.962c0,0.103,0.028,0.196,0.058,0.288h-3.681
		c0.029-0.092,0.059-0.186,0.059-0.288c0-0.53-0.431-0.962-0.961-0.962c-0.531,0-0.962,0.432-0.962,0.962
		c0,0.103,0.028,0.196,0.058,0.288h-3.68c0.03-0.092,0.059-0.186,0.059-0.288c0-0.53-0.43-0.962-0.961-0.962
		s-0.962,0.432-0.962,0.962c0,0.103,0.028,0.196,0.058,0.288H12.25c-1.518,0-2.75,1.234-2.75,2.75v26c0,1.518,1.232,2.75,2.75,2.75
		h22.895L41,35.895V13C41,11.484,39.767,10.25,38.25,10.25z M39.5,35.273l-0.311,0.311h-2.355c-1.101,0-2,0.9-2,2v2.356l-0.311,0.31
		H12.25C11.561,40.25,11,39.689,11,39V14h28.5V35.273z"/>
	<path d="M26.222,30.636l-1.029-2.484h0.011l0.397-0.457c-0.192,0.068-0.391,0.11-0.602,0.11c-0.21,0-0.409-0.043-0.603-0.111
		l0.398,0.458h0.011l-1.028,2.484l1.222,1.221L26.222,30.636z"/>
	<path d="M18.523,38.184h12.953c1.383,0,2.509-1.125,2.509-2.508V18.708c0-1.383-1.126-2.508-2.509-2.508H18.523
		c-1.383,0-2.509,1.125-2.509,2.508v0.57h1.566c0.521,0,0.94,0.423,0.94,0.941s-0.42,0.938-0.94,0.938h-1.566v1.607h1.566
		c0.521,0,0.94,0.422,0.94,0.94s-0.42,0.94-0.94,0.94h-1.566v1.604h1.566c0.521,0,0.94,0.422,0.94,0.941
		c0,0.519-0.42,0.94-0.94,0.94h-1.566v1.604h1.566c0.521,0,0.94,0.422,0.94,0.94s-0.42,0.94-0.94,0.94h-1.566v1.607h1.566
		c0.521,0,0.94,0.42,0.94,0.938c0,0.52-0.42,0.941-0.94,0.941h-1.566v0.57C16.015,37.059,17.141,38.184,18.523,38.184z
		 M23.922,27.453c-0.786-0.53-1.329-1.577-1.329-2.52c0-1.328,1.077-2.407,2.406-2.407c1.33,0,2.407,1.079,2.407,2.407
		c0,0.942-0.542,1.989-1.331,2.52c1.886,0.477,3.283,2.116,3.283,3.329c0,1.435-8.718,1.435-8.718,0
		C20.641,29.569,22.039,27.93,23.922,27.453z"/>
</g>
</svg>
