<?xml version="1.0" encoding="utf-8"?>
<!-- Generator: Adobe Illustrator 16.0.0, SVG Export Plug-In . SVG Version: 6.00 Build 0)  -->
<!DOCTYPE svg PUBLIC "-//W3C//DTD SVG 1.1//EN" "http://www.w3.org/Graphics/SVG/1.1/DTD/svg11.dtd">
<svg version="1.1" id="Layer_1" xmlns="http://www.w3.org/2000/svg" xmlns:xlink="http://www.w3.org/1999/xlink" x="0px" y="0px"
	 width="50px" height="50px" viewBox="0 0 50 50" enable-background="new 0 0 50 50" xml:space="preserve">
<g>
	<path d="M38,9.875h-1.123c0.029-0.093,0.058-0.186,0.058-0.289c0-0.531-0.431-0.961-0.962-0.961s-0.961,0.431-0.961,0.961
		c0,0.103,0.028,0.196,0.059,0.289h-3.68c0.029-0.093,0.058-0.186,0.058-0.289c0-0.531-0.431-0.961-0.962-0.961
		c-0.53,0-0.961,0.431-0.961,0.961c0,0.103,0.029,0.196,0.059,0.289h-3.681c0.029-0.093,0.058-0.186,0.058-0.289
		c0-0.531-0.43-0.961-0.961-0.961s-0.961,0.431-0.961,0.961c0,0.103,0.028,0.196,0.058,0.289h-3.681
		c0.029-0.093,0.059-0.186,0.059-0.289c0-0.531-0.431-0.961-0.961-0.961c-0.531,0-0.962,0.431-0.962,0.961
		c0,0.103,0.028,0.196,0.058,0.289h-3.68c0.03-0.093,0.059-0.186,0.059-0.289c0-0.531-0.43-0.961-0.961-0.961
		s-0.962,0.431-0.962,0.961c0,0.103,0.028,0.196,0.058,0.289H12c-1.518,0-2.75,1.233-2.75,2.75v26c0,1.518,1.232,2.75,2.75,2.75
		h22.895l5.855-5.855V12.625C40.75,11.109,39.517,9.875,38,9.875z M39.25,34.898l-0.311,0.311h-2.355c-1.101,0-2,0.9-2,2v2.356
		l-0.311,0.31H12c-0.689,0-1.25-0.561-1.25-1.25v-25h28.5V34.898z"/>
	<path d="M20.485,37.051h9.03c1.656,0,3.011-1.355,3.011-3.01v-14.3c0-1.656-1.355-3.01-3.011-3.01h-9.03
		c-1.657,0-3.011,1.354-3.011,3.01v14.3C17.474,35.696,18.828,37.051,20.485,37.051z M26.29,34.041c0,0.413-0.339,0.752-0.752,0.752
		h-1.076c-0.414,0-0.752-0.339-0.752-0.752v-1.075c0-0.414,0.339-0.753,0.752-0.753h1.076c0.414,0,0.752,0.339,0.752,0.753V34.041z
		 M26.29,30.062c0,0.414-0.339,0.753-0.752,0.753h-1.076c-0.414,0-0.752-0.339-0.752-0.753v-1.074c0-0.413,0.339-0.752,0.752-0.752
		h1.076c0.414,0,0.752,0.339,0.752,0.752V30.062z M26.29,26.084c0,0.415-0.339,0.753-0.752,0.753h-1.076
		c-0.414,0-0.752-0.338-0.752-0.753v-1.075c0-0.413,0.339-0.752,0.752-0.752h1.076c0.414,0,0.752,0.339,0.752,0.752V26.084z
		 M30.268,34.041c0,0.413-0.339,0.752-0.753,0.752H28.44c-0.414,0-0.753-0.339-0.753-0.752v-1.075c0-0.414,0.339-0.753,0.753-0.753
		h1.075c0.414,0,0.753,0.339,0.753,0.753V34.041z M30.268,30.062c0,0.414-0.339,0.753-0.753,0.753H28.44
		c-0.414,0-0.753-0.339-0.753-0.753v-1.074c0-0.413,0.339-0.752,0.753-0.752h1.075c0.414,0,0.753,0.339,0.753,0.752V30.062z
		 M30.268,26.084c0,0.415-0.339,0.753-0.753,0.753H28.44c-0.414,0-0.753-0.338-0.753-0.753v-1.075c0-0.413,0.339-0.752,0.753-0.752
		h1.075c0.414,0,0.753,0.339,0.753,0.752V26.084z M19.732,20.171c0-0.414,0.338-0.753,0.753-0.753h9.03
		c0.414,0,0.753,0.339,0.753,0.753v1.828c0,0.414-0.339,0.753-0.753,0.753h-9.03c-0.415,0-0.753-0.339-0.753-0.753V20.171z
		 M19.732,25.009c0-0.413,0.338-0.752,0.753-0.752h1.074c0.414,0,0.753,0.339,0.753,0.752v1.075c0,0.415-0.34,0.753-0.753,0.753
		h-1.074c-0.415,0-0.753-0.338-0.753-0.753V25.009z M19.732,28.988c0-0.413,0.338-0.752,0.753-0.752h1.074
		c0.414,0,0.753,0.339,0.753,0.752v1.074c0,0.414-0.34,0.753-0.753,0.753h-1.074c-0.415,0-0.753-0.339-0.753-0.753V28.988z
		 M19.732,32.966c0-0.414,0.338-0.753,0.753-0.753h1.074c0.414,0,0.753,0.339,0.753,0.753v1.075c0,0.413-0.34,0.752-0.753,0.752
		h-1.074c-0.415,0-0.753-0.339-0.753-0.752V32.966z"/>
	<path d="M25.264,22.138c0.52,0,0.774-0.433,0.774-1.062c0-0.558-0.213-1.042-0.759-1.042c-0.526,0-0.776,0.466-0.776,1.055
		C24.506,21.665,24.737,22.138,25.264,22.138z M25.273,20.393c0.19,0,0.288,0.238,0.288,0.688c0,0.464-0.101,0.696-0.285,0.696
		s-0.298-0.222-0.294-0.689C24.979,20.615,25.098,20.393,25.273,20.393z"/>
	<path d="M27.003,22.138c0.52,0,0.773-0.433,0.773-1.062c0-0.558-0.213-1.042-0.758-1.042c-0.526,0-0.777,0.466-0.777,1.055
		C26.245,21.665,26.476,22.138,27.003,22.138z M27.012,20.393c0.191,0,0.289,0.238,0.289,0.688c0,0.464-0.1,0.696-0.285,0.696
		c-0.185,0-0.297-0.222-0.294-0.689C26.718,20.615,26.837,20.393,27.012,20.393z"/>
	<path d="M28.742,22.138c0.521,0,0.773-0.433,0.773-1.062c0-0.558-0.213-1.042-0.757-1.042c-0.526,0-0.777,0.466-0.777,1.055
		C27.984,21.665,28.216,22.138,28.742,22.138z M28.75,20.393c0.192,0,0.289,0.238,0.289,0.688c0,0.464-0.1,0.696-0.285,0.696
		s-0.298-0.222-0.294-0.689C28.457,20.615,28.576,20.393,28.75,20.393z"/>
</g>
</svg>
