<?xml version="1.0" encoding="utf-8"?>
<!-- Generator: Adobe Illustrator 16.0.0, SVG Export Plug-In . SVG Version: 6.00 Build 0)  -->
<!DOCTYPE svg PUBLIC "-//W3C//DTD SVG 1.1//EN" "http://www.w3.org/Graphics/SVG/1.1/DTD/svg11.dtd">
<svg version="1.1" id="Layer_1" xmlns="http://www.w3.org/2000/svg" xmlns:xlink="http://www.w3.org/1999/xlink" x="0px" y="0px"
	 width="50px" height="50px" viewBox="0 0 50 50" enable-background="new 0 0 50 50" xml:space="preserve">
<g>
	<path d="M37,10.724h-1.098V9.526c0-1.517-1.197-2.75-2.67-2.75s-2.67,1.233-2.67,2.75v1.197h-2.74V9.526
		c0-1.517-1.197-2.75-2.67-2.75s-2.67,1.233-2.67,2.75v1.197h-2.74V9.526c0-1.517-1.197-2.75-2.67-2.75s-2.67,1.233-2.67,2.75v1.197
		H13c-2.343,0-4.25,1.907-4.25,4.25v24c0,2.343,1.907,4.25,4.25,4.25h24c2.344,0,4.25-1.907,4.25-4.25v-24
		C41.25,12.631,39.344,10.724,37,10.724z M32.063,9.526c0-0.689,0.525-1.25,1.17-1.25s1.17,0.561,1.17,1.25v4.896
		c0,0.689-0.525,1.25-1.17,1.25s-1.17-0.561-1.17-1.25V9.526z M23.982,9.526c0-0.689,0.525-1.25,1.17-1.25s1.17,0.561,1.17,1.25
		v4.896c0,0.689-0.525,1.25-1.17,1.25s-1.17-0.561-1.17-1.25V9.526z M15.902,9.526c0-0.689,0.525-1.25,1.17-1.25
		s1.17,0.561,1.17,1.25v4.896c0,0.689-0.525,1.25-1.17,1.25s-1.17-0.561-1.17-1.25V9.526z M38.75,38.974
		c0,0.965-0.785,1.75-1.75,1.75H13c-0.965,0-1.75-0.785-1.75-1.75v-22h27.5V38.974z"/>
	<rect x="31.904" y="21.402" width="4.596" height="4.088"/>
	<rect x="31.904" y="26.86" width="4.596" height="4.086"/>
	<rect x="13.5" y="32.316" width="4.595" height="4.086"/>
	<rect x="19.634" y="32.316" width="4.596" height="4.086"/>
	<rect x="25.771" y="32.316" width="4.595" height="4.086"/>
	<rect x="31.904" y="32.316" width="4.596" height="4.086"/>
	<path d="M16.875,30.731h2.704v-9.048h-2.132c-0.018,0.373-0.106,0.687-0.267,0.942c-0.161,0.256-0.366,0.459-0.618,0.611
		c-0.251,0.151-0.533,0.26-0.845,0.324c-0.312,0.065-0.633,0.094-0.962,0.085v1.872h2.119V30.731z"/>
	<path d="M26.866,24.128c-0.083,0.095-0.195,0.235-0.338,0.422c-0.143,0.187-0.323,0.44-0.54,0.761
		c-0.442,0.633-0.789,1.27-1.04,1.911c-0.251,0.642-0.438,1.222-0.559,1.742c-0.122,0.52-0.195,0.944-0.221,1.273
		c-0.026,0.33-0.035,0.494-0.026,0.494h2.873c-0.009-0.537,0.026-1.105,0.104-1.703s0.219-1.198,0.422-1.801
		c0.204-0.602,0.483-1.197,0.839-1.787c0.355-0.589,0.81-1.14,1.365-1.651v-2.105h-6.981v2.21h4.329
		C27.023,23.954,26.948,24.032,26.866,24.128z"/>
</g>
</svg>
