<?xml version="1.0" encoding="utf-8"?>
<!-- Generator: Adobe Illustrator 16.0.0, SVG Export Plug-In . SVG Version: 6.00 Build 0)  -->
<!DOCTYPE svg PUBLIC "-//W3C//DTD SVG 1.1//EN" "http://www.w3.org/Graphics/SVG/1.1/DTD/svg11.dtd">
<svg version="1.1" id="Layer_1" xmlns="http://www.w3.org/2000/svg" xmlns:xlink="http://www.w3.org/1999/xlink" x="0px" y="0px"
	 width="50px" height="50px" viewBox="0 0 50 50" enable-background="new 0 0 50 50" xml:space="preserve">
<g>
	<path d="M35.228,15.968h-2.789l-6.699-5.699c0.038-0.093,0.061-0.194,0.061-0.301c0-0.441-0.358-0.8-0.8-0.8
		c-0.442,0-0.801,0.358-0.801,0.8c0,0.106,0.022,0.208,0.061,0.301l-6.698,5.699h-2.789c-1.193,0-2.163,0.971-2.163,2.163v20.456
		c0,1.193,0.97,2.163,2.163,2.163h18.012l4.606-4.606V18.131C37.391,16.938,36.42,15.968,35.228,15.968z M33.113,18.738
		c0,0.643-0.521,1.163-1.164,1.163c-0.644,0-1.164-0.521-1.164-1.163s0.521-1.164,1.164-1.164
		C32.592,17.574,33.113,18.096,33.113,18.738z M24.594,10.642c0.121,0.073,0.255,0.127,0.406,0.127s0.285-0.054,0.406-0.127
		l6.26,5.326H18.334L24.594,10.642z M29.639,18.738c0,0.643-0.521,1.163-1.165,1.163c-0.642,0-1.162-0.521-1.162-1.163
		s0.521-1.164,1.162-1.164C29.117,17.574,29.639,18.096,29.639,18.738z M26.163,18.738c0,0.643-0.521,1.163-1.163,1.163
		c-0.643,0-1.164-0.521-1.164-1.163s0.521-1.164,1.164-1.164C25.642,17.574,26.163,18.096,26.163,18.738z M22.688,18.738
		c0,0.643-0.521,1.163-1.162,1.163c-0.645,0-1.166-0.521-1.166-1.163s0.521-1.164,1.166-1.164
		C22.168,17.574,22.688,18.096,22.688,18.738z M18.051,17.574c0.644,0,1.164,0.521,1.164,1.164s-0.521,1.163-1.164,1.163
		c-0.643,0-1.164-0.521-1.164-1.163S17.408,17.574,18.051,17.574z M36.211,35.655l-0.244,0.243h-1.854
		c-0.865,0-1.573,0.709-1.573,1.574v1.854l-0.244,0.244H14.772c-0.543,0-0.983-0.441-0.983-0.983V21.278h22.422V35.655z"/>
	<path d="M29.06,30.099c0.199,0,0.359-0.045,0.479-0.134c0.121-0.089,0.218-0.215,0.292-0.379c0.072-0.161,0.122-0.351,0.149-0.565
		c0.026-0.214,0.039-0.448,0.039-0.7c0-0.661-0.066-1.18-0.196-1.558c-0.132-0.377-0.392-0.566-0.779-0.566
		c-0.377,0-0.635,0.171-0.771,0.512c-0.138,0.341-0.205,0.815-0.205,1.424c0,0.692,0.061,1.193,0.181,1.502
		C28.37,29.944,28.641,30.099,29.06,30.099z"/>
	<path d="M24.465,36.669h1v-1v-0.103c0.136,0.162,0.277,0.318,0.446,0.45c0.744,0.579,1.745,0.872,2.975,0.872
		c1.077,0,1.924-0.168,2.588-0.515c0.697-0.362,1.233-0.901,1.593-1.604c0.32-0.629,0.52-1.381,0.593-2.233
		c0.065-0.746,0.097-1.59,0.097-2.58c0-0.86-0.038-1.654-0.114-2.357c-0.089-0.801-0.294-1.502-0.612-2.086
		c-0.351-0.648-0.869-1.152-1.538-1.497c-0.638-0.329-1.429-0.489-2.416-0.489c-0.886,0-1.614,0.136-2.225,0.414
		c-0.624,0.283-1.131,0.683-1.505,1.188c-0.117,0.157-0.204,0.337-0.298,0.512c-0.148-0.323-0.33-0.63-0.579-0.895
		c-0.372-0.392-0.858-0.699-1.447-0.913c-0.558-0.203-1.236-0.306-2.018-0.306c-2.959,0-4.589,1.545-4.589,4.352v0.362v1h1h2.456
		h0.045c-0.195,0.194-0.433,0.415-0.71,0.661c-0.265,0.23-0.556,0.513-0.856,0.831c-0.337,0.356-0.652,0.769-0.938,1.226
		c-0.299,0.476-0.551,1.02-0.749,1.617c-0.205,0.631-0.309,1.334-0.309,2.093v1h1H24.465z M25.583,27.015
		c0.104-0.493,0.293-0.924,0.565-1.29c0.272-0.367,0.646-0.659,1.117-0.873c0.473-0.216,1.075-0.324,1.81-0.324
		c0.819,0,1.471,0.127,1.959,0.379c0.488,0.251,0.861,0.613,1.117,1.086c0.257,0.472,0.422,1.043,0.496,1.715
		c0.072,0.671,0.108,1.421,0.108,2.25c0,0.934-0.029,1.765-0.093,2.494c-0.063,0.729-0.226,1.351-0.487,1.864
		c-0.263,0.514-0.651,0.905-1.165,1.172c-0.515,0.269-1.223,0.401-2.125,0.401c-1.006,0-1.793-0.22-2.359-0.66
		c-0.565-0.441-0.86-1.165-0.881-2.172h2.549c0,0.147,0.011,0.29,0.031,0.433c0.021,0.142,0.063,0.27,0.126,0.386
		c0.136,0.231,0.352,0.346,0.645,0.346c0.221,0,0.401-0.05,0.543-0.149c0.143-0.1,0.258-0.268,0.347-0.503
		c0.089-0.236,0.15-0.557,0.18-0.96c0.033-0.403,0.049-0.915,0.049-1.534h-0.032c-0.179,0.336-0.436,0.582-0.771,0.738
		c-0.336,0.158-0.739,0.238-1.212,0.238c-0.851,0-1.508-0.267-1.975-0.796c-0.468-0.529-0.7-1.418-0.7-2.667
		C25.425,28.032,25.477,27.508,25.583,27.015z M24.665,30.562c0.158,0.546,0.394,0.996,0.711,1.355
		c0.042,0.048,0.085,0.095,0.13,0.14h-0.881l0.012,0.566h-0.172h-1.74c0.206-0.199,0.427-0.415,0.663-0.646
		c0.349-0.328,0.661-0.649,0.913-0.94C24.436,30.879,24.556,30.721,24.665,30.562z M17.611,33.891c0.174-0.524,0.39-0.991,0.646-1.4
		s0.53-0.765,0.818-1.07c0.287-0.304,0.554-0.561,0.795-0.771c0.472-0.42,0.839-0.773,1.101-1.063
		c0.262-0.287,0.457-0.539,0.583-0.755c0.126-0.214,0.198-0.411,0.22-0.59c0.021-0.179,0.031-0.372,0.031-0.582
		c0-0.44-0.061-0.794-0.181-1.062c-0.121-0.268-0.369-0.401-0.747-0.401c-0.253,0-0.446,0.064-0.583,0.196
		c-0.136,0.132-0.234,0.299-0.298,0.503c-0.063,0.206-0.101,0.429-0.111,0.67c-0.01,0.241-0.015,0.467-0.015,0.676h-2.456v-0.362
		c0-2.233,1.196-3.352,3.589-3.352c0.671,0,1.229,0.083,1.676,0.245c0.445,0.162,0.799,0.383,1.062,0.66
		c0.263,0.278,0.446,0.605,0.55,0.983c0.106,0.378,0.159,0.787,0.159,1.228c0,0.419-0.027,0.781-0.079,1.086
		c-0.054,0.305-0.147,0.59-0.283,0.856c-0.137,0.269-0.318,0.533-0.543,0.796c-0.227,0.262-0.512,0.556-0.857,0.881
		c-0.546,0.535-1.01,0.984-1.393,1.346c-0.384,0.361-0.644,0.7-0.779,1.015h3.949v2.046h-7.111
		C17.354,35.008,17.44,34.416,17.611,33.891z"/>
</g>
</svg>
