<?xml version="1.0" encoding="utf-8"?>
<!-- Generator: Adobe Illustrator 16.0.0, SVG Export Plug-In . SVG Version: 6.00 Build 0)  -->
<!DOCTYPE svg PUBLIC "-//W3C//DTD SVG 1.1//EN" "http://www.w3.org/Graphics/SVG/1.1/DTD/svg11.dtd">
<svg version="1.1" id="Layer_1" xmlns="http://www.w3.org/2000/svg" xmlns:xlink="http://www.w3.org/1999/xlink" x="0px" y="0px"
	 width="50px" height="50px" viewBox="0 0 50 50" enable-background="new 0 0 50 50" xml:space="preserve">
<g>
	<path d="M21.295,32.608c0.383-0.361,0.847-0.811,1.393-1.346c0.346-0.325,0.631-0.619,0.857-0.881
		c0.225-0.263,0.406-0.527,0.543-0.796c0.136-0.267,0.229-0.552,0.283-0.856c0.052-0.305,0.079-0.667,0.079-1.086
		c0-0.44-0.053-0.85-0.159-1.228c-0.104-0.378-0.287-0.705-0.55-0.983c-0.263-0.277-0.616-0.498-1.062-0.66
		c-0.446-0.162-1.005-0.245-1.676-0.245c-2.393,0-3.589,1.118-3.589,3.352v0.362h2.456c0-0.209,0.005-0.435,0.015-0.676
		c0.011-0.241,0.049-0.464,0.111-0.67c0.063-0.204,0.162-0.371,0.298-0.503c0.137-0.132,0.33-0.196,0.583-0.196
		c0.378,0,0.626,0.134,0.747,0.401c0.12,0.268,0.181,0.621,0.181,1.062c0,0.21-0.011,0.403-0.031,0.582
		c-0.021,0.179-0.094,0.376-0.22,0.59c-0.126,0.216-0.321,0.468-0.583,0.755c-0.262,0.29-0.629,0.644-1.101,1.063
		c-0.241,0.21-0.508,0.467-0.795,0.771c-0.288,0.306-0.562,0.661-0.818,1.07s-0.473,0.876-0.646,1.4
		c-0.171,0.525-0.258,1.117-0.258,1.778h7.111v-2.046h-3.949C20.651,33.309,20.911,32.97,21.295,32.608z"/>
	<path d="M30.082,28.367c-0.472,0-0.876,0.079-1.212,0.236c-0.335,0.157-0.593,0.404-0.771,0.74h-0.031
		c0-0.609,0.016-1.118,0.047-1.527c0.032-0.409,0.091-0.731,0.181-0.967c0.09-0.236,0.206-0.404,0.347-0.504
		c0.142-0.1,0.323-0.149,0.543-0.149c0.294,0,0.509,0.115,0.646,0.346c0.063,0.115,0.104,0.244,0.125,0.386
		c0.021,0.142,0.032,0.291,0.032,0.448h2.549c-0.021-1.007-0.317-1.733-0.889-2.179c-0.572-0.446-1.356-0.67-2.353-0.67
		c-0.903,0-1.611,0.135-2.125,0.402s-0.901,0.658-1.164,1.172c-0.262,0.514-0.424,1.139-0.487,1.873
		c-0.063,0.734-0.095,1.563-0.095,2.485c0,0.84,0.036,1.592,0.11,2.258c0.073,0.667,0.237,1.235,0.496,1.708
		c0.257,0.471,0.628,0.834,1.117,1.085c0.487,0.252,1.141,0.378,1.959,0.378c0.733,0,1.337-0.106,1.809-0.322
		c0.473-0.216,0.845-0.506,1.117-0.874c0.272-0.367,0.462-0.796,0.567-1.29c0.104-0.492,0.155-1.017,0.155-1.573
		c0-1.248-0.232-2.137-0.698-2.667C31.59,28.633,30.932,28.367,30.082,28.367z M29.91,33.71c-0.138,0.341-0.395,0.511-0.772,0.511
		c-0.388,0-0.647-0.188-0.778-0.565c-0.131-0.379-0.196-0.898-0.196-1.559c0-0.252,0.014-0.484,0.039-0.7
		c0.026-0.215,0.073-0.403,0.142-0.566c0.067-0.162,0.165-0.288,0.291-0.378c0.125-0.089,0.289-0.134,0.487-0.134
		c0.421,0,0.69,0.154,0.811,0.464c0.121,0.31,0.182,0.812,0.182,1.504C30.114,32.895,30.046,33.369,29.91,33.71z"/>
	<path d="M32.311,15.859l-6.571-5.591c0.038-0.093,0.061-0.194,0.061-0.301c0-0.441-0.358-0.8-0.8-0.8
		c-0.442,0-0.801,0.358-0.801,0.8c0,0.106,0.022,0.208,0.061,0.301l-6.571,5.591H9.5v25h31v-25H32.311z M32.54,37.473v1.854
		l-0.244,0.244H14.772c-0.543,0-0.983-0.441-0.983-0.983V21.278h22.422v14.377l-0.244,0.243h-1.854
		C33.248,35.898,32.54,36.607,32.54,37.473z M16.887,18.738c0-0.643,0.521-1.164,1.164-1.164c0.644,0,1.164,0.521,1.164,1.164
		s-0.521,1.163-1.164,1.163C17.408,19.901,16.887,19.381,16.887,18.738z M20.36,18.738c0-0.643,0.521-1.164,1.166-1.164
		c0.642,0,1.162,0.521,1.162,1.164s-0.521,1.163-1.162,1.163C20.882,19.901,20.36,19.381,20.36,18.738z M23.836,18.738
		c0-0.643,0.521-1.164,1.164-1.164c0.642,0,1.163,0.521,1.163,1.164S25.642,19.901,25,19.901
		C24.357,19.901,23.836,19.381,23.836,18.738z M27.312,18.738c0-0.643,0.521-1.164,1.162-1.164c0.644,0,1.165,0.521,1.165,1.164
		s-0.521,1.163-1.165,1.163C27.832,19.901,27.312,19.381,27.312,18.738z M30.785,18.738c0-0.643,0.521-1.164,1.164-1.164
		c0.643,0,1.164,0.521,1.164,1.164s-0.521,1.163-1.164,1.163C31.306,19.901,30.785,19.381,30.785,18.738z M24.594,10.642
		c0.121,0.073,0.255,0.127,0.406,0.127s0.285-0.054,0.406-0.127l6.133,5.218H18.461L24.594,10.642z M10.5,16.859h2.531
		c-0.262,0.357-0.422,0.795-0.422,1.271v20.456c0,0.478,0.16,0.914,0.422,1.272H10.5V16.859z M39.5,39.859h-5.825l3.716-3.716
		V18.131c0-0.477-0.16-0.914-0.422-1.271H39.5V39.859z"/>
</g>
</svg>
