<?xml version="1.0" encoding="utf-8"?>
<!-- Generator: Adobe Illustrator 16.0.0, SVG Export Plug-In . SVG Version: 6.00 Build 0)  -->
<!DOCTYPE svg PUBLIC "-//W3C//DTD SVG 1.1//EN" "http://www.w3.org/Graphics/SVG/1.1/DTD/svg11.dtd">
<svg version="1.1" id="Layer_1" xmlns="http://www.w3.org/2000/svg" xmlns:xlink="http://www.w3.org/1999/xlink" x="0px" y="0px"
	 width="50px" height="50px" viewBox="0 0 50 50" enable-background="new 0 0 50 50" xml:space="preserve">
<g>
	<rect x="11.834" y="23.827" width="3.667" height="3.667"/>
	<path d="M37.521,12.91v-2.821h-7v2.821H28.5v-2.821h-7v2.821h-2.021v-2.821h-7v2.821H8.5v27h33v-27H37.521z M31.521,11.089h5v4h-5
		V11.089z M22.5,11.089h5v4h-5V11.089z M13.479,11.089h5v4h-5V11.089z M39.5,37.41h-29v-18h29V37.41z"/>
	<rect x="17.5" y="23.827" width="3.667" height="3.667"/>
	<rect x="23.167" y="23.827" width="3.667" height="3.667"/>
	<rect x="28.833" y="23.827" width="3.667" height="3.667"/>
	<rect x="34.5" y="23.827" width="3.667" height="3.667"/>
	<rect x="11.833" y="29.494" width="3.667" height="3.667"/>
	<rect x="17.5" y="29.494" width="3.667" height="3.667"/>
	<rect x="23.167" y="29.494" width="3.667" height="3.667"/>
	<rect x="28.833" y="29.494" width="3.667" height="3.667"/>
	<rect x="34.5" y="29.494" width="3.667" height="3.667"/>
</g>
</svg>
