<?xml version="1.0" encoding="utf-8"?>
<!-- Generator: Adobe Illustrator 16.0.0, SVG Export Plug-In . SVG Version: 6.00 Build 0)  -->
<!DOCTYPE svg PUBLIC "-//W3C//DTD SVG 1.1//EN" "http://www.w3.org/Graphics/SVG/1.1/DTD/svg11.dtd">
<svg version="1.1" id="Layer_1" xmlns="http://www.w3.org/2000/svg" xmlns:xlink="http://www.w3.org/1999/xlink" x="0px" y="0px"
	 width="50px" height="50px" viewBox="0 0 50 50" enable-background="new 0 0 50 50" xml:space="preserve">
<g>
	<path d="M35.228,15.968h-2.789l-6.699-5.699c0.038-0.093,0.061-0.194,0.061-0.301c0-0.441-0.358-0.8-0.8-0.8
		c-0.442,0-0.801,0.358-0.801,0.8c0,0.106,0.022,0.208,0.061,0.301l-6.698,5.699h-2.789c-1.193,0-2.163,0.971-2.163,2.163v20.456
		c0,1.193,0.97,2.163,2.163,2.163h18.012l4.606-4.606V18.131C37.391,16.938,36.42,15.968,35.228,15.968z M33.113,18.738
		c0,0.643-0.521,1.163-1.164,1.163c-0.644,0-1.164-0.521-1.164-1.163s0.521-1.164,1.164-1.164
		C32.592,17.574,33.113,18.096,33.113,18.738z M24.594,10.642c0.121,0.073,0.255,0.127,0.406,0.127s0.285-0.054,0.406-0.127
		l6.26,5.326H18.334L24.594,10.642z M29.639,18.738c0,0.643-0.521,1.163-1.165,1.163c-0.642,0-1.162-0.521-1.162-1.163
		s0.521-1.164,1.162-1.164C29.117,17.574,29.639,18.096,29.639,18.738z M26.163,18.738c0,0.643-0.521,1.163-1.163,1.163
		c-0.643,0-1.164-0.521-1.164-1.163s0.521-1.164,1.164-1.164C25.642,17.574,26.163,18.096,26.163,18.738z M22.688,18.738
		c0,0.643-0.521,1.163-1.162,1.163c-0.645,0-1.166-0.521-1.166-1.163s0.521-1.164,1.166-1.164
		C22.168,17.574,22.688,18.096,22.688,18.738z M18.051,17.574c0.644,0,1.164,0.521,1.164,1.164s-0.521,1.163-1.164,1.163
		c-0.643,0-1.164-0.521-1.164-1.163S17.408,17.574,18.051,17.574z M36.211,35.655l-0.244,0.243h-1.854
		c-0.865,0-1.573,0.709-1.573,1.574v1.854l-0.244,0.244H14.772c-0.543,0-0.983-0.441-0.983-0.983V21.278h22.422V35.655z"/>
	<path d="M21.555,28.831c-0.126,0.216-0.321,0.468-0.583,0.755c-0.262,0.29-0.629,0.644-1.101,1.063
		c-0.241,0.21-0.508,0.467-0.795,0.771c-0.288,0.306-0.562,0.661-0.818,1.07s-0.473,0.876-0.646,1.4
		c-0.171,0.525-0.258,1.117-0.258,1.778h7.111v-2.046h-3.949c0.136-0.314,0.396-0.653,0.779-1.015
		c0.383-0.361,0.847-0.811,1.393-1.346c0.346-0.325,0.631-0.619,0.857-0.881c0.225-0.263,0.406-0.527,0.543-0.796
		c0.136-0.267,0.229-0.552,0.283-0.856c0.052-0.305,0.079-0.667,0.079-1.086c0-0.44-0.053-0.85-0.159-1.228
		c-0.104-0.378-0.287-0.705-0.55-0.983c-0.263-0.277-0.616-0.498-1.062-0.66c-0.446-0.162-1.005-0.245-1.676-0.245
		c-2.393,0-3.589,1.118-3.589,3.352v0.362h2.456c0-0.209,0.005-0.435,0.015-0.676c0.011-0.241,0.049-0.464,0.111-0.67
		c0.063-0.204,0.162-0.371,0.298-0.503c0.137-0.132,0.33-0.196,0.583-0.196c0.378,0,0.626,0.134,0.747,0.401
		c0.12,0.268,0.181,0.621,0.181,1.062c0,0.21-0.011,0.403-0.031,0.582C21.753,28.42,21.681,28.617,21.555,28.831z"/>
	<path d="M28.91,28.863c-0.373,0.729-0.704,1.492-0.991,2.289c-0.289,0.798-0.53,1.589-0.724,2.377
		c-0.194,0.786-0.313,1.499-0.354,2.14h2.738c0.031-0.618,0.126-1.312,0.283-2.077c0.157-0.767,0.367-1.551,0.629-2.353
		c0.262-0.803,0.572-1.595,0.929-2.376c0.356-0.782,0.75-1.497,1.181-2.147v-1.967h-7.097v2.233h4.562
		C29.669,27.508,29.282,28.134,28.91,28.863z"/>
</g>
</svg>
