<?xml version="1.0" encoding="utf-8"?>
<!-- Generator: Adobe Illustrator 16.0.0, SVG Export Plug-In . SVG Version: 6.00 Build 0)  -->
<!DOCTYPE svg PUBLIC "-//W3C//DTD SVG 1.1//EN" "http://www.w3.org/Graphics/SVG/1.1/DTD/svg11.dtd">
<svg version="1.1" id="Layer_1" xmlns="http://www.w3.org/2000/svg" xmlns:xlink="http://www.w3.org/1999/xlink" x="0px" y="0px"
	 width="50px" height="50px" viewBox="0 0 50 50" enable-background="new 0 0 50 50" xml:space="preserve">
<g>
	<path d="M36.273,9.688h-0.681V9.313c0-0.552-0.448-1-1-1s-1,0.448-1,1v0.375h-1.837V9.313c0-0.552-0.448-1-1-1s-1,0.448-1,1v0.375
		h-1.837V9.313c0-0.552-0.448-1-1-1s-1,0.448-1,1v0.375h-1.837V9.313c0-0.552-0.448-1-1-1s-1,0.448-1,1v0.375h-1.837V9.313
		c0-0.552-0.448-1-1-1s-1,0.448-1,1v0.375h-1.837V9.313c0-0.552-0.448-1-1-1s-1,0.448-1,1v0.375h-0.682
		C11.12,9.688,9,11.808,9,14.414v22.547c0,2.606,2.12,4.727,4.727,4.727h22.547c2.606,0,4.727-2.12,4.727-4.727V14.414
		C41,11.808,38.88,9.688,36.273,9.688z M34.093,9.313c0-0.276,0.224-0.5,0.5-0.5s0.5,0.224,0.5,0.5v6.482c0,0.276-0.224,0.5-0.5,0.5
		s-0.5-0.224-0.5-0.5V9.313z M30.256,9.313c0-0.276,0.224-0.5,0.5-0.5s0.5,0.224,0.5,0.5v6.482c0,0.276-0.224,0.5-0.5,0.5
		s-0.5-0.224-0.5-0.5V9.313z M26.419,9.313c0-0.276,0.224-0.5,0.5-0.5s0.5,0.224,0.5,0.5v6.482c0,0.276-0.224,0.5-0.5,0.5
		s-0.5-0.224-0.5-0.5V9.313z M22.582,9.313c0-0.276,0.224-0.5,0.5-0.5s0.5,0.224,0.5,0.5v6.482c0,0.276-0.224,0.5-0.5,0.5
		s-0.5-0.224-0.5-0.5V9.313z M18.745,9.313c0-0.276,0.224-0.5,0.5-0.5s0.5,0.224,0.5,0.5v6.482c0,0.276-0.224,0.5-0.5,0.5
		s-0.5-0.224-0.5-0.5V9.313z M14.908,9.313c0-0.276,0.224-0.5,0.5-0.5s0.5,0.224,0.5,0.5v6.482c0,0.276-0.224,0.5-0.5,0.5
		s-0.5-0.224-0.5-0.5V9.313z M38.592,36.961c0,1.278-1.04,2.318-2.318,2.318H13.727c-1.278,0-2.318-1.04-2.318-2.318V14.414
		c0-1.278,1.04-2.318,2.318-2.318h0.682v2.513c-0.339,0.286-0.56,0.709-0.56,1.187c0,0.86,0.699,1.56,1.56,1.56
		s1.56-0.699,1.56-1.56c0-0.478-0.221-0.9-0.56-1.187v-2.513h1.837v2.513c-0.339,0.286-0.56,0.709-0.56,1.187
		c0,0.86,0.699,1.56,1.56,1.56s1.56-0.699,1.56-1.56c0-0.478-0.221-0.9-0.56-1.187v-2.513h1.837v2.513
		c-0.339,0.286-0.56,0.709-0.56,1.187c0,0.86,0.699,1.56,1.56,1.56s1.56-0.699,1.56-1.56c0-0.478-0.221-0.9-0.56-1.187v-2.513h1.837
		v2.513c-0.339,0.286-0.56,0.709-0.56,1.187c0,0.86,0.699,1.56,1.56,1.56s1.56-0.699,1.56-1.56c0-0.478-0.221-0.9-0.56-1.187v-2.513
		h1.837v2.513c-0.339,0.286-0.56,0.709-0.56,1.187c0,0.86,0.699,1.56,1.56,1.56s1.56-0.699,1.56-1.56c0-0.478-0.221-0.9-0.56-1.187
		v-2.513h1.837v2.513c-0.339,0.286-0.56,0.709-0.56,1.187c0,0.86,0.699,1.56,1.56,1.56s1.56-0.699,1.56-1.56
		c0-0.478-0.221-0.9-0.56-1.187v-2.513h0.681c1.278,0,2.318,1.04,2.318,2.318V36.961z"/>
	<path d="M25.037,32.804c0.328,0,0.621-0.052,0.883-0.155c0.26-0.103,0.484-0.244,0.672-0.427c0.188-0.182,0.334-0.391,0.437-0.628
		c0.103-0.236,0.154-0.481,0.154-0.736c0-0.593-0.185-1.096-0.555-1.51c-0.369-0.411-0.905-0.617-1.609-0.617
		c-0.29,0-0.557,0.055-0.8,0.163c-0.242,0.11-0.451,0.262-0.627,0.454c-0.176,0.195-0.313,0.419-0.409,0.674
		c-0.098,0.255-0.146,0.527-0.146,0.818c0,0.546,0.182,1.009,0.545,1.392C23.947,32.612,24.432,32.804,25.037,32.804z"/>
	<path d="M13.5,36.748h23V20.875h-23V36.748z M20.273,26.366c0.219-0.801,0.555-1.501,1.009-2.1
		c0.454-0.601,1.031-1.076,1.728-1.428c0.697-0.352,1.524-0.527,2.481-0.527c0.559,0,1.085,0.072,1.583,0.218
		c0.497,0.146,0.939,0.361,1.327,0.646c0.388,0.284,0.712,0.643,0.973,1.072c0.262,0.43,0.439,0.937,0.537,1.518H27.02
		c-0.061-0.254-0.145-0.456-0.254-0.607c-0.109-0.152-0.237-0.276-0.383-0.374c-0.145-0.084-0.296-0.14-0.455-0.163
		c-0.156-0.024-0.303-0.037-0.437-0.037c-0.447,0-0.826,0.101-1.136,0.301c-0.309,0.2-0.563,0.457-0.764,0.772
		c-0.199,0.315-0.352,0.66-0.454,1.037c-0.104,0.375-0.161,0.744-0.174,1.108h0.037c0.314-0.521,0.736-0.875,1.265-1.064
		c0.526-0.188,1.093-0.281,1.699-0.281c0.582,0,1.125,0.108,1.628,0.327c0.503,0.218,0.937,0.519,1.3,0.901
		c0.363,0.381,0.651,0.823,0.863,1.326c0.213,0.503,0.318,1.046,0.318,1.628c0,0.752-0.134,1.418-0.4,2
		c-0.267,0.583-0.633,1.07-1.1,1.464c-0.467,0.396-1.007,0.694-1.618,0.9c-0.613,0.206-1.264,0.31-1.954,0.31
		c-0.935,0-1.723-0.183-2.364-0.546c-0.644-0.364-1.164-0.846-1.564-1.445c-0.399-0.601-0.688-1.285-0.864-2.055
		s-0.264-1.562-0.264-2.374C19.945,28.009,20.056,27.167,20.273,26.366z"/>
</g>
</svg>
