<?xml version="1.0" encoding="utf-8"?>
<!-- Generator: Adobe Illustrator 16.0.0, SVG Export Plug-In . SVG Version: 6.00 Build 0)  -->
<!DOCTYPE svg PUBLIC "-//W3C//DTD SVG 1.1//EN" "http://www.w3.org/Graphics/SVG/1.1/DTD/svg11.dtd">
<svg version="1.1" id="Layer_1" xmlns="http://www.w3.org/2000/svg" xmlns:xlink="http://www.w3.org/1999/xlink" x="0px" y="0px"
	 width="50px" height="50px" viewBox="0 0 50 50" enable-background="new 0 0 50 50" xml:space="preserve">
<g>
	<path fill-rule="evenodd" clip-rule="evenodd" d="M31.279,21.291c-0.093-0.387-0.227-0.656-0.399-0.81s-0.399-0.23-0.68-0.23
		s-0.507,0.077-0.681,0.23c-0.173,0.153-0.307,0.423-0.399,0.81c-0.094,0.387-0.153,0.91-0.181,1.57
		c-0.026,0.66-0.039,1.496-0.039,2.51c0,1,0.013,1.827,0.039,2.479c0.027,0.654,0.087,1.174,0.181,1.561
		c0.093,0.387,0.227,0.657,0.399,0.81c0.174,0.153,0.4,0.23,0.681,0.23s0.507-0.077,0.68-0.23c0.173-0.152,0.307-0.423,0.399-0.81
		c0.094-0.387,0.154-0.906,0.181-1.561c0.026-0.652,0.04-1.479,0.04-2.479c0-1.014-0.014-1.85-0.04-2.51
		S31.373,21.678,31.279,21.291z"/>
	<path fill-rule="evenodd" clip-rule="evenodd" d="M32.584,37.209c0-2.206,1.794-4,4-4h0.666V13.625h-24.5v24.25h19.834V37.209z
		 M21.9,32.291h-3.36v-9.82h-2.72v-2.12h0.42c0.64,0,1.163-0.072,1.57-0.22c0.406-0.146,0.729-0.33,0.97-0.55
		c0.239-0.22,0.417-0.46,0.53-0.72c0.113-0.261,0.189-0.504,0.229-0.73h2.36V32.291z M27.68,32.081
		c-0.613-0.326-1.08-0.797-1.4-1.41c-0.319-0.613-0.523-1.366-0.609-2.26c-0.087-0.894-0.13-1.913-0.13-3.061
		c0-1.013,0.046-1.96,0.14-2.84s0.301-1.643,0.62-2.29c0.32-0.646,0.786-1.156,1.4-1.529c0.612-0.373,1.446-0.561,2.5-0.561
		c1.053,0,1.89,0.164,2.51,0.49c0.62,0.327,1.09,0.797,1.41,1.41c0.319,0.613,0.522,1.37,0.61,2.27
		c0.086,0.9,0.129,1.917,0.129,3.05c0,1.014-0.047,1.96-0.139,2.841c-0.094,0.88-0.301,1.643-0.621,2.29
		c-0.32,0.646-0.787,1.156-1.399,1.529c-0.614,0.373-1.447,0.561-2.5,0.561C29.133,32.571,28.293,32.407,27.68,32.081z"/>
	<path fill-rule="evenodd" clip-rule="evenodd" d="M39.25,34.898l-0.311,0.311h-2.355c-1.101,0-2,0.9-2,2v2.356l-0.311,0.31H12
		c-0.689,0-1.25-0.561-1.25-1.25v-25h-1.5v25c0,1.518,1.232,2.75,2.75,2.75h22.895l5.855-5.855V13.625h-1.5V34.898z"/>
	<circle fill-rule="evenodd" clip-rule="evenodd" cx="10.818" cy="10.313" r="1.568"/>
	<circle fill-rule="evenodd" clip-rule="evenodd" cx="17.908" cy="10.313" r="1.568"/>
	<circle fill-rule="evenodd" clip-rule="evenodd" cx="25" cy="10.313" r="1.568"/>
	<circle fill-rule="evenodd" clip-rule="evenodd" cx="32.092" cy="10.313" r="1.568"/>
	<circle fill-rule="evenodd" clip-rule="evenodd" cx="39.182" cy="10.313" r="1.568"/>
</g>
</svg>
