<?xml version="1.0" encoding="utf-8"?>
<!-- Generator: Adobe Illustrator 16.0.0, SVG Export Plug-In . SVG Version: 6.00 Build 0)  -->
<!DOCTYPE svg PUBLIC "-//W3C//DTD SVG 1.1//EN" "http://www.w3.org/Graphics/SVG/1.1/DTD/svg11.dtd">
<svg version="1.1" id="Layer_1" xmlns="http://www.w3.org/2000/svg" xmlns:xlink="http://www.w3.org/1999/xlink" x="0px" y="0px"
	 width="50px" height="50px" viewBox="0 0 50 50" enable-background="new 0 0 50 50" xml:space="preserve">
<g>
	<path d="M38,9.25H12c-1.518,0-2.75,1.234-2.75,2.75v26c0,1.518,1.232,2.75,2.75,2.75h22.895l5.855-5.855V12
		C40.75,10.484,39.517,9.25,38,9.25z M33.833,11.292c0.817,0,1.479,0.662,1.479,1.479c0,0.816-0.662,1.479-1.479,1.479
		s-1.479-0.662-1.479-1.479C32.354,11.954,33.016,11.292,33.833,11.292z M29.416,11.292c0.817,0,1.479,0.662,1.479,1.479
		c0,0.816-0.662,1.479-1.479,1.479c-0.816,0-1.479-0.662-1.479-1.479C27.938,11.954,28.6,11.292,29.416,11.292z M25,11.292
		c0.816,0,1.479,0.662,1.479,1.479c0,0.816-0.662,1.479-1.479,1.479c-0.817,0-1.479-0.662-1.479-1.479
		C23.521,11.954,24.183,11.292,25,11.292z M20.584,11.292c0.816,0,1.479,0.662,1.479,1.479c0,0.816-0.662,1.479-1.479,1.479
		c-0.818,0-1.48-0.662-1.48-1.479C19.104,11.954,19.766,11.292,20.584,11.292z M16.167,11.292c0.817,0,1.479,0.662,1.479,1.479
		c0,0.816-0.662,1.479-1.479,1.479s-1.479-0.662-1.479-1.479C14.688,11.954,15.35,11.292,16.167,11.292z M39.25,34.273l-0.311,0.311
		h-2.355c-1.101,0-2,0.9-2,2v2.356l-0.311,0.31H12c-0.689,0-1.25-0.561-1.25-1.25V16h28.5V34.273z"/>
	<path d="M20.62,25.601c-0.16,0.273-0.407,0.594-0.74,0.96c-0.333,0.367-0.8,0.817-1.4,1.351c-0.307,0.267-0.644,0.594-1.01,0.979
		c-0.367,0.388-0.713,0.841-1.04,1.36c-0.327,0.521-0.6,1.113-0.82,1.78c-0.22,0.667-0.33,1.42-0.33,2.26h9.04v-2.6H19.3
		c0.173-0.4,0.503-0.83,0.99-1.29s1.077-1.03,1.77-1.71c0.44-0.413,0.803-0.787,1.09-1.12s0.517-0.67,0.69-1.011
		c0.173-0.34,0.293-0.703,0.36-1.09c0.066-0.387,0.1-0.847,0.1-1.38c0-0.56-0.067-1.08-0.2-1.56c-0.133-0.48-0.367-0.896-0.7-1.25
		c-0.333-0.354-0.783-0.634-1.35-0.84c-0.567-0.207-1.277-0.311-2.13-0.311c-3.04,0-4.56,1.42-4.56,4.26v0.46h3.12
		c0-0.267,0.007-0.553,0.02-0.859s0.06-0.59,0.14-0.851c0.08-0.26,0.207-0.473,0.38-0.64s0.42-0.25,0.74-0.25
		c0.48,0,0.796,0.17,0.95,0.51s0.23,0.79,0.23,1.351c0,0.267-0.013,0.513-0.04,0.739C20.873,25.078,20.78,25.328,20.62,25.601z"/>
	<path d="M28.94,34.291h3.36v-14.16h-2.36c-0.04,0.227-0.117,0.47-0.23,0.73c-0.113,0.26-0.29,0.5-0.53,0.72
		c-0.24,0.22-0.563,0.403-0.97,0.55c-0.407,0.147-0.93,0.22-1.57,0.22h-0.42v2.12h2.72V34.291z"/>
</g>
</svg>
