<?xml version="1.0" encoding="utf-8"?>
<!-- Generator: Adobe Illustrator 16.0.0, SVG Export Plug-In . SVG Version: 6.00 Build 0)  -->
<!DOCTYPE svg PUBLIC "-//W3C//DTD SVG 1.1//EN" "http://www.w3.org/Graphics/SVG/1.1/DTD/svg11.dtd">
<svg version="1.1" id="Layer_1" xmlns="http://www.w3.org/2000/svg" xmlns:xlink="http://www.w3.org/1999/xlink" x="0px" y="0px"
	 width="50px" height="50px" viewBox="0 0 50 50" enable-background="new 0 0 50 50" xml:space="preserve">
<g>
	<path d="M38,9.25h-1.123c0.029-0.093,0.058-0.186,0.058-0.289C36.935,8.431,36.504,8,35.973,8s-0.961,0.431-0.961,0.961
		c0,0.103,0.028,0.196,0.059,0.289h-3.68c0.029-0.093,0.058-0.186,0.058-0.289C31.448,8.431,31.018,8,30.486,8
		c-0.53,0-0.961,0.431-0.961,0.961c0,0.103,0.029,0.196,0.059,0.289h-3.681c0.029-0.093,0.058-0.186,0.058-0.289
		C25.961,8.431,25.531,8,25,8s-0.961,0.431-0.961,0.961c0,0.103,0.028,0.196,0.058,0.289h-3.681
		c0.029-0.093,0.059-0.186,0.059-0.289C20.475,8.431,20.044,8,19.514,8c-0.531,0-0.962,0.431-0.962,0.961
		c0,0.103,0.028,0.196,0.058,0.289h-3.68c0.03-0.093,0.059-0.186,0.059-0.289c0-0.531-0.43-0.961-0.961-0.961
		s-0.962,0.431-0.962,0.961c0,0.103,0.028,0.196,0.058,0.289H12c-1.518,0-2.75,1.233-2.75,2.75v26c0,1.517,1.232,2.75,2.75,2.75
		h22.895l5.855-5.856V12C40.75,10.483,39.517,9.25,38,9.25z M12,39.25c-0.689,0-1.25-0.561-1.25-1.25V17h28.5v17.273l-0.311,0.311
		h-2.355c-1.101,0-2,0.9-2,2v2.356l-0.311,0.31H12z"/>
	<path d="M24.716,25.725c0-2.953-2.467-4.105-5.096-4.105c-3.295,0-5.329,1.513-5.384,5.24h3.367
		c-0.018-1.225,0.396-2.431,1.836-2.431c0.757,0,1.531,0.468,1.531,1.278c0,2.106-3.331,2.971-5.455,5.186
		c-1.01,1.044-1.586,2.125-1.514,3.601H24.68v-3.061h-5.888c0.666-0.468,1.638-0.954,2.557-1.53
		C23.006,28.876,24.716,27.958,24.716,25.725z"/>
	<path d="M36.397,30.101c0-2.539-1.891-4.016-4.321-4.016c-0.955,0-1.836,0.108-2.629,0.685l0.414-1.909h5.51V21.8h-8.139
		l-1.26,7.22l3.529,0.126c0.287-0.558,0.953-0.702,1.512-0.702c1.135,0,1.639,0.792,1.639,1.836c0,0.937-0.721,1.675-1.818,1.675
		c-0.685,0-1.404-0.36-1.621-1.026c0-0.036-0.035-0.09-0.035-0.126l-3.764,0.378c0.721,2.341,2.521,3.583,5.293,3.583
		C33.606,34.764,36.397,33.611,36.397,30.101z"/>
</g>
</svg>
