<?xml version="1.0" encoding="utf-8"?>
<!-- Generator: Adobe Illustrator 16.0.0, SVG Export Plug-In . SVG Version: 6.00 Build 0)  -->
<!DOCTYPE svg PUBLIC "-//W3C//DTD SVG 1.1//EN" "http://www.w3.org/Graphics/SVG/1.1/DTD/svg11.dtd">
<svg version="1.1" id="Layer_1" xmlns="http://www.w3.org/2000/svg" xmlns:xlink="http://www.w3.org/1999/xlink" x="0px" y="0px"
	 width="50px" height="50px" viewBox="0 0 50 50" enable-background="new 0 0 50 50" xml:space="preserve">
<g>
	<path d="M38.25,10.25h-1.123c0.029-0.093,0.058-0.186,0.058-0.289C37.185,9.431,36.754,9,36.223,9s-0.961,0.431-0.961,0.961
		c0,0.103,0.028,0.196,0.059,0.289h-3.68c0.029-0.093,0.058-0.186,0.058-0.289C31.698,9.431,31.268,9,30.736,9
		c-0.53,0-0.961,0.431-0.961,0.961c0,0.103,0.029,0.196,0.059,0.289h-3.681c0.029-0.093,0.058-0.186,0.058-0.289
		C26.211,9.431,25.781,9,25.25,9s-0.961,0.431-0.961,0.961c0,0.103,0.028,0.196,0.058,0.289h-3.681
		c0.029-0.093,0.059-0.186,0.059-0.289C20.725,9.431,20.294,9,19.764,9c-0.531,0-0.962,0.431-0.962,0.961
		c0,0.103,0.028,0.196,0.058,0.289h-3.68c0.03-0.093,0.059-0.186,0.059-0.289c0-0.531-0.43-0.961-0.961-0.961
		s-0.962,0.431-0.962,0.961c0,0.103,0.028,0.196,0.058,0.289H12.25c-1.518,0-2.75,1.233-2.75,2.75v26c0,1.517,1.232,2.75,2.75,2.75
		h22.895L41,35.895V13C41,11.484,39.767,10.25,38.25,10.25z M39.5,35.273l-0.311,0.311h-2.355c-1.101,0-2,0.9-2,2v2.356l-0.311,0.31
		H12.25C11.561,40.25,11,39.69,11,39V14h28.5V35.273z"/>
	<rect x="20.235" y="19.267" width="4.299" height="4.299"/>
	<rect x="25.966" y="19.267" width="4.299" height="4.299"/>
	<rect x="31.698" y="19.267" width="4.299" height="4.299"/>
	<rect x="14.503" y="24.999" width="4.299" height="4.299"/>
	<rect x="20.235" y="24.999" width="4.299" height="4.299"/>
	<path d="M30.265,24.999h-4.299v4.299h4.299V24.999z M29.616,28.648h-3v-3h3V28.648z"/>
	<rect x="31.698" y="24.999" width="4.299" height="4.299"/>
	<rect x="14.503" y="30.73" width="4.299" height="4.299"/>
	<rect x="20.235" y="30.73" width="4.299" height="4.299"/>
	<rect x="25.966" y="30.73" width="4.299" height="4.299"/>
	<rect x="31.698" y="30.73" width="4.299" height="4.299"/>
</g>
</svg>
