<?xml version="1.0" encoding="utf-8"?>
<!-- Generator: Adobe Illustrator 16.0.0, SVG Export Plug-In . SVG Version: 6.00 Build 0)  -->
<!DOCTYPE svg PUBLIC "-//W3C//DTD SVG 1.1//EN" "http://www.w3.org/Graphics/SVG/1.1/DTD/svg11.dtd">
<svg version="1.1" id="Layer_1" xmlns="http://www.w3.org/2000/svg" xmlns:xlink="http://www.w3.org/1999/xlink" x="0px" y="0px"
	 width="50px" height="50px" viewBox="0 0 50 50" enable-background="new 0 0 50 50" xml:space="preserve">
<g>
	<path d="M37,10.724h-1.098V9.526c0-1.517-1.197-2.75-2.67-2.75s-2.67,1.233-2.67,2.75v1.197h-2.74V9.526
		c0-1.517-1.197-2.75-2.67-2.75s-2.67,1.233-2.67,2.75v1.197h-2.74V9.526c0-1.517-1.197-2.75-2.67-2.75s-2.67,1.233-2.67,2.75v1.197
		H13c-2.343,0-4.25,1.907-4.25,4.25v24c0,2.343,1.907,4.25,4.25,4.25h24c2.344,0,4.25-1.907,4.25-4.25v-24
		C41.25,12.631,39.344,10.724,37,10.724z M32.063,9.526c0-0.689,0.525-1.25,1.17-1.25s1.17,0.561,1.17,1.25v4.896
		c0,0.689-0.525,1.25-1.17,1.25s-1.17-0.561-1.17-1.25V9.526z M23.982,9.526c0-0.689,0.525-1.25,1.17-1.25s1.17,0.561,1.17,1.25
		v4.896c0,0.689-0.525,1.25-1.17,1.25s-1.17-0.561-1.17-1.25V9.526z M15.902,9.526c0-0.689,0.525-1.25,1.17-1.25
		s1.17,0.561,1.17,1.25v4.896c0,0.689-0.525,1.25-1.17,1.25s-1.17-0.561-1.17-1.25V9.526z M38.75,38.974
		c0,0.965-0.785,1.75-1.75,1.75H13c-0.965,0-1.75-0.785-1.75-1.75v-22h27.5V38.974z"/>
	<rect x="31.904" y="21.402" width="4.596" height="4.088"/>
	<rect x="31.904" y="26.86" width="4.596" height="4.086"/>
	<rect x="13.5" y="32.316" width="4.595" height="4.086"/>
	<rect x="19.634" y="32.316" width="4.596" height="4.086"/>
	<rect x="25.771" y="32.316" width="4.595" height="4.086"/>
	<rect x="31.904" y="32.316" width="4.596" height="4.086"/>
	<path d="M21.542,28.521h-4.095v-0.013c0.424-0.261,0.871-0.512,1.339-0.754c0.468-0.243,0.897-0.514,1.287-0.813
		c0.39-0.3,0.71-0.648,0.962-1.047c0.251-0.398,0.377-0.889,0.377-1.469c0-0.477-0.089-0.896-0.267-1.255s-0.429-0.656-0.754-0.891
		c-0.325-0.233-0.715-0.409-1.17-0.526s-0.956-0.176-1.501-0.176c-0.607,0-1.155,0.087-1.645,0.261
		c-0.49,0.173-0.904,0.427-1.242,0.76c-0.338,0.334-0.589,0.743-0.754,1.229s-0.23,1.04-0.195,1.664h2.444
		c-0.018-0.555,0.076-1.003,0.279-1.346c0.204-0.342,0.565-0.513,1.085-0.513c0.303,0,0.561,0.08,0.774,0.24
		c0.212,0.16,0.318,0.448,0.318,0.864c0,0.165-0.042,0.313-0.124,0.442c-0.083,0.13-0.187,0.247-0.312,0.351
		c-0.126,0.104-0.26,0.199-0.403,0.286c-0.143,0.087-0.271,0.165-0.384,0.234c-0.286,0.173-0.581,0.349-0.884,0.526
		c-0.304,0.178-0.596,0.364-0.877,0.559c-0.282,0.195-0.546,0.405-0.793,0.631c-0.247,0.226-0.466,0.468-0.657,0.728
		c-0.226,0.304-0.396,0.642-0.514,1.015c-0.117,0.372-0.162,0.779-0.136,1.222h7.839V28.521z"/>
	<path d="M26.099,28.781c-0.198,0-0.386-0.023-0.563-0.071s-0.33-0.123-0.459-0.228c-0.19-0.147-0.311-0.347-0.362-0.598H22.14
		c-0.018,0.147-0.009,0.322,0.026,0.526c0.035,0.203,0.102,0.416,0.202,0.637s0.243,0.438,0.429,0.65
		c0.187,0.212,0.425,0.402,0.715,0.571c0.29,0.169,0.641,0.306,1.053,0.41c0.412,0.104,0.895,0.155,1.45,0.155
		c0.65,0,1.229-0.08,1.735-0.24c0.507-0.16,0.932-0.381,1.274-0.663c0.342-0.281,0.603-0.617,0.78-1.007
		c0.177-0.391,0.267-0.814,0.267-1.274c0-0.528-0.078-0.988-0.234-1.378c-0.156-0.39-0.368-0.709-0.637-0.955
		c-0.269-0.247-0.583-0.432-0.942-0.553c-0.36-0.121-0.739-0.183-1.138-0.183c-0.338,0-0.683,0.037-1.034,0.111
		c-0.351,0.073-0.665,0.214-0.942,0.422l-0.026-0.025l0.26-1.196h4.212v-2.21h-6.214l-0.936,5.213h2.418
		c0.139-0.208,0.316-0.357,0.533-0.448c0.216-0.091,0.477-0.137,0.78-0.137c0.39,0,0.704,0.11,0.943,0.331
		c0.238,0.222,0.357,0.531,0.357,0.93c0,0.364-0.134,0.656-0.401,0.878C26.802,28.671,26.478,28.781,26.099,28.781z"/>
</g>
</svg>
