<?xml version="1.0" encoding="utf-8"?>
<!-- Generator: Adobe Illustrator 16.0.0, SVG Export Plug-In . SVG Version: 6.00 Build 0)  -->
<!DOCTYPE svg PUBLIC "-//W3C//DTD SVG 1.1//EN" "http://www.w3.org/Graphics/SVG/1.1/DTD/svg11.dtd">
<svg version="1.1" id="Layer_1" xmlns="http://www.w3.org/2000/svg" xmlns:xlink="http://www.w3.org/1999/xlink" x="0px" y="0px"
	 width="50px" height="50px" viewBox="0 0 50 50" enable-background="new 0 0 50 50" xml:space="preserve">
<g>
	<path d="M37,10.724h-1.098V9.526c0-1.517-1.197-2.75-2.67-2.75s-2.67,1.233-2.67,2.75v1.197h-2.74V9.526
		c0-1.517-1.197-2.75-2.67-2.75s-2.67,1.233-2.67,2.75v1.197h-2.74V9.526c0-1.517-1.197-2.75-2.67-2.75s-2.67,1.233-2.67,2.75v1.197
		H13c-2.343,0-4.25,1.907-4.25,4.25v2h2.5h27.5h2.5v-2C41.25,12.631,39.344,10.724,37,10.724z M18.242,14.422
		c0,0.689-0.525,1.25-1.17,1.25s-1.17-0.561-1.17-1.25V9.526c0-0.689,0.525-1.25,1.17-1.25s1.17,0.561,1.17,1.25V14.422z
		 M26.322,14.422c0,0.689-0.525,1.25-1.17,1.25s-1.17-0.561-1.17-1.25V9.526c0-0.689,0.525-1.25,1.17-1.25s1.17,0.561,1.17,1.25
		V14.422z M34.402,14.422c0,0.689-0.525,1.25-1.17,1.25s-1.17-0.561-1.17-1.25V9.526c0-0.689,0.525-1.25,1.17-1.25
		s1.17,0.561,1.17,1.25V14.422z"/>
	<path d="M8.75,38.974c0,2.343,1.907,4.25,4.25,4.25h24c2.344,0,4.25-1.907,4.25-4.25V18.875H8.75V38.974z M37,39.121H13.078v-1.875
		H37V39.121z M37,34.371H13.078v-1.875H37V34.371z M26.576,27.746H37v1.875H26.576V27.746z M13,21.791h11.505v7.83H13V21.791z"/>
</g>
</svg>
