<?xml version="1.0" encoding="utf-8"?>
<!-- Generator: Adobe Illustrator 16.0.0, SVG Export Plug-In . SVG Version: 6.00 Build 0)  -->
<!DOCTYPE svg PUBLIC "-//W3C//DTD SVG 1.1//EN" "http://www.w3.org/Graphics/SVG/1.1/DTD/svg11.dtd">
<svg version="1.1" id="Layer_1" xmlns="http://www.w3.org/2000/svg" xmlns:xlink="http://www.w3.org/1999/xlink" x="0px" y="0px"
	 width="50px" height="50px" viewBox="0 0 50 50" enable-background="new 0 0 50 50" xml:space="preserve">
<g>
	<path d="M38.75,38.974c0,0.965-0.785,1.75-1.75,1.75H13c-0.965,0-1.75-0.785-1.75-1.75V18.875h-2.5v20.099
		c0,2.343,1.907,4.25,4.25,4.25h24c2.344,0,4.25-1.907,4.25-4.25V18.875h-2.5V38.974z"/>
	<path d="M37,10.724h-1.098V9.526c0-1.517-1.197-2.75-2.67-2.75s-2.67,1.233-2.67,2.75v1.197h-2.74V9.526
		c0-1.517-1.197-2.75-2.67-2.75s-2.67,1.233-2.67,2.75v1.197h-2.74V9.526c0-1.517-1.197-2.75-2.67-2.75s-2.67,1.233-2.67,2.75v1.197
		H13c-2.343,0-4.25,1.907-4.25,4.25v2h2.5h1.5v21.901h19.834v-0.666c0-2.206,1.794-4,4-4h0.666V16.974h1.5h2.5v-2
		C41.25,12.631,39.344,10.724,37,10.724z M29.461,21.911c-0.547,0.827-1.047,1.736-1.5,2.729c-0.454,0.994-0.848,2-1.181,3.021
		c-0.333,1.02-0.601,2.017-0.8,2.99c-0.2,0.973-0.32,1.854-0.36,2.64h-3.479c0.053-0.813,0.203-1.72,0.449-2.72
		c0.247-1,0.554-2.007,0.92-3.021c0.367-1.013,0.787-1.982,1.261-2.91c0.474-0.926,0.963-1.723,1.47-2.39h-5.8v-2.84h9.021V21.911z
		 M32.063,9.526c0-0.689,0.525-1.25,1.17-1.25s1.17,0.561,1.17,1.25v4.896c0,0.072-0.027,0.135-0.038,0.203h-2.264
		c-0.011-0.068-0.038-0.131-0.038-0.203V9.526z M23.982,9.526c0-0.689,0.525-1.25,1.17-1.25s1.17,0.561,1.17,1.25v4.896
		c0,0.072-0.027,0.135-0.038,0.203h-2.264c-0.011-0.068-0.038-0.131-0.038-0.203V9.526z M15.902,9.526c0-0.689,0.525-1.25,1.17-1.25
		s1.17,0.561,1.17,1.25v4.896c0,0.072-0.027,0.135-0.038,0.203H15.94c-0.011-0.068-0.038-0.131-0.038-0.203V9.526z"/>
</g>
</svg>
