<?xml version="1.0" encoding="utf-8"?>
<!-- Generator: Adobe Illustrator 16.0.0, SVG Export Plug-In . SVG Version: 6.00 Build 0)  -->
<!DOCTYPE svg PUBLIC "-//W3C//DTD SVG 1.1//EN" "http://www.w3.org/Graphics/SVG/1.1/DTD/svg11.dtd">
<svg version="1.1" id="Layer_1" xmlns="http://www.w3.org/2000/svg" xmlns:xlink="http://www.w3.org/1999/xlink" x="0px" y="0px"
	 width="50px" height="50px" viewBox="0 0 50 50" enable-background="new 0 0 50 50" xml:space="preserve">
<g>
	<path d="M38,9.875h-1.123c0.029-0.093,0.058-0.186,0.058-0.289c0-0.531-0.431-0.961-0.962-0.961s-0.961,0.431-0.961,0.961
		c0,0.103,0.028,0.196,0.059,0.289h-3.68c0.029-0.093,0.058-0.186,0.058-0.289c0-0.531-0.431-0.961-0.962-0.961
		c-0.53,0-0.961,0.431-0.961,0.961c0,0.103,0.029,0.196,0.059,0.289h-3.681c0.029-0.093,0.058-0.186,0.058-0.289
		c0-0.531-0.43-0.961-0.961-0.961s-0.961,0.431-0.961,0.961c0,0.103,0.028,0.196,0.058,0.289h-3.681
		c0.029-0.093,0.059-0.186,0.059-0.289c0-0.531-0.431-0.961-0.961-0.961c-0.531,0-0.962,0.431-0.962,0.961
		c0,0.103,0.028,0.196,0.058,0.289h-3.68c0.03-0.093,0.059-0.186,0.059-0.289c0-0.531-0.43-0.961-0.961-0.961
		s-0.962,0.431-0.962,0.961c0,0.103,0.028,0.196,0.058,0.289H12c-1.518,0-2.75,1.233-2.75,2.75v26c0,1.518,1.232,2.75,2.75,2.75
		h22.895l5.855-5.855V12.625C40.75,11.109,39.517,9.875,38,9.875z M39.25,34.898l-0.311,0.311h-2.355c-1.101,0-2,0.9-2,2v2.356
		l-0.311,0.31H12c-0.689,0-1.25-0.561-1.25-1.25v-25h28.5V34.898z"/>
	<rect x="18.517" y="16.16" width="3.536" height="3.536"/>
	<rect x="23.232" y="16.16" width="3.536" height="3.536"/>
	<rect x="27.947" y="16.16" width="3.536" height="3.536"/>
	<rect x="32.662" y="16.16" width="3.537" height="3.536"/>
	<rect x="13.801" y="20.875" width="3.537" height="3.537"/>
	<rect x="18.517" y="20.875" width="3.536" height="3.537"/>
	<rect x="23.232" y="20.875" width="3.536" height="3.537"/>
	<rect x="27.947" y="20.875" width="3.536" height="3.537"/>
	<rect x="32.662" y="20.875" width="3.537" height="3.537"/>
	<rect x="13.801" y="25.59" width="3.537" height="3.537"/>
	<rect x="18.517" y="25.59" width="3.536" height="3.537"/>
	<rect x="23.232" y="25.59" width="3.536" height="3.537"/>
	<rect x="27.947" y="25.59" width="3.536" height="3.537"/>
	<rect x="32.662" y="25.59" width="3.537" height="3.537"/>
	<rect x="13.801" y="30.305" width="3.537" height="3.536"/>
	<rect x="18.517" y="30.305" width="3.536" height="3.536"/>
	<rect x="23.232" y="30.305" width="3.536" height="3.536"/>
	<rect x="27.947" y="30.305" width="3.536" height="3.536"/>
	<rect x="32.662" y="30.305" width="3.537" height="3.536"/>
	<rect x="13.801" y="35.609" width="8.251" height="1.768"/>
</g>
</svg>
