<?xml version="1.0" encoding="utf-8"?>
<!-- Generator: Adobe Illustrator 16.0.0, SVG Export Plug-In . SVG Version: 6.00 Build 0)  -->
<!DOCTYPE svg PUBLIC "-//W3C//DTD SVG 1.1//EN" "http://www.w3.org/Graphics/SVG/1.1/DTD/svg11.dtd">
<svg version="1.1" id="Layer_1" xmlns="http://www.w3.org/2000/svg" xmlns:xlink="http://www.w3.org/1999/xlink" x="0px" y="0px"
	 width="50px" height="50px" viewBox="0 0 50 50" enable-background="new 0 0 50 50" xml:space="preserve">
<path fill-rule="evenodd" clip-rule="evenodd" d="M26.07,26.611c-0.1-0.2-0.236-0.356-0.41-0.471c-0.174-0.112-0.393-0.17-0.66-0.17
	c-0.267,0-0.486,0.058-0.66,0.17c-0.173,0.114-0.31,0.271-0.41,0.471c-0.1,0.199-0.17,0.434-0.209,0.699
	c-0.041,0.268-0.061,0.561-0.061,0.881c0,0.319,0.02,0.616,0.061,0.89c0.039,0.273,0.109,0.51,0.209,0.71
	c0.101,0.2,0.237,0.36,0.41,0.48c0.174,0.119,0.394,0.18,0.66,0.18c0.268,0,0.486-0.061,0.66-0.18c0.174-0.12,0.311-0.28,0.41-0.48
	s0.17-0.437,0.21-0.71s0.06-0.57,0.06-0.89c0-0.32-0.02-0.613-0.06-0.881C26.24,27.045,26.17,26.811,26.07,26.611z"/>
<path fill-rule="evenodd" clip-rule="evenodd" d="M25,23.851c0.387,0,0.68-0.13,0.881-0.39c0.199-0.26,0.299-0.736,0.299-1.43
	c0-0.493-0.083-0.913-0.25-1.26c-0.166-0.347-0.477-0.521-0.93-0.521s-0.764,0.174-0.93,0.521c-0.167,0.347-0.25,0.767-0.25,1.26
	c0,0.693,0.1,1.17,0.3,1.43S24.613,23.851,25,23.851z"/>
<path fill-rule="evenodd" clip-rule="evenodd" d="M32.584,37.209c0-2.206,1.794-4,4-4h0.666V13.625h-24.5v24.25h19.834V37.209z
	 M29.51,29.851c-0.127,0.534-0.363,1.004-0.709,1.41c-0.348,0.407-0.827,0.728-1.44,0.96c-0.613,0.233-1.399,0.351-2.36,0.351
	c-0.959,0-1.746-0.11-2.359-0.33s-1.094-0.526-1.44-0.92s-0.583-0.86-0.71-1.4s-0.189-1.13-0.189-1.77c0-0.4,0.043-0.787,0.129-1.16
	c0.088-0.373,0.224-0.71,0.41-1.01c0.188-0.301,0.428-0.554,0.721-0.761c0.293-0.206,0.652-0.343,1.08-0.41v-0.039
	c-0.6-0.16-1.074-0.487-1.42-0.98c-0.348-0.493-0.521-1.16-0.521-2c0-0.533,0.077-1.023,0.229-1.47c0.154-0.447,0.4-0.833,0.74-1.16
	s0.783-0.58,1.33-0.76c0.547-0.181,1.213-0.271,2-0.271s1.453,0.087,2,0.26c0.547,0.174,0.99,0.42,1.33,0.74s0.587,0.703,0.74,1.15
	c0.153,0.446,0.23,0.95,0.23,1.51c0,0.8-0.17,1.46-0.51,1.98c-0.341,0.52-0.838,0.853-1.49,1v0.039c0.76,0.12,1.35,0.468,1.77,1.04
	c0.42,0.574,0.63,1.341,0.63,2.301C29.7,28.751,29.637,29.318,29.51,29.851z"/>
</svg>
