<?xml version="1.0" encoding="utf-8"?>
<!-- Generator: Adobe Illustrator 16.0.0, SVG Export Plug-In . SVG Version: 6.00 Build 0)  -->
<!DOCTYPE svg PUBLIC "-//W3C//DTD SVG 1.1//EN" "http://www.w3.org/Graphics/SVG/1.1/DTD/svg11.dtd">
<svg version="1.1" id="Layer_1" xmlns="http://www.w3.org/2000/svg" xmlns:xlink="http://www.w3.org/1999/xlink" x="0px" y="0px"
	 width="50px" height="50px" viewBox="0 0 50 50" enable-background="new 0 0 50 50" xml:space="preserve">
<g>
	<path d="M23.487,36.628c0.142,0.309,0.342,0.55,0.601,0.725c0.258,0.175,0.596,0.263,1.012,0.263c0.434,0,0.779-0.088,1.038-0.263
		c0.258-0.175,0.454-0.421,0.587-0.737c0.134-0.316,0.221-0.688,0.263-1.112s0.063-0.888,0.063-1.388c0-1.2-0.149-2.059-0.45-2.575
		c-0.3-0.517-0.8-0.774-1.5-0.774c-0.717,0-1.225,0.258-1.524,0.774s-0.45,1.375-0.45,2.575c0,0.5,0.025,0.967,0.075,1.4
		S23.346,36.319,23.487,36.628z"/>
	<path d="M8.75,38.974c0,2.343,1.907,4.25,4.25,4.25h24c2.344,0,4.25-1.907,4.25-4.25V18.875H8.75V38.974z M19.463,28.053
		c0.074-1.175,0.3-2.217,0.675-3.125S21.1,23.29,21.9,22.74c0.8-0.55,1.933-0.825,3.399-0.825c0.634,0,1.246,0.075,1.838,0.226
		c0.591,0.149,1.112,0.399,1.563,0.75c0.45,0.35,0.813,0.813,1.087,1.387c0.275,0.575,0.421,1.288,0.438,2.138h-3.449
		c0-0.7-0.121-1.233-0.363-1.6c-0.241-0.366-0.662-0.55-1.262-0.55c-0.484,0-0.867,0.112-1.15,0.337
		c-0.283,0.226-0.504,0.538-0.662,0.938c-0.159,0.4-0.263,0.875-0.313,1.425c-0.051,0.551-0.075,1.15-0.075,1.801v0.875H23
		c0.3-0.467,0.729-0.838,1.287-1.113c0.559-0.274,1.238-0.412,2.038-0.412c0.783,0,1.45,0.138,2,0.412
		c0.55,0.275,0.995,0.659,1.337,1.15c0.342,0.492,0.592,1.075,0.75,1.75s0.238,1.412,0.238,2.213c0,2.05-0.455,3.616-1.363,4.699
		c-0.908,1.084-2.362,1.625-4.362,1.625c-1.233,0-2.221-0.229-2.962-0.688c-0.742-0.458-1.305-1.066-1.688-1.824
		c-0.384-0.759-0.634-1.638-0.75-2.638c-0.117-1-0.176-2.042-0.176-3.125C19.35,30.44,19.388,29.228,19.463,28.053z"/>
	<path d="M37,10.724h-1.098V9.526c0-1.517-1.197-2.75-2.67-2.75s-2.67,1.233-2.67,2.75v1.197h-2.74V9.526
		c0-1.517-1.197-2.75-2.67-2.75s-2.67,1.233-2.67,2.75v1.197h-2.74V9.526c0-1.517-1.197-2.75-2.67-2.75s-2.67,1.233-2.67,2.75v1.197
		H13c-2.343,0-4.25,1.907-4.25,4.25v2h2.5h27.5h2.5v-2C41.25,12.631,39.344,10.724,37,10.724z M18.242,14.422
		c0,0.689-0.525,1.25-1.17,1.25s-1.17-0.561-1.17-1.25V9.526c0-0.689,0.525-1.25,1.17-1.25s1.17,0.561,1.17,1.25V14.422z
		 M26.322,14.422c0,0.689-0.525,1.25-1.17,1.25s-1.17-0.561-1.17-1.25V9.526c0-0.689,0.525-1.25,1.17-1.25s1.17,0.561,1.17,1.25
		V14.422z M34.402,14.422c0,0.689-0.525,1.25-1.17,1.25s-1.17-0.561-1.17-1.25V9.526c0-0.689,0.525-1.25,1.17-1.25
		s1.17,0.561,1.17,1.25V14.422z"/>
</g>
</svg>
