<?xml version="1.0" encoding="utf-8"?>
<!-- Generator: Adobe Illustrator 16.0.0, SVG Export Plug-In . SVG Version: 6.00 Build 0)  -->
<!DOCTYPE svg PUBLIC "-//W3C//DTD SVG 1.1//EN" "http://www.w3.org/Graphics/SVG/1.1/DTD/svg11.dtd">
<svg version="1.1" id="Layer_1" xmlns="http://www.w3.org/2000/svg" xmlns:xlink="http://www.w3.org/1999/xlink" x="0px" y="0px"
	 width="50px" height="50px" viewBox="0 0 50 50" enable-background="new 0 0 50 50" xml:space="preserve">
<g>
	<path d="M11.216,22.967c-0.837,0-1.917,0.36-1.917,1.873v3.043c0,1.225,0.765,1.746,1.9,1.746c1.152,0,1.89-0.521,1.89-1.746V24.84
		C13.089,23.328,12.234,22.967,11.216,22.967z M11.595,28.171c0,0.315-0.171,0.432-0.405,0.432s-0.396-0.116-0.396-0.432v-3.745
		c0-0.315,0.162-0.433,0.396-0.433s0.405,0.117,0.405,0.433V28.171z"/>
	<path d="M14.132,23.814v0.937h1.053v4.753h1.495v-6.409h-1.26C15.312,23.661,14.636,23.814,14.132,23.814z"/>
	<path d="M7.739,34.548h10.5v-16.5h-10.5V34.548z M8.239,18.548h9.5v15.5h-9.5V18.548z"/>
	<path d="M22.716,22.967c-0.837,0-1.917,0.36-1.917,1.872v3.043c0,1.225,0.765,1.747,1.9,1.747c1.152,0,1.89-0.522,1.89-1.747
		v-3.043C24.589,23.328,23.734,22.967,22.716,22.967z M23.095,28.17c0,0.315-0.171,0.433-0.405,0.433s-0.396-0.117-0.396-0.433
		v-3.745c0-0.314,0.162-0.432,0.396-0.432s0.405,0.117,0.405,0.432V28.17z"/>
	<path d="M29.179,24.66c0-1.351-1-1.692-1.854-1.692c-0.847,0-1.945,0.153-1.945,1.71v0.703h1.495v-0.928
		c0-0.315,0.144-0.459,0.405-0.459c0.261,0,0.405,0.144,0.405,0.459c0,1.278-2.305,2.196-2.305,4.258v0.793h3.799v-0.937h-2.305
		c0-0.261,0.117-0.414,0.234-0.621C27.784,26.793,29.179,26.136,29.179,24.66z"/>
	<path d="M19.739,34.548h10.5v-16.5h-10.5V34.548z M20.239,18.548h9.5v15.5h-9.5V18.548z"/>
	<path d="M33.889,29.503h1.495v-6.41h-1.26c-0.108,0.567-0.783,0.72-1.288,0.72v0.937h1.053V29.503z"/>
	<path d="M39.253,29.503h1.396v-1.467h0.495v-1.026h-0.495v-3.916h-1.81l-1.747,3.916v1.026h2.161V29.503z M38.083,27.009
		l1.152-2.584h0.018v2.584H38.083z"/>
	<path d="M31.739,18.048v16.5h10.5v-16.5H31.739z M41.739,34.048h-9.5v-15.5h9.5V34.048z"/>
	<rect x="18.489" y="25.5" width="1" height="1.596"/>
	<rect x="30.489" y="25.5" width="1" height="1.596"/>
</g>
</svg>
