<?xml version="1.0" encoding="utf-8"?>
<!-- Generator: Adobe Illustrator 16.0.0, SVG Export Plug-In . SVG Version: 6.00 Build 0)  -->
<!DOCTYPE svg PUBLIC "-//W3C//DTD SVG 1.1//EN" "http://www.w3.org/Graphics/SVG/1.1/DTD/svg11.dtd">
<svg version="1.1" id="Layer_1" xmlns="http://www.w3.org/2000/svg" xmlns:xlink="http://www.w3.org/1999/xlink" x="0px" y="0px"
	 width="50px" height="50px" viewBox="0 0 50 50" enable-background="new 0 0 50 50" xml:space="preserve">
<g>
	<path d="M20.36,30.131v0.521c0,1.253,0.363,2.22,1.09,2.899c0.727,0.681,1.85,1.021,3.37,1.021c1.573,0,2.74-0.394,3.5-1.181
		c0.76-0.786,1.14-2.08,1.14-3.88c0-1.72-0.297-2.97-0.89-3.75c-0.593-0.779-1.537-1.17-2.83-1.17c-0.227,0-0.457,0.023-0.69,0.07
		c-0.233,0.047-0.457,0.12-0.67,0.22c-0.213,0.101-0.407,0.22-0.58,0.36c-0.173,0.14-0.307,0.297-0.4,0.47l-0.04-0.04l0.16-2.66
		h5.36v-2.6h-7.94l-0.44,7.66h3.12c0.053-0.413,0.197-0.703,0.43-0.87c0.233-0.167,0.503-0.25,0.81-0.25c0.44,0,0.756,0.2,0.95,0.6
		c0.193,0.4,0.29,1.021,0.29,1.86c0,0.974-0.083,1.724-0.25,2.25c-0.167,0.526-0.517,0.79-1.05,0.79c-0.24,0-0.44-0.05-0.6-0.15
		c-0.16-0.1-0.283-0.232-0.37-0.399c-0.086-0.167-0.146-0.356-0.18-0.57c-0.034-0.213-0.05-0.44-0.05-0.68v-0.521H20.36z"/>
	<path d="M38.75,38.974c0,0.965-0.785,1.75-1.75,1.75H13c-0.965,0-1.75-0.785-1.75-1.75V18.875h-2.5v20.099
		c0,2.343,1.907,4.25,4.25,4.25h24c2.344,0,4.25-1.907,4.25-4.25V18.875h-2.5V38.974z"/>
	<path d="M37,10.724h-1.098V9.526c0-1.517-1.197-2.75-2.67-2.75s-2.67,1.233-2.67,2.75v1.197h-2.74V9.526
		c0-1.517-1.197-2.75-2.67-2.75s-2.67,1.233-2.67,2.75v1.197h-2.74V9.526c0-1.517-1.197-2.75-2.67-2.75s-2.67,1.233-2.67,2.75v1.197
		H13c-2.343,0-4.25,1.907-4.25,4.25v2h2.5h27.5h2.5v-2C41.25,12.631,39.344,10.724,37,10.724z M18.242,14.422
		c0,0.689-0.525,1.25-1.17,1.25s-1.17-0.561-1.17-1.25V9.526c0-0.689,0.525-1.25,1.17-1.25s1.17,0.561,1.17,1.25V14.422z
		 M26.322,14.422c0,0.689-0.525,1.25-1.17,1.25s-1.17-0.561-1.17-1.25V9.526c0-0.689,0.525-1.25,1.17-1.25s1.17,0.561,1.17,1.25
		V14.422z M34.402,14.422c0,0.689-0.525,1.25-1.17,1.25s-1.17-0.561-1.17-1.25V9.526c0-0.689,0.525-1.25,1.17-1.25
		s1.17,0.561,1.17,1.25V14.422z"/>
</g>
</svg>
