<?xml version="1.0" encoding="utf-8"?>
<!-- Generator: Adobe Illustrator 16.0.0, SVG Export Plug-In . SVG Version: 6.00 Build 0)  -->
<!DOCTYPE svg PUBLIC "-//W3C//DTD SVG 1.1//EN" "http://www.w3.org/Graphics/SVG/1.1/DTD/svg11.dtd">
<svg version="1.1" id="Layer_1" xmlns="http://www.w3.org/2000/svg" xmlns:xlink="http://www.w3.org/1999/xlink" x="0px" y="0px"
	 width="50px" height="50px" viewBox="0 0 50 50" enable-background="new 0 0 50 50" xml:space="preserve">
<g>
	<path d="M37,8.5H13c-2.481,0-4.5,2.019-4.5,4.5v24c0,2.481,2.019,4.5,4.5,4.5h24c2.481,0,4.5-2.019,4.5-4.5V13
		C41.5,10.519,39.481,8.5,37,8.5z M40,37c0,1.649-1.35,3-3,3H13c-1.65,0-3-1.351-3-3V13c0-1.649,1.35-3,3-3h24c1.65,0,3,1.351,3,3
		V37z"/>
	<path d="M17.181,14.547h15.638c0.387,0,0.705-0.317,0.705-0.705v-1.137c0-0.388-0.317-0.705-0.705-0.705H17.181
		c-0.387,0-0.705,0.317-0.705,0.705v1.137C16.477,14.229,16.794,14.547,17.181,14.547z"/>
	<rect x="12.616" y="19.109" width="2.262" height="2.262"/>
	<rect x="15.831" y="19.109" width="2.263" height="2.262"/>
	<rect x="19.046" y="19.109" width="2.263" height="2.262"/>
	<rect x="22.261" y="19.109" width="2.263" height="2.262"/>
	<rect x="25.477" y="19.109" width="2.263" height="2.262"/>
	<rect x="28.691" y="19.109" width="2.263" height="2.262"/>
	<rect x="31.906" y="19.109" width="2.263" height="2.262"/>
	<rect x="35.122" y="19.109" width="2.262" height="2.262"/>
	<rect x="12.616" y="22.324" width="2.262" height="2.264"/>
	<rect x="15.831" y="22.324" width="2.263" height="2.264"/>
	<rect x="19.046" y="22.324" width="2.263" height="2.264"/>
	<rect x="22.261" y="22.324" width="2.263" height="2.264"/>
	<rect x="25.477" y="22.324" width="2.263" height="2.264"/>
	<rect x="28.691" y="22.324" width="2.263" height="2.264"/>
	<rect x="31.906" y="22.324" width="2.263" height="2.264"/>
	<rect x="35.122" y="22.324" width="2.262" height="2.264"/>
	<rect x="12.616" y="25.539" width="2.262" height="2.264"/>
	<rect x="15.831" y="25.539" width="2.263" height="2.264"/>
	<rect x="19.046" y="25.539" width="2.263" height="2.264"/>
	<rect x="22.261" y="25.539" width="2.263" height="2.264"/>
	<rect x="25.477" y="25.539" width="2.263" height="2.264"/>
	<rect x="28.691" y="25.539" width="2.263" height="2.264"/>
	<rect x="31.906" y="25.539" width="2.263" height="2.264"/>
	<rect x="35.122" y="25.539" width="2.262" height="2.264"/>
	<rect x="12.616" y="28.754" width="2.262" height="2.264"/>
	<rect x="15.831" y="28.754" width="2.263" height="2.264"/>
	<rect x="19.046" y="28.754" width="2.263" height="2.264"/>
	<rect x="22.261" y="28.754" width="2.263" height="2.264"/>
	<rect x="25.477" y="28.754" width="2.263" height="2.264"/>
	<rect x="28.691" y="28.754" width="2.263" height="2.264"/>
	<rect x="31.906" y="28.754" width="2.263" height="2.264"/>
	<rect x="35.122" y="28.754" width="2.262" height="2.264"/>
	<rect x="12.616" y="31.969" width="2.262" height="2.264"/>
	<rect x="15.831" y="31.969" width="2.263" height="2.264"/>
	<rect x="19.046" y="31.969" width="2.263" height="2.264"/>
	<rect x="22.261" y="31.969" width="2.263" height="2.264"/>
	<rect x="25.477" y="31.969" width="2.263" height="2.264"/>
	<rect x="28.691" y="31.969" width="2.263" height="2.264"/>
	<rect x="31.906" y="31.969" width="2.263" height="2.264"/>
	<rect x="35.122" y="31.969" width="2.262" height="2.264"/>
	<rect x="12.616" y="35.185" width="2.262" height="2.263"/>
	<rect x="15.831" y="35.185" width="2.263" height="2.263"/>
	<rect x="19.046" y="35.185" width="2.263" height="2.263"/>
	<rect x="22.261" y="35.185" width="2.263" height="2.263"/>
	<rect x="25.477" y="35.185" width="2.263" height="2.263"/>
	<rect x="28.691" y="35.185" width="2.263" height="2.263"/>
	<rect x="31.906" y="35.185" width="2.263" height="2.263"/>
	<rect x="35.122" y="35.185" width="2.262" height="2.263"/>
</g>
</svg>
