<?xml version="1.0" encoding="utf-8"?>
<!-- Generator: Adobe Illustrator 16.0.0, SVG Export Plug-In . SVG Version: 6.00 Build 0)  -->
<!DOCTYPE svg PUBLIC "-//W3C//DTD SVG 1.1//EN" "http://www.w3.org/Graphics/SVG/1.1/DTD/svg11.dtd">
<svg version="1.1" id="Layer_1" xmlns="http://www.w3.org/2000/svg" xmlns:xlink="http://www.w3.org/1999/xlink" x="0px" y="0px"
	 width="50px" height="50px" viewBox="0 0 50 50" enable-background="new 0 0 50 50" xml:space="preserve">
<g>
	<path d="M36.848,10.355H35.75V9.158c0-1.516-1.197-2.75-2.67-2.75s-2.67,1.234-2.67,2.75v1.197h-2.74V9.158
		c0-1.516-1.197-2.75-2.67-2.75s-2.67,1.234-2.67,2.75v1.197h-2.74V9.158c0-1.516-1.197-2.75-2.67-2.75s-2.67,1.234-2.67,2.75v1.197
		h-1.402c-2.343,0-4.25,1.907-4.25,4.25v24c0,2.343,1.907,4.25,4.25,4.25h24c2.344,0,4.25-1.907,4.25-4.25v-24
		C41.098,12.262,39.191,10.355,36.848,10.355z M31.91,9.158c0-0.689,0.525-1.25,1.17-1.25s1.17,0.561,1.17,1.25v4.895
		c0,0.689-0.525,1.25-1.17,1.25s-1.17-0.561-1.17-1.25V9.158z M23.83,9.158c0-0.689,0.525-1.25,1.17-1.25s1.17,0.561,1.17,1.25
		v4.895c0,0.689-0.525,1.25-1.17,1.25s-1.17-0.561-1.17-1.25V9.158z M15.75,9.158c0-0.689,0.525-1.25,1.17-1.25
		s1.17,0.561,1.17,1.25v4.895c0,0.689-0.525,1.25-1.17,1.25s-1.17-0.561-1.17-1.25V9.158z M38.598,38.605
		c0,0.965-0.785,1.75-1.75,1.75h-24c-0.965,0-1.75-0.785-1.75-1.75v-22h27.5V38.605z"/>
	<path d="M23.999,29.628c0.554,0.553,1.449,0.552,2.001,0c0.554-0.553,0.555-1.449,0.001-2.002
		c-0.101-0.101-0.215-0.177-0.335-0.241C25.515,25.052,25,23.318,25,23.318s-0.515,1.735-0.666,4.067
		c-0.119,0.064-0.234,0.14-0.336,0.241c-0.101,0.101-0.176,0.215-0.24,0.335c-2.331,0.15-4.067,0.666-4.067,0.666
		s1.736,0.515,4.068,0.665C23.822,29.412,23.898,29.527,23.999,29.628z"/>
	<path d="M25,38.183c5.271,0,9.557-4.287,9.557-9.556c0-5.27-4.286-9.557-9.557-9.557c-5.27,0-9.557,4.287-9.557,9.557
		C15.443,33.896,19.73,38.183,25,38.183z M25,20.486c4.488,0,8.141,3.651,8.141,8.141c0,4.489-3.652,8.14-8.141,8.14
		s-8.141-3.651-8.141-8.14C16.859,24.138,20.512,20.486,25,20.486z"/>
	<path d="M25,36.414c4.294,0,7.787-3.493,7.787-7.787c0-4.294-3.493-7.787-7.787-7.787s-7.787,3.493-7.787,7.787
		C17.213,32.92,20.706,36.414,25,36.414z M25,21.548c3.903,0,7.079,3.175,7.079,7.079c0,3.903-3.176,7.079-7.079,7.079
		s-7.079-3.175-7.079-7.079C17.921,24.723,21.097,21.548,25,21.548z"/>
</g>
</svg>
