<?xml version="1.0" encoding="utf-8"?>
<!-- Generator: Adobe Illustrator 16.0.0, SVG Export Plug-In . SVG Version: 6.00 Build 0)  -->
<!DOCTYPE svg PUBLIC "-//W3C//DTD SVG 1.1//EN" "http://www.w3.org/Graphics/SVG/1.1/DTD/svg11.dtd">
<svg version="1.1" id="Layer_1" xmlns="http://www.w3.org/2000/svg" xmlns:xlink="http://www.w3.org/1999/xlink" x="0px" y="0px"
	 width="50px" height="50px" viewBox="0 0 50 50" enable-background="new 0 0 50 50" xml:space="preserve">
<g>
	<path d="M38.25,10.25h-26c-1.518,0-2.75,1.233-2.75,2.75v26c0,1.517,1.232,2.75,2.75,2.75h22.895L41,35.895V13
		C41,11.484,39.767,10.25,38.25,10.25z M34.083,12.292c0.817,0,1.479,0.662,1.479,1.479c0,0.817-0.662,1.479-1.479,1.479
		c-0.817,0-1.479-0.662-1.479-1.479C32.604,12.954,33.266,12.292,34.083,12.292z M29.667,12.292c0.817,0,1.479,0.662,1.479,1.479
		c0,0.817-0.662,1.479-1.479,1.479c-0.817,0-1.479-0.662-1.479-1.479C28.187,12.954,28.849,12.292,29.667,12.292z M25.25,12.292
		c0.817,0,1.479,0.662,1.479,1.479c0,0.817-0.662,1.479-1.479,1.479c-0.817,0-1.479-0.662-1.479-1.479
		C23.771,12.954,24.433,12.292,25.25,12.292z M20.833,12.292c0.817,0,1.479,0.662,1.479,1.479c0,0.817-0.662,1.479-1.479,1.479
		c-0.817,0-1.479-0.662-1.479-1.479C19.354,12.954,20.016,12.292,20.833,12.292z M16.417,12.292c0.817,0,1.479,0.662,1.479,1.479
		c0,0.817-0.662,1.479-1.479,1.479c-0.817,0-1.479-0.662-1.479-1.479C14.938,12.954,15.6,12.292,16.417,12.292z M39.5,35.273
		l-0.311,0.311h-2.355c-1.101,0-2,0.9-2,2v2.356l-0.311,0.31H12.25C11.561,40.25,11,39.69,11,39V17h28.5V35.273z"/>
	<path d="M22.398,34.792h3.889c0.126-4.285,1.891-7.995,4.177-9.849v-2.845H20.255v3.061h6.518
		C24.595,27.446,22.794,30.542,22.398,34.792z"/>
</g>
</svg>
