<?xml version="1.0" encoding="utf-8"?>
<!-- Generator: Adobe Illustrator 16.0.0, SVG Export Plug-In . SVG Version: 6.00 Build 0)  -->
<!DOCTYPE svg PUBLIC "-//W3C//DTD SVG 1.1//EN" "http://www.w3.org/Graphics/SVG/1.1/DTD/svg11.dtd">
<svg version="1.1" id="Layer_1" xmlns="http://www.w3.org/2000/svg" xmlns:xlink="http://www.w3.org/1999/xlink" x="0px" y="0px"
	 width="50px" height="50px" viewBox="0 0 50 50" enable-background="new 0 0 50 50" xml:space="preserve">
<g>
	<path d="M37,10.724h-1.098V9.526c0-1.517-1.197-2.75-2.67-2.75s-2.67,1.233-2.67,2.75v1.197h-2.74V9.526
		c0-1.517-1.197-2.75-2.67-2.75s-2.67,1.233-2.67,2.75v1.197h-2.74V9.526c0-1.517-1.197-2.75-2.67-2.75s-2.67,1.233-2.67,2.75v1.197
		H13c-2.343,0-4.25,1.907-4.25,4.25v2h2.5h27.5h2.5v-2C41.25,12.631,39.344,10.724,37,10.724z M18.242,14.422
		c0,0.689-0.525,1.25-1.17,1.25s-1.17-0.561-1.17-1.25V9.526c0-0.689,0.525-1.25,1.17-1.25s1.17,0.561,1.17,1.25V14.422z
		 M26.322,14.422c0,0.689-0.525,1.25-1.17,1.25s-1.17-0.561-1.17-1.25V9.526c0-0.689,0.525-1.25,1.17-1.25s1.17,0.561,1.17,1.25
		V14.422z M34.402,14.422c0,0.689-0.525,1.25-1.17,1.25s-1.17-0.561-1.17-1.25V9.526c0-0.689,0.525-1.25,1.17-1.25
		s1.17,0.561,1.17,1.25V14.422z"/>
	<path d="M8.75,38.974c0,2.343,1.907,4.25,4.25,4.25h24c2.344,0,4.25-1.907,4.25-4.25V18.875H8.75V38.974z M24.2,38.402h-4.8v-2.235
		h4.8V38.402z M24.2,35.417h-4.8v-2.235h4.8V35.417z M30.6,38.402h-4.799v-2.235H30.6V38.402z M30.6,35.417h-4.799v-2.235H30.6
		V35.417z M37,38.402h-4.8v-2.235H37V38.402z M37,35.417h-4.8v-2.235H37V35.417z M30.563,26.591
		c-0.255-0.235-0.588-0.353-1.004-0.353c-0.321,0-0.599,0.049-0.828,0.146c-0.23,0.097-0.42,0.256-0.567,0.477h-2.571l0.995-5.543
		h6.608v2.35h-4.479l-0.276,1.272l0.027,0.027c0.295-0.222,0.629-0.371,1.003-0.449c0.373-0.079,0.739-0.118,1.099-0.118
		c0.424,0,0.826,0.065,1.21,0.194c0.382,0.129,0.716,0.325,1.002,0.588c0.285,0.262,0.511,0.601,0.677,1.016
		c0.166,0.414,0.25,0.903,0.25,1.465c0,0.489-0.096,0.94-0.284,1.355c-0.188,0.414-0.466,0.771-0.829,1.07
		c-0.364,0.301-0.815,0.535-1.354,0.705c-0.54,0.171-1.155,0.256-1.847,0.256c-0.59,0-1.103-0.055-1.541-0.165
		c-0.438-0.111-0.811-0.257-1.119-0.437c-0.31-0.18-0.563-0.382-0.761-0.607c-0.198-0.227-0.351-0.457-0.457-0.691
		c-0.105-0.234-0.176-0.461-0.214-0.677c-0.037-0.218-0.045-0.403-0.026-0.561h2.737c0.054,0.268,0.183,0.479,0.384,0.636
		c0.138,0.111,0.302,0.191,0.488,0.242c0.189,0.051,0.389,0.076,0.6,0.076c0.403,0,0.747-0.118,1.031-0.353
		c0.284-0.235,0.428-0.546,0.428-0.934C30.942,27.155,30.815,26.826,30.563,26.591z M16.447,29.64
		c0.124-0.396,0.305-0.756,0.546-1.079c0.201-0.276,0.436-0.534,0.698-0.773c0.262-0.24,0.544-0.463,0.843-0.671
		c0.299-0.207,0.61-0.405,0.933-0.594c0.323-0.189,0.636-0.376,0.941-0.561c0.119-0.073,0.255-0.156,0.406-0.249
		c0.152-0.092,0.295-0.193,0.43-0.304c0.134-0.11,0.244-0.235,0.331-0.373c0.087-0.139,0.132-0.295,0.132-0.471
		c0-0.442-0.113-0.749-0.339-0.919c-0.227-0.17-0.5-0.256-0.823-0.256c-0.553,0-0.937,0.182-1.154,0.546
		c-0.217,0.364-0.315,0.841-0.297,1.431h-2.599c-0.038-0.663,0.033-1.253,0.207-1.77c0.175-0.516,0.442-0.951,0.802-1.307
		c0.359-0.354,0.8-0.624,1.321-0.808c0.52-0.185,1.103-0.277,1.749-0.277c0.579,0,1.112,0.063,1.596,0.187
		c0.484,0.125,0.898,0.312,1.244,0.561s0.613,0.564,0.802,0.946c0.189,0.383,0.283,0.828,0.283,1.335c0,0.617-0.134,1.138-0.4,1.562
		c-0.268,0.424-0.608,0.795-1.023,1.113c-0.414,0.318-0.871,0.605-1.368,0.864c-0.498,0.258-0.974,0.524-1.424,0.802v0.014h4.354
		v2.35h-8.336C16.274,30.469,16.322,30.035,16.447,29.64z M13,33.182h4.8v2.235H13V33.182z M13,36.167h4.8v2.235H13V36.167z"/>
</g>
</svg>
