<?xml version="1.0" encoding="utf-8"?>
<!-- Generator: Adobe Illustrator 16.0.0, SVG Export Plug-In . SVG Version: 6.00 Build 0)  -->
<!DOCTYPE svg PUBLIC "-//W3C//DTD SVG 1.1//EN" "http://www.w3.org/Graphics/SVG/1.1/DTD/svg11.dtd">
<svg version="1.1" id="Layer_1" xmlns="http://www.w3.org/2000/svg" xmlns:xlink="http://www.w3.org/1999/xlink" x="0px" y="0px"
	 width="50px" height="50px" viewBox="0 0 50 50" enable-background="new 0 0 50 50" xml:space="preserve">
<g>
	<path d="M35.91,9H35V8c0-0.553-0.447-1-1-1s-1,0.447-1,1v1h-7V8c0-0.553-0.447-1-1-1s-1,0.447-1,1v1h-7V8c0-0.553-0.447-1-1-1
		s-1,0.447-1,1v1h-0.91C11.283,9,9,11.283,9,14.09v21.82C9,38.717,11.283,41,14.09,41h21.82c2.807,0,5.09-2.283,5.09-5.09V14.09
		C41,11.283,38.717,9,35.91,9z M39,35.91c0,1.704-1.386,3.09-3.09,3.09H14.09C12.386,39,11,37.614,11,35.91V19h28V35.91z M39,17H11
		v-2.91c0-1.704,1.386-3.09,3.09-3.09H15v3c0,0.553,0.447,1,1,1s1-0.447,1-1v-3h7v3c0,0.553,0.447,1,1,1s1-0.447,1-1v-3h7v3
		c0,0.553,0.447,1,1,1s1-0.447,1-1v-3h0.91c1.704,0,3.09,1.386,3.09,3.09V17z"/>
	<path d="M20.464,34.269c0.462,0.692,1.063,1.249,1.806,1.669s1.652,0.631,2.73,0.631c0.798,0,1.55-0.119,2.257-0.357
		s1.33-0.584,1.869-1.039s0.963-1.019,1.271-1.691c0.308-0.672,0.462-1.441,0.462-2.31c0-0.672-0.122-1.299-0.367-1.88
		c-0.245-0.58-0.577-1.092-0.997-1.532c-0.42-0.441-0.921-0.788-1.502-1.04s-1.207-0.378-1.88-0.378c-0.7,0-1.354,0.108-1.963,0.325
		c-0.609,0.218-1.096,0.627-1.46,1.229h-0.042c0.014-0.42,0.081-0.847,0.2-1.28c0.118-0.435,0.294-0.833,0.524-1.197
		c0.231-0.364,0.525-0.661,0.882-0.893c0.357-0.231,0.795-0.347,1.313-0.347c0.154,0,0.322,0.015,0.504,0.042
		c0.183,0.028,0.357,0.092,0.525,0.189c0.168,0.112,0.315,0.255,0.441,0.431c0.126,0.175,0.224,0.409,0.294,0.703h3.339
		c-0.112-0.672-0.318-1.257-0.62-1.754c-0.301-0.496-0.675-0.909-1.123-1.238s-0.959-0.578-1.533-0.746s-1.183-0.252-1.827-0.252
		c-1.105,0-2.062,0.203-2.866,0.609s-1.47,0.955-1.995,1.648c-0.524,0.692-0.913,1.501-1.165,2.426
		c-0.252,0.924-0.378,1.896-0.378,2.919c0,0.938,0.101,1.852,0.304,2.74S20.002,33.575,20.464,34.269z M22.899,30.457
		c0.112-0.294,0.27-0.553,0.473-0.777c0.203-0.224,0.444-0.398,0.725-0.524s0.588-0.189,0.924-0.189
		c0.813,0,1.432,0.238,1.858,0.714c0.428,0.477,0.641,1.058,0.641,1.743c0,0.294-0.06,0.577-0.179,0.851s-0.287,0.515-0.504,0.725
		s-0.476,0.375-0.776,0.493c-0.302,0.119-0.641,0.179-1.019,0.179c-0.7,0-1.26-0.221-1.681-0.661c-0.42-0.441-0.63-0.977-0.63-1.606
		C22.731,31.065,22.787,30.751,22.899,30.457z"/>
</g>
</svg>
