<?xml version="1.0" encoding="utf-8"?>
<!-- Generator: Adobe Illustrator 16.0.0, SVG Export Plug-In . SVG Version: 6.00 Build 0)  -->
<!DOCTYPE svg PUBLIC "-//W3C//DTD SVG 1.1//EN" "http://www.w3.org/Graphics/SVG/1.1/DTD/svg11.dtd">
<svg version="1.1" id="Layer_1" xmlns="http://www.w3.org/2000/svg" xmlns:xlink="http://www.w3.org/1999/xlink" x="0px" y="0px"
	 width="50px" height="50px" viewBox="0 0 50 50" enable-background="new 0 0 50 50" xml:space="preserve">
<g>
	<path d="M20.29,30.401c0.487-0.46,1.077-1.03,1.77-1.71c0.44-0.413,0.803-0.787,1.09-1.12s0.517-0.67,0.69-1.011
		c0.173-0.34,0.293-0.703,0.36-1.09c0.066-0.387,0.1-0.847,0.1-1.38c0-0.56-0.067-1.08-0.2-1.56c-0.133-0.48-0.367-0.896-0.7-1.25
		c-0.333-0.354-0.783-0.634-1.35-0.84c-0.567-0.207-1.277-0.311-2.13-0.311c-3.04,0-4.56,1.42-4.56,4.26v0.46h3.12
		c0-0.267,0.007-0.553,0.02-0.859s0.06-0.59,0.14-0.851c0.08-0.26,0.207-0.473,0.38-0.64s0.42-0.25,0.74-0.25
		c0.48,0,0.796,0.17,0.95,0.51s0.23,0.79,0.23,1.351c0,0.267-0.013,0.513-0.04,0.739c-0.027,0.228-0.12,0.478-0.28,0.75
		c-0.16,0.273-0.407,0.594-0.74,0.96c-0.333,0.367-0.8,0.817-1.4,1.351c-0.307,0.267-0.644,0.594-1.01,0.979
		c-0.367,0.388-0.713,0.841-1.04,1.36c-0.327,0.521-0.6,1.113-0.82,1.78c-0.22,0.667-0.33,1.42-0.33,2.26h9.04v-2.6H19.3
		C19.473,31.291,19.803,30.861,20.29,30.401z"/>
	<path d="M33.64,20.411h-3.6l-4.6,8.54v2.6h5.08v2.74h3.12v-2.74h1.32v-2.6h-1.32V20.411z M30.52,28.951H28.1l2.38-4.74h0.04V28.951
		z"/>
	<path d="M36.273,39.688H13.727c-1.945,0-3.665-0.978-4.7-2.464c0.14,2.482,2.184,4.464,4.7,4.464h22.547
		c2.517,0,4.561-1.981,4.7-4.464C39.938,38.71,38.219,39.688,36.273,39.688z"/>
	<path d="M36.273,9.688h-0.681V9.313c0-0.552-0.448-1-1-1s-1,0.448-1,1v0.375h-1.837V9.313c0-0.552-0.448-1-1-1s-1,0.448-1,1v0.375
		h-1.837V9.313c0-0.552-0.448-1-1-1s-1,0.448-1,1v0.375h-1.837V9.313c0-0.552-0.448-1-1-1s-1,0.448-1,1v0.375h-1.837V9.313
		c0-0.552-0.448-1-1-1s-1,0.448-1,1v0.375h-1.837V9.313c0-0.552-0.448-1-1-1s-1,0.448-1,1v0.375h-0.682
		C11.12,9.688,9,11.808,9,14.414v19.547c0,2.606,2.12,4.727,4.727,4.727h22.547c2.606,0,4.727-2.12,4.727-4.727V14.414
		C41,11.808,38.88,9.688,36.273,9.688z M34.093,9.313c0-0.276,0.224-0.5,0.5-0.5s0.5,0.224,0.5,0.5v6.482c0,0.276-0.224,0.5-0.5,0.5
		s-0.5-0.224-0.5-0.5V9.313z M30.256,9.313c0-0.276,0.224-0.5,0.5-0.5s0.5,0.224,0.5,0.5v6.482c0,0.276-0.224,0.5-0.5,0.5
		s-0.5-0.224-0.5-0.5V9.313z M26.419,9.313c0-0.276,0.224-0.5,0.5-0.5s0.5,0.224,0.5,0.5v6.482c0,0.276-0.224,0.5-0.5,0.5
		s-0.5-0.224-0.5-0.5V9.313z M22.582,9.313c0-0.276,0.224-0.5,0.5-0.5s0.5,0.224,0.5,0.5v6.482c0,0.276-0.224,0.5-0.5,0.5
		s-0.5-0.224-0.5-0.5V9.313z M18.745,9.313c0-0.276,0.224-0.5,0.5-0.5s0.5,0.224,0.5,0.5v6.482c0,0.276-0.224,0.5-0.5,0.5
		s-0.5-0.224-0.5-0.5V9.313z M14.908,9.313c0-0.276,0.224-0.5,0.5-0.5s0.5,0.224,0.5,0.5v6.482c0,0.276-0.224,0.5-0.5,0.5
		s-0.5-0.224-0.5-0.5V9.313z M38.592,33.961c0,1.278-1.04,2.318-2.318,2.318H13.727c-1.278,0-2.318-1.04-2.318-2.318V14.414
		c0-1.278,1.04-2.318,2.318-2.318h0.682v2.513c-0.339,0.286-0.56,0.709-0.56,1.187c0,0.86,0.699,1.56,1.56,1.56
		s1.56-0.699,1.56-1.56c0-0.478-0.221-0.9-0.56-1.187v-2.513h1.837v2.513c-0.339,0.286-0.56,0.709-0.56,1.187
		c0,0.86,0.699,1.56,1.56,1.56s1.56-0.699,1.56-1.56c0-0.478-0.221-0.9-0.56-1.187v-2.513h1.837v2.513
		c-0.339,0.286-0.56,0.709-0.56,1.187c0,0.86,0.699,1.56,1.56,1.56s1.56-0.699,1.56-1.56c0-0.478-0.221-0.9-0.56-1.187v-2.513h1.837
		v2.513c-0.339,0.286-0.56,0.709-0.56,1.187c0,0.86,0.699,1.56,1.56,1.56s1.56-0.699,1.56-1.56c0-0.478-0.221-0.9-0.56-1.187v-2.513
		h1.837v2.513c-0.339,0.286-0.56,0.709-0.56,1.187c0,0.86,0.699,1.56,1.56,1.56s1.56-0.699,1.56-1.56c0-0.478-0.221-0.9-0.56-1.187
		v-2.513h1.837v2.513c-0.339,0.286-0.56,0.709-0.56,1.187c0,0.86,0.699,1.56,1.56,1.56s1.56-0.699,1.56-1.56
		c0-0.478-0.221-0.9-0.56-1.187v-2.513h0.681c1.278,0,2.318,1.04,2.318,2.318V33.961z"/>
</g>
</svg>
