<?xml version="1.0" encoding="utf-8"?>
<!-- Generator: Adobe Illustrator 16.0.0, SVG Export Plug-In . SVG Version: 6.00 Build 0)  -->
<!DOCTYPE svg PUBLIC "-//W3C//DTD SVG 1.1//EN" "http://www.w3.org/Graphics/SVG/1.1/DTD/svg11.dtd">
<svg version="1.1" id="Layer_1" xmlns="http://www.w3.org/2000/svg" xmlns:xlink="http://www.w3.org/1999/xlink" x="0px" y="0px"
	 width="50px" height="50px" viewBox="0 0 50 50" enable-background="new 0 0 50 50" xml:space="preserve">
<g>
	<path d="M38,9.25h-1.123c0.029-0.093,0.058-0.186,0.058-0.289C36.935,8.431,36.504,8,35.973,8s-0.961,0.431-0.961,0.961
		c0,0.103,0.028,0.196,0.059,0.289h-3.68c0.029-0.093,0.058-0.186,0.058-0.289C31.448,8.431,31.018,8,30.486,8
		c-0.53,0-0.961,0.431-0.961,0.961c0,0.103,0.029,0.196,0.059,0.289h-3.681c0.029-0.093,0.058-0.186,0.058-0.289
		C25.961,8.431,25.531,8,25,8s-0.961,0.431-0.961,0.961c0,0.103,0.028,0.196,0.058,0.289h-3.681
		c0.029-0.093,0.059-0.186,0.059-0.289C20.475,8.431,20.044,8,19.514,8c-0.531,0-0.962,0.431-0.962,0.961
		c0,0.103,0.028,0.196,0.058,0.289h-3.68c0.03-0.093,0.059-0.186,0.059-0.289c0-0.531-0.43-0.961-0.961-0.961
		s-0.962,0.431-0.962,0.961c0,0.103,0.028,0.196,0.058,0.289H12c-1.518,0-2.75,1.233-2.75,2.75v26c0,1.517,1.232,2.75,2.75,2.75
		h22.895l5.855-5.856V12C40.75,10.483,39.517,9.25,38,9.25z M39.25,34.273l-0.311,0.311h-2.355c-1.101,0-2,0.9-2,2v2.356
		l-0.311,0.31H12c-0.689,0-1.25-0.561-1.25-1.25V13h28.5V34.273z"/>
	<path d="M19.029,21.96l0.649,3.859c0,0.133,0.053,0.281,0.162,0.428c0.344-0.245,0.654-0.479,0.916-0.675l0.198-0.15
		c0.882-0.662,1.801-0.999,2.734-0.999c1.416,0,2.334,0.764,2.664,1.093c0.263-0.263,0.994-0.872,2.124-0.872
		c0.739,0,1.463,0.264,2.159,0.786l0.151,0.112c0.306,0.233,0.708,0.532,1.152,0.826c0.185-0.184,0.266-0.38,0.266-0.55l0.649-3.859
		c0-0.474-0.576-1.362-2.503-1.159C28.451,21,25.94,23.12,25.94,23.12s-2.522-2.038-4.408-2.319
		C19.559,20.506,19.029,21.487,19.029,21.96z M30.35,21.604c1.398-0.199,1.868,0.409,1.868,0.758c0,0.349-0.49,0.758-1.868,0.758
		h-3.132C28.172,22.383,29.479,21.728,30.35,21.604z M21.533,21.604c0.871,0.111,2.175,0.779,3.134,1.516h-3.134
		c-1.378,0-1.869-0.409-1.869-0.758C19.664,22.013,20.159,21.428,21.533,21.604z"/>
	<path d="M26.811,25.977c-0.015,0.013-0.026,0.029-0.04,0.043c0.682,0.979,0.94,2.356,0.32,3.798
		c0.821,1.097,2.102,2.945,1.797,4.467c0,0,0.672-0.383,1.648-1.156c0.043,0.076,0.093,0.149,0.158,0.214
		c0.382,0.384,1,0.384,1.384,0c0.382-0.382,0.382-1.001,0-1.384c-0.031-0.031-0.066-0.056-0.1-0.081
		c0.122-0.116,0.246-0.237,0.371-0.362c1.861-1.861,2.776-3.469,2.776-3.469c-1.738,0.354-3.891-1.355-4.88-2.096
		C28.734,24.815,27.414,25.374,26.811,25.977z M33.53,28.427c-0.706,0.246-2.2,0.141-3.177-0.838
		c-0.979-0.979-2.343-1.2-2.032-1.513c0.312-0.311,1.465,0.122,2.445,1.101C31.743,28.155,32.82,28.394,33.53,28.427z"/>
	<path d="M21.343,25.941c-1.311,0.983-4.164,3.247-6.468,2.779c0,0,1.216,2.13,3.68,4.596c0.165,0.167,0.329,0.326,0.491,0.479
		c-0.045,0.034-0.091,0.067-0.133,0.109c-0.507,0.506-0.507,1.328,0,1.835c0.508,0.506,1.329,0.506,1.835,0
		c0.086-0.086,0.152-0.183,0.209-0.285c1.295,1.024,2.186,1.532,2.186,1.532c-0.459-2.294,1.802-5.148,2.789-6.457
		c1.505-2.003,0.762-3.754-0.037-4.553C25.096,25.18,23.346,24.438,21.343,25.941z M21.202,28.114
		c-1.297,1.298-3.275,1.437-4.213,1.111c0.942-0.044,2.37-0.36,3.666-1.657c1.297-1.297,2.826-1.871,3.238-1.459
		C24.305,26.522,22.499,26.817,21.202,28.114z"/>
	<path d="M13.219,17.968c-0.364,0.376-0.571,0.766-0.545,1.298h3.847v-1.103H14.4c0.24-0.168,0.59-0.344,0.921-0.552
		c0.597-0.37,1.213-0.701,1.213-1.505c0-1.064-0.889-1.479-1.836-1.479c-1.187,0-1.92,0.545-1.94,1.888h1.213
		c-0.006-0.441,0.143-0.876,0.662-0.876c0.272,0,0.552,0.168,0.552,0.461C15.186,16.859,13.984,17.17,13.219,17.968z"/>
	<path d="M18.739,18.351c-0.247,0-0.506-0.129-0.584-0.37c0-0.013-0.013-0.032-0.013-0.045l-1.356,0.136
		c0.26,0.843,0.908,1.291,1.908,1.291c1.044,0,2.051-0.415,2.051-1.68c0-0.915-0.682-1.447-1.558-1.447
		c-0.344,0-0.662,0.039-0.947,0.248l0.149-0.688h1.985v-1.103h-2.933l-0.453,2.602l1.271,0.045c0.103-0.201,0.343-0.252,0.544-0.252
		c0.41,0,0.591,0.285,0.591,0.662C19.395,18.086,19.134,18.351,18.739,18.351z"/>
</g>
</svg>
