<?xml version="1.0" encoding="utf-8"?>
<!-- Generator: Adobe Illustrator 16.0.0, SVG Export Plug-In . SVG Version: 6.00 Build 0)  -->
<!DOCTYPE svg PUBLIC "-//W3C//DTD SVG 1.1//EN" "http://www.w3.org/Graphics/SVG/1.1/DTD/svg11.dtd">
<svg version="1.1" id="Layer_1" xmlns="http://www.w3.org/2000/svg" xmlns:xlink="http://www.w3.org/1999/xlink" x="0px" y="0px"
	 width="50px" height="50px" viewBox="0 0 50 50" enable-background="new 0 0 50 50" xml:space="preserve">
<g>
	<path d="M16.913,33.076h16.174V22.769H16.913V33.076z M27.52,25.001h2.41v2.409h-2.41V25.001z M27.52,28.726h2.41v2.41h-2.41
		V28.726z M23.795,25.001h2.411v2.409h-2.411V25.001z M23.794,28.726h2.411v2.41h-2.411V28.726z M20.07,28.726h2.41v2.41h-2.41
		V28.726z"/>
	<path d="M25,9C16.162,9,9,16.163,9,25c0,8.838,7.162,16,16,16c8.837,0,16-7.162,16-16C41,16.163,33.837,9,25,9z M34.203,34.915
		H15.797V16.509h1.956v-1.424h0.772v1.424h2.657v-1.424h0.773v1.424h2.657v-1.424h0.773v1.424h2.657v-1.424h0.772v1.424h2.658
		v-1.424h0.771v1.424h1.957V34.915z"/>
</g>
</svg>
