<?xml version="1.0" encoding="utf-8"?>
<!-- Generator: Adobe Illustrator 16.0.0, SVG Export Plug-In . SVG Version: 6.00 Build 0)  -->
<!DOCTYPE svg PUBLIC "-//W3C//DTD SVG 1.1//EN" "http://www.w3.org/Graphics/SVG/1.1/DTD/svg11.dtd">
<svg version="1.1" id="Layer_1" xmlns="http://www.w3.org/2000/svg" xmlns:xlink="http://www.w3.org/1999/xlink" x="0px" y="0px"
	 width="50px" height="50px" viewBox="0 0 50 50" enable-background="new 0 0 50 50" xml:space="preserve">
<g>
	<path d="M27.22,26.911v-0.04c0.653-0.146,1.153-0.477,1.5-0.99c0.347-0.513,0.52-1.13,0.52-1.85c0-1.373-0.337-2.367-1.01-2.98
		c-0.674-0.613-1.71-0.92-3.11-0.92c-1.573,0-2.727,0.347-3.46,1.04c-0.72,0.667-1.08,1.707-1.08,3.12h3c0-0.8,0.124-1.34,0.37-1.62
		s0.557-0.42,0.93-0.42c0.387,0,0.67,0.13,0.85,0.39c0.18,0.261,0.27,0.67,0.27,1.23c0,0.693-0.1,1.22-0.3,1.58
		c-0.2,0.359-0.58,0.54-1.14,0.54h-0.92v2.12h0.8c0.333,0,0.61,0.033,0.83,0.1c0.22,0.067,0.4,0.184,0.54,0.35
		c0.14,0.167,0.24,0.397,0.3,0.69c0.06,0.294,0.09,0.667,0.09,1.12c0,0.8-0.107,1.347-0.32,1.64c-0.213,0.294-0.534,0.44-0.96,0.44
		c-0.253,0-0.46-0.063-0.62-0.19c-0.16-0.126-0.287-0.293-0.38-0.5c-0.094-0.206-0.157-0.45-0.19-0.729
		c-0.034-0.28-0.05-0.58-0.05-0.9h-3.24c0,0.907,0.11,1.647,0.33,2.22c0.22,0.574,0.536,1.023,0.95,1.351
		c0.413,0.327,0.903,0.554,1.47,0.68c0.566,0.127,1.203,0.19,1.91,0.19c0.613,0,1.193-0.08,1.74-0.24
		c0.546-0.16,1.02-0.41,1.42-0.75s0.717-0.78,0.95-1.32c0.233-0.54,0.35-1.189,0.35-1.95c0-1-0.18-1.77-0.54-2.31
		C28.66,27.461,28.06,27.098,27.22,26.911z"/>
	<path d="M37,8.5H13c-2.481,0-4.5,2.019-4.5,4.5v24c0,2.481,2.019,4.5,4.5,4.5h24c2.481,0,4.5-2.019,4.5-4.5V13
		C41.5,10.519,39.481,8.5,37,8.5z M40,37c0,1.649-1.35,3-3,3H13c-1.65,0-3-1.351-3-3V13c0-1.649,1.35-3,3-3h24c1.65,0,3,1.351,3,3
		V37z"/>
	<circle cx="17.75" cy="13.273" r="1.273"/>
	<circle cx="25" cy="13.273" r="1.273"/>
	<circle cx="32.25" cy="13.273" r="1.273"/>
</g>
</svg>
