<?xml version="1.0" encoding="utf-8"?>
<!-- Generator: Adobe Illustrator 16.0.0, SVG Export Plug-In . SVG Version: 6.00 Build 0)  -->
<!DOCTYPE svg PUBLIC "-//W3C//DTD SVG 1.1//EN" "http://www.w3.org/Graphics/SVG/1.1/DTD/svg11.dtd">
<svg version="1.1" id="Layer_1" xmlns="http://www.w3.org/2000/svg" xmlns:xlink="http://www.w3.org/1999/xlink" x="0px" y="0px"
	 width="50px" height="50px" viewBox="0 0 50 50" enable-background="new 0 0 50 50" xml:space="preserve">
<g>
	<path d="M36.848,10.355H35.75V9.158c0-1.516-1.197-2.75-2.67-2.75s-2.67,1.234-2.67,2.75v1.197h-2.74V9.158
		c0-1.516-1.197-2.75-2.67-2.75s-2.67,1.234-2.67,2.75v1.197h-2.74V9.158c0-1.516-1.197-2.75-2.67-2.75s-2.67,1.234-2.67,2.75v1.197
		h-1.402c-2.343,0-4.25,1.907-4.25,4.25v24c0,2.343,1.907,4.25,4.25,4.25h24c2.344,0,4.25-1.907,4.25-4.25v-24
		C41.098,12.262,39.191,10.355,36.848,10.355z M31.91,9.158c0-0.689,0.525-1.25,1.17-1.25s1.17,0.561,1.17,1.25v4.895
		c0,0.689-0.525,1.25-1.17,1.25s-1.17-0.561-1.17-1.25V9.158z M23.83,9.158c0-0.689,0.525-1.25,1.17-1.25s1.17,0.561,1.17,1.25
		v4.895c0,0.689-0.525,1.25-1.17,1.25s-1.17-0.561-1.17-1.25V9.158z M15.75,9.158c0-0.689,0.525-1.25,1.17-1.25
		s1.17,0.561,1.17,1.25v4.895c0,0.689-0.525,1.25-1.17,1.25s-1.17-0.561-1.17-1.25V9.158z M38.598,38.605
		c0,0.965-0.785,1.75-1.75,1.75h-24c-0.965,0-1.75-0.785-1.75-1.75v-22h27.5V38.605z"/>
	<path d="M25,37.4c4.339,0,7.739-1.453,7.739-3.308v-2.126c0-0.984-0.969-1.85-2.516-2.45c-0.077-0.183-0.157-0.358-0.246-0.516
		l-2.869-8.606c-0.002-0.003-0.005-0.003-0.006-0.005c-0.116-0.645-1.138-0.946-2.103-0.946s-1.987,0.301-2.104,0.946
		c-0.002,0.002-0.003,0.002-0.005,0.005l-2.907,8.717c-0.065,0.126-0.127,0.256-0.184,0.394c-1.563,0.602-2.54,1.472-2.54,2.46
		v2.126C17.261,35.947,20.661,37.4,25,37.4z M23.366,21.212c0.416,0.239,1.035,0.358,1.634,0.358c0.598,0,1.217-0.119,1.634-0.358
		l0.649,1.949c-0.373,0.476-1.329,0.722-2.283,0.722s-1.91-0.247-2.283-0.722L23.366,21.212z M21.824,25.835
		c0.479,0.691,1.827,1.051,3.176,1.051s2.696-0.36,3.176-1.051l1.086,3.264c-0.009,0.028-0.017,0.057-0.027,0.086
		c-0.045,0.11-0.106,0.214-0.183,0.313c-0.01,0.011-0.018,0.023-0.028,0.034c-0.075,0.092-0.156,0.18-0.254,0.264
		c-0.766,0.638-2.211,0.973-3.661,0.988h-0.203c-1.453-0.016-2.9-0.352-3.664-0.991c-0.099-0.083-0.185-0.173-0.257-0.266
		c-0.011-0.012-0.02-0.023-0.029-0.036c-0.073-0.098-0.135-0.201-0.179-0.312c-0.014-0.031-0.021-0.067-0.032-0.101L21.824,25.835z
		 M19.479,30.414c-0.091,0.32-0.148,0.595-0.148,0.725c0,0.016,0.004,0.03,0.004,0.043c0,0.005,0,0.011,0.001,0.016
		c0.068,1.384,2.478,2.42,5.665,2.42c3.125,0,5.499-0.996,5.655-2.339c0.019-0.044,0.029-0.09,0.029-0.141
		c0-0.025-0.016-0.044-0.021-0.069c-0.009-0.148-0.056-0.377-0.131-0.649c0.948,0.461,1.499,1.015,1.499,1.545
		c0,1.229-2.889,2.6-7.031,2.6c-4.144,0-7.031-1.37-7.031-2.6C17.969,31.433,18.523,30.877,19.479,30.414z"/>
</g>
</svg>
