<?xml version="1.0" encoding="utf-8"?>
<!-- Generator: Adobe Illustrator 16.0.0, SVG Export Plug-In . SVG Version: 6.00 Build 0)  -->
<!DOCTYPE svg PUBLIC "-//W3C//DTD SVG 1.1//EN" "http://www.w3.org/Graphics/SVG/1.1/DTD/svg11.dtd">
<svg version="1.1" id="Layer_1" xmlns="http://www.w3.org/2000/svg" xmlns:xlink="http://www.w3.org/1999/xlink" x="0px" y="0px"
	 width="50px" height="50px" viewBox="0 0 50 50" enable-background="new 0 0 50 50" xml:space="preserve">
<g>
	<path d="M25.49,30.401c0.487-0.46,1.077-1.03,1.77-1.71c0.44-0.413,0.803-0.787,1.09-1.12s0.517-0.67,0.69-1.011
		c0.173-0.34,0.293-0.703,0.36-1.09c0.066-0.387,0.1-0.847,0.1-1.38c0-0.56-0.067-1.08-0.2-1.56c-0.133-0.48-0.367-0.896-0.7-1.25
		c-0.333-0.354-0.783-0.634-1.35-0.84c-0.567-0.207-1.277-0.311-2.13-0.311c-3.04,0-4.56,1.42-4.56,4.26v0.46h3.12
		c0-0.267,0.007-0.553,0.02-0.859s0.06-0.59,0.14-0.851c0.08-0.26,0.207-0.473,0.38-0.64s0.42-0.25,0.74-0.25
		c0.48,0,0.796,0.17,0.95,0.51s0.23,0.79,0.23,1.351c0,0.267-0.013,0.513-0.04,0.739c-0.027,0.228-0.12,0.478-0.28,0.75
		c-0.16,0.273-0.407,0.594-0.74,0.96c-0.333,0.367-0.8,0.817-1.4,1.351c-0.307,0.267-0.644,0.594-1.01,0.979
		c-0.367,0.388-0.713,0.841-1.04,1.36c-0.327,0.521-0.6,1.113-0.82,1.78c-0.22,0.667-0.33,1.42-0.33,2.26h9.04v-2.6H24.5
		C24.673,31.291,25.003,30.861,25.49,30.401z"/>
	<path d="M37,8.5H13c-2.481,0-4.5,2.019-4.5,4.5v24c0,2.481,2.019,4.5,4.5,4.5h24c2.481,0,4.5-2.019,4.5-4.5V13
		C41.5,10.519,39.481,8.5,37,8.5z M40,37c0,1.649-1.35,3-3,3H13c-1.65,0-3-1.351-3-3V13c0-1.649,1.35-3,3-3h24c1.65,0,3,1.351,3,3
		V37z"/>
	<path d="M32.819,12H17.181c-0.387,0-0.705,0.317-0.705,0.705v1.137c0,0.388,0.317,0.705,0.705,0.705h15.638
		c0.387,0,0.705-0.317,0.705-0.705v-1.137C33.523,12.317,33.206,12,32.819,12z"/>
</g>
</svg>
