<?xml version="1.0" encoding="utf-8"?>
<!-- Generator: Adobe Illustrator 16.0.0, SVG Export Plug-In . SVG Version: 6.00 Build 0)  -->
<!DOCTYPE svg PUBLIC "-//W3C//DTD SVG 1.1//EN" "http://www.w3.org/Graphics/SVG/1.1/DTD/svg11.dtd">
<svg version="1.1" id="Layer_1" xmlns="http://www.w3.org/2000/svg" xmlns:xlink="http://www.w3.org/1999/xlink" x="0px" y="0px"
	 width="50px" height="50px" viewBox="0 0 50 50" enable-background="new 0 0 50 50" xml:space="preserve">
<g>
	<path d="M37,10.724h-1.098V9.526c0-1.517-1.197-2.75-2.67-2.75s-2.67,1.233-2.67,2.75v1.197h-2.74V9.526
		c0-1.517-1.197-2.75-2.67-2.75s-2.67,1.233-2.67,2.75v1.197h-2.74V9.526c0-1.517-1.197-2.75-2.67-2.75s-2.67,1.233-2.67,2.75v1.197
		H13c-2.343,0-4.25,1.907-4.25,4.25v7h32.5v-7C41.25,12.631,39.344,10.724,37,10.724z M18.242,14.422c0,0.689-0.525,1.25-1.17,1.25
		s-1.17-0.561-1.17-1.25V9.526c0-0.689,0.525-1.25,1.17-1.25s1.17,0.561,1.17,1.25V14.422z M26.322,14.422
		c0,0.689-0.525,1.25-1.17,1.25s-1.17-0.561-1.17-1.25V9.526c0-0.689,0.525-1.25,1.17-1.25s1.17,0.561,1.17,1.25V14.422z
		 M34.402,14.422c0,0.689-0.525,1.25-1.17,1.25s-1.17-0.561-1.17-1.25V9.526c0-0.689,0.525-1.25,1.17-1.25s1.17,0.561,1.17,1.25
		V14.422z"/>
	<path d="M8.75,38.974c0,2.343,1.907,4.25,4.25,4.25h24c2.344,0,4.25-1.907,4.25-4.25V23.875H8.75V38.974z M10.75,25.875h28.5
		v13.099c0,1.24-1.009,2.25-2.25,2.25H13c-1.241,0-2.25-1.01-2.25-2.25V25.875z"/>
	<rect x="31.904" y="28.59" width="4.596" height="2.726"/>
	<rect x="31.904" y="32.228" width="4.596" height="2.725"/>
	<rect x="31.904" y="35.866" width="4.596" height="2.724"/>
	<rect x="25.771" y="28.59" width="4.595" height="2.726"/>
	<rect x="25.771" y="32.228" width="4.595" height="2.725"/>
	<rect x="25.771" y="35.866" width="4.595" height="2.724"/>
	<rect x="19.635" y="28.59" width="4.596" height="2.726"/>
	<rect x="19.635" y="32.228" width="4.596" height="2.725"/>
	<rect x="19.635" y="35.866" width="4.596" height="2.724"/>
	<rect x="13.5" y="32.228" width="4.596" height="2.725"/>
	<rect x="13.5" y="35.866" width="4.596" height="2.724"/>
</g>
</svg>
