<?xml version="1.0" encoding="utf-8"?>
<!-- Generator: Adobe Illustrator 16.0.0, SVG Export Plug-In . SVG Version: 6.00 Build 0)  -->
<!DOCTYPE svg PUBLIC "-//W3C//DTD SVG 1.1//EN" "http://www.w3.org/Graphics/SVG/1.1/DTD/svg11.dtd">
<svg version="1.1" id="Layer_1" xmlns="http://www.w3.org/2000/svg" xmlns:xlink="http://www.w3.org/1999/xlink" x="0px" y="0px"
	 width="50px" height="50px" viewBox="0 0 50 50" enable-background="new 0 0 50 50" xml:space="preserve">
<g>
	<path d="M37,10.724h-1.098V9.526c0-1.517-1.197-2.75-2.67-2.75s-2.67,1.233-2.67,2.75v1.197h-2.74V9.526
		c0-1.517-1.197-2.75-2.67-2.75s-2.67,1.233-2.67,2.75v1.197h-2.74V9.526c0-1.517-1.197-2.75-2.67-2.75s-2.67,1.233-2.67,2.75v1.197
		H13c-2.343,0-4.25,1.907-4.25,4.25v2h2.5h27.5h2.5v-2C41.25,12.631,39.344,10.724,37,10.724z M18.242,14.422
		c0,0.689-0.525,1.25-1.17,1.25s-1.17-0.561-1.17-1.25V9.526c0-0.689,0.525-1.25,1.17-1.25s1.17,0.561,1.17,1.25V14.422z
		 M26.322,14.422c0,0.689-0.525,1.25-1.17,1.25s-1.17-0.561-1.17-1.25V9.526c0-0.689,0.525-1.25,1.17-1.25s1.17,0.561,1.17,1.25
		V14.422z M34.402,14.422c0,0.689-0.525,1.25-1.17,1.25s-1.17-0.561-1.17-1.25V9.526c0-0.689,0.525-1.25,1.17-1.25
		s1.17,0.561,1.17,1.25V14.422z"/>
	<path d="M8.75,38.974c0,2.343,1.907,4.25,4.25,4.25h24c2.344,0,4.25-1.907,4.25-4.25V18.875H8.75V38.974z M31.904,23.402H36.5
		v4.088h-4.596V23.402z M31.904,28.86H36.5v4.086h-4.596V28.86z M31.904,34.316H36.5v4.086h-4.596V34.316z M25.771,23.402h4.595
		v4.088h-4.595V23.402z M25.771,28.86h4.595v4.086h-4.595V28.86z M25.771,34.316h4.595v4.086h-4.595V34.316z M13.5,23.402h10.73v15
		H13.5V23.402z"/>
</g>
</svg>
