<?xml version="1.0" encoding="utf-8"?>
<!-- Generator: Adobe Illustrator 16.0.0, SVG Export Plug-In . SVG Version: 6.00 Build 0)  -->
<!DOCTYPE svg PUBLIC "-//W3C//DTD SVG 1.1//EN" "http://www.w3.org/Graphics/SVG/1.1/DTD/svg11.dtd">
<svg version="1.1" id="Layer_1" xmlns="http://www.w3.org/2000/svg" xmlns:xlink="http://www.w3.org/1999/xlink" x="0px" y="0px"
	 width="50px" height="50px" viewBox="0 0 50 50" enable-background="new 0 0 50 50" xml:space="preserve">
<g>
	<path d="M37,10.724h-1.098V9.526c0-1.516-1.197-2.75-2.67-2.75s-2.67,1.234-2.67,2.75v1.197h-2.74V9.526
		c0-1.516-1.197-2.75-2.67-2.75s-2.67,1.234-2.67,2.75v1.197h-2.74V9.526c0-1.516-1.197-2.75-2.67-2.75s-2.67,1.234-2.67,2.75v1.197
		H13c-2.343,0-4.25,1.907-4.25,4.25v24c0,2.343,1.907,4.25,4.25,4.25h24c2.344,0,4.25-1.907,4.25-4.25v-24
		C41.25,12.63,39.344,10.724,37,10.724z M32.063,9.526c0-0.689,0.525-1.25,1.17-1.25s1.17,0.561,1.17,1.25v4.895
		c0,0.689-0.525,1.25-1.17,1.25s-1.17-0.561-1.17-1.25V9.526z M23.982,9.526c0-0.689,0.525-1.25,1.17-1.25s1.17,0.561,1.17,1.25
		v4.895c0,0.689-0.525,1.25-1.17,1.25s-1.17-0.561-1.17-1.25V9.526z M15.902,9.526c0-0.689,0.525-1.25,1.17-1.25
		s1.17,0.561,1.17,1.25v4.895c0,0.689-0.525,1.25-1.17,1.25s-1.17-0.561-1.17-1.25V9.526z M38.75,38.974
		c0,0.965-0.785,1.75-1.75,1.75H13c-0.965,0-1.75-0.785-1.75-1.75v-22h27.5V38.974z"/>
	<path d="M18.483,28.72l0.813,6.909c0,1.262,1.92,1.902,5.706,1.902s5.704-0.64,5.701-1.829l0.816-6.982
		c1.478-0.553,2.476-1.962,2.476-3.567c0-2.106-1.713-3.82-3.82-3.82c-0.711,0-1.396,0.197-1.991,0.563
		c-0.695-1.063-1.874-1.717-3.182-1.717c-1.309,0-2.487,0.653-3.182,1.717c-0.597-0.367-1.282-0.563-1.991-0.563
		c-2.107,0-3.822,1.714-3.822,3.82C16.005,26.757,17.005,28.167,18.483,28.72z M19.828,22.6c0.657,0,1.285,0.255,1.765,0.718
		l0.688,0.661l0.343-0.891c0.383-0.997,1.317-1.641,2.376-1.641s1.993,0.644,2.375,1.641l0.343,0.892l0.688-0.662
		c0.481-0.463,1.108-0.718,1.766-0.718c1.408,0,2.553,1.146,2.553,2.553c0,1.171-0.799,2.187-1.943,2.469l-0.425,0.106l-0.904,7.829
		c-0.005,0.007-0.573,0.706-4.454,0.706c-3.881,0-4.451-0.699-4.441-0.707l-0.918-7.827l-0.425-0.105
		c-1.144-0.284-1.944-1.299-1.944-2.47C17.273,23.745,18.418,22.6,19.828,22.6z"/>
</g>
</svg>
