<?xml version="1.0" encoding="utf-8"?>
<!-- Generator: Adobe Illustrator 16.0.0, SVG Export Plug-In . SVG Version: 6.00 Build 0)  -->
<!DOCTYPE svg PUBLIC "-//W3C//DTD SVG 1.1//EN" "http://www.w3.org/Graphics/SVG/1.1/DTD/svg11.dtd">
<svg version="1.1" id="Layer_1" xmlns="http://www.w3.org/2000/svg" xmlns:xlink="http://www.w3.org/1999/xlink" x="0px" y="0px"
	 width="50px" height="50px" viewBox="0 0 50 50" enable-background="new 0 0 50 50" xml:space="preserve">
<g>
	<path fill-rule="evenodd" clip-rule="evenodd" d="M38.25,10.25h-26c-1.518,0-2.75,1.234-2.75,2.75v26c0,1.518,1.232,2.75,2.75,2.75
		h22.895L41,35.895V13C41,11.484,39.767,10.25,38.25,10.25z M34.083,12.292c0.817,0,1.479,0.662,1.479,1.479
		c0,0.816-0.662,1.479-1.479,1.479s-1.479-0.662-1.479-1.479C32.604,12.954,33.266,12.292,34.083,12.292z M29.666,12.292
		c0.817,0,1.479,0.662,1.479,1.479c0,0.816-0.662,1.479-1.479,1.479c-0.816,0-1.479-0.662-1.479-1.479
		C28.188,12.954,28.85,12.292,29.666,12.292z M25.25,12.292c0.816,0,1.479,0.662,1.479,1.479c0,0.816-0.662,1.479-1.479,1.479
		c-0.817,0-1.479-0.662-1.479-1.479C23.771,12.954,24.433,12.292,25.25,12.292z M20.834,12.292c0.816,0,1.479,0.662,1.479,1.479
		c0,0.816-0.662,1.479-1.479,1.479c-0.818,0-1.48-0.662-1.48-1.479C19.354,12.954,20.016,12.292,20.834,12.292z M16.417,12.292
		c0.817,0,1.479,0.662,1.479,1.479c0,0.816-0.662,1.479-1.479,1.479s-1.479-0.662-1.479-1.479
		C14.938,12.954,15.6,12.292,16.417,12.292z M39.5,35.273l-0.311,0.311h-2.355c-0.692,0-1.304,0.357-1.664,0.896v-3.144H15.329
		v4.579h19.505v2.025l-0.311,0.31H12.25C11.561,40.25,11,39.689,11,39V17h28.5V35.273z M33.325,37.085l-0.948-0.499l-0.948,0.499
		l0.181-1.057l-0.768-0.747l1.061-0.156l0.474-0.959l0.476,0.959l1.061,0.156l-0.768,0.747L33.325,37.085z M29.772,37.085
		l-0.949-0.499l-0.949,0.499l0.181-1.057l-0.767-0.747l1.06-0.156l0.474-0.959l0.475,0.959l1.061,0.156l-0.768,0.747L29.772,37.085z
		 M26.218,37.085l-0.949-0.499l-0.949,0.499l0.181-1.057l-0.768-0.747l1.061-0.156l0.474-0.959l0.474,0.959l1.061,0.156
		l-0.767,0.747L26.218,37.085z M22.663,37.085l-0.948-0.499l-0.949,0.499l0.181-1.057l-0.768-0.747l1.061-0.156l0.474-0.959
		l0.475,0.959l1.06,0.156l-0.768,0.747L22.663,37.085z M19.07,37.085l-0.949-0.499l-0.948,0.499l0.181-1.057l-0.768-0.747
		l1.061-0.156l0.474-0.959l0.475,0.959l1.061,0.156l-0.768,0.747L19.07,37.085z"/>
	<path fill-rule="evenodd" clip-rule="evenodd" d="M21.223,26.302c0.101-0.04,0.204-0.13,0.259-0.224
		c0.347-0.588,0.867-0.652,1.475-0.545c0.306,0.057,0.628,0.09,0.933,0.052c0.479-0.06,0.76,0.151,0.665,0.636
		c-0.059,0.302-4.372,2.574-4.382,6.352h9.879c0,0-0.821-1.108-1.015-1.625c-0.284-0.751-0.16-1.499,0.474-2.015
		c0.841-0.688,1.336-1.499,1.159-2.627c1.348-2.896-0.455-5.132-1.756-5.617c-1.086-1.521-4.517-1.927-6.119-0.407l0.69,0.805
		c-0.725,0.353-1.158,1.006-1.734,1.509c-0.581,0.507-1.23,0.936-1.844,1.404c-0.542,0.415-0.705,1.134-0.392,1.685
		C19.722,26.054,20.816,26.457,21.223,26.302z"/>
</g>
</svg>
