<?xml version="1.0" encoding="utf-8"?>
<!-- Generator: Adobe Illustrator 16.0.0, SVG Export Plug-In . SVG Version: 6.00 Build 0)  -->
<!DOCTYPE svg PUBLIC "-//W3C//DTD SVG 1.1//EN" "http://www.w3.org/Graphics/SVG/1.1/DTD/svg11.dtd">
<svg version="1.1" id="Layer_1" xmlns="http://www.w3.org/2000/svg" xmlns:xlink="http://www.w3.org/1999/xlink" x="0px" y="0px"
	 width="50px" height="50px" viewBox="0 0 50 50" enable-background="new 0 0 50 50" xml:space="preserve">
<g>
	<path d="M38.25,10.25h-1.123c0.029-0.092,0.058-0.186,0.058-0.288c0-0.53-0.431-0.962-0.962-0.962s-0.961,0.432-0.961,0.962
		c0,0.103,0.028,0.196,0.059,0.288h-3.68c0.029-0.092,0.058-0.186,0.058-0.288c0-0.53-0.431-0.962-0.962-0.962
		c-0.53,0-0.961,0.432-0.961,0.962c0,0.103,0.029,0.196,0.059,0.288h-3.681c0.029-0.092,0.058-0.186,0.058-0.288
		c0-0.53-0.43-0.962-0.961-0.962s-0.961,0.432-0.961,0.962c0,0.103,0.028,0.196,0.058,0.288h-3.681
		c0.029-0.092,0.059-0.186,0.059-0.288c0-0.53-0.431-0.962-0.961-0.962c-0.531,0-0.962,0.432-0.962,0.962
		c0,0.103,0.028,0.196,0.058,0.288h-3.68c0.03-0.092,0.059-0.186,0.059-0.288c0-0.53-0.43-0.962-0.961-0.962
		s-0.962,0.432-0.962,0.962c0,0.103,0.028,0.196,0.058,0.288H12.25c-1.518,0-2.75,1.234-2.75,2.75v26c0,1.518,1.232,2.75,2.75,2.75
		h22.895L41,35.895V13C41,11.484,39.767,10.25,38.25,10.25z M39.5,35.273l-0.311,0.311h-2.355c-1.101,0-2,0.9-2,2v2.356l-0.311,0.31
		H12.25C11.561,40.25,11,39.689,11,39V14h28.5V35.273z"/>
	<path d="M19.209,38.14l-0.159-0.593l1.3-0.349l0.159,0.593l14.228-3.813l-0.159-0.592l1.3-0.349l0.159,0.592l0.886-0.237
		L32.177,15.68l-0.886,0.237l0.159,0.593l-1.3,0.348l-0.159-0.593l-14.228,3.813l0.159,0.592l-1.3,0.348l-0.159-0.592l-0.886,0.237
		l4.746,17.714L19.209,38.14z M21.807,37.206l-0.831-3.1l11.514-3.086l0.83,3.101L21.807,37.206z M35.372,31.147l-1.3,0.348
		l-0.277-1.035l1.3-0.348L35.372,31.147z M34.587,28.219l-1.299,0.349l-0.278-1.035l1.3-0.349L34.587,28.219z M33.803,25.291
		l-1.3,0.349l-0.276-1.032l1.3-0.349L33.803,25.291z M33.018,22.363l-1.3,0.348l-0.278-1.035l1.3-0.348L33.018,22.363z
		 M31.957,18.401l0.277,1.035l-1.3,0.349l-0.277-1.035L31.957,18.401z M32.075,29.471l-11.514,3.086l-2.136-7.971L29.939,21.5
		L32.075,29.471z M28.693,16.85l0.831,3.101L18.01,23.035l-0.83-3.1L28.693,16.85z M15.129,22.911l1.3-0.349l0.277,1.035l-1.3,0.349
		L15.129,22.911z M15.913,25.837l1.299-0.348l0.278,1.035l-1.3,0.348L15.913,25.837z M16.698,28.768l1.3-0.349l0.276,1.032
		l-1.3,0.349L16.698,28.768z M17.482,31.693l1.3-0.349l0.278,1.035l-1.3,0.349L17.482,31.693z M19.566,34.272l0.277,1.036
		l-1.3,0.348l-0.277-1.035L19.566,34.272z"/>
</g>
</svg>
