<?xml version="1.0" encoding="utf-8"?>
<!-- Generator: Adobe Illustrator 16.0.0, SVG Export Plug-In . SVG Version: 6.00 Build 0)  -->
<!DOCTYPE svg PUBLIC "-//W3C//DTD SVG 1.1//EN" "http://www.w3.org/Graphics/SVG/1.1/DTD/svg11.dtd">
<svg version="1.1" id="Layer_1" xmlns="http://www.w3.org/2000/svg" xmlns:xlink="http://www.w3.org/1999/xlink" x="0px" y="0px"
	 width="50px" height="50px" viewBox="0 0 50 50" enable-background="new 0 0 50 50" xml:space="preserve">
<g>
	<path d="M25.013,24.878c-0.434,0-0.831,0.082-1.193,0.244c-0.362,0.163-0.675,0.389-0.936,0.678
		c-0.263,0.29-0.467,0.624-0.611,1.005c-0.146,0.379-0.217,0.785-0.217,1.221c0,0.813,0.271,1.505,0.813,2.076
		c0.544,0.568,1.268,0.853,2.171,0.853c0.488,0,0.926-0.077,1.316-0.23c0.389-0.152,0.724-0.365,1.003-0.638
		c0.28-0.271,0.498-0.582,0.651-0.935c0.153-0.354,0.23-0.72,0.23-1.1c0-0.886-0.274-1.637-0.827-2.252
		C26.862,25.186,26.063,24.878,25.013,24.878z"/>
	<path d="M25,9C16.162,9,9,16.163,9,25c0,8.838,7.162,16,16,16c8.837,0,16-7.162,16-16C41,16.163,33.837,9,25,9z M25,10
		c0.738,0,1.337,0.599,1.337,1.338c0,0.738-0.599,1.337-1.337,1.337c-0.739,0-1.338-0.599-1.338-1.337
		C23.662,10.599,24.261,10,25,10z M31.958,30.71c-0.397,0.87-0.944,1.598-1.642,2.185c-0.696,0.589-1.501,1.035-2.414,1.343
		c-0.914,0.308-1.886,0.462-2.916,0.462c-1.394,0-2.569-0.272-3.527-0.815c-0.959-0.542-1.736-1.261-2.333-2.155
		c-0.597-0.896-1.027-1.918-1.29-3.065c-0.262-1.148-0.393-2.33-0.393-3.541c0-1.321,0.164-2.577,0.488-3.771
		c0.326-1.195,0.828-2.239,1.507-3.134c0.678-0.896,1.537-1.605,2.577-2.13c1.039-0.525,2.274-0.787,3.702-0.787
		c0.833,0,1.619,0.107,2.36,0.325c0.743,0.217,1.402,0.538,1.98,0.964c0.579,0.425,1.063,0.958,1.451,1.6
		c0.391,0.643,0.656,1.398,0.802,2.267h-4.313c-0.092-0.38-0.217-0.683-0.381-0.909c-0.162-0.227-0.353-0.411-0.569-0.556
		c-0.217-0.127-0.442-0.209-0.679-0.245c-0.234-0.036-0.451-0.055-0.651-0.055c-0.668,0-1.233,0.148-1.695,0.448
		c-0.461,0.3-0.841,0.683-1.139,1.152c-0.299,0.472-0.525,0.986-0.679,1.548c-0.153,0.56-0.24,1.111-0.258,1.653h0.055
		c0.47-0.776,1.098-1.306,1.886-1.586c0.785-0.281,1.631-0.421,2.535-0.421c0.87,0,1.679,0.162,2.429,0.488
		c0.751,0.325,1.398,0.772,1.94,1.344c0.543,0.569,0.972,1.23,1.289,1.979c0.316,0.75,0.475,1.561,0.475,2.429
		C32.556,28.849,32.355,29.842,31.958,30.71z"/>
</g>
</svg>
