<?xml version="1.0" encoding="utf-8"?>
<!-- Generator: Adobe Illustrator 16.0.0, SVG Export Plug-In . SVG Version: 6.00 Build 0)  -->
<!DOCTYPE svg PUBLIC "-//W3C//DTD SVG 1.1//EN" "http://www.w3.org/Graphics/SVG/1.1/DTD/svg11.dtd">
<svg version="1.1" id="Layer_1" xmlns="http://www.w3.org/2000/svg" xmlns:xlink="http://www.w3.org/1999/xlink" x="0px" y="0px"
	 width="50px" height="50px" viewBox="0 0 50 50" enable-background="new 0 0 50 50" xml:space="preserve">
<path d="M25,9C16.162,9,9,16.163,9,25c0,8.838,7.162,16,16,16c8.837,0,16-7.162,16-16C41,16.163,33.837,9,25,9z M25,10
	c0.738,0,1.337,0.599,1.337,1.338c0,0.738-0.599,1.337-1.337,1.337c-0.739,0-1.338-0.599-1.338-1.337C23.662,10.599,24.261,10,25,10
	z M20.831,30.075h-3.987v-3.987h3.987V30.075z M26.993,30.075h-3.987v-3.987h3.987V30.075z M26.994,23.912h-3.987v-3.987h3.987
	V23.912z M33.155,30.075h-3.987v-3.987h3.987V30.075z M33.156,23.912h-3.987v-3.987h3.987V23.912z"/>
</svg>
