<?xml version="1.0" encoding="utf-8"?>
<!-- Generator: Adobe Illustrator 16.0.0, SVG Export Plug-In . SVG Version: 6.00 Build 0)  -->
<!DOCTYPE svg PUBLIC "-//W3C//DTD SVG 1.1//EN" "http://www.w3.org/Graphics/SVG/1.1/DTD/svg11.dtd">
<svg version="1.1" id="Layer_1" xmlns="http://www.w3.org/2000/svg" xmlns:xlink="http://www.w3.org/1999/xlink" x="0px" y="0px"
	 width="50px" height="50px" viewBox="0 0 50 50" enable-background="new 0 0 50 50" xml:space="preserve">
<g>
	<path d="M37,10.724h-1.098V9.526c0-1.516-1.197-2.75-2.67-2.75s-2.67,1.234-2.67,2.75v1.197h-2.74V9.526
		c0-1.516-1.197-2.75-2.67-2.75s-2.67,1.234-2.67,2.75v1.197h-2.74V9.526c0-1.516-1.197-2.75-2.67-2.75s-2.67,1.234-2.67,2.75v1.197
		H13c-2.343,0-4.25,1.907-4.25,4.25v24c0,2.343,1.907,4.25,4.25,4.25h24c2.344,0,4.25-1.907,4.25-4.25v-24
		C41.25,12.63,39.344,10.724,37,10.724z M32.062,9.526c0-0.689,0.525-1.25,1.17-1.25s1.17,0.561,1.17,1.25v4.895
		c0,0.689-0.525,1.25-1.17,1.25s-1.17-0.561-1.17-1.25V9.526z M23.982,9.526c0-0.689,0.525-1.25,1.17-1.25s1.17,0.561,1.17,1.25
		v4.895c0,0.689-0.525,1.25-1.17,1.25s-1.17-0.561-1.17-1.25V9.526z M15.902,9.526c0-0.689,0.525-1.25,1.17-1.25
		s1.17,0.561,1.17,1.25v4.895c0,0.689-0.525,1.25-1.17,1.25s-1.17-0.561-1.17-1.25V9.526z M38.75,38.974
		c0,0.965-0.785,1.75-1.75,1.75H13c-0.965,0-1.75-0.785-1.75-1.75v-22h27.5V38.974z"/>
	<polygon points="15.986,26.192 20.035,26.192 20.035,35.702 23.595,35.702 23.595,23.11 25.313,20.974 27.155,20.974 
		27.155,35.702 30.715,35.702 30.715,28.838 32.264,27.29 33.812,28.838 33.812,35.702 37.372,35.702 37.372,34.995 34.519,34.995 
		34.519,28.545 32.264,26.29 30.008,28.545 30.008,34.995 27.862,34.995 27.862,20.267 24.974,20.267 22.888,22.86 22.888,34.995 
		20.742,34.995 20.742,25.485 15.28,25.485 15.28,34.995 13.378,34.995 13.378,35.702 15.986,35.702 	"/>
	<rect x="16.61" y="26.88" width="1.053" height="0.845"/>
	<rect x="18.385" y="26.88" width="1.054" height="0.845"/>
	<rect x="16.61" y="28.305" width="1.053" height="0.845"/>
	<rect x="18.385" y="28.305" width="1.054" height="0.845"/>
	<rect x="16.61" y="29.73" width="1.053" height="0.845"/>
	<rect x="18.385" y="29.73" width="1.054" height="0.846"/>
	<rect x="16.61" y="31.154" width="1.053" height="0.846"/>
	<rect x="18.385" y="31.154" width="1.054" height="0.846"/>
	<rect x="16.61" y="32.58" width="1.053" height="0.845"/>
	<rect x="18.385" y="32.58" width="1.054" height="0.845"/>
	<rect x="16.61" y="34.004" width="1.053" height="0.846"/>
	<rect x="18.385" y="34.005" width="1.054" height="0.845"/>
	<rect x="31.121" y="29.439" width="0.845" height="0.845"/>
	<rect x="32.546" y="29.439" width="0.845" height="0.846"/>
	<rect x="31.121" y="30.865" width="0.845" height="0.845"/>
	<rect x="32.546" y="30.865" width="0.845" height="0.845"/>
	<rect x="31.121" y="32.29" width="0.845" height="0.846"/>
	<rect x="25.665" y="21.76" width="0.845" height="1.232"/>
	<rect x="25.665" y="23.835" width="0.845" height="1.232"/>
	<rect x="24.24" y="25.912" width="0.845" height="1.231"/>
	<rect x="25.665" y="25.912" width="0.845" height="1.232"/>
	<rect x="24.24" y="27.987" width="0.845" height="1.232"/>
	<rect x="25.665" y="27.988" width="0.845" height="1.231"/>
	<rect x="24.24" y="30.063" width="0.845" height="1.231"/>
	<rect x="25.665" y="30.063" width="0.845" height="1.231"/>
	<rect x="24.24" y="32.139" width="0.845" height="1.231"/>
	<rect x="25.665" y="32.139" width="0.845" height="1.231"/>
</g>
</svg>
