<?xml version="1.0" encoding="utf-8"?>
<!-- Generator: Adobe Illustrator 16.0.0, SVG Export Plug-In . SVG Version: 6.00 Build 0)  -->
<!DOCTYPE svg PUBLIC "-//W3C//DTD SVG 1.1//EN" "http://www.w3.org/Graphics/SVG/1.1/DTD/svg11.dtd">
<svg version="1.1" id="Layer_1" xmlns="http://www.w3.org/2000/svg" xmlns:xlink="http://www.w3.org/1999/xlink" x="0px" y="0px"
	 width="50px" height="50px" viewBox="0 0 50 50" enable-background="new 0 0 50 50" xml:space="preserve">
<g>
	<path d="M37,10.724h-1.098V9.526c0-1.516-1.197-2.75-2.67-2.75s-2.67,1.234-2.67,2.75v1.197h-2.74V9.526
		c0-1.516-1.197-2.75-2.67-2.75s-2.67,1.234-2.67,2.75v1.197h-2.74V9.526c0-1.516-1.197-2.75-2.67-2.75s-2.67,1.234-2.67,2.75v1.197
		H13c-2.343,0-4.25,1.907-4.25,4.25v24c0,2.343,1.907,4.25,4.25,4.25h24c2.344,0,4.25-1.907,4.25-4.25v-24
		C41.25,12.63,39.344,10.724,37,10.724z M32.063,9.526c0-0.689,0.525-1.25,1.17-1.25s1.17,0.561,1.17,1.25v4.895
		c0,0.689-0.525,1.25-1.17,1.25s-1.17-0.561-1.17-1.25V9.526z M23.982,9.526c0-0.689,0.525-1.25,1.17-1.25s1.17,0.561,1.17,1.25
		v4.895c0,0.689-0.525,1.25-1.17,1.25s-1.17-0.561-1.17-1.25V9.526z M15.902,9.526c0-0.689,0.525-1.25,1.17-1.25
		s1.17,0.561,1.17,1.25v4.895c0,0.689-0.525,1.25-1.17,1.25s-1.17-0.561-1.17-1.25V9.526z M38.75,38.974
		c0,0.965-0.785,1.75-1.75,1.75H13c-0.965,0-1.75-0.785-1.75-1.75v-22h27.5V38.974z"/>
	<path d="M17.838,36.22c0.298,0,0.603-0.04,0.911-0.116c0.754,0.826,1.823,1.308,2.941,1.308c0.623,0,1.232-0.146,1.788-0.426
		c0.694,0.534,1.538,0.823,2.421,0.823c1.375,0,2.658-0.729,3.38-1.892c1.889,0.099,3.466-1.415,3.466-3.287
		c0-0.829-0.313-1.581-0.822-2.16c0.598-0.751,0.96-1.697,0.96-2.729c0-2.432-1.978-4.41-4.41-4.41c-1.96,0-3.621,1.287-4.193,3.059
		c-0.224,0.095-0.442,0.203-0.651,0.337c-0.739-0.707-1.708-1.103-2.733-1.103c-1.703,0-3.225,1.112-3.769,2.701
		c-1.869,0.339-3.276,1.979-3.276,3.907C13.85,34.432,15.639,36.22,17.838,36.22z M28.472,24.556c1.757,0,3.187,1.429,3.187,3.186
		c0,0.752-0.269,1.437-0.709,1.979c-0.228-0.116-0.466-0.215-0.722-0.277c-0.46-1.968-2.221-3.4-4.269-3.4
		c-0.055,0-0.108,0.009-0.164,0.011C26.356,25.16,27.338,24.556,28.472,24.556z M17.647,29.492l0.456-0.033l0.099-0.446
		c0.278-1.254,1.412-2.165,2.694-2.165c0.844,0,1.634,0.392,2.168,1.073l0.389,0.496l0.484-0.403
		c0.586-0.489,1.286-0.748,2.021-0.748c1.588,0,2.937,1.198,3.136,2.785l0.062,0.486l0.488,0.046
		c1.07,0.101,1.876,0.981,1.876,2.046c0,1.14-0.928,2.068-2.069,2.068c-0.125,0-0.253-0.013-0.395-0.041l-0.465-0.089l-0.203,0.428
		c-0.465,0.98-1.419,1.589-2.491,1.589c-0.719,0-1.403-0.279-1.924-0.786l-0.353-0.343l-0.41,0.272
		c-0.456,0.301-0.982,0.46-1.521,0.46c-0.887,0-1.701-0.418-2.231-1.147l-0.27-0.37l-0.431,0.154
		c-0.322,0.115-0.623,0.171-0.919,0.171c-1.524,0-2.764-1.24-2.764-2.764C15.074,30.796,16.204,29.592,17.647,29.492z"/>
	<path d="M34.369,27.924c0,0.119,0.095,0.213,0.213,0.213h1.354c0.118,0,0.213-0.094,0.213-0.213c0-0.118-0.095-0.213-0.213-0.213
		h-1.354C34.463,27.71,34.369,27.806,34.369,27.924z"/>
	<path d="M33.764,25.082c0.036,0,0.072-0.01,0.105-0.028l1.174-0.676c0.102-0.06,0.137-0.189,0.078-0.292
		c-0.058-0.102-0.188-0.136-0.291-0.078l-1.173,0.676c-0.102,0.06-0.137,0.19-0.078,0.292
		C33.618,25.043,33.689,25.082,33.764,25.082z"/>
	<path d="M31.526,22.847c0.073,0,0.145-0.038,0.185-0.106l0.679-1.172c0.059-0.103,0.023-0.232-0.078-0.292
		c-0.103-0.059-0.232-0.023-0.292,0.078l-0.678,1.172c-0.06,0.102-0.024,0.232,0.078,0.291
		C31.453,22.837,31.49,22.847,31.526,22.847z"/>
	<path d="M28.472,22.028L28.472,22.028c0.118,0,0.213-0.096,0.213-0.213l0.001-1.354c0-0.118-0.095-0.214-0.213-0.214
		c-0.118,0-0.213,0.095-0.213,0.214l-0.002,1.354C28.258,21.931,28.354,22.028,28.472,22.028z"/>
	<path d="M25.234,22.74c0.038,0.068,0.111,0.106,0.184,0.106c0.036,0,0.073-0.008,0.106-0.027c0.102-0.061,0.138-0.189,0.078-0.292
		l-0.676-1.174c-0.058-0.101-0.189-0.137-0.291-0.078c-0.102,0.059-0.137,0.189-0.078,0.292L25.234,22.74z"/>
	<path d="M23.076,25.054c0.033,0.02,0.07,0.029,0.106,0.029c0.073,0,0.145-0.039,0.185-0.107c0.059-0.102,0.024-0.232-0.078-0.291
		l-1.173-0.678c-0.102-0.06-0.232-0.024-0.291,0.078c-0.059,0.103-0.024,0.232,0.078,0.292L23.076,25.054z"/>
	<path d="M34.829,31.841c0.034,0.02,0.071,0.028,0.107,0.028c0.074,0,0.146-0.038,0.185-0.106c0.059-0.102,0.024-0.232-0.078-0.292
		l-1.174-0.676c-0.102-0.06-0.232-0.025-0.29,0.078c-0.059,0.102-0.024,0.232,0.078,0.291L34.829,31.841z"/>
</g>
</svg>
