<?xml version="1.0" encoding="utf-8"?>
<!-- Generator: Adobe Illustrator 16.0.0, SVG Export Plug-In . SVG Version: 6.00 Build 0)  -->
<!DOCTYPE svg PUBLIC "-//W3C//DTD SVG 1.1//EN" "http://www.w3.org/Graphics/SVG/1.1/DTD/svg11.dtd">
<svg version="1.1" id="Layer_1" xmlns="http://www.w3.org/2000/svg" xmlns:xlink="http://www.w3.org/1999/xlink" x="0px" y="0px"
	 width="50px" height="50px" viewBox="0 0 50 50" enable-background="new 0 0 50 50" xml:space="preserve">
<g>
	<path d="M37,10.724h-1.098V9.526c0-1.516-1.197-2.75-2.67-2.75s-2.67,1.234-2.67,2.75v1.197h-2.74V9.526
		c0-1.516-1.197-2.75-2.67-2.75s-2.67,1.234-2.67,2.75v1.197h-2.74V9.526c0-1.516-1.197-2.75-2.67-2.75s-2.67,1.234-2.67,2.75v1.197
		H13c-2.343,0-4.25,1.907-4.25,4.25v24c0,2.343,1.907,4.25,4.25,4.25h24c2.344,0,4.25-1.907,4.25-4.25v-24
		C41.25,12.63,39.344,10.724,37,10.724z M32.063,9.526c0-0.689,0.525-1.25,1.17-1.25s1.17,0.561,1.17,1.25v4.895
		c0,0.689-0.525,1.25-1.17,1.25s-1.17-0.561-1.17-1.25V9.526z M23.982,9.526c0-0.689,0.525-1.25,1.17-1.25s1.17,0.561,1.17,1.25
		v4.895c0,0.689-0.525,1.25-1.17,1.25s-1.17-0.561-1.17-1.25V9.526z M15.902,9.526c0-0.689,0.525-1.25,1.17-1.25
		s1.17,0.561,1.17,1.25v4.895c0,0.689-0.525,1.25-1.17,1.25s-1.17-0.561-1.17-1.25V9.526z M38.75,38.974
		c0,0.965-0.785,1.75-1.75,1.75H13c-0.965,0-1.75-0.785-1.75-1.75v-22h27.5V38.974z"/>
	<path d="M21.097,36.739v0.878h5.671v-0.874c1.994-0.534,3.234-1.658,3.973-3.094c0.214,0.089,0.438,0.148,0.68,0.148
		c0.814,0,1.613-0.507,2.085-1.324c0.315-0.548,0.442-1.167,0.355-1.741c-0.093-0.608-0.411-1.098-0.894-1.376
		c-0.268-0.154-0.565-0.232-0.883-0.232c-0.117,0-0.232,0.013-0.346,0.033c0.009-0.232,0.014-0.465,0.014-0.699H16.111
		C16.111,32.06,17.008,35.641,21.097,36.739z M31.689,30.002c0.131-0.044,0.265-0.068,0.396-0.068c0.174,0,0.335,0.042,0.478,0.125
		c0.266,0.153,0.443,0.436,0.498,0.796c0.061,0.394-0.031,0.824-0.256,1.213c-0.322,0.559-0.865,0.92-1.383,0.92
		c-0.127,0-0.243-0.03-0.354-0.074C31.411,32.013,31.602,31.024,31.689,30.002z"/>
	<path d="M19.768,27.393c-0.249-2.325,1.785-4.359,0-6.684C20.349,22.618,18.106,24.985,19.768,27.393z"/>
	<path d="M23.978,27.393c-0.249-2.325,1.785-4.359,0-6.684C24.559,22.618,22.316,24.985,23.978,27.393z"/>
	<path d="M28.188,27.393c-0.249-2.325,1.785-4.359,0-6.684C28.769,22.618,26.526,24.985,28.188,27.393z"/>
</g>
</svg>
