<?xml version="1.0" encoding="utf-8"?>
<!-- Generator: Adobe Illustrator 16.0.0, SVG Export Plug-In . SVG Version: 6.00 Build 0)  -->
<!DOCTYPE svg PUBLIC "-//W3C//DTD SVG 1.1//EN" "http://www.w3.org/Graphics/SVG/1.1/DTD/svg11.dtd">
<svg version="1.1" id="Layer_1" xmlns="http://www.w3.org/2000/svg" xmlns:xlink="http://www.w3.org/1999/xlink" x="0px" y="0px"
	 width="50px" height="50px" viewBox="0 0 50 50" enable-background="new 0 0 50 50" xml:space="preserve">
<g>
	<path d="M38,9.25h-1.124c0.029-0.093,0.058-0.186,0.058-0.289C36.935,8.431,36.504,8,35.973,8c-0.531,0-0.961,0.431-0.961,0.961
		c0,0.103,0.028,0.196,0.058,0.289h-3.68c0.03-0.093,0.058-0.186,0.058-0.289c0-0.531-0.43-0.961-0.961-0.961
		c-0.531,0-0.961,0.431-0.961,0.961c0,0.103,0.029,0.196,0.058,0.289h-3.68c0.029-0.093,0.058-0.186,0.058-0.289
		C25.961,8.431,25.531,8,25,8s-0.961,0.431-0.961,0.961c0,0.103,0.029,0.196,0.058,0.289h-3.68c0.029-0.093,0.058-0.186,0.058-0.289
		C20.475,8.431,20.044,8,19.513,8c-0.531,0-0.961,0.431-0.961,0.961c0,0.103,0.028,0.196,0.058,0.289h-3.68
		c0.03-0.093,0.058-0.186,0.058-0.289c0-0.531-0.43-0.961-0.961-0.961c-0.531,0-0.961,0.431-0.961,0.961
		c0,0.103,0.029,0.196,0.058,0.289H12c-1.517,0-2.75,1.233-2.75,2.75v26c0,1.517,1.233,2.75,2.75,2.75h22.895l5.855-5.856V12
		C40.75,10.483,39.517,9.25,38,9.25z M39.25,34.273l-0.311,0.311h-2.356c-1.1,0-2,0.9-2,2v2.356l-0.31,0.31H12
		c-0.689,0-1.25-0.561-1.25-1.25V17h28.5V34.273z"/>
	<path d="M25.288,22.563c0.021,0.04,0.055,0.08,0.083,0.119c0.033,0.045,0.064,0.09,0.104,0.136c0.047,0.054,0.1,0.109,0.156,0.164
		c0.028,0.028,0.056,0.057,0.086,0.085c0.557,0.521,1.446,1.097,2.279,1.879c0,0,1.769,1.886,3.367,3.137v6.071
		c0,0.484-0.164,0.928-0.433,1.29h0.966c0,0,4.686,0,4.685-5.25c0.001-3.273-1.529-4.659-2.573-5.09
		c-0.006-0.003-5.685-3.256-6.993-3.935c-1.31-0.679-2.064,0.15-1.837,1.131C25.196,22.39,25.236,22.477,25.288,22.563z"/>
	<path d="M15.051,35.786h14.137c0.901,0,1.632-0.732,1.632-1.631v-5.808c-0.784-0.632-1.575-1.375-2.174-1.964H14.508v-0.928
		c0-0.301,0.243-0.544,0.543-0.543l12.074-0.001c-0.284-0.237-0.566-0.464-0.829-0.666c-0.192-0.147-0.37-0.285-0.538-0.422H15.05
		c-0.899,0-1.63,0.732-1.63,1.632v8.7C13.419,35.054,14.15,35.786,15.051,35.786z M14.508,29.578h15.224v4.578
		c0,0.3-0.244,0.543-0.544,0.543H15.05c-0.299,0-0.542-0.243-0.542-0.543V29.578z"/>
	<rect x="15.34" y="32.465" width="5.03" height="1.326"/>
</g>
</svg>
