<?xml version="1.0" encoding="utf-8"?>
<!-- Generator: Adobe Illustrator 16.0.0, SVG Export Plug-In . SVG Version: 6.00 Build 0)  -->
<!DOCTYPE svg PUBLIC "-//W3C//DTD SVG 1.1//EN" "http://www.w3.org/Graphics/SVG/1.1/DTD/svg11.dtd">
<svg version="1.1" id="Layer_1" xmlns="http://www.w3.org/2000/svg" xmlns:xlink="http://www.w3.org/1999/xlink" x="0px" y="0px"
	 width="50px" height="50px" viewBox="0 0 50 50" enable-background="new 0 0 50 50" xml:space="preserve">
<g>
	<path fill-rule="evenodd" clip-rule="evenodd" d="M18.54,34.291h3.36v-14.16h-2.36c-0.04,0.227-0.117,0.47-0.23,0.73
		c-0.113,0.26-0.29,0.5-0.53,0.72c-0.24,0.22-0.563,0.403-0.97,0.55c-0.407,0.147-0.93,0.22-1.57,0.22h-0.42v2.12h2.72V34.291z"/>
	<path fill-rule="evenodd" clip-rule="evenodd" d="M28.94,34.291h3.36v-14.16h-2.36c-0.04,0.227-0.117,0.47-0.23,0.73
		c-0.113,0.26-0.29,0.5-0.53,0.72c-0.24,0.22-0.563,0.403-0.97,0.55c-0.407,0.147-0.93,0.22-1.57,0.22h-0.42v2.12h2.72V34.291z"/>
	<path fill-rule="evenodd" clip-rule="evenodd" d="M28,14.127c-0.048,0.036-0.083,0.079-0.104,0.129s-0.033,0.116-0.033,0.2
		c0,0.118,0.022,0.21,0.066,0.278c0.044,0.067,0.108,0.102,0.193,0.102c0.095,0,0.179-0.029,0.25-0.088
		c0.072-0.059,0.107-0.165,0.107-0.319c0-0.124,0.001-0.227,0.003-0.308c0.001-0.081,0.002-0.152,0.002-0.215
		c-0.139,0.073-0.245,0.12-0.316,0.141C28.097,14.067,28.041,14.094,28,14.127z"/>
	<path fill-rule="evenodd" clip-rule="evenodd" d="M19.663,14.836c0.095,0,0.179-0.029,0.25-0.088
		c0.072-0.059,0.107-0.165,0.107-0.319c0-0.124,0.001-0.227,0.003-0.308c0.001-0.081,0.002-0.152,0.002-0.215
		c-0.139,0.073-0.245,0.12-0.316,0.141c-0.071,0.021-0.127,0.047-0.167,0.08c-0.048,0.036-0.083,0.079-0.104,0.129
		s-0.033,0.116-0.033,0.2c0,0.118,0.022,0.21,0.066,0.278C19.514,14.802,19.578,14.836,19.663,14.836z"/>
	<path fill-rule="evenodd" clip-rule="evenodd" d="M38,9.875h-1.123c0.029-0.093,0.058-0.186,0.058-0.289
		c0-0.53-0.431-0.961-0.962-0.961s-0.961,0.431-0.961,0.961c0,0.104,0.028,0.196,0.059,0.289h-3.68
		c0.029-0.093,0.058-0.186,0.058-0.289c0-0.53-0.431-0.961-0.962-0.961c-0.53,0-0.961,0.431-0.961,0.961
		c0,0.104,0.029,0.196,0.059,0.289h-3.681c0.029-0.093,0.058-0.186,0.058-0.289c0-0.53-0.43-0.961-0.961-0.961
		s-0.961,0.431-0.961,0.961c0,0.104,0.028,0.196,0.058,0.289h-3.681c0.029-0.093,0.059-0.186,0.059-0.289
		c0-0.53-0.431-0.961-0.961-0.961c-0.531,0-0.962,0.431-0.962,0.961c0,0.104,0.028,0.196,0.058,0.289h-3.68
		c0.03-0.093,0.059-0.186,0.059-0.289c0-0.53-0.43-0.961-0.961-0.961s-0.962,0.431-0.962,0.961c0,0.104,0.028,0.196,0.058,0.289H12
		c-1.518,0-2.75,1.233-2.75,2.75v26c0,1.517,1.232,2.75,2.75,2.75h22.895l5.855-5.855V12.625C40.75,11.108,39.517,9.875,38,9.875z
		 M32.62,12.399l0.363,2.085h0.011l0.347-2.085h0.891l-0.803,2.998c-0.051,0.19-0.105,0.347-0.162,0.47
		c-0.056,0.123-0.125,0.219-0.208,0.289c-0.082,0.069-0.181,0.118-0.298,0.146s-0.261,0.041-0.433,0.041h-0.204
		c-0.029,0-0.06-0.001-0.091-0.003s-0.061-0.004-0.09-0.008v-0.627c0.036,0.007,0.073,0.013,0.11,0.017s0.073,0.005,0.11,0.005
		c0.084,0,0.161-0.022,0.231-0.068s0.117-0.133,0.143-0.261l-0.841-2.998H32.62z M29.854,12.399h0.858v0.418h0.011
		c0.059-0.132,0.146-0.247,0.261-0.347c0.115-0.099,0.267-0.148,0.454-0.148h0.066c0.015,0,0.041,0.004,0.077,0.012v0.836
		c-0.044-0.008-0.085-0.014-0.124-0.017c-0.039-0.004-0.08-0.006-0.124-0.006c-0.18,0-0.323,0.04-0.429,0.121
		s-0.159,0.22-0.159,0.418v1.688h-0.891V12.399z M28.418,12.985c-0.044-0.053-0.116-0.08-0.214-0.08
		c-0.125,0-0.209,0.036-0.253,0.107c-0.044,0.071-0.068,0.172-0.072,0.3h-0.792c0.003-0.209,0.034-0.376,0.091-0.501
		c0.057-0.124,0.138-0.223,0.245-0.297c0.106-0.073,0.225-0.123,0.355-0.151c0.13-0.027,0.289-0.041,0.476-0.041
		c0.367,0,0.634,0.067,0.803,0.201c0.168,0.134,0.253,0.36,0.253,0.679v1.529c0,0.113,0.004,0.233,0.014,0.357
		c0.009,0.125,0.04,0.22,0.091,0.286h-0.858c-0.019-0.052-0.03-0.106-0.036-0.165c-0.005-0.059-0.01-0.117-0.014-0.176h-0.011
		c-0.063,0.132-0.156,0.234-0.281,0.308s-0.264,0.11-0.418,0.11c-0.253,0-0.448-0.07-0.585-0.212
		c-0.138-0.141-0.207-0.373-0.207-0.695c0-0.177,0.033-0.331,0.099-0.465s0.154-0.232,0.264-0.295
		c0.11-0.062,0.239-0.109,0.388-0.143s0.285-0.066,0.41-0.099c0.066-0.019,0.12-0.036,0.162-0.053s0.075-0.036,0.099-0.061
		c0.024-0.023,0.039-0.054,0.047-0.091c0.007-0.036,0.011-0.082,0.011-0.138C28.484,13.111,28.462,13.038,28.418,12.985z
		 M24.25,12.399h0.891v2.029c0,0.106,0.022,0.19,0.066,0.251s0.108,0.09,0.192,0.09s0.159-0.033,0.223-0.102
		c0.064-0.067,0.096-0.175,0.096-0.321v-1.947h0.891v2.976h-0.858v-0.352H25.74c-0.062,0.132-0.156,0.236-0.28,0.313
		c-0.125,0.076-0.27,0.115-0.435,0.115c-0.253,0-0.445-0.066-0.578-0.198c-0.132-0.132-0.198-0.341-0.198-0.627V12.399z
		 M21.395,12.399h0.858v0.353h0.011c0.062-0.133,0.156-0.237,0.28-0.313c0.125-0.077,0.27-0.116,0.435-0.116
		c0.253,0,0.445,0.066,0.578,0.198c0.132,0.132,0.198,0.341,0.198,0.627v2.228h-0.891v-2.029c0-0.106-0.022-0.19-0.066-0.25
		c-0.044-0.061-0.108-0.091-0.192-0.091s-0.159,0.033-0.223,0.102c-0.064,0.067-0.096,0.175-0.096,0.321v1.947h-0.891V12.399z
		 M18.645,14.08c0.066-0.134,0.154-0.232,0.264-0.295c0.11-0.062,0.239-0.109,0.388-0.143s0.285-0.066,0.41-0.099
		c0.066-0.019,0.12-0.036,0.162-0.053s0.075-0.036,0.099-0.061c0.024-0.023,0.039-0.054,0.047-0.091
		c0.007-0.036,0.011-0.082,0.011-0.138c0-0.091-0.022-0.164-0.066-0.217s-0.116-0.08-0.214-0.08c-0.125,0-0.209,0.036-0.253,0.107
		c-0.044,0.071-0.068,0.172-0.072,0.3h-0.792c0.003-0.209,0.034-0.376,0.091-0.501c0.057-0.124,0.138-0.223,0.245-0.297
		c0.106-0.073,0.225-0.123,0.355-0.151c0.13-0.027,0.289-0.041,0.476-0.041c0.367,0,0.634,0.067,0.803,0.201
		c0.168,0.134,0.253,0.36,0.253,0.679v1.529c0,0.113,0.004,0.233,0.014,0.357c0.009,0.125,0.04,0.22,0.091,0.286h-0.858
		c-0.019-0.052-0.03-0.106-0.036-0.165c-0.005-0.059-0.01-0.117-0.014-0.176h-0.011c-0.063,0.132-0.156,0.234-0.281,0.308
		s-0.264,0.11-0.418,0.11c-0.253,0-0.448-0.07-0.585-0.212c-0.138-0.141-0.207-0.373-0.207-0.695
		C18.546,14.368,18.579,14.214,18.645,14.08z M15.801,14.127h0.858v0.17c0,0.066,0.002,0.131,0.006,0.195
		c0.003,0.064,0.015,0.122,0.033,0.173c0.019,0.052,0.049,0.093,0.091,0.124s0.1,0.047,0.173,0.047c0.066,0,0.118-0.017,0.157-0.05
		c0.039-0.032,0.068-0.077,0.088-0.135c0.02-0.057,0.033-0.124,0.039-0.203s0.008-0.164,0.008-0.256v-2.744h0.924v2.744
		c0,0.184-0.02,0.353-0.061,0.506c-0.04,0.154-0.107,0.287-0.201,0.399c-0.093,0.111-0.217,0.198-0.371,0.261
		s-0.345,0.094-0.572,0.094c-0.414,0-0.713-0.095-0.896-0.283c-0.183-0.189-0.275-0.456-0.275-0.801V14.127z M39.25,34.898
		l-0.311,0.311h-2.355c-1.101,0-2,0.899-2,2v2.355l-0.311,0.311H12c-0.689,0-1.25-0.561-1.25-1.25v-21h28.5V34.898z"/>
</g>
</svg>
