<?xml version="1.0" encoding="utf-8"?>
<!-- Generator: Adobe Illustrator 16.0.0, SVG Export Plug-In . SVG Version: 6.00 Build 0)  -->
<!DOCTYPE svg PUBLIC "-//W3C//DTD SVG 1.1//EN" "http://www.w3.org/Graphics/SVG/1.1/DTD/svg11.dtd">
<svg version="1.1" id="Layer_1" xmlns="http://www.w3.org/2000/svg" xmlns:xlink="http://www.w3.org/1999/xlink" x="0px" y="0px"
	 width="50px" height="50px" viewBox="0 0 50 50" enable-background="new 0 0 50 50" xml:space="preserve">
<g>
	<path d="M36.273,9.688h-0.681V9.313c0-0.552-0.448-1-1-1s-1,0.448-1,1v0.375h-1.837V9.313c0-0.552-0.448-1-1-1s-1,0.448-1,1v0.375
		h-1.837V9.313c0-0.552-0.448-1-1-1s-1,0.448-1,1v0.375h-1.837V9.313c0-0.552-0.448-1-1-1s-1,0.448-1,1v0.375h-1.837V9.313
		c0-0.552-0.448-1-1-1s-1,0.448-1,1v0.375h-1.837V9.313c0-0.552-0.448-1-1-1s-1,0.448-1,1v0.375h-0.682
		C11.12,9.688,9,11.808,9,14.414v22.547c0,2.606,2.12,4.727,4.727,4.727h22.547c2.606,0,4.727-2.12,4.727-4.727V14.414
		C41,11.808,38.88,9.688,36.273,9.688z M34.093,9.313c0-0.276,0.224-0.5,0.5-0.5s0.5,0.224,0.5,0.5v6.482c0,0.276-0.224,0.5-0.5,0.5
		s-0.5-0.224-0.5-0.5V9.313z M30.256,9.313c0-0.276,0.224-0.5,0.5-0.5s0.5,0.224,0.5,0.5v6.482c0,0.276-0.224,0.5-0.5,0.5
		s-0.5-0.224-0.5-0.5V9.313z M26.419,9.313c0-0.276,0.224-0.5,0.5-0.5s0.5,0.224,0.5,0.5v6.482c0,0.276-0.224,0.5-0.5,0.5
		s-0.5-0.224-0.5-0.5V9.313z M22.582,9.313c0-0.276,0.224-0.5,0.5-0.5s0.5,0.224,0.5,0.5v6.482c0,0.276-0.224,0.5-0.5,0.5
		s-0.5-0.224-0.5-0.5V9.313z M18.745,9.313c0-0.276,0.224-0.5,0.5-0.5s0.5,0.224,0.5,0.5v6.482c0,0.276-0.224,0.5-0.5,0.5
		s-0.5-0.224-0.5-0.5V9.313z M14.908,9.313c0-0.276,0.224-0.5,0.5-0.5s0.5,0.224,0.5,0.5v6.482c0,0.276-0.224,0.5-0.5,0.5
		s-0.5-0.224-0.5-0.5V9.313z M38.592,36.961c0,1.278-1.04,2.318-2.318,2.318H13.727c-1.278,0-2.318-1.04-2.318-2.318V14.414
		c0-1.278,1.04-2.318,2.318-2.318h0.682v2.513c-0.339,0.286-0.56,0.709-0.56,1.187c0,0.86,0.699,1.56,1.56,1.56
		s1.56-0.699,1.56-1.56c0-0.478-0.221-0.9-0.56-1.187v-2.513h1.837v2.513c-0.339,0.286-0.56,0.709-0.56,1.187
		c0,0.86,0.699,1.56,1.56,1.56s1.56-0.699,1.56-1.56c0-0.478-0.221-0.9-0.56-1.187v-2.513h1.837v2.513
		c-0.339,0.286-0.56,0.709-0.56,1.187c0,0.86,0.699,1.56,1.56,1.56s1.56-0.699,1.56-1.56c0-0.478-0.221-0.9-0.56-1.187v-2.513h1.837
		v2.513c-0.339,0.286-0.56,0.709-0.56,1.187c0,0.86,0.699,1.56,1.56,1.56s1.56-0.699,1.56-1.56c0-0.478-0.221-0.9-0.56-1.187v-2.513
		h1.837v2.513c-0.339,0.286-0.56,0.709-0.56,1.187c0,0.86,0.699,1.56,1.56,1.56s1.56-0.699,1.56-1.56c0-0.478-0.221-0.9-0.56-1.187
		v-2.513h1.837v2.513c-0.339,0.286-0.56,0.709-0.56,1.187c0,0.86,0.699,1.56,1.56,1.56s1.56-0.699,1.56-1.56
		c0-0.478-0.221-0.9-0.56-1.187v-2.513h0.681c1.278,0,2.318,1.04,2.318,2.318V36.961z"/>
	<path d="M23.907,33.021c0.102,0.224,0.245,0.398,0.433,0.524c0.187,0.126,0.432,0.19,0.732,0.19c0.313,0,0.563-0.064,0.751-0.19
		c0.187-0.126,0.327-0.304,0.425-0.533c0.096-0.229,0.159-0.497,0.19-0.804c0.028-0.308,0.045-0.644,0.045-1.004
		c0-0.869-0.108-1.49-0.326-1.864c-0.218-0.372-0.579-0.559-1.085-0.559c-0.52,0-0.886,0.187-1.104,0.559
		c-0.217,0.374-0.325,0.995-0.325,1.864c0,0.36,0.019,0.698,0.055,1.013S23.803,32.798,23.907,33.021z"/>
	<path d="M13.246,34.719c0,1.693,1.379,3.073,3.074,3.073H33.68c1.694,0,3.074-1.38,3.074-3.073V20.18H13.246V34.719z
		 M20.995,26.817c0.054-0.85,0.218-1.603,0.487-2.26c0.271-0.657,0.695-1.185,1.275-1.582c0.578-0.397,1.398-0.597,2.46-0.597
		c0.457,0,0.901,0.054,1.328,0.162c0.428,0.108,0.805,0.29,1.129,0.544c0.327,0.252,0.589,0.587,0.788,1.003s0.305,0.93,0.316,1.546
		h-2.495c0-0.508-0.087-0.892-0.263-1.157c-0.174-0.266-0.479-0.397-0.912-0.397c-0.351,0-0.627,0.081-0.833,0.243
		c-0.204,0.164-0.364,0.39-0.478,0.679c-0.116,0.289-0.191,0.633-0.228,1.03c-0.036,0.398-0.055,0.831-0.055,1.303v0.633h0.036
		c0.218-0.337,0.527-0.605,0.932-0.805c0.403-0.199,0.896-0.3,1.475-0.3c0.565,0,1.049,0.101,1.446,0.3
		c0.398,0.199,0.721,0.477,0.967,0.832c0.248,0.355,0.429,0.777,0.544,1.267c0.113,0.487,0.172,1.021,0.172,1.6
		c0,1.482-0.33,2.616-0.987,3.399s-1.708,1.175-3.155,1.175c-0.892,0-1.605-0.164-2.143-0.498c-0.535-0.33-0.943-0.77-1.22-1.319
		c-0.278-0.548-0.459-1.184-0.543-1.907c-0.085-0.724-0.128-1.477-0.128-2.262C20.912,28.546,20.94,27.668,20.995,26.817z"/>
</g>
</svg>
