<?xml version="1.0" encoding="utf-8"?>
<!-- Generator: Adobe Illustrator 16.0.0, SVG Export Plug-In . SVG Version: 6.00 Build 0)  -->
<!DOCTYPE svg PUBLIC "-//W3C//DTD SVG 1.1//EN" "http://www.w3.org/Graphics/SVG/1.1/DTD/svg11.dtd">
<svg version="1.1" id="Layer_1" xmlns="http://www.w3.org/2000/svg" xmlns:xlink="http://www.w3.org/1999/xlink" x="0px" y="0px"
	 width="50px" height="50px" viewBox="0 0 50 50" enable-background="new 0 0 50 50" xml:space="preserve">
<g>
	<path d="M37,8.5H13c-2.481,0-4.5,2.019-4.5,4.5v24c0,2.481,2.019,4.5,4.5,4.5h24c2.481,0,4.5-2.019,4.5-4.5V13
		C41.5,10.519,39.481,8.5,37,8.5z M40,37c0,1.649-1.35,3-3,3H13c-1.65,0-3-1.351-3-3V13c0-1.649,1.35-3,3-3h24c1.65,0,3,1.351,3,3
		V37z"/>
	<path d="M24.94,20.251c-0.479,0-0.808,0.217-0.979,0.65c-0.174,0.433-0.261,1.036-0.261,1.81c0,0.88,0.077,1.517,0.229,1.91
		c0.154,0.394,0.497,0.59,1.031,0.59c0.252,0,0.456-0.057,0.609-0.17s0.276-0.273,0.37-0.48c0.093-0.206,0.156-0.446,0.19-0.72
		c0.033-0.272,0.049-0.569,0.049-0.89c0-0.84-0.083-1.5-0.25-1.98C25.764,20.491,25.434,20.251,24.94,20.251z"/>
	<path d="M34.818,11.5H15.182c-2.029,0-3.682,1.65-3.682,3.681v19.639c0,2.03,1.652,3.681,3.682,3.681h19.637
		c2.029,0,3.682-1.65,3.682-3.681V15.181C38.5,13.15,36.848,11.5,34.818,11.5z M29.541,28.201c-0.08,0.927-0.287,1.717-0.621,2.37
		c-0.333,0.653-0.826,1.149-1.479,1.489c-0.653,0.341-1.554,0.511-2.7,0.511c-1.279,0-2.279-0.28-3-0.84
		c-0.72-0.561-1.094-1.48-1.12-2.761h3.24c0,0.188,0.013,0.37,0.04,0.551c0.026,0.18,0.08,0.343,0.16,0.489
		c0.173,0.294,0.446,0.44,0.82,0.44c0.279,0,0.51-0.063,0.689-0.19c0.18-0.126,0.326-0.34,0.439-0.64s0.19-0.707,0.23-1.22
		c0.04-0.514,0.061-1.163,0.061-1.95H26.26c-0.227,0.427-0.553,0.74-0.979,0.939c-0.427,0.2-0.94,0.301-1.54,0.301
		c-1.08,0-1.917-0.337-2.51-1.011c-0.594-0.673-0.891-1.803-0.891-3.39c0-0.707,0.066-1.373,0.201-2
		c0.133-0.627,0.373-1.173,0.719-1.64c0.348-0.467,0.82-0.837,1.42-1.11c0.601-0.273,1.367-0.41,2.301-0.41
		c1.04,0,1.869,0.16,2.49,0.48c0.619,0.319,1.093,0.779,1.42,1.38c0.326,0.6,0.536,1.327,0.63,2.18
		c0.093,0.854,0.14,1.807,0.14,2.86C29.66,26.218,29.62,27.274,29.541,28.201z"/>
</g>
</svg>
