<?xml version="1.0" encoding="utf-8"?>
<!-- Generator: Adobe Illustrator 16.0.0, SVG Export Plug-In . SVG Version: 6.00 Build 0)  -->
<!DOCTYPE svg PUBLIC "-//W3C//DTD SVG 1.1//EN" "http://www.w3.org/Graphics/SVG/1.1/DTD/svg11.dtd">
<svg version="1.1" id="Layer_1" xmlns="http://www.w3.org/2000/svg" xmlns:xlink="http://www.w3.org/1999/xlink" x="0px" y="0px"
	 width="50px" height="50px" viewBox="0 0 50 50" enable-background="new 0 0 50 50" xml:space="preserve">
<path d="M36.273,9.688h-0.681V9.313c0-0.552-0.448-1-1-1s-1,0.448-1,1v0.375h-1.837V9.313c0-0.552-0.448-1-1-1s-1,0.448-1,1v0.375
	h-1.837V9.313c0-0.552-0.448-1-1-1s-1,0.448-1,1v0.375h-1.837V9.313c0-0.552-0.448-1-1-1s-1,0.448-1,1v0.375h-1.837V9.313
	c0-0.552-0.448-1-1-1s-1,0.448-1,1v0.375h-1.837V9.313c0-0.552-0.448-1-1-1s-1,0.448-1,1v0.375h-0.682
	C11.12,9.688,9,11.808,9,14.414v22.547c0,2.606,2.12,4.727,4.727,4.727h22.547c2.606,0,4.727-2.12,4.727-4.727V14.414
	C41,11.808,38.88,9.688,36.273,9.688z M34.093,9.313c0-0.276,0.224-0.5,0.5-0.5s0.5,0.224,0.5,0.5v6.482c0,0.276-0.224,0.5-0.5,0.5
	s-0.5-0.224-0.5-0.5V9.313z M30.256,9.313c0-0.276,0.224-0.5,0.5-0.5s0.5,0.224,0.5,0.5v6.482c0,0.276-0.224,0.5-0.5,0.5
	s-0.5-0.224-0.5-0.5V9.313z M26.419,9.313c0-0.276,0.224-0.5,0.5-0.5s0.5,0.224,0.5,0.5v6.482c0,0.276-0.224,0.5-0.5,0.5
	s-0.5-0.224-0.5-0.5V9.313z M22.582,9.313c0-0.276,0.224-0.5,0.5-0.5s0.5,0.224,0.5,0.5v6.482c0,0.276-0.224,0.5-0.5,0.5
	s-0.5-0.224-0.5-0.5V9.313z M18.745,9.313c0-0.276,0.224-0.5,0.5-0.5s0.5,0.224,0.5,0.5v6.482c0,0.276-0.224,0.5-0.5,0.5
	s-0.5-0.224-0.5-0.5V9.313z M14.908,9.313c0-0.276,0.224-0.5,0.5-0.5s0.5,0.224,0.5,0.5v6.482c0,0.276-0.224,0.5-0.5,0.5
	s-0.5-0.224-0.5-0.5V9.313z M24.32,36.291h-9.04c0-0.84,0.11-1.593,0.33-2.26c0.22-0.667,0.493-1.26,0.82-1.78
	c0.327-0.52,0.673-0.973,1.04-1.36c0.366-0.386,0.703-0.713,1.01-0.979c0.6-0.533,1.067-0.983,1.4-1.351
	c0.333-0.366,0.58-0.687,0.74-0.96c0.16-0.272,0.253-0.522,0.28-0.75c0.027-0.227,0.04-0.473,0.04-0.739
	c0-0.561-0.077-1.011-0.23-1.351s-0.47-0.51-0.95-0.51c-0.32,0-0.567,0.083-0.74,0.25s-0.3,0.38-0.38,0.64
	c-0.08,0.261-0.127,0.544-0.14,0.851s-0.02,0.593-0.02,0.859h-3.12v-0.46c0-2.84,1.52-4.26,4.56-4.26
	c0.854,0,1.563,0.104,2.13,0.311c0.566,0.206,1.017,0.486,1.35,0.84c0.333,0.354,0.567,0.77,0.7,1.25c0.133,0.479,0.2,1,0.2,1.56
	c0,0.533-0.034,0.993-0.1,1.38c-0.067,0.387-0.187,0.75-0.36,1.09c-0.174,0.341-0.404,0.678-0.69,1.011s-0.65,0.707-1.09,1.12
	c-0.693,0.68-1.283,1.25-1.77,1.71s-0.817,0.89-0.99,1.29h5.02V36.291z M34.41,34.261c-0.233,0.54-0.55,0.98-0.95,1.32
	s-0.874,0.59-1.42,0.75c-0.547,0.16-1.127,0.24-1.74,0.24c-0.707,0-1.343-0.063-1.91-0.19c-0.567-0.126-1.057-0.353-1.47-0.68
	c-0.414-0.327-0.73-0.776-0.95-1.351c-0.22-0.572-0.33-1.313-0.33-2.22h3.24c0,0.32,0.017,0.62,0.05,0.9
	c0.033,0.279,0.096,0.523,0.19,0.729c0.093,0.207,0.22,0.374,0.38,0.5c0.16,0.127,0.367,0.19,0.62,0.19
	c0.426,0,0.747-0.146,0.96-0.44c0.213-0.293,0.32-0.84,0.32-1.64c0-0.453-0.03-0.826-0.09-1.12c-0.06-0.293-0.16-0.523-0.3-0.69
	c-0.14-0.166-0.32-0.282-0.54-0.35c-0.22-0.066-0.497-0.1-0.83-0.1h-0.8v-2.12h0.92c0.56,0,0.94-0.181,1.14-0.54
	c0.2-0.36,0.3-0.887,0.3-1.58c0-0.561-0.09-0.97-0.27-1.23c-0.18-0.26-0.463-0.39-0.85-0.39c-0.374,0-0.684,0.14-0.93,0.42
	s-0.37,0.82-0.37,1.62h-3c0-1.413,0.36-2.453,1.08-3.12c0.733-0.693,1.887-1.04,3.46-1.04c1.4,0,2.437,0.307,3.11,0.92
	c0.673,0.613,1.01,1.607,1.01,2.98c0,0.72-0.173,1.337-0.52,1.85c-0.347,0.514-0.847,0.844-1.5,0.99v0.04
	c0.84,0.187,1.44,0.55,1.8,1.09c0.36,0.54,0.54,1.31,0.54,2.31C34.76,33.071,34.643,33.721,34.41,34.261z M38.592,18.81H11.408
	v-4.396c0-1.278,1.04-2.318,2.318-2.318h0.682v2.513c-0.339,0.286-0.56,0.709-0.56,1.187c0,0.86,0.699,1.56,1.56,1.56
	s1.56-0.699,1.56-1.56c0-0.478-0.221-0.9-0.56-1.187v-2.513h1.837v2.513c-0.339,0.286-0.56,0.709-0.56,1.187
	c0,0.86,0.699,1.56,1.56,1.56s1.56-0.699,1.56-1.56c0-0.478-0.221-0.9-0.56-1.187v-2.513h1.837v2.513
	c-0.339,0.286-0.56,0.709-0.56,1.187c0,0.86,0.699,1.56,1.56,1.56s1.56-0.699,1.56-1.56c0-0.478-0.221-0.9-0.56-1.187v-2.513h1.837
	v2.513c-0.339,0.286-0.56,0.709-0.56,1.187c0,0.86,0.699,1.56,1.56,1.56s1.56-0.699,1.56-1.56c0-0.478-0.221-0.9-0.56-1.187v-2.513
	h1.837v2.513c-0.339,0.286-0.56,0.709-0.56,1.187c0,0.86,0.699,1.56,1.56,1.56s1.56-0.699,1.56-1.56c0-0.478-0.221-0.9-0.56-1.187
	v-2.513h1.837v2.513c-0.339,0.286-0.56,0.709-0.56,1.187c0,0.86,0.699,1.56,1.56,1.56s1.56-0.699,1.56-1.56
	c0-0.478-0.221-0.9-0.56-1.187v-2.513h0.681c1.278,0,2.318,1.04,2.318,2.318V18.81z"/>
</svg>
