<?xml version="1.0" encoding="utf-8"?>
<!-- Generator: Adobe Illustrator 16.0.0, SVG Export Plug-In . SVG Version: 6.00 Build 0)  -->
<!DOCTYPE svg PUBLIC "-//W3C//DTD SVG 1.1//EN" "http://www.w3.org/Graphics/SVG/1.1/DTD/svg11.dtd">
<svg version="1.1" id="Layer_1" xmlns="http://www.w3.org/2000/svg" xmlns:xlink="http://www.w3.org/1999/xlink" x="0px" y="0px"
	 width="50px" height="50px" viewBox="0 0 50 50" enable-background="new 0 0 50 50" xml:space="preserve">
<g>
	<path d="M38.867,35.667c0,1.765-1.436,3.199-3.201,3.199H14.334c-1.766,0-3.201-1.435-3.201-3.199V20.854l-0.39,0.103l-0.383-1.174
		L9,21.218v14.449C9,38.6,11.4,41,14.334,41h21.332C38.6,41,41,38.6,41,35.667V20.733h-2.133V35.667z"/>
	<path d="M35.666,9H14.334C11.4,9,9,11.4,9,14.333v5.334l1.817-1.919l0.626,1.919l1.114-0.296L13.81,17.4l1.252,2.737l0.627-0.47
		l1.252-2.777l2.853,3.247l2.506-1.537l4.452-2.058l0.488,3.125l4.104-1.271l1.53,1.74l2.227-1.537l-0.95-3.798l2.969,3.92
		l1.321,0.945H41v-5.334C41,11.4,38.6,9,35.666,9z"/>
	<path d="M26.06,35.908c0.129-4.357,1.923-8.13,4.249-10.015V23H19.925v3.113h6.63c-2.215,2.325-4.047,5.474-4.448,9.795H26.06z"/>
</g>
</svg>
