<?xml version="1.0" encoding="utf-8"?>
<!-- Generator: Adobe Illustrator 16.0.0, SVG Export Plug-In . SVG Version: 6.00 Build 0)  -->
<!DOCTYPE svg PUBLIC "-//W3C//DTD SVG 1.1//EN" "http://www.w3.org/Graphics/SVG/1.1/DTD/svg11.dtd">
<svg version="1.1" id="Layer_1" xmlns="http://www.w3.org/2000/svg" xmlns:xlink="http://www.w3.org/1999/xlink" x="0px" y="0px"
	 width="50px" height="50px" viewBox="0 0 50 50" enable-background="new 0 0 50 50" xml:space="preserve">
<g>
	<path d="M25.105,21.551c-0.764,0-1.305,0.273-1.626,0.825C23.16,22.928,23,23.843,23,25.123c0,0.533,0.027,1.031,0.081,1.494
		c0.052,0.463,0.155,0.856,0.305,1.187c0.151,0.328,0.365,0.585,0.642,0.771c0.275,0.187,0.635,0.28,1.078,0.28
		c0.463,0,0.832-0.094,1.108-0.28c0.275-0.187,0.483-0.448,0.626-0.786c0.142-0.338,0.234-0.732,0.28-1.187
		c0.044-0.452,0.066-0.946,0.066-1.479c0-1.28-0.159-2.195-0.479-2.747C26.386,21.824,25.853,21.551,25.105,21.551z"/>
	<path d="M37.801,9H12.199C10.439,9,9,10.44,9,12.199v25.602C9,39.56,10.439,41,12.199,41h25.602C39.561,41,41,39.56,41,37.801
		V12.199C41,10.44,39.561,9,37.801,9z M12.732,14.334c-0.883,0-1.6-0.716-1.6-1.602c0-0.884,0.717-1.6,1.6-1.6
		c0.885,0,1.602,0.716,1.602,1.6C14.334,13.618,13.617,14.334,12.732,14.334z M21.102,37.177c0,0.485-0.111,0.835-0.339,1.049
		c-0.226,0.214-0.571,0.319-1.037,0.319c-0.243,0-0.442-0.036-0.598-0.107c-0.156-0.072-0.279-0.169-0.371-0.291
		c-0.093-0.122-0.155-0.265-0.189-0.427c-0.034-0.161-0.05-0.333-0.05-0.511v-0.2h0.845v0.143c0,0.243,0.025,0.422,0.079,0.54
		c0.054,0.117,0.163,0.177,0.33,0.177c0.166,0,0.277-0.06,0.329-0.177c0.054-0.118,0.081-0.297,0.081-0.54v-3.266h0.92V37.177z
		 M24.565,37.073c0,0.291-0.04,0.53-0.122,0.72c-0.08,0.189-0.189,0.341-0.326,0.452c-0.138,0.11-0.293,0.188-0.467,0.233
		c-0.176,0.046-0.357,0.066-0.545,0.066c-0.188,0-0.368-0.018-0.544-0.056c-0.176-0.04-0.331-0.113-0.467-0.221
		c-0.136-0.11-0.246-0.26-0.325-0.449c-0.082-0.19-0.122-0.438-0.122-0.746v-3.188h0.921v3.188c0,0.115,0.007,0.221,0.022,0.318
		c0.014,0.096,0.042,0.178,0.084,0.25c0.04,0.069,0.095,0.126,0.163,0.165c0.067,0.04,0.157,0.062,0.268,0.062
		c0.107,0,0.196-0.021,0.267-0.062c0.069-0.039,0.125-0.096,0.165-0.165c0.042-0.072,0.068-0.154,0.084-0.25
		c0.015-0.098,0.023-0.203,0.023-0.318v-3.188h0.921V37.073z M21.76,30.629c-0.791-0.487-1.391-1.137-1.799-1.945
		c-0.409-0.81-0.677-1.747-0.801-2.813c-0.125-1.066-0.188-2.179-0.188-3.334c0-1.332,0.04-2.627,0.121-3.88
		c0.08-1.253,0.319-2.365,0.72-3.334s1.026-1.747,1.88-2.332c0.853-0.587,2.062-0.88,3.626-0.88c0.677,0,1.33,0.079,1.961,0.239
		c0.63,0.159,1.187,0.427,1.666,0.801c0.481,0.373,0.867,0.867,1.159,1.479c0.295,0.614,0.45,1.374,0.467,2.28h-3.678
		c0-0.747-0.131-1.315-0.389-1.705c-0.257-0.392-0.705-0.587-1.346-0.587c-0.516,0-0.924,0.12-1.227,0.358
		c-0.303,0.241-0.537,0.575-0.707,1c-0.169,0.428-0.28,0.934-0.332,1.521c-0.055,0.588-0.081,1.227-0.081,1.92v0.934h0.054
		c0.319-0.498,0.777-0.893,1.373-1.188c0.596-0.292,1.32-0.439,2.173-0.439c0.836,0,1.548,0.147,2.133,0.439
		c0.587,0.295,1.062,0.704,1.427,1.227c0.365,0.525,0.631,1.147,0.801,1.867c0.168,0.72,0.254,1.506,0.254,2.361
		c0,2.187-0.486,3.856-1.455,5.012c-0.969,1.156-2.519,1.734-4.653,1.734C23.604,31.363,22.552,31.119,21.76,30.629z M28.181,38.457
		h-1.05l-1.127-3.201h-0.012v3.201h-0.845v-4.571h1.063l1.112,3.132h0.014v-3.132h0.845V38.457z M31.438,38.457H28.82v-4.571h2.555
		v0.757h-1.632v1.074h1.535v0.755h-1.535V37.7h1.695V38.457z"/>
</g>
</svg>
