<?xml version="1.0" encoding="utf-8"?>
<!-- Generator: Adobe Illustrator 16.0.4, SVG Export Plug-In . SVG Version: 6.00 Build 0)  -->
<!DOCTYPE svg PUBLIC "-//W3C//DTD SVG 1.1//EN" "http://www.w3.org/Graphics/SVG/1.1/DTD/svg11.dtd">
<svg version="1.1" id="Layer_1" xmlns="http://www.w3.org/2000/svg" xmlns:xlink="http://www.w3.org/1999/xlink" x="0px" y="0px"
	 width="50px" height="50px" viewBox="0 0 50 50" enable-background="new 0 0 50 50" xml:space="preserve">
<path d="M37,10.724h-1.098V9.526c0-1.516-1.197-2.75-2.67-2.75c-1.474,0-2.67,1.234-2.67,2.75v1.197h-2.74V9.526
	c0-1.516-1.197-2.75-2.67-2.75c-1.473,0-2.67,1.234-2.67,2.75v1.197h-2.74V9.526c0-1.516-1.197-2.75-2.67-2.75
	c-1.473,0-2.67,1.234-2.67,2.75v1.197H13c-2.343,0-4.25,1.907-4.25,4.25v24c0,2.344,1.907,4.25,4.25,4.25h24
	c2.344,0,4.25-1.906,4.25-4.25v-24C41.25,12.63,39.344,10.724,37,10.724z M32.062,9.526c0-0.689,0.525-1.25,1.17-1.25
	c0.646,0,1.17,0.561,1.17,1.25v4.895c0,0.689-0.524,1.25-1.17,1.25c-0.645,0-1.17-0.561-1.17-1.25V9.526z M23.982,9.526
	c0-0.689,0.525-1.25,1.17-1.25s1.17,0.561,1.17,1.25v4.895c0,0.689-0.525,1.25-1.17,1.25s-1.17-0.561-1.17-1.25V9.526z
	 M15.902,9.526c0-0.689,0.525-1.25,1.17-1.25s1.17,0.561,1.17,1.25v4.895c0,0.689-0.525,1.25-1.17,1.25s-1.17-0.561-1.17-1.25V9.526
	z M38.75,38.975c0,0.965-0.785,1.75-1.75,1.75H13c-0.965,0-1.75-0.785-1.75-1.75v-22h27.5V38.975z M17.482,32.354h0.166h0.91h0.909
	h0.91h0.91h0.909h0.911h0.909h0.91h0.91h0.909h0.909h0.91h0.91h0.91h0.909h0.91h0.909h0.91h0.91h0.354l0.321,0.15l0.193-0.415
	c0.002-0.001,0.002-0.005,0.002-0.006c0.023-0.058,0.041-0.119,0.041-0.187v-3.121c0-0.121-0.05-0.238-0.136-0.324l-9.101-9.043
	c-0.18-0.176-0.467-0.176-0.645,0l-9.102,9.043c-0.087,0.085-0.135,0.203-0.135,0.324v3.019l-0.15,0.323l0.828,0.386L17.482,32.354z
	 M26.062,28.659h2.324v2.323h-2.324V28.659z M22.825,28.659h2.322v2.323h-2.322V28.659z M32.588,36.832l0.828,0.386l-0.193,0.414
	c-0.074,0.162-0.236,0.265-0.412,0.265h-0.459v-0.914h0.168L32.588,36.832z M25.072,36.982h0.911v0.914h-0.911V36.982z
	 M23.253,36.982h0.909v0.914h-0.909V36.982z M19.612,36.982h0.911v0.914h-0.911V36.982z M21.434,36.982h0.909v0.914h-0.909V36.982z
	 M15.974,36.982h0.91v0.914h-0.91V36.982z M17.794,36.982h0.909v0.914h-0.909V36.982z M30.532,36.982h0.909v0.914h-0.909V36.982z
	 M28.712,36.982h0.91v0.914h-0.91V36.982z M26.893,36.982h0.91v0.914h-0.91V36.982z M14.222,37.686
	c-0.084-0.131-0.094-0.297-0.028-0.438l0.193-0.414l0.321,0.149h0.354v0.168l0.152,0.068l-0.152,0.323v0.354h-0.455
	C14.451,37.896,14.306,37.818,14.222,37.686z M16.535,34.389l-0.828-0.385l0.438-0.943l0.828,0.385L16.535,34.389z M15.656,36.276
	l-0.829-0.386l0.439-0.943l0.829,0.385L15.656,36.276z M34.344,33.061l0.829,0.386l-0.438,0.944l-0.829-0.387L34.344,33.061z
	 M33.467,34.947l0.828,0.385l-0.439,0.944l-0.828-0.386L33.467,34.947z M25.147,32.811l-0.913,2.324h-2.323l0.914-2.324H25.147z
	 M26.062,32.811h2.324l-0.914,2.324h-2.326L26.062,32.811z"/>
</svg>
