<?xml version="1.0" encoding="utf-8"?>
<!-- Generator: Adobe Illustrator 16.0.0, SVG Export Plug-In . SVG Version: 6.00 Build 0)  -->
<!DOCTYPE svg PUBLIC "-//W3C//DTD SVG 1.1//EN" "http://www.w3.org/Graphics/SVG/1.1/DTD/svg11.dtd">
<svg version="1.1" id="Layer_1" xmlns="http://www.w3.org/2000/svg" xmlns:xlink="http://www.w3.org/1999/xlink" x="0px" y="0px"
	 width="50px" height="50px" viewBox="0 0 50 50" enable-background="new 0 0 50 50" xml:space="preserve">
<g>
	<path d="M36.273,9.688h-0.681V9.313c0-0.552-0.448-1-1-1s-1,0.448-1,1v0.375h-1.837V9.313c0-0.552-0.448-1-1-1s-1,0.448-1,1v0.375
		h-1.837V9.313c0-0.552-0.448-1-1-1s-1,0.448-1,1v0.375h-1.837V9.313c0-0.552-0.448-1-1-1s-1,0.448-1,1v0.375h-1.837V9.313
		c0-0.552-0.448-1-1-1s-1,0.448-1,1v0.375h-1.837V9.313c0-0.552-0.448-1-1-1s-1,0.448-1,1v0.375h-0.682
		C11.12,9.688,9,11.808,9,14.414v22.547c0,2.606,2.12,4.727,4.727,4.727h22.547c2.606,0,4.727-2.12,4.727-4.727V14.414
		C41,11.808,38.88,9.688,36.273,9.688z M34.093,9.313c0-0.276,0.224-0.5,0.5-0.5s0.5,0.224,0.5,0.5v6.482c0,0.276-0.224,0.5-0.5,0.5
		s-0.5-0.224-0.5-0.5V9.313z M30.256,9.313c0-0.276,0.224-0.5,0.5-0.5s0.5,0.224,0.5,0.5v6.482c0,0.276-0.224,0.5-0.5,0.5
		s-0.5-0.224-0.5-0.5V9.313z M26.419,9.313c0-0.276,0.224-0.5,0.5-0.5s0.5,0.224,0.5,0.5v6.482c0,0.276-0.224,0.5-0.5,0.5
		s-0.5-0.224-0.5-0.5V9.313z M22.582,9.313c0-0.276,0.224-0.5,0.5-0.5s0.5,0.224,0.5,0.5v6.482c0,0.276-0.224,0.5-0.5,0.5
		s-0.5-0.224-0.5-0.5V9.313z M18.745,9.313c0-0.276,0.224-0.5,0.5-0.5s0.5,0.224,0.5,0.5v6.482c0,0.276-0.224,0.5-0.5,0.5
		s-0.5-0.224-0.5-0.5V9.313z M14.908,9.313c0-0.276,0.224-0.5,0.5-0.5s0.5,0.224,0.5,0.5v6.482c0,0.276-0.224,0.5-0.5,0.5
		s-0.5-0.224-0.5-0.5V9.313z M11.408,36.961V14.414c0-1.278,1.04-2.318,2.318-2.318h0.682v2.513c-0.339,0.286-0.56,0.709-0.56,1.187
		c0,0.86,0.699,1.56,1.56,1.56s1.56-0.699,1.56-1.56c0-0.478-0.221-0.9-0.56-1.187v-2.513h1.837v2.513
		c-0.339,0.286-0.56,0.709-0.56,1.187c0,0.86,0.699,1.56,1.56,1.56s1.56-0.699,1.56-1.56c0-0.478-0.221-0.9-0.56-1.187v-2.513h1.837
		v2.513c-0.339,0.286-0.56,0.709-0.56,1.187c0,0.86,0.699,1.56,1.56,1.56s1.56-0.699,1.56-1.56c0-0.478-0.221-0.9-0.56-1.187v-2.513
		h1.837v2.513c-0.339,0.286-0.56,0.709-0.56,1.187c0,0.86,0.699,1.56,1.56,1.56s1.56-0.699,1.56-1.56c0-0.478-0.221-0.9-0.56-1.187
		v-2.513h1.837v2.513c-0.339,0.286-0.56,0.709-0.56,1.187c0,0.86,0.699,1.56,1.56,1.56s1.56-0.699,1.56-1.56
		c0-0.478-0.221-0.9-0.56-1.187v-2.513h1.837v2.513c-0.339,0.286-0.56,0.709-0.56,1.187c0,0.86,0.699,1.56,1.56,1.56
		s1.56-0.699,1.56-1.56c0-0.478-0.221-0.9-0.56-1.187v-2.513h0.681c1.278,0,2.318,1.04,2.318,2.318v11.495
		c-0.239-0.092-0.496-0.147-0.766-0.147H27.249c-1.196,0-2.174,0.979-2.174,2.175v10.576c0,0.271,0.056,0.527,0.147,0.767H13.727
		C12.448,39.279,11.408,38.239,11.408,36.961z M26.993,33.05c0-0.584,0.02-1.15,0.06-1.698s0.148-1.032,0.324-1.452
		c0.176-0.42,0.442-0.756,0.798-1.008s0.85-0.378,1.482-0.378c0.512,0,0.94,0.074,1.284,0.222c0.344,0.148,0.618,0.387,0.822,0.715
		c0.204,0.328,0.348,0.754,0.432,1.277c0.084,0.524,0.126,1.162,0.126,1.914c0,0.593-0.02,1.16-0.06,1.704s-0.148,1.026-0.324,1.446
		c-0.176,0.42-0.442,0.756-0.798,1.008s-0.85,0.378-1.482,0.378c-0.52,0-0.95-0.074-1.29-0.222c-0.34-0.148-0.612-0.386-0.816-0.714
		s-0.348-0.754-0.432-1.278S26.993,33.802,26.993,33.05z M35.369,29.642c-0.216,0-0.386,0.044-0.51,0.132
		c-0.124,0.089-0.22,0.208-0.288,0.36c-0.068,0.152-0.112,0.328-0.132,0.528s-0.03,0.412-0.03,0.636h-1.656v-0.324
		c0-0.792,0.212-1.399,0.636-1.824c0.424-0.424,1.092-0.636,2.004-0.636c0.864,0,1.504,0.2,1.92,0.6
		c0.416,0.4,0.624,0.973,0.624,1.717c0,0.28-0.024,0.536-0.072,0.768c-0.048,0.232-0.124,0.456-0.228,0.672s-0.24,0.426-0.408,0.63
		s-0.372,0.414-0.612,0.63l-0.96,0.889c-0.256,0.231-0.456,0.458-0.6,0.678s-0.236,0.41-0.276,0.57h3.204v1.344h-5.232
		c0-0.376,0.038-0.728,0.114-1.056c0.076-0.328,0.192-0.641,0.348-0.937c0.156-0.296,0.352-0.586,0.588-0.87
		c0.236-0.283,0.51-0.569,0.822-0.857l0.696-0.648c0.192-0.168,0.346-0.324,0.462-0.468c0.116-0.145,0.206-0.288,0.27-0.432
		c0.064-0.145,0.106-0.301,0.126-0.469s0.03-0.359,0.03-0.575C36.209,29.994,35.929,29.642,35.369,29.642z"/>
	<path d="M28.914,35.54c0.072,0.196,0.168,0.33,0.288,0.401c0.12,0.072,0.272,0.108,0.456,0.108c0.192,0,0.348-0.046,0.468-0.138
		c0.12-0.092,0.214-0.248,0.282-0.469c0.068-0.22,0.116-0.514,0.144-0.882c0.028-0.367,0.042-0.823,0.042-1.368V32.27
		c0-0.535-0.014-0.974-0.042-1.313s-0.078-0.608-0.15-0.805c-0.072-0.195-0.168-0.33-0.288-0.401
		c-0.12-0.072-0.272-0.108-0.456-0.108c-0.192,0-0.348,0.046-0.468,0.138c-0.12,0.093-0.214,0.248-0.282,0.469
		c-0.068,0.22-0.116,0.514-0.144,0.882c-0.028,0.368-0.042,0.824-0.042,1.368v0.924c0,0.536,0.014,0.974,0.042,1.313
		C28.792,35.076,28.841,35.344,28.914,35.54z"/>
</g>
</svg>
