<?xml version="1.0" encoding="utf-8"?>
<!-- Generator: Adobe Illustrator 16.0.0, SVG Export Plug-In . SVG Version: 6.00 Build 0)  -->
<!DOCTYPE svg PUBLIC "-//W3C//DTD SVG 1.1//EN" "http://www.w3.org/Graphics/SVG/1.1/DTD/svg11.dtd">
<svg version="1.1" id="Layer_1" xmlns="http://www.w3.org/2000/svg" xmlns:xlink="http://www.w3.org/1999/xlink" x="0px" y="0px"
	 width="50px" height="50px" viewBox="0 0 50 50" enable-background="new 0 0 50 50" xml:space="preserve">
<path d="M37,10H13c-1.65,0-3,1.351-3,3v24c0,1.649,1.35,3,3,3h24c1.65,0,3-1.351,3-3V13C40,11.351,38.65,10,37,10z M16.477,12.705
	c0-0.388,0.317-0.705,0.705-0.705h15.638c0.387,0,0.705,0.317,0.705,0.705v1.137c0,0.388-0.317,0.705-0.705,0.705H17.181
	c-0.387,0-0.705-0.317-0.705-0.705V12.705z M24.32,34.291h-9.04c0-0.84,0.11-1.593,0.33-2.26c0.22-0.667,0.493-1.26,0.82-1.78
	c0.327-0.52,0.673-0.973,1.04-1.36c0.366-0.386,0.703-0.713,1.01-0.979c0.6-0.533,1.067-0.983,1.4-1.351
	c0.333-0.366,0.58-0.687,0.74-0.96c0.16-0.272,0.253-0.522,0.28-0.75c0.027-0.227,0.04-0.473,0.04-0.739
	c0-0.561-0.077-1.011-0.23-1.351s-0.47-0.51-0.95-0.51c-0.32,0-0.567,0.083-0.74,0.25s-0.3,0.38-0.38,0.64
	c-0.08,0.261-0.127,0.544-0.14,0.851s-0.02,0.593-0.02,0.859h-3.12v-0.46c0-2.84,1.52-4.26,4.56-4.26
	c0.854,0,1.563,0.104,2.13,0.311c0.566,0.206,1.017,0.486,1.35,0.84c0.333,0.354,0.567,0.77,0.7,1.25c0.133,0.479,0.2,1,0.2,1.56
	c0,0.533-0.034,0.993-0.1,1.38c-0.067,0.387-0.187,0.75-0.36,1.09c-0.174,0.341-0.404,0.678-0.69,1.011s-0.65,0.707-1.09,1.12
	c-0.693,0.68-1.283,1.25-1.77,1.71s-0.817,0.89-0.99,1.29h5.02V34.291z M33.52,33.391c-0.76,0.787-1.927,1.181-3.5,1.181
	c-1.52,0-2.644-0.34-3.37-1.021c-0.727-0.68-1.09-1.646-1.09-2.899v-0.521h3.24v0.521c0,0.239,0.017,0.467,0.05,0.68
	c0.033,0.214,0.093,0.403,0.18,0.57c0.087,0.167,0.21,0.3,0.37,0.399c0.16,0.101,0.36,0.15,0.6,0.15c0.533,0,0.883-0.264,1.05-0.79
	c0.167-0.526,0.25-1.276,0.25-2.25c0-0.84-0.097-1.46-0.29-1.86c-0.193-0.399-0.51-0.6-0.95-0.6c-0.307,0-0.577,0.083-0.81,0.25
	c-0.233,0.167-0.377,0.457-0.43,0.87H25.7l0.44-7.66h7.94v2.6h-5.36l-0.16,2.66l0.04,0.04c0.093-0.173,0.227-0.33,0.4-0.47
	c0.173-0.141,0.367-0.26,0.58-0.36c0.213-0.1,0.437-0.173,0.67-0.22c0.233-0.047,0.463-0.07,0.69-0.07
	c1.293,0,2.237,0.391,2.83,1.17c0.593,0.78,0.89,2.03,0.89,3.75C34.66,31.311,34.28,32.604,33.52,33.391z"/>
</svg>
