<?xml version="1.0" encoding="utf-8"?>
<!-- Generator: Adobe Illustrator 16.0.0, SVG Export Plug-In . SVG Version: 6.00 Build 0)  -->
<!DOCTYPE svg PUBLIC "-//W3C//DTD SVG 1.1//EN" "http://www.w3.org/Graphics/SVG/1.1/DTD/svg11.dtd">
<svg version="1.1" id="Layer_1" xmlns="http://www.w3.org/2000/svg" xmlns:xlink="http://www.w3.org/1999/xlink" x="0px" y="0px"
	 width="50px" height="50px" viewBox="0 0 50 50" enable-background="new 0 0 50 50" xml:space="preserve">
<g>
	<path d="M35.228,15.968h-2.789l-6.699-5.699c0.038-0.093,0.061-0.194,0.061-0.301c0-0.441-0.358-0.8-0.8-0.8
		c-0.442,0-0.801,0.358-0.801,0.8c0,0.106,0.022,0.208,0.061,0.301l-6.698,5.699h-2.789c-1.193,0-2.163,0.971-2.163,2.163v20.456
		c0,1.193,0.97,2.163,2.163,2.163h18.012l4.606-4.606V18.131C37.391,16.938,36.42,15.968,35.228,15.968z M24.594,10.642
		c0.121,0.073,0.255,0.127,0.406,0.127s0.285-0.054,0.406-0.127l6.26,5.326H18.334L24.594,10.642z M24.183,32.375
		C24,32.8,23.75,33.146,23.436,33.413c-0.314,0.268-0.688,0.464-1.116,0.59c-0.431,0.127-0.887,0.189-1.369,0.189
		c-0.557,0-1.058-0.049-1.504-0.149c-0.445-0.099-0.831-0.277-1.156-0.534c-0.324-0.258-0.574-0.611-0.746-1.063
		c-0.174-0.45-0.261-1.032-0.261-1.746h2.55c0,0.252,0.012,0.487,0.039,0.709c0.025,0.219,0.076,0.411,0.15,0.573
		c0.072,0.162,0.171,0.294,0.297,0.394c0.127,0.1,0.289,0.149,0.489,0.149c0.335,0,0.587-0.114,0.754-0.346
		c0.168-0.231,0.252-0.661,0.252-1.29c0-0.356-0.022-0.65-0.07-0.882c-0.047-0.23-0.126-0.412-0.236-0.543
		c-0.109-0.131-0.251-0.223-0.425-0.275c-0.173-0.052-0.391-0.078-0.652-0.078H19.8v-1.668h0.725c0.441,0,0.74-0.143,0.896-0.425
		c0.158-0.284,0.237-0.697,0.237-1.243c0-0.44-0.071-0.763-0.212-0.968c-0.143-0.204-0.365-0.307-0.67-0.307
		c-0.294,0-0.538,0.109-0.731,0.331c-0.193,0.22-0.291,0.645-0.291,1.273h-2.36c0-1.111,0.283-1.93,0.85-2.455
		c0.577-0.545,1.484-0.818,2.723-0.818c1.102,0,1.917,0.242,2.446,0.725s0.795,1.265,0.795,2.346c0,0.565-0.137,1.051-0.409,1.454
		c-0.272,0.404-0.666,0.664-1.182,0.779v0.031c0.662,0.146,1.134,0.433,1.418,0.857c0.282,0.425,0.424,1.03,0.424,1.817
		C24.458,31.438,24.366,31.95,24.183,32.375z M32.609,30.747c-0.074,0.691-0.236,1.292-0.488,1.802
		c-0.252,0.509-0.619,0.909-1.102,1.202c-0.483,0.295-1.138,0.441-1.966,0.441c-0.841,0-1.501-0.129-1.984-0.386
		c-0.481-0.256-0.849-0.627-1.101-1.109s-0.412-1.075-0.479-1.777c-0.069-0.703-0.103-1.506-0.103-2.408
		c0-0.796,0.036-1.542,0.11-2.233c0.073-0.692,0.236-1.293,0.487-1.802c0.253-0.509,0.619-0.91,1.102-1.204
		c0.482-0.293,1.138-0.441,1.968-0.441c0.828,0,1.486,0.13,1.974,0.387c0.488,0.258,0.858,0.627,1.11,1.109
		c0.251,0.482,0.411,1.078,0.479,1.785c0.067,0.708,0.101,1.508,0.101,2.399C32.718,29.31,32.682,30.054,32.609,30.747z"/>
	<path d="M29.901,25.318c-0.072-0.304-0.178-0.517-0.313-0.638c-0.137-0.12-0.314-0.181-0.534-0.181
		c-0.222,0-0.399,0.061-0.536,0.181c-0.137,0.121-0.241,0.334-0.314,0.638s-0.12,0.716-0.142,1.235
		c-0.021,0.519-0.031,1.177-0.031,1.975c0,0.786,0.01,1.438,0.031,1.951s0.068,0.923,0.142,1.227
		c0.073,0.305,0.178,0.518,0.314,0.637c0.137,0.121,0.314,0.182,0.536,0.182c0.22,0,0.397-0.061,0.534-0.182
		c0.136-0.119,0.241-0.332,0.313-0.637c0.074-0.304,0.122-0.713,0.143-1.227c0.021-0.514,0.032-1.165,0.032-1.951
		c0-0.798-0.011-1.456-0.032-1.975C30.023,26.034,29.976,25.622,29.901,25.318z"/>
</g>
</svg>
