<?xml version="1.0" encoding="utf-8"?>
<!-- Generator: Adobe Illustrator 16.0.0, SVG Export Plug-In . SVG Version: 6.00 Build 0)  -->
<!DOCTYPE svg PUBLIC "-//W3C//DTD SVG 1.1//EN" "http://www.w3.org/Graphics/SVG/1.1/DTD/svg11.dtd">
<svg version="1.1" id="Layer_1" xmlns="http://www.w3.org/2000/svg" xmlns:xlink="http://www.w3.org/1999/xlink" x="0px" y="0px"
	 width="50px" height="50px" viewBox="0 0 50 50" enable-background="new 0 0 50 50" xml:space="preserve">
<g>
	<path d="M12.5,16.859v23h25v-23H12.5z M24.394,33.82h-7.111c0-0.661,0.087-1.253,0.258-1.778c0.174-0.524,0.39-0.991,0.646-1.4
		s0.53-0.765,0.818-1.07c0.287-0.304,0.554-0.561,0.795-0.771c0.472-0.42,0.839-0.773,1.101-1.063
		c0.262-0.287,0.457-0.539,0.583-0.755c0.126-0.214,0.198-0.411,0.22-0.59c0.021-0.179,0.031-0.372,0.031-0.582
		c0-0.44-0.061-0.794-0.181-1.062c-0.121-0.268-0.369-0.401-0.747-0.401c-0.253,0-0.446,0.064-0.583,0.196
		c-0.136,0.132-0.234,0.299-0.298,0.503c-0.063,0.206-0.101,0.429-0.111,0.67c-0.01,0.241-0.015,0.467-0.015,0.676h-2.456V26.03
		c0-2.233,1.196-3.352,3.589-3.352c0.671,0,1.229,0.083,1.676,0.245c0.445,0.162,0.799,0.383,1.062,0.66
		c0.263,0.278,0.446,0.605,0.55,0.983c0.106,0.378,0.159,0.787,0.159,1.228c0,0.419-0.027,0.781-0.079,1.086
		c-0.054,0.305-0.147,0.59-0.283,0.856c-0.137,0.269-0.318,0.533-0.543,0.796c-0.227,0.262-0.512,0.556-0.857,0.881
		c-0.546,0.535-1.01,0.984-1.393,1.346c-0.384,0.361-0.644,0.7-0.779,1.015h3.949V33.82z M32.568,31.9
		c-0.101,0.42-0.286,0.789-0.56,1.108c-0.272,0.32-0.649,0.573-1.132,0.756c-0.482,0.184-1.102,0.275-1.856,0.275
		c-0.756,0-1.375-0.087-1.858-0.26c-0.481-0.172-0.859-0.413-1.132-0.724c-0.273-0.31-0.46-0.677-0.559-1.102
		c-0.1-0.425-0.149-0.889-0.149-1.392c0-0.315,0.034-0.619,0.103-0.913s0.175-0.559,0.322-0.795
		c0.146-0.236,0.336-0.436,0.566-0.599c0.229-0.161,0.514-0.269,0.849-0.322v-0.03c-0.471-0.126-0.844-0.384-1.116-0.772
		c-0.272-0.387-0.408-0.912-0.408-1.573c0-0.419,0.059-0.805,0.18-1.156c0.12-0.352,0.314-0.654,0.583-0.912
		c0.268-0.258,0.616-0.457,1.046-0.599s0.955-0.213,1.574-0.213c0.618,0,1.143,0.069,1.573,0.205
		c0.429,0.137,0.778,0.33,1.046,0.583c0.268,0.252,0.462,0.553,0.581,0.904c0.122,0.351,0.183,0.747,0.183,1.188
		c0,0.63-0.134,1.149-0.401,1.559c-0.268,0.408-0.658,0.671-1.173,0.787v0.03c0.598,0.095,1.063,0.368,1.392,0.818
		c0.331,0.451,0.497,1.055,0.497,1.811C32.718,31.034,32.667,31.481,32.568,31.9z"/>
	<path d="M29.021,27.18c0.303,0,0.534-0.103,0.691-0.307c0.156-0.205,0.236-0.579,0.236-1.124c0-0.389-0.066-0.719-0.196-0.992
		c-0.132-0.272-0.376-0.409-0.731-0.409c-0.357,0-0.602,0.137-0.732,0.409c-0.131,0.273-0.196,0.604-0.196,0.992
		c0,0.545,0.078,0.919,0.236,1.124C28.484,27.077,28.715,27.18,29.021,27.18z"/>
	<path d="M29.861,29.352c-0.079-0.157-0.187-0.28-0.322-0.37c-0.137-0.089-0.31-0.134-0.519-0.134c-0.21,0-0.384,0.045-0.52,0.134
		c-0.137,0.09-0.244,0.213-0.323,0.37s-0.134,0.342-0.165,0.55c-0.032,0.211-0.048,0.441-0.048,0.693c0,0.251,0.016,0.484,0.048,0.7
		c0.031,0.215,0.086,0.4,0.165,0.558c0.079,0.158,0.187,0.284,0.323,0.378c0.136,0.095,0.31,0.142,0.52,0.142
		c0.209,0,0.382-0.047,0.519-0.142c0.136-0.094,0.243-0.22,0.322-0.378c0.079-0.157,0.133-0.343,0.166-0.558
		c0.03-0.216,0.047-0.449,0.047-0.7c0-0.252-0.017-0.482-0.047-0.693C29.994,29.693,29.94,29.509,29.861,29.352z"/>
	<path d="M18.334,15.968l6.26-5.326c0.121,0.073,0.255,0.127,0.406,0.127s0.285-0.054,0.406-0.127l6.26,5.326h0.772l-6.699-5.699
		c0.038-0.093,0.061-0.194,0.061-0.301c0-0.441-0.358-0.8-0.8-0.8c-0.442,0-0.801,0.358-0.801,0.8c0,0.106,0.022,0.208,0.061,0.301
		l-6.698,5.699H18.334z"/>
</g>
</svg>
