<?xml version="1.0" encoding="utf-8"?>
<!-- Generator: Adobe Illustrator 16.0.0, SVG Export Plug-In . SVG Version: 6.00 Build 0)  -->
<!DOCTYPE svg PUBLIC "-//W3C//DTD SVG 1.1//EN" "http://www.w3.org/Graphics/SVG/1.1/DTD/svg11.dtd">
<svg version="1.1" id="Layer_1" xmlns="http://www.w3.org/2000/svg" xmlns:xlink="http://www.w3.org/1999/xlink" x="0px" y="0px"
	 width="50px" height="50px" viewBox="0 0 50 50" enable-background="new 0 0 50 50" xml:space="preserve">
<g>
	<path fill-rule="evenodd" clip-rule="evenodd" d="M38,9.875h-1.123c0.029-0.092,0.058-0.186,0.058-0.288
		c0-0.53-0.431-0.962-0.962-0.962s-0.961,0.432-0.961,0.962c0,0.103,0.028,0.196,0.059,0.288h-3.68
		c0.029-0.092,0.058-0.186,0.058-0.288c0-0.53-0.431-0.962-0.962-0.962c-0.53,0-0.961,0.432-0.961,0.962
		c0,0.103,0.029,0.196,0.059,0.288h-3.681c0.029-0.092,0.058-0.186,0.058-0.288c0-0.53-0.43-0.962-0.961-0.962
		s-0.961,0.432-0.961,0.962c0,0.103,0.028,0.196,0.058,0.288h-3.681c0.029-0.092,0.059-0.186,0.059-0.288
		c0-0.53-0.431-0.962-0.961-0.962c-0.531,0-0.962,0.432-0.962,0.962c0,0.103,0.028,0.196,0.058,0.288h-3.68
		c0.03-0.092,0.059-0.186,0.059-0.288c0-0.53-0.43-0.962-0.961-0.962s-0.962,0.432-0.962,0.962c0,0.103,0.028,0.196,0.058,0.288H12
		c-1.518,0-2.75,1.234-2.75,2.75v26c0,1.518,1.232,2.75,2.75,2.75h22.895l5.855-5.855V12.625C40.75,11.109,39.517,9.875,38,9.875z
		 M39.25,34.898l-0.311,0.311h-2.355c-1.101,0-2,0.9-2,2v2.356l-0.311,0.31H12c-0.689,0-1.25-0.561-1.25-1.25v-27h28.5V34.898z"/>
	<path fill-rule="evenodd" clip-rule="evenodd" d="M32.584,37.209c0-2.206,1.794-4,4-4h0.666V13.625h-24.5v24.25h19.834V37.209z
		 M29.461,29.411c-0.135,0.627-0.374,1.173-0.721,1.64s-0.82,0.837-1.42,1.11s-1.367,0.41-2.3,0.41c-1.04,0-1.87-0.16-2.49-0.48
		c-0.62-0.319-1.093-0.78-1.42-1.38s-0.537-1.323-0.63-2.17c-0.094-0.847-0.141-1.803-0.141-2.87c0-1.173,0.041-2.227,0.121-3.16
		c0.08-0.933,0.286-1.727,0.619-2.38c0.334-0.653,0.826-1.149,1.48-1.49c0.652-0.34,1.553-0.51,2.699-0.51
		c1.268,0,2.264,0.283,2.99,0.851c0.727,0.566,1.104,1.489,1.131,2.77h-3.24c0-0.2-0.014-0.39-0.041-0.57
		c-0.026-0.18-0.079-0.343-0.159-0.489c-0.173-0.294-0.446-0.44-0.82-0.44c-0.28,0-0.51,0.063-0.69,0.19
		c-0.18,0.127-0.326,0.34-0.439,0.64s-0.189,0.71-0.23,1.229c-0.039,0.521-0.06,1.167-0.06,1.94h0.04
		c0.227-0.427,0.553-0.74,0.98-0.94c0.426-0.199,0.939-0.3,1.539-0.3c1.08,0,1.917,0.337,2.511,1.011
		c0.593,0.673,0.89,1.803,0.89,3.39C29.66,28.118,29.594,28.784,29.461,29.411z"/>
	<path fill-rule="evenodd" clip-rule="evenodd" d="M25.041,25.491c-0.254,0-0.461,0.057-0.621,0.17s-0.283,0.273-0.369,0.479
		c-0.088,0.207-0.147,0.447-0.181,0.721s-0.05,0.569-0.05,0.89c0,0.84,0.083,1.5,0.25,1.98c0.166,0.479,0.496,0.72,0.99,0.72
		c0.48,0,0.807-0.217,0.98-0.65c0.172-0.433,0.26-1.036,0.26-1.81c0-0.88-0.077-1.517-0.23-1.91S25.573,25.491,25.041,25.491z"/>
</g>
</svg>
