<?xml version="1.0" encoding="utf-8"?>
<!-- Generator: Adobe Illustrator 16.0.0, SVG Export Plug-In . SVG Version: 6.00 Build 0)  -->
<!DOCTYPE svg PUBLIC "-//W3C//DTD SVG 1.1//EN" "http://www.w3.org/Graphics/SVG/1.1/DTD/svg11.dtd">
<svg version="1.1" id="Layer_1" xmlns="http://www.w3.org/2000/svg" xmlns:xlink="http://www.w3.org/1999/xlink" x="0px" y="0px"
	 width="50px" height="50px" viewBox="0 0 50 50" enable-background="new 0 0 50 50" xml:space="preserve">
<g>
	<path d="M36.848,10.355H35.75V9.158c0-1.516-1.197-2.75-2.67-2.75s-2.67,1.234-2.67,2.75v1.197h-2.74V9.158
		c0-1.516-1.197-2.75-2.67-2.75s-2.67,1.234-2.67,2.75v1.197h-2.74V9.158c0-1.516-1.197-2.75-2.67-2.75s-2.67,1.234-2.67,2.75v1.197
		h-1.402c-2.343,0-4.25,1.907-4.25,4.25v24c0,2.343,1.907,4.25,4.25,4.25h24c2.344,0,4.25-1.907,4.25-4.25v-24
		C41.098,12.262,39.191,10.355,36.848,10.355z M31.91,9.158c0-0.689,0.525-1.25,1.17-1.25s1.17,0.561,1.17,1.25v4.895
		c0,0.689-0.525,1.25-1.17,1.25s-1.17-0.561-1.17-1.25V9.158z M23.83,9.158c0-0.689,0.525-1.25,1.17-1.25s1.17,0.561,1.17,1.25
		v4.895c0,0.689-0.525,1.25-1.17,1.25s-1.17-0.561-1.17-1.25V9.158z M15.75,9.158c0-0.689,0.525-1.25,1.17-1.25
		s1.17,0.561,1.17,1.25v4.895c0,0.689-0.525,1.25-1.17,1.25s-1.17-0.561-1.17-1.25V9.158z M38.598,38.605
		c0,0.965-0.785,1.75-1.75,1.75h-24c-0.965,0-1.75-0.785-1.75-1.75v-22h27.5V38.605z"/>
	<path d="M18.59,21.739c0,0,0.509,0.816,1.27,0.932c0.566,0.084,1.112-0.242,1.355-0.416c1.078,1.872,1.837,3.661,2.38,5.315
		c-2.152,0.17-3.683,0.595-3.683,1.093l1.766,8.381c0,0.647,1.784,1.172,3.984,1.172c2.199,0,3.982-0.525,3.982-1.172l1.767-8.381
		c0-0.6-2.216-1.095-5.069-1.164c0.208-0.777,0.507-1.624,0.923-2.517c0.119,0.059,0.862,0.407,1.506,0.154
		c0.7-0.276,1.005-1.166,1.005-1.166s-0.83-0.441-1.531-0.166c-0.302,0.12-0.526,0.354-0.688,0.582
		c0.459-0.891,1.03-1.818,1.764-2.761c-0.598,0.62-1.114,1.249-1.562,1.875c0.204-0.408,0.438-1.051,0.287-1.681
		c-0.248-1.034-1.433-1.638-1.433-1.638s-0.782,1.074-0.536,2.11c0.232,0.97,1.277,1.555,1.406,1.624
		c-0.836,1.25-1.405,2.473-1.786,3.578c-0.012,0-0.023,0-0.034,0c-0.355,0-0.701,0.008-1.04,0.02
		c-0.581-1.416-1.342-2.914-2.317-4.436c0.304,0.09,0.727,0.159,1.113,0.005c0.699-0.276,1.005-1.166,1.005-1.166
		s-0.831-0.441-1.532-0.166c-0.442,0.175-0.728,0.595-0.876,0.88c-0.903-1.351-1.982-2.717-3.277-4.059
		c0.78,1.004,1.442,1.995,2.041,2.972c-0.195-0.149-0.431-0.279-0.701-0.32C19.316,21.108,18.59,21.739,18.59,21.739z
		 M26.215,27.999c0.162,0.003,0.334,0.003,0.487,0.01c0.114,0.004,0.217,0.011,0.328,0.017c0.206,0.01,0.412,0.021,0.603,0.036
		c0.121,0.009,0.231,0.021,0.346,0.031c0.163,0.016,0.326,0.03,0.475,0.048c0.112,0.013,0.215,0.028,0.319,0.042
		c0.134,0.018,0.268,0.037,0.389,0.057c0.098,0.016,0.188,0.032,0.276,0.049c0.111,0.021,0.219,0.042,0.318,0.063
		c0.08,0.018,0.156,0.035,0.228,0.053c0.089,0.022,0.173,0.044,0.249,0.065c0.062,0.018,0.122,0.036,0.176,0.053
		c0.068,0.022,0.13,0.044,0.185,0.066c0.044,0.017,0.085,0.033,0.12,0.049c0.021,0.009,0.033,0.018,0.051,0.026
		c-0.549,0.269-2.19,0.637-4.787,0.667C26.029,28.923,26.105,28.479,26.215,27.999z M25.921,29.833
		c2.133-0.02,3.959-0.275,4.871-0.643l-1.55,7.348c-0.516-0.316-1.49-0.554-2.678-0.634c-0.045-0.987-0.202-2.587-0.687-4.556
		C25.862,30.979,25.864,30.465,25.921,29.833z M25.529,27.991c-0.124,0.402-0.221,0.78-0.301,1.138
		c-0.125-0.367-0.262-0.742-0.409-1.124C25.049,27.998,25.283,27.992,25.529,27.991z M24.845,35.896
		c-1.228,0.075-2.235,0.319-2.765,0.643l-1.548-7.349c0.738,0.298,2.076,0.522,3.693,0.607
		C24.863,32.527,24.903,34.682,24.845,35.896z M23.75,28.058c0.129,0.422,0.244,0.831,0.347,1.232
		c-1.873-0.11-3.083-0.401-3.537-0.624c0.019-0.008,0.031-0.017,0.051-0.026c0.036-0.016,0.076-0.032,0.119-0.048
		c0.056-0.022,0.118-0.045,0.188-0.067c0.053-0.017,0.11-0.035,0.17-0.052c0.078-0.022,0.163-0.044,0.254-0.066
		c0.071-0.018,0.145-0.035,0.225-0.053c0.1-0.021,0.21-0.042,0.321-0.063c0.089-0.017,0.177-0.033,0.271-0.049
		c0.124-0.021,0.258-0.039,0.394-0.058c0.104-0.014,0.205-0.028,0.315-0.042c0.149-0.018,0.314-0.033,0.478-0.048
		c0.114-0.01,0.224-0.022,0.344-0.031C23.708,28.06,23.729,28.059,23.75,28.058z"/>
</g>
</svg>
