<?xml version="1.0" encoding="utf-8"?>
<!-- Generator: Adobe Illustrator 16.0.0, SVG Export Plug-In . SVG Version: 6.00 Build 0)  -->
<!DOCTYPE svg PUBLIC "-//W3C//DTD SVG 1.1//EN" "http://www.w3.org/Graphics/SVG/1.1/DTD/svg11.dtd">
<svg version="1.1" id="Layer_1" xmlns="http://www.w3.org/2000/svg" xmlns:xlink="http://www.w3.org/1999/xlink" x="0px" y="0px"
	 width="50px" height="50px" viewBox="0 0 50 50" enable-background="new 0 0 50 50" xml:space="preserve">
<path d="M38.25,10.25h-26c-1.518,0-2.75,1.234-2.75,2.75v26c0,1.518,1.232,2.75,2.75,2.75h22.895L41,35.895V13
	C41,11.484,39.767,10.25,38.25,10.25z M34.083,12.292c0.817,0,1.479,0.662,1.479,1.479c0,0.816-0.662,1.479-1.479,1.479
	s-1.479-0.662-1.479-1.479C32.604,12.954,33.266,12.292,34.083,12.292z M29.666,12.292c0.817,0,1.479,0.662,1.479,1.479
	c0,0.816-0.662,1.479-1.479,1.479c-0.816,0-1.479-0.662-1.479-1.479C28.188,12.954,28.85,12.292,29.666,12.292z M25.25,12.292
	c0.816,0,1.479,0.662,1.479,1.479c0,0.816-0.662,1.479-1.479,1.479c-0.817,0-1.479-0.662-1.479-1.479
	C23.771,12.954,24.433,12.292,25.25,12.292z M20.834,12.292c0.816,0,1.479,0.662,1.479,1.479c0,0.816-0.662,1.479-1.479,1.479
	c-0.818,0-1.48-0.662-1.48-1.479C19.354,12.954,20.016,12.292,20.834,12.292z M16.417,12.292c0.817,0,1.479,0.662,1.479,1.479
	c0,0.816-0.662,1.479-1.479,1.479s-1.479-0.662-1.479-1.479C14.938,12.954,15.6,12.292,16.417,12.292z M21.611,25.895
	c-0.118,0.127-0.241,0.257-0.374,0.389c-0.869,0.871-1.681,1.472-1.81,1.342c-0.129-0.129,0.473-0.939,1.342-1.811
	c0.133-0.131,0.262-0.256,0.39-0.372l-0.146-0.146c-0.119,0.127-0.242,0.257-0.374,0.39c-0.871,0.869-1.681,1.472-1.811,1.341
	c-0.128-0.128,0.472-0.939,1.343-1.811c0.133-0.131,0.262-0.255,0.39-0.373l-0.146-0.145c-0.119,0.127-0.242,0.257-0.374,0.389
	c-0.871,0.872-1.682,1.473-1.811,1.343c-0.128-0.129,0.473-0.939,1.344-1.811c0.133-0.133,0.262-0.256,0.389-0.373l-0.146-0.146
	c-0.118,0.127-0.241,0.257-0.373,0.39c-0.872,0.869-1.683,1.472-1.812,1.341c-0.129-0.128,0.473-0.938,1.343-1.811
	c0.132-0.132,0.262-0.255,0.389-0.374l-0.146-0.145c-0.119,0.126-0.241,0.257-0.373,0.39c-0.872,0.869-1.682,1.472-1.812,1.343
	c-0.129-0.13,0.472-0.94,1.343-1.812c0.132-0.133,0.262-0.255,0.388-0.373l-0.145-0.146c-0.119,0.127-0.242,0.258-0.374,0.39
	c-0.871,0.87-1.681,1.472-1.811,1.343c-0.129-0.13,0.473-0.939,1.342-1.812c0.138-0.136,0.271-0.263,0.402-0.385
	c-0.239-0.303-0.23-0.742,0.048-1.021l0.783-0.781c0.299-0.302,0.791-0.3,1.093,0c0,0,11.03,11.031,12.686,12.687
	c1.737,1.737,2.397,3.238,1.976,3.659c-0.42,0.421-1.542,0-3.659-1.978c-0.843-0.787-3.654-4.744-5.264-6.363
	c-1.996-2.004-2.701-1.292-3.632-2.155c-0.12,0.128-0.244,0.259-0.376,0.393c-0.871,0.87-1.682,1.472-1.811,1.344
	c-0.129-0.131,0.473-0.94,1.343-1.812c0.132-0.132,0.261-0.255,0.389-0.374L21.611,25.895z M39.5,35.273l-0.311,0.311h-2.355
	c-0.482,0-0.919,0.18-1.266,0.466c-0.252-0.909-1.041-2.081-2.231-3.271l-2.182-2.181c1.26-4.938,1.812-10.432,0.016-11.536
	c-3.311-2.037-5.688,0.934-7.471,0.934c-1.784,0-3.906-2.886-7.472-0.934c-3.566,1.953,0.595,17.405,2.717,18.169
	c2.123,0.765,0.896-6.027,4.632-6.367c3.735-0.339,1.48,8.915,3.858,8.066c0.699-0.25,1.596-1.901,2.432-4.151
	c0.289,0.35,0.532,0.625,0.712,0.795c1.403,1.31,3.095,2.676,4.253,2.265v2.103l-0.311,0.31H12.25C11.561,40.25,11,39.689,11,39V17
	h28.5V35.273z"/>
</svg>
