<?xml version="1.0" encoding="utf-8"?>
<!-- Generator: Adobe Illustrator 16.0.0, SVG Export Plug-In . SVG Version: 6.00 Build 0)  -->
<!DOCTYPE svg PUBLIC "-//W3C//DTD SVG 1.1//EN" "http://www.w3.org/Graphics/SVG/1.1/DTD/svg11.dtd">
<svg version="1.1" id="Layer_1" xmlns="http://www.w3.org/2000/svg" xmlns:xlink="http://www.w3.org/1999/xlink" x="0px" y="0px"
	 width="50px" height="50px" viewBox="0 0 50 50" enable-background="new 0 0 50 50" xml:space="preserve">
<g>
	<path d="M38.25,10.25h-26c-1.518,0-2.75,1.233-2.75,2.75v26c0,1.517,1.232,2.75,2.75,2.75h22.895L41,35.895V13
		C41,11.484,39.767,10.25,38.25,10.25z M34.083,12.292c0.817,0,1.479,0.662,1.479,1.479c0,0.817-0.662,1.479-1.479,1.479
		s-1.479-0.662-1.479-1.479C32.604,12.954,33.266,12.292,34.083,12.292z M29.666,12.292c0.817,0,1.479,0.662,1.479,1.479
		c0,0.817-0.662,1.479-1.479,1.479c-0.816,0-1.479-0.662-1.479-1.479C28.188,12.954,28.85,12.292,29.666,12.292z M25.25,12.292
		c0.816,0,1.479,0.662,1.479,1.479c0,0.817-0.662,1.479-1.479,1.479c-0.817,0-1.479-0.662-1.479-1.479
		C23.771,12.954,24.433,12.292,25.25,12.292z M20.834,12.292c0.816,0,1.479,0.662,1.479,1.479c0,0.817-0.662,1.479-1.479,1.479
		c-0.818,0-1.48-0.662-1.48-1.479C19.354,12.954,20.016,12.292,20.834,12.292z M16.417,12.292c0.817,0,1.479,0.662,1.479,1.479
		c0,0.817-0.662,1.479-1.479,1.479s-1.479-0.662-1.479-1.479C14.938,12.954,15.6,12.292,16.417,12.292z M39.5,35.273l-0.311,0.311
		h-2.355c-1.101,0-2,0.9-2,2v2.356l-0.311,0.31H12.25C11.561,40.25,11,39.69,11,39V17h28.5V35.273z"/>
	<path d="M25.344,26.805c0.147,0.085,0.29,0.095,0.426,0.027c0.214-0.097,0.426-0.328,0.637-0.692
		c0.209-0.362,0.303-0.661,0.282-0.897c-0.013-0.148-0.093-0.266-0.24-0.351c-0.146-0.084-0.29-0.096-0.427-0.034
		c-0.214,0.097-0.425,0.328-0.636,0.693s-0.306,0.664-0.283,0.897C25.116,26.601,25.197,26.72,25.344,26.805z"/>
	<path d="M29.095,31.085c-0.147-0.085-0.289-0.094-0.427-0.028c-0.213,0.097-0.424,0.328-0.636,0.693
		c-0.21,0.365-0.305,0.665-0.282,0.897c0.013,0.149,0.092,0.265,0.24,0.351c0.147,0.085,0.289,0.097,0.427,0.035
		c0.214-0.096,0.426-0.328,0.636-0.693c0.212-0.366,0.307-0.666,0.285-0.901C29.322,31.288,29.242,31.17,29.095,31.085z"/>
	<path d="M14.231,27.523c0.601,0.347,1.916,0.322,3.35-0.063c0.158-0.042,0.311-0.089,0.461-0.136l0.258,4.009l11.311,6.53
		l6.53-11.31L24.83,20.022l-7.034,3.479l0.078,1.229c-0.312,0.051-0.637,0.119-0.969,0.207c-1.435,0.385-2.586,1.02-2.932,1.622
		c-0.108,0.188-0.141,0.37-0.095,0.542C13.926,27.272,14.044,27.415,14.231,27.523z M30.3,33.047
		c-0.298,0.516-0.692,0.838-1.184,0.969c-0.492,0.131-1.01,0.039-1.555-0.276c-0.365-0.21-0.641-0.469-0.827-0.772
		s-0.266-0.627-0.24-0.972c0.026-0.344,0.127-0.668,0.302-0.972c0.176-0.304,0.405-0.553,0.69-0.747
		c0.286-0.194,0.605-0.287,0.962-0.278c0.356,0.009,0.718,0.119,1.082,0.33c0.546,0.315,0.884,0.718,1.017,1.209
		S30.598,32.532,30.3,33.047z M24.149,24.825c0.173-0.3,0.403-0.548,0.691-0.743c0.287-0.196,0.607-0.288,0.961-0.278
		c0.354,0.009,0.715,0.12,1.083,0.333c0.542,0.313,0.88,0.714,1.014,1.204c0.134,0.489,0.052,0.991-0.246,1.507
		c-0.299,0.519-0.694,0.842-1.185,0.971c-0.49,0.129-1.007,0.037-1.55-0.276c-0.368-0.212-0.645-0.469-0.83-0.771
		c-0.185-0.301-0.265-0.625-0.239-0.972S23.974,25.129,24.149,24.825z M30.63,26.299l0.935,0.539l-7.737,4.758l-0.923-0.533
		L30.63,26.299z M19.869,24.698c0.301-0.521,0.965-0.699,1.486-0.398c0.521,0.301,0.699,0.966,0.398,1.487
		c-0.301,0.521-0.966,0.7-1.487,0.399c-0.009-0.006-0.014-0.015-0.022-0.021c0.11-0.109,0.207-0.217,0.27-0.326
		c0.108-0.188,0.14-0.37,0.094-0.542c-0.047-0.172-0.165-0.313-0.353-0.422c-0.107-0.062-0.246-0.109-0.396-0.147
		C19.863,24.719,19.863,24.708,19.869,24.698z M20.037,25.252c0.084,0.049,0.135,0.101,0.149,0.158
		c0.016,0.057-0.002,0.127-0.051,0.212c-0.042,0.074-0.119,0.158-0.21,0.245c-0.147-0.211-0.216-0.466-0.192-0.723
		C19.855,25.174,19.963,25.209,20.037,25.252z M14.35,26.776c0.232-0.401,1.166-1.016,2.669-1.418
		c0.313-0.085,0.606-0.144,0.884-0.19l0.11,1.709c-0.172,0.058-0.354,0.112-0.544,0.162c-1.816,0.487-3.082,0.277-3.169-0.052
		C14.285,26.931,14.301,26.86,14.35,26.776z"/>
</g>
</svg>
