<?xml version="1.0" encoding="utf-8"?>
<!-- Generator: Adobe Illustrator 16.0.0, SVG Export Plug-In . SVG Version: 6.00 Build 0)  -->
<!DOCTYPE svg PUBLIC "-//W3C//DTD SVG 1.1//EN" "http://www.w3.org/Graphics/SVG/1.1/DTD/svg11.dtd">
<svg version="1.1" id="Layer_1" xmlns="http://www.w3.org/2000/svg" xmlns:xlink="http://www.w3.org/1999/xlink" x="0px" y="0px"
	 width="50px" height="50px" viewBox="0 0 50 50" enable-background="new 0 0 50 50" xml:space="preserve">
<g>
	<path d="M38,9.875h-1.124c0.029-0.093,0.058-0.186,0.058-0.289c0-0.531-0.431-0.961-0.961-0.961c-0.531,0-0.961,0.431-0.961,0.961
		c0,0.103,0.028,0.196,0.058,0.289h-3.68c0.03-0.093,0.058-0.186,0.058-0.289c0-0.531-0.43-0.961-0.961-0.961
		c-0.531,0-0.961,0.431-0.961,0.961c0,0.103,0.029,0.196,0.058,0.289h-3.68c0.029-0.093,0.058-0.186,0.058-0.289
		c0-0.531-0.431-0.961-0.961-0.961s-0.961,0.431-0.961,0.961c0,0.103,0.029,0.196,0.058,0.289h-3.68
		c0.029-0.093,0.058-0.186,0.058-0.289c0-0.531-0.431-0.961-0.961-0.961c-0.531,0-0.961,0.431-0.961,0.961
		c0,0.103,0.028,0.196,0.058,0.289h-3.68c0.03-0.093,0.058-0.186,0.058-0.289c0-0.531-0.43-0.961-0.961-0.961
		c-0.531,0-0.961,0.431-0.961,0.961c0,0.103,0.029,0.196,0.058,0.289H12c-1.517,0-2.75,1.233-2.75,2.75v26
		c0,1.517,1.233,2.75,2.75,2.75h22.895l5.855-5.856V12.625C40.75,11.108,39.517,9.875,38,9.875z M12,39.875
		c-0.689,0-1.25-0.561-1.25-1.25v-21h28.5v17.273l-0.311,0.311h-2.356c-1.1,0-2,0.9-2,2v2.356l-0.31,0.31H12z"/>
	<path d="M28.145,21.161l-1.136,1.232l-0.693,0.749l-7.615,8.252l-1.058,3.663l-0.7,2.421l2.356-0.892l3.565-1.352l7.614-8.25
		l0.692-0.75L32.305,25c1.062-1.148,0.989-2.941-0.161-4.002C30.996,19.939,29.205,20.012,28.145,21.161z M18.919,36.235
		l-0.897-0.828l1.011-3.496l0.269,0.039l2.919,2.693l0.086,0.31L18.919,36.235z M30.829,25.918l-3.482-3.213l0.823-0.892
		l3.482,3.213L30.829,25.918z"/>
</g>
</svg>
