<?xml version="1.0" encoding="utf-8"?>
<!-- Generator: Adobe Illustrator 16.0.0, SVG Export Plug-In . SVG Version: 6.00 Build 0)  -->
<!DOCTYPE svg PUBLIC "-//W3C//DTD SVG 1.1//EN" "http://www.w3.org/Graphics/SVG/1.1/DTD/svg11.dtd">
<svg version="1.1" id="Layer_1" xmlns="http://www.w3.org/2000/svg" xmlns:xlink="http://www.w3.org/1999/xlink" x="0px" y="0px"
	 width="50px" height="50px" viewBox="0 0 50 50" enable-background="new 0 0 50 50" xml:space="preserve">
<g>
	<path d="M36.848,10.355H35.75V9.158c0-1.516-1.198-2.75-2.67-2.75s-2.67,1.234-2.67,2.75v1.197h-2.741V9.158
		c0-1.516-1.197-2.75-2.669-2.75s-2.669,1.234-2.669,2.75v1.197H19.59V9.158c0-1.516-1.198-2.75-2.67-2.75s-2.67,1.234-2.67,2.75
		v1.197h-1.402c-2.343,0-4.25,1.907-4.25,4.25v24c0,2.343,1.907,4.25,4.25,4.25h24c2.343,0,4.25-1.907,4.25-4.25v-24
		C41.098,12.262,39.191,10.355,36.848,10.355z M31.91,9.158c0-0.689,0.525-1.25,1.17-1.25s1.17,0.561,1.17,1.25v4.895
		c0,0.689-0.525,1.25-1.17,1.25s-1.17-0.561-1.17-1.25V9.158z M23.831,9.158c0-0.689,0.524-1.25,1.169-1.25s1.169,0.561,1.169,1.25
		v4.895c0,0.689-0.524,1.25-1.169,1.25s-1.169-0.561-1.169-1.25V9.158z M15.75,9.158c0-0.689,0.525-1.25,1.17-1.25
		s1.17,0.561,1.17,1.25v4.895c0,0.689-0.525,1.25-1.17,1.25s-1.17-0.561-1.17-1.25V9.158z M38.598,38.605
		c0,0.965-0.785,1.75-1.75,1.75h-24c-0.965,0-1.75-0.785-1.75-1.75v-18h27.5V38.605z"/>
	<path d="M14.947,24.477l8.455,5.073c0.879,0.528,2.318,0.528,3.197,0l8.455-5.073c0.879-0.527,0.76-0.959-0.266-0.959H15.213
		C14.187,23.518,14.068,23.95,14.947,24.477z"/>
	<path d="M15.213,37.5h19.574c1.026,0,1.864-0.839,1.864-1.864V25.382c0-0.333-0.096-0.644-0.251-0.916
		c-0.152,0.262-0.416,0.538-0.868,0.81l-7.993,4.796l5.756,3.178c0.225,0.124,0.307,0.408,0.183,0.633
		c-0.085,0.154-0.244,0.241-0.408,0.241c-0.076,0-0.154-0.019-0.225-0.058l-6.285-3.47c-0.469,0.181-1.005,0.282-1.561,0.282
		s-1.091-0.101-1.561-0.282l-6.284,3.47c-0.072,0.04-0.149,0.058-0.225,0.058c-0.164,0-0.323-0.087-0.408-0.241
		c-0.125-0.225-0.042-0.509,0.183-0.633l5.755-3.178l-7.993-4.796c-0.452-0.271-0.716-0.547-0.868-0.81
		c-0.155,0.272-0.251,0.582-0.251,0.916v10.253C13.349,36.661,14.187,37.5,15.213,37.5z"/>
</g>
</svg>
