<?xml version="1.0" encoding="utf-8"?>
<!-- Generator: Adobe Illustrator 16.0.0, SVG Export Plug-In . SVG Version: 6.00 Build 0)  -->
<!DOCTYPE svg PUBLIC "-//W3C//DTD SVG 1.1//EN" "http://www.w3.org/Graphics/SVG/1.1/DTD/svg11.dtd">
<svg version="1.1" id="Layer_1" xmlns="http://www.w3.org/2000/svg" xmlns:xlink="http://www.w3.org/1999/xlink" x="0px" y="0px"
	 width="50px" height="50px" viewBox="0 0 50 50" enable-background="new 0 0 50 50" xml:space="preserve">
<g>
	<polygon points="25.25,21.1 22.074,24.276 24.087,23.174 	"/>
	<polygon points="28.426,24.276 25.25,21.1 26.413,23.174 	"/>
	<path d="M25.25,37.268c3.283,0,5.943-2.661,5.943-5.943c0-2.59-1.665-4.769-3.975-5.584l1.206-1.464l-2.264-0.913L25.25,21.1
		l-0.911,2.263l-2.265,0.913l1.206,1.464c-2.31,0.815-3.974,2.994-3.974,5.584C19.307,34.607,21.967,37.268,25.25,37.268z
		 M23.936,26.533l1.314,1.595l1.313-1.595c2.113,0.58,3.674,2.495,3.674,4.791c0,2.754-2.232,4.988-4.987,4.988
		s-4.987-2.233-4.987-4.988C20.263,29.028,21.823,27.113,23.936,26.533z"/>
	<path d="M38,9.25h-1.123c0.029-0.093,0.058-0.186,0.058-0.289C36.935,8.431,36.504,8,35.973,8s-0.961,0.431-0.961,0.961
		c0,0.103,0.028,0.196,0.059,0.289h-3.68c0.029-0.093,0.058-0.186,0.058-0.289C31.448,8.431,31.018,8,30.486,8
		c-0.53,0-0.961,0.431-0.961,0.961c0,0.103,0.029,0.196,0.059,0.289h-3.681c0.029-0.093,0.058-0.186,0.058-0.289
		C25.961,8.431,25.531,8,25,8s-0.961,0.431-0.961,0.961c0,0.103,0.028,0.196,0.058,0.289h-3.681
		c0.029-0.093,0.059-0.186,0.059-0.289C20.475,8.431,20.044,8,19.514,8c-0.531,0-0.962,0.431-0.962,0.961
		c0,0.103,0.028,0.196,0.058,0.289h-3.68c0.03-0.093,0.059-0.186,0.059-0.289c0-0.531-0.43-0.961-0.961-0.961
		s-0.962,0.431-0.962,0.961c0,0.103,0.028,0.196,0.058,0.289H12c-1.518,0-2.75,1.233-2.75,2.75v26c0,1.517,1.232,2.75,2.75,2.75
		h22.895l5.855-5.856V12C40.75,10.483,39.517,9.25,38,9.25z M32.516,13.258l0.365,1.201c0.041,0.145,0.091,0.325,0.121,0.456h0.015
		c0.035-0.13,0.075-0.315,0.11-0.456l0.3-1.201h0.815l-0.57,1.611c-0.35,0.971-0.586,1.361-0.86,1.607
		c-0.266,0.23-0.546,0.31-0.735,0.335l-0.16-0.646c0.095-0.015,0.215-0.06,0.33-0.13c0.115-0.061,0.24-0.181,0.314-0.306
		c0.025-0.035,0.041-0.075,0.041-0.11c0-0.025-0.006-0.065-0.035-0.125l-0.896-2.237H32.516z M30.467,13.258l0.024,0.45h0.021
		c0.125-0.355,0.425-0.505,0.66-0.505c0.07,0,0.105,0,0.16,0.01v0.716c-0.055-0.01-0.12-0.02-0.205-0.02
		c-0.28,0-0.471,0.15-0.521,0.385c-0.01,0.05-0.015,0.11-0.015,0.17v1.241H29.83v-1.642c0-0.36-0.01-0.596-0.02-0.806H30.467z
		 M27.896,13.724c-0.25,0-0.516,0.085-0.676,0.185l-0.141-0.49c0.171-0.095,0.506-0.215,0.951-0.215c0.816,0,1.076,0.48,1.076,1.056
		v0.851c0,0.235,0.01,0.46,0.035,0.596h-0.686l-0.045-0.245h-0.016c-0.16,0.195-0.41,0.3-0.7,0.3c-0.495,0-0.791-0.36-0.791-0.751
		c0-0.636,0.571-0.941,1.437-0.936v-0.035C28.342,13.909,28.271,13.724,27.896,13.724z M24.016,13.258h0.766v1.316
		c0,0.355,0.115,0.571,0.381,0.571c0.21,0,0.33-0.145,0.38-0.265c0.021-0.045,0.024-0.105,0.024-0.165v-1.457h0.767v1.662
		c0,0.32,0.01,0.581,0.02,0.786h-0.66l-0.035-0.345h-0.015c-0.096,0.15-0.326,0.4-0.766,0.4c-0.496,0-0.861-0.311-0.861-1.066
		V13.258z M21.611,13.258l0.035,0.335h0.015c0.101-0.155,0.351-0.391,0.756-0.391c0.5,0,0.876,0.33,0.876,1.051v1.452h-0.762v-1.356
		c0-0.315-0.109-0.53-0.385-0.53c-0.21,0-0.336,0.145-0.385,0.285c-0.021,0.045-0.031,0.12-0.031,0.19v1.412h-0.76v-1.667
		c0-0.306-0.01-0.565-0.021-0.781H21.611z M19.036,13.724c-0.251,0-0.516,0.085-0.676,0.185l-0.14-0.49
		c0.17-0.095,0.505-0.215,0.95-0.215c0.815,0,1.076,0.48,1.076,1.056v0.851c0,0.235,0.011,0.46,0.035,0.596h-0.686l-0.045-0.245
		h-0.015c-0.16,0.195-0.411,0.3-0.701,0.3c-0.496,0-0.791-0.36-0.791-0.751c0-0.636,0.57-0.941,1.437-0.936v-0.035
		C19.481,13.909,19.411,13.724,19.036,13.724z M15.824,15.065c0.105,0.035,0.24,0.06,0.391,0.06c0.32,0,0.521-0.145,0.521-0.671
		v-2.122h0.761v2.132c0,0.961-0.46,1.296-1.201,1.296c-0.175,0-0.405-0.03-0.555-0.08L15.824,15.065z M39.25,34.273l-0.311,0.311
		h-2.355c-1.101,0-2,0.9-2,2v2.356l-0.311,0.31H12c-0.689,0-1.25-0.561-1.25-1.25V19h28.5V34.273z"/>
	<path d="M18.796,14.935c0,0.195,0.13,0.291,0.3,0.291c0.19,0,0.346-0.125,0.396-0.28c0.011-0.04,0.015-0.085,0.015-0.13v-0.265
		C19.105,14.544,18.796,14.64,18.796,14.935z"/>
	<path d="M27.656,14.935c0,0.195,0.13,0.291,0.301,0.291c0.189,0,0.345-0.125,0.395-0.28c0.01-0.04,0.016-0.085,0.016-0.13v-0.265
		C27.967,14.544,27.656,14.64,27.656,14.935z"/>
</g>
</svg>
