<?xml version="1.0" encoding="utf-8"?>
<!-- Generator: Adobe Illustrator 16.0.0, SVG Export Plug-In . SVG Version: 6.00 Build 0)  -->
<!DOCTYPE svg PUBLIC "-//W3C//DTD SVG 1.1//EN" "http://www.w3.org/Graphics/SVG/1.1/DTD/svg11.dtd">
<svg version="1.1" id="Layer_1" xmlns="http://www.w3.org/2000/svg" xmlns:xlink="http://www.w3.org/1999/xlink" x="0px" y="0px"
	 width="50px" height="50px" viewBox="0 0 50 50" enable-background="new 0 0 50 50" xml:space="preserve">
<g>
	<path d="M38.25,10.25h-1.123c0.029-0.092,0.058-0.186,0.058-0.288c0-0.53-0.431-0.962-0.962-0.962s-0.961,0.432-0.961,0.962
		c0,0.103,0.028,0.196,0.059,0.288h-3.68c0.029-0.092,0.058-0.186,0.058-0.288c0-0.53-0.431-0.962-0.962-0.962
		c-0.53,0-0.961,0.432-0.961,0.962c0,0.103,0.029,0.196,0.059,0.288h-3.681c0.029-0.092,0.058-0.186,0.058-0.288
		c0-0.53-0.43-0.962-0.961-0.962s-0.961,0.432-0.961,0.962c0,0.103,0.028,0.196,0.058,0.288h-3.681
		c0.029-0.092,0.059-0.186,0.059-0.288c0-0.53-0.431-0.962-0.961-0.962c-0.531,0-0.962,0.432-0.962,0.962
		c0,0.103,0.028,0.196,0.058,0.288h-3.68c0.03-0.092,0.059-0.186,0.059-0.288c0-0.53-0.43-0.962-0.961-0.962
		s-0.962,0.432-0.962,0.962c0,0.103,0.028,0.196,0.058,0.288H12.25c-1.518,0-2.75,1.234-2.75,2.75v26c0,1.518,1.232,2.75,2.75,2.75
		h22.895L41,35.895V13C41,11.484,39.767,10.25,38.25,10.25z M39.5,35.273l-0.311,0.311h-2.355c-1.101,0-2,0.9-2,2v2.356l-0.311,0.31
		H12.25C11.561,40.25,11,39.689,11,39V14h28.5V35.273z"/>
	<path d="M27.603,36.813V21.586h-6.059v3.879h-8.403v11.349h6.84H27.603z M25.035,22.604h1.405v1.403h-1.405V22.604z M25.035,24.724
		h1.405v1.403h-1.405V24.724z M25.035,26.908h1.404v1.403h-1.404V26.908z M25.035,29.028h1.404v1.403h-1.404V29.028z M22.915,22.604
		h1.403v1.403h-1.403V22.604z M22.915,24.724h1.403v1.403h-1.403V24.724z M22.915,26.908h1.403v1.403h-1.403V26.908z M22.915,29.028
		h1.403v1.403h-1.403V29.028z M20.729,26.908h1.404v1.403h-1.404V26.908z M20.729,29.028h1.404v1.403h-1.404V29.028z M18.609,26.908
		h1.403v1.403h-1.403V26.908z M15.707,30.432h-1.403v-1.403h1.403V30.432z M15.707,28.312h-1.403v-1.403h1.403V28.312z
		 M17.828,30.432h-1.404v-1.403h1.404V30.432z M17.828,28.312h-1.404v-1.403h1.404V28.312z M18.609,29.028h1.403v1.403h-1.403
		V29.028z"/>
	<polygon points="31.035,21.586 29.625,21.586 28.376,36.813 32.284,36.813 	"/>
	<polygon points="31.035,20.804 30.331,20.804 29.625,20.804 29.625,21.286 31.035,21.286 	"/>
	<path d="M31.723,19.332c0.22,0.787,1.231,1.071,1.947,0.607c0.393,0.396,1.692,0.62,2.27-0.13c1.914,0.651,1.692-1.876,0.521-2.316
		c0.123-1.221-1.733-1.77-2.759-0.392c-0.586-1.427-3.078-0.605-2.666,0.625c-1.682,0.342-1.41,2.149-0.704,3.077
		C30.331,20.022,30.631,19.389,31.723,19.332z"/>
</g>
</svg>
