<?xml version="1.0" encoding="utf-8"?>
<!-- Generator: Adobe Illustrator 16.0.0, SVG Export Plug-In . SVG Version: 6.00 Build 0)  -->
<!DOCTYPE svg PUBLIC "-//W3C//DTD SVG 1.1//EN" "http://www.w3.org/Graphics/SVG/1.1/DTD/svg11.dtd">
<svg version="1.1" id="Layer_1" xmlns="http://www.w3.org/2000/svg" xmlns:xlink="http://www.w3.org/1999/xlink" x="0px" y="0px"
	 width="50px" height="50px" viewBox="0 0 50 50" enable-background="new 0 0 50 50" xml:space="preserve">
<g>
	<path fill-rule="evenodd" clip-rule="evenodd" d="M18.54,34.291h3.36v-14.16h-2.36c-0.04,0.227-0.117,0.47-0.23,0.73
		c-0.113,0.26-0.29,0.5-0.53,0.72c-0.24,0.22-0.563,0.403-0.97,0.55c-0.407,0.147-0.93,0.22-1.57,0.22h-0.42v2.12h2.72V34.291z"/>
	<path fill-rule="evenodd" clip-rule="evenodd" d="M31.02,25.601c-0.16,0.273-0.407,0.594-0.74,0.96
		c-0.333,0.367-0.8,0.817-1.4,1.351c-0.307,0.267-0.644,0.594-1.01,0.979c-0.367,0.388-0.713,0.841-1.04,1.36
		c-0.327,0.521-0.6,1.113-0.82,1.78c-0.22,0.667-0.33,1.42-0.33,2.26h9.04v-2.6H29.7c0.173-0.4,0.503-0.83,0.99-1.29
		s1.077-1.03,1.77-1.71c0.44-0.413,0.803-0.787,1.09-1.12s0.517-0.67,0.69-1.011c0.173-0.34,0.293-0.703,0.36-1.09
		c0.066-0.387,0.1-0.847,0.1-1.38c0-0.56-0.067-1.08-0.2-1.56c-0.133-0.48-0.367-0.896-0.7-1.25c-0.333-0.354-0.783-0.634-1.35-0.84
		c-0.567-0.207-1.277-0.311-2.13-0.311c-3.04,0-4.56,1.42-4.56,4.26v0.46h3.12c0-0.267,0.007-0.553,0.02-0.859s0.06-0.59,0.14-0.851
		c0.08-0.26,0.207-0.473,0.38-0.64s0.42-0.25,0.74-0.25c0.48,0,0.796,0.17,0.95,0.51s0.23,0.79,0.23,1.351
		c0,0.267-0.013,0.513-0.04,0.739C31.273,25.078,31.18,25.328,31.02,25.601z"/>
	<path fill-rule="evenodd" clip-rule="evenodd" d="M21.5,14.803c0.081,0,0.145-0.026,0.192-0.079
		c0.048-0.054,0.083-0.123,0.104-0.209c0.022-0.087,0.036-0.186,0.042-0.298c0.005-0.111,0.008-0.228,0.008-0.349
		c0-0.136-0.003-0.259-0.008-0.369c-0.005-0.109-0.02-0.204-0.042-0.283c-0.022-0.078-0.056-0.139-0.102-0.181
		c-0.046-0.043-0.109-0.063-0.19-0.063c-0.077,0-0.136,0.023-0.179,0.071c-0.042,0.048-0.074,0.113-0.096,0.198
		c-0.022,0.084-0.036,0.184-0.041,0.297c-0.006,0.113-0.008,0.236-0.008,0.368c0,0.29,0.02,0.512,0.061,0.666
		C21.281,14.726,21.368,14.803,21.5,14.803z"/>
	<path fill-rule="evenodd" clip-rule="evenodd" d="M19.039,13.037c-0.039-0.109-0.121-0.165-0.245-0.165
		c-0.146,0-0.24,0.058-0.28,0.171c-0.041,0.113-0.061,0.271-0.061,0.473h0.644C19.096,13.307,19.077,13.147,19.039,13.037z"/>
	<path fill-rule="evenodd" clip-rule="evenodd" d="M28.946,14.127c-0.048,0.036-0.083,0.079-0.104,0.129s-0.033,0.116-0.033,0.2
		c0,0.118,0.022,0.21,0.066,0.278c0.044,0.067,0.108,0.102,0.193,0.102c0.095,0,0.179-0.029,0.25-0.088
		c0.072-0.059,0.107-0.165,0.107-0.319c0-0.124,0.001-0.227,0.003-0.308c0.001-0.081,0.002-0.152,0.002-0.215
		c-0.139,0.073-0.245,0.12-0.316,0.141C29.042,14.067,28.986,14.094,28.946,14.127z"/>
	<path fill-rule="evenodd" clip-rule="evenodd" d="M38,9.875h-1.123c0.029-0.093,0.058-0.186,0.058-0.289
		c0-0.53-0.431-0.961-0.962-0.961s-0.961,0.431-0.961,0.961c0,0.104,0.028,0.196,0.059,0.289h-3.68
		c0.029-0.093,0.058-0.186,0.058-0.289c0-0.53-0.431-0.961-0.962-0.961c-0.53,0-0.961,0.431-0.961,0.961
		c0,0.104,0.029,0.196,0.059,0.289h-3.681c0.029-0.093,0.058-0.186,0.058-0.289c0-0.53-0.43-0.961-0.961-0.961
		s-0.961,0.431-0.961,0.961c0,0.104,0.028,0.196,0.058,0.289h-3.681c0.029-0.093,0.059-0.186,0.059-0.289
		c0-0.53-0.431-0.961-0.961-0.961c-0.531,0-0.962,0.431-0.962,0.961c0,0.104,0.028,0.196,0.058,0.289h-3.68
		c0.03-0.093,0.059-0.186,0.059-0.289c0-0.53-0.43-0.961-0.961-0.961s-0.962,0.431-0.962,0.961c0,0.104,0.028,0.196,0.058,0.289H12
		c-1.518,0-2.75,1.233-2.75,2.75v26c0,1.517,1.232,2.75,2.75,2.75h22.895l5.855-5.855V12.625C40.75,11.108,39.517,9.875,38,9.875z
		 M33.566,12.399l0.363,2.085h0.011l0.347-2.085h0.891l-0.803,2.998c-0.051,0.19-0.105,0.347-0.162,0.47
		c-0.056,0.123-0.125,0.219-0.208,0.289c-0.082,0.069-0.181,0.118-0.298,0.146s-0.261,0.041-0.433,0.041h-0.204
		c-0.029,0-0.06-0.001-0.091-0.003s-0.061-0.004-0.09-0.008v-0.627c0.036,0.007,0.073,0.013,0.11,0.017s0.073,0.005,0.11,0.005
		c0.084,0,0.161-0.022,0.231-0.068s0.117-0.133,0.143-0.261l-0.841-2.998H33.566z M30.8,12.399h0.858v0.418h0.011
		c0.059-0.132,0.146-0.247,0.261-0.347c0.115-0.099,0.267-0.148,0.454-0.148h0.066c0.015,0,0.041,0.004,0.077,0.012v0.836
		c-0.044-0.008-0.085-0.014-0.124-0.017c-0.039-0.004-0.08-0.006-0.124-0.006c-0.18,0-0.323,0.04-0.429,0.121
		s-0.159,0.22-0.159,0.418v1.688H30.8V12.399z M29.364,12.985c-0.044-0.053-0.116-0.08-0.214-0.08c-0.125,0-0.209,0.036-0.253,0.107
		c-0.044,0.071-0.068,0.172-0.072,0.3h-0.792c0.003-0.209,0.034-0.376,0.091-0.501c0.057-0.124,0.138-0.223,0.245-0.297
		c0.106-0.073,0.225-0.123,0.355-0.151c0.13-0.027,0.289-0.041,0.476-0.041c0.367,0,0.634,0.067,0.803,0.201
		c0.168,0.134,0.253,0.36,0.253,0.679v1.529c0,0.113,0.004,0.233,0.014,0.357c0.009,0.125,0.04,0.22,0.091,0.286h-0.858
		c-0.019-0.052-0.03-0.106-0.036-0.165c-0.005-0.059-0.01-0.117-0.014-0.176h-0.011c-0.063,0.132-0.156,0.234-0.281,0.308
		s-0.264,0.11-0.418,0.11c-0.253,0-0.448-0.07-0.585-0.212c-0.138-0.141-0.207-0.373-0.207-0.695c0-0.177,0.033-0.331,0.099-0.465
		s0.154-0.232,0.264-0.295c0.11-0.062,0.239-0.109,0.388-0.143s0.285-0.066,0.41-0.099c0.066-0.019,0.12-0.036,0.162-0.053
		s0.075-0.036,0.099-0.061c0.024-0.023,0.039-0.054,0.047-0.091c0.007-0.036,0.011-0.082,0.011-0.138
		C29.43,13.111,29.408,13.038,29.364,12.985z M25.195,12.399h0.891v2.029c0,0.106,0.022,0.19,0.066,0.251s0.108,0.09,0.192,0.09
		s0.159-0.033,0.223-0.102c0.064-0.067,0.096-0.175,0.096-0.321v-1.947h0.891v2.976h-0.858v-0.352h-0.011
		c-0.062,0.132-0.156,0.236-0.28,0.313c-0.125,0.076-0.27,0.115-0.435,0.115c-0.253,0-0.445-0.066-0.578-0.198
		c-0.132-0.132-0.198-0.341-0.198-0.627V12.399z M23.161,12.399h0.858v0.418h0.011c0.059-0.132,0.146-0.247,0.261-0.347
		c0.115-0.099,0.267-0.148,0.454-0.148h0.066c0.015,0,0.041,0.004,0.077,0.012v0.836c-0.044-0.008-0.085-0.014-0.124-0.017
		c-0.039-0.004-0.08-0.006-0.124-0.006c-0.18,0-0.323,0.04-0.429,0.121s-0.159,0.22-0.159,0.418v1.688h-0.891V12.399z
		 M20.306,11.448h0.891v1.275h0.011c0.037-0.076,0.081-0.142,0.132-0.195c0.051-0.053,0.106-0.094,0.165-0.123
		s0.119-0.051,0.182-0.063s0.125-0.02,0.187-0.02c0.18,0,0.326,0.04,0.44,0.118c0.114,0.079,0.202,0.189,0.264,0.33
		c0.063,0.142,0.104,0.31,0.126,0.504s0.033,0.406,0.033,0.638c0,0.278-0.021,0.515-0.061,0.709
		c-0.041,0.194-0.099,0.354-0.176,0.477c-0.077,0.122-0.173,0.212-0.289,0.27c-0.116,0.057-0.247,0.085-0.394,0.085
		c-0.099,0-0.185-0.014-0.258-0.041c-0.073-0.028-0.137-0.063-0.19-0.104c-0.053-0.043-0.095-0.089-0.126-0.141
		c-0.031-0.052-0.054-0.103-0.068-0.154h-0.011v0.363h-0.858V11.448z M17.614,13.2c0.035-0.179,0.098-0.332,0.19-0.463
		c0.091-0.13,0.215-0.231,0.371-0.305s0.355-0.11,0.597-0.11c0.275,0,0.491,0.041,0.649,0.124c0.158,0.082,0.276,0.2,0.355,0.352
		c0.079,0.152,0.128,0.333,0.148,0.542s0.03,0.44,0.03,0.693h-1.501v0.182c0,0.23,0.022,0.403,0.066,0.517s0.13,0.171,0.258,0.171
		c0.118,0,0.198-0.044,0.242-0.133c0.044-0.088,0.072-0.225,0.083-0.412h0.825c-0.007,0.374-0.108,0.65-0.303,0.828
		s-0.479,0.267-0.853,0.267c-0.282,0-0.503-0.046-0.663-0.138s-0.281-0.215-0.363-0.368c-0.082-0.154-0.134-0.332-0.154-0.534
		c-0.02-0.201-0.03-0.412-0.03-0.632C17.562,13.571,17.579,13.378,17.614,13.2z M15.054,11.448h2.271v0.748h-1.348v0.786h1.265
		v0.748h-1.265v1.645h-0.924V11.448z M39.25,34.898l-0.311,0.311h-2.355c-1.101,0-2,0.899-2,2v2.355l-0.311,0.311H12
		c-0.689,0-1.25-0.561-1.25-1.25v-21h28.5V34.898z"/>
</g>
</svg>
