<?xml version="1.0" encoding="utf-8"?>
<!-- Generator: Adobe Illustrator 16.0.0, SVG Export Plug-In . SVG Version: 6.00 Build 0)  -->
<!DOCTYPE svg PUBLIC "-//W3C//DTD SVG 1.1//EN" "http://www.w3.org/Graphics/SVG/1.1/DTD/svg11.dtd">
<svg version="1.1" id="Layer_1" xmlns="http://www.w3.org/2000/svg" xmlns:xlink="http://www.w3.org/1999/xlink" x="0px" y="0px"
	 width="50px" height="50px" viewBox="0 0 50 50" enable-background="new 0 0 50 50" xml:space="preserve">
<g>
	<path d="M38,9.25h-1.124c0.029-0.093,0.058-0.186,0.058-0.289C36.935,8.431,36.504,8,35.973,8c-0.531,0-0.961,0.431-0.961,0.961
		c0,0.103,0.028,0.196,0.058,0.289h-3.68c0.03-0.093,0.058-0.186,0.058-0.289c0-0.531-0.43-0.961-0.961-0.961
		c-0.531,0-0.961,0.431-0.961,0.961c0,0.103,0.029,0.196,0.058,0.289h-3.68c0.029-0.093,0.058-0.186,0.058-0.289
		C25.961,8.431,25.531,8,25,8s-0.961,0.431-0.961,0.961c0,0.103,0.029,0.196,0.058,0.289h-3.68c0.029-0.093,0.058-0.186,0.058-0.289
		C20.475,8.431,20.044,8,19.513,8c-0.531,0-0.961,0.431-0.961,0.961c0,0.103,0.028,0.196,0.058,0.289h-3.68
		c0.03-0.093,0.058-0.186,0.058-0.289c0-0.531-0.43-0.961-0.961-0.961c-0.531,0-0.961,0.431-0.961,0.961
		c0,0.103,0.029,0.196,0.058,0.289H12c-1.517,0-2.75,1.233-2.75,2.75v26c0,1.517,1.233,2.75,2.75,2.75h22.895l5.855-5.856V12
		C40.75,10.483,39.517,9.25,38,9.25z M39.25,34.273l-0.311,0.311h-2.356c-1.1,0-2,0.9-2,2v2.356l-0.31,0.31H12
		c-0.689,0-1.25-0.561-1.25-1.25V17h28.5V34.273z"/>
	<path d="M25.778,33.026c-0.129-2.701-0.456-6.15-1.237-9.413h-0.795C24.21,27.355,24.14,31.624,24,34.526
		c-0.711-1.95-1.799-4.402-3.318-6.462l-0.484,0.339c2.428,4.553,2.798,9.557,2.798,9.557h0.772h0.772h0.515h0.772H26.6
		c0,0,0.381-5.86,2.82-11.083l-0.483-0.423C27.48,28.515,26.464,30.936,25.778,33.026z"/>
	<polygon points="22.817,23.509 24.009,22.639 25.401,23.126 24.941,21.724 25.836,20.551 24.361,20.555 23.521,19.342 
		23.069,20.746 21.655,21.169 22.851,22.033 	"/>
	<polygon points="29.968,25.797 30.679,27.089 31.273,25.739 32.722,25.461 31.621,24.48 31.805,23.016 30.53,23.76 29.195,23.133 
		29.509,24.574 28.5,25.65 	"/>
	<polygon points="18.687,27.133 19.126,28.542 19.978,27.337 21.453,27.355 20.57,26.173 21.044,24.776 19.647,25.25 18.464,24.367 
		18.483,25.842 17.278,26.694 	"/>
</g>
</svg>
