<?xml version="1.0" encoding="utf-8"?>
<!-- Generator: Adobe Illustrator 16.0.0, SVG Export Plug-In . SVG Version: 6.00 Build 0)  -->
<!DOCTYPE svg PUBLIC "-//W3C//DTD SVG 1.1//EN" "http://www.w3.org/Graphics/SVG/1.1/DTD/svg11.dtd">
<svg version="1.1" id="Layer_1" xmlns="http://www.w3.org/2000/svg" xmlns:xlink="http://www.w3.org/1999/xlink" x="0px" y="0px"
	 width="50px" height="50px" viewBox="0 0 50 50" enable-background="new 0 0 50 50" xml:space="preserve">
<g>
	<path d="M38,9.25h-1.124c0.029-0.093,0.058-0.186,0.058-0.289C36.935,8.431,36.504,8,35.973,8c-0.531,0-0.961,0.431-0.961,0.961
		c0,0.103,0.028,0.196,0.058,0.289h-3.68c0.03-0.093,0.058-0.186,0.058-0.289c0-0.531-0.43-0.961-0.961-0.961
		c-0.531,0-0.961,0.431-0.961,0.961c0,0.103,0.029,0.196,0.058,0.289h-3.68c0.029-0.093,0.058-0.186,0.058-0.289
		C25.961,8.431,25.531,8,25,8s-0.961,0.431-0.961,0.961c0,0.103,0.029,0.196,0.058,0.289h-3.68c0.029-0.093,0.058-0.186,0.058-0.289
		C20.475,8.431,20.044,8,19.513,8c-0.531,0-0.961,0.431-0.961,0.961c0,0.103,0.028,0.196,0.058,0.289h-3.68
		c0.03-0.093,0.058-0.186,0.058-0.289c0-0.531-0.43-0.961-0.961-0.961c-0.531,0-0.961,0.431-0.961,0.961
		c0,0.103,0.029,0.196,0.058,0.289H12c-1.517,0-2.75,1.233-2.75,2.75v26c0,1.517,1.233,2.75,2.75,2.75h22.895l5.855-5.856V12
		C40.75,10.483,39.517,9.25,38,9.25z M32.566,15.495l-0.896-2.237h0.846l0.365,1.201c0.04,0.145,0.09,0.325,0.12,0.456h0.015
		c0.035-0.13,0.075-0.315,0.11-0.456l0.3-1.201h0.816l-0.571,1.611c-0.35,0.971-0.585,1.361-0.86,1.607
		c-0.266,0.23-0.546,0.31-0.736,0.335l-0.16-0.646c0.095-0.015,0.215-0.06,0.33-0.13c0.115-0.061,0.24-0.181,0.315-0.306
		c0.025-0.035,0.04-0.075,0.04-0.11C32.601,15.596,32.596,15.556,32.566,15.495z M29.811,13.258h0.656l0.025,0.45h0.02
		c0.125-0.355,0.425-0.505,0.661-0.505c0.07,0,0.105,0,0.16,0.01v0.716c-0.055-0.01-0.12-0.02-0.205-0.02
		c-0.28,0-0.471,0.15-0.521,0.385c-0.01,0.05-0.015,0.11-0.015,0.17v1.241h-0.761v-1.642C29.831,13.704,29.821,13.468,29.811,13.258
		z M27.896,13.724c-0.25,0-0.516,0.085-0.676,0.185l-0.14-0.49c0.17-0.095,0.505-0.215,0.951-0.215c0.816,0,1.076,0.48,1.076,1.056
		v0.851c0,0.235,0.01,0.46,0.035,0.596h-0.686l-0.045-0.245h-0.015c-0.16,0.195-0.411,0.3-0.701,0.3
		c-0.496,0-0.791-0.36-0.791-0.751c0-0.636,0.571-0.941,1.437-0.936v-0.035C28.342,13.909,28.271,13.724,27.896,13.724z
		 M25.162,15.145c0.21,0,0.331-0.145,0.38-0.265c0.02-0.045,0.025-0.105,0.025-0.165v-1.457h0.766v1.662
		c0,0.32,0.01,0.581,0.02,0.786h-0.66l-0.035-0.345h-0.015c-0.095,0.15-0.325,0.4-0.766,0.4c-0.496,0-0.861-0.311-0.861-1.066
		v-1.436h0.766v1.316C24.781,14.93,24.896,15.145,25.162,15.145z M22.146,13.819c-0.21,0-0.335,0.145-0.385,0.285
		c-0.02,0.045-0.03,0.12-0.03,0.19v1.412H20.97v-1.667c0-0.306-0.01-0.565-0.02-0.781h0.661l0.035,0.335h0.015
		c0.1-0.155,0.35-0.391,0.756-0.391c0.5,0,0.875,0.33,0.875,1.051v1.452h-0.761v-1.356C22.532,14.034,22.422,13.819,22.146,13.819z
		 M19.036,13.724c-0.25,0-0.516,0.085-0.676,0.185l-0.14-0.49c0.17-0.095,0.505-0.215,0.951-0.215c0.816,0,1.076,0.48,1.076,1.056
		v0.851c0,0.235,0.01,0.46,0.035,0.596h-0.686l-0.045-0.245h-0.015c-0.16,0.195-0.411,0.3-0.701,0.3
		c-0.496,0-0.791-0.36-0.791-0.751c0-0.636,0.571-0.941,1.437-0.936v-0.035C19.481,13.909,19.411,13.724,19.036,13.724z
		 M17.496,12.332v2.132c0,0.961-0.46,1.296-1.201,1.296c-0.175,0-0.405-0.03-0.555-0.08l0.085-0.616
		c0.105,0.035,0.24,0.06,0.39,0.06c0.32,0,0.521-0.145,0.521-0.671v-2.122H17.496z M12,39.25c-0.689,0-1.25-0.561-1.25-1.25V19h28.5
		v15.273l-0.311,0.311h-2.356c-1.1,0-2,0.9-2,2v2.356l-0.31,0.31H12z"/>
	<path d="M18.796,14.935c0,0.195,0.13,0.291,0.3,0.291c0.19,0,0.345-0.125,0.395-0.28c0.01-0.04,0.015-0.085,0.015-0.13v-0.265
		C19.106,14.544,18.796,14.64,18.796,14.935z"/>
	<path d="M27.656,14.935c0,0.195,0.13,0.291,0.3,0.291c0.19,0,0.345-0.125,0.395-0.28c0.01-0.04,0.015-0.085,0.015-0.13v-0.265
		C27.966,14.544,27.656,14.64,27.656,14.935z"/>
	<path d="M20.291,24.431v2.841h3.261v8.222h4.161V21.19h-3.161C24.091,23.631,22.491,24.391,20.291,24.431z"/>
</g>
</svg>
