<?xml version="1.0" encoding="utf-8"?>
<!-- Generator: Adobe Illustrator 16.0.0, SVG Export Plug-In . SVG Version: 6.00 Build 0)  -->
<!DOCTYPE svg PUBLIC "-//W3C//DTD SVG 1.1//EN" "http://www.w3.org/Graphics/SVG/1.1/DTD/svg11.dtd">
<svg version="1.1" id="Layer_1" xmlns="http://www.w3.org/2000/svg" xmlns:xlink="http://www.w3.org/1999/xlink" x="0px" y="0px"
	 width="50px" height="50px" viewBox="0 0 50 50" enable-background="new 0 0 50 50" xml:space="preserve">
<g>
	<path d="M38,9.875h-1.123c0.029-0.092,0.058-0.186,0.058-0.288c0-0.53-0.431-0.962-0.962-0.962s-0.961,0.432-0.961,0.962
		c0,0.103,0.028,0.196,0.059,0.288h-3.68c0.029-0.092,0.058-0.186,0.058-0.288c0-0.53-0.431-0.962-0.962-0.962
		c-0.53,0-0.961,0.432-0.961,0.962c0,0.103,0.029,0.196,0.059,0.288h-3.681c0.029-0.092,0.058-0.186,0.058-0.288
		c0-0.53-0.43-0.962-0.961-0.962s-0.961,0.432-0.961,0.962c0,0.103,0.028,0.196,0.058,0.288h-3.681
		c0.029-0.092,0.059-0.186,0.059-0.288c0-0.53-0.431-0.962-0.961-0.962c-0.531,0-0.962,0.432-0.962,0.962
		c0,0.103,0.028,0.196,0.058,0.288h-3.68c0.03-0.092,0.059-0.186,0.059-0.288c0-0.53-0.43-0.962-0.961-0.962
		s-0.962,0.432-0.962,0.962c0,0.103,0.028,0.196,0.058,0.288H12c-1.518,0-2.75,1.234-2.75,2.75v26c0,1.518,1.232,2.75,2.75,2.75
		h22.895l5.855-5.855V12.625C40.75,11.109,39.517,9.875,38,9.875z M39.25,34.898l-0.311,0.311h-2.355c-1.101,0-2,0.9-2,2v2.356
		l-0.311,0.31H12c-0.689,0-1.25-0.561-1.25-1.25v-25h28.5V34.898z"/>
	<path d="M23.74,34.291h3.36v-14.16h-2.36c-0.04,0.227-0.117,0.47-0.23,0.73c-0.113,0.26-0.29,0.5-0.53,0.72
		c-0.24,0.22-0.563,0.403-0.97,0.55c-0.407,0.147-0.93,0.22-1.57,0.22h-0.42v2.12h2.72V34.291z"/>
</g>
</svg>
