<?xml version="1.0" encoding="utf-8"?>
<!-- Generator: Adobe Illustrator 16.0.0, SVG Export Plug-In . SVG Version: 6.00 Build 0)  -->
<!DOCTYPE svg PUBLIC "-//W3C//DTD SVG 1.1//EN" "http://www.w3.org/Graphics/SVG/1.1/DTD/svg11.dtd">
<svg version="1.1" id="Layer_1" xmlns="http://www.w3.org/2000/svg" xmlns:xlink="http://www.w3.org/1999/xlink" x="0px" y="0px"
	 width="50px" height="50px" viewBox="0 0 50 50" enable-background="new 0 0 50 50" xml:space="preserve">
<path d="M37.269,14.215h-3.346l-8.035-6.837c0.045-0.111,0.072-0.233,0.072-0.36c0-0.529-0.43-0.96-0.96-0.96
	c-0.531,0-0.961,0.431-0.961,0.96c0,0.127,0.027,0.249,0.072,0.36l-8.034,6.837h-3.346c-1.432,0-2.595,1.164-2.595,2.595v24.538
	c0,1.432,1.163,2.595,2.595,2.595h21.606l5.525-5.525V16.81C39.863,15.379,38.698,14.215,37.269,14.215z M34.732,17.538
	c0,0.771-0.626,1.396-1.396,1.396c-0.771,0-1.396-0.625-1.396-1.396s0.625-1.396,1.396-1.396
	C34.106,16.142,34.732,16.768,34.732,17.538z M24.514,7.825C24.658,7.913,24.818,7.979,25,7.979s0.342-0.065,0.488-0.153l7.508,6.39
	H17.004L24.514,7.825z M30.564,17.538c0,0.771-0.625,1.396-1.398,1.396c-0.77,0-1.394-0.625-1.394-1.396s0.624-1.396,1.394-1.396
	C29.939,16.142,30.564,16.768,30.564,17.538z M26.396,17.538c0,0.771-0.626,1.396-1.396,1.396c-0.771,0-1.396-0.625-1.396-1.396
	s0.626-1.396,1.396-1.396C25.77,16.142,26.396,16.768,26.396,17.538z M22.227,17.538c0,0.771-0.623,1.396-1.393,1.396
	c-0.774,0-1.399-0.625-1.399-1.396s0.625-1.396,1.399-1.396C21.604,16.142,22.227,16.768,22.227,17.538z M16.664,16.142
	c0.771,0,1.396,0.626,1.396,1.396s-0.625,1.396-1.396,1.396c-0.771,0-1.396-0.625-1.396-1.396S15.894,16.142,16.664,16.142z
	 M38.448,37.831l-0.293,0.292h-2.224c-1.038,0-1.887,0.851-1.887,1.888v2.224l-0.293,0.293h-4.043
	c-0.165-0.489-0.324-0.962-0.472-1.391c-0.62-1.818-1.047-3.028-1.047-3.028s0.517-0.093,0.81-0.558
	c0.291-0.464,0.146-1.141,0.146-1.141l0.683,0.071c0,0,0.273,0.101,0.354,0.047c0.078-0.053,0.145-0.146,0.145-0.146
	s0.187,0.107,0.254,0.055c0.065-0.055,0.131-0.134,0.131-0.134s0.174,0.079,0.253,0c0.08-0.08-0.039-0.262-0.039-0.262l5.134,1.268
	c0,0-0.111-7.476-5.045-8.661c-2.988-0.716-4.815,1.216-4.815,1.216s-0.824-0.77-1.341-1.049c-0.515-0.28-1.208-0.399-1.208-0.399
	l0.119-0.503c0,0,0.519,0.132,0.506-0.054c-0.014-0.186-0.107-1.063-0.107-1.063s0.227-0.211,0.205-0.369
	c-0.02-0.158,0.075-1.781-0.058-1.965c-0.132-0.186-0.665-0.877-1.355-1.077c-0.689-0.199-1.539,0.08-1.539,0.08
	s-0.214-0.492-0.438-0.532c-0.226-0.041-0.531,0.146-0.531,0.146s-0.292-0.199-0.729-0.04c-0.439,0.158-0.559,0.462-0.559,0.462
	s-0.49,0.202-0.625,0.519c-0.136,0.319-0.012,0.665-0.012,0.665s-1.035,0.863-1.432,2.079c-0.395,1.216,0.18,2.658,0.343,3.159
	c0.164,0.5-0.345,2.038,0.079,2.537c0.424,0.5,0.944,0.037,1.329,0.457c0.384,0.418,2.376,3.106,2.429,3.979
	c0.013,0.203-0.012,0.838-0.638,2.513c-0.174,0.464-0.743,1.498-0.949,2.035c-0.138,0.362-0.238,0.721-0.33,1.083h-6.625
	c-0.651,0-1.18-0.529-1.18-1.18V20.585h26.896V37.831z M29.603,32.666c-0.915,0-1.656,0.741-1.656,1.655
	c0,0.088,0.012,0.173,0.026,0.258l-1.057-0.209l-1.456-0.417l-1.266-0.24c0,0,1.753-5.417,6.229-4.815
	c4.896,0.658,5.169,7.964,5.169,7.964l-4.213-1.025l-0.558-0.405c0.267-0.294,0.434-0.682,0.434-1.11
	C31.256,33.407,30.515,32.666,29.603,32.666z"/>
</svg>
