<?xml version="1.0" encoding="utf-8"?>
<!-- Generator: Adobe Illustrator 16.0.0, SVG Export Plug-In . SVG Version: 6.00 Build 0)  -->
<!DOCTYPE svg PUBLIC "-//W3C//DTD SVG 1.1//EN" "http://www.w3.org/Graphics/SVG/1.1/DTD/svg11.dtd">
<svg version="1.1" id="Layer_1" xmlns="http://www.w3.org/2000/svg" xmlns:xlink="http://www.w3.org/1999/xlink" x="0px" y="0px"
	 width="50px" height="50px" viewBox="0 0 50 50" enable-background="new 0 0 50 50" xml:space="preserve">
<g>
	<path d="M38,9.25h-1.123c0.029-0.093,0.058-0.186,0.058-0.289C36.935,8.431,36.504,8,35.973,8s-0.961,0.431-0.961,0.961
		c0,0.103,0.028,0.196,0.059,0.289h-3.68c0.029-0.093,0.058-0.186,0.058-0.289C31.448,8.431,31.018,8,30.486,8
		c-0.53,0-0.961,0.431-0.961,0.961c0,0.103,0.029,0.196,0.059,0.289h-3.681c0.029-0.093,0.058-0.186,0.058-0.289
		C25.961,8.431,25.531,8,25,8s-0.961,0.431-0.961,0.961c0,0.103,0.028,0.196,0.058,0.289h-3.681
		c0.029-0.093,0.059-0.186,0.059-0.289C20.475,8.431,20.044,8,19.514,8c-0.531,0-0.962,0.431-0.962,0.961
		c0,0.103,0.028,0.196,0.058,0.289h-3.68c0.03-0.093,0.059-0.186,0.059-0.289c0-0.531-0.43-0.961-0.961-0.961
		s-0.962,0.431-0.962,0.961c0,0.103,0.028,0.196,0.058,0.289H12c-1.518,0-2.75,1.233-2.75,2.75v26c0,1.517,1.232,2.75,2.75,2.75
		h22.895l5.855-5.856V12C40.75,10.483,39.517,9.25,38,9.25z M39.25,34.273l-0.311,0.311h-2.355c-1.101,0-2,0.9-2,2v2.356
		l-0.311,0.31H12c-0.689,0-1.25-0.561-1.25-1.25V17h28.5V34.273z"/>
	<polygon points="18.873,29.029 21.712,29.029 21.712,27.18 18.873,27.18 18.873,25.739 22.438,25.739 22.438,23.891 16.277,23.891 
		16.277,31.812 18.873,31.812 	"/>
	<path d="M25.518,29.051h0.792c1.21,0,1.386,0.341,1.386,1.375c0,0.704,0.066,1.21,0.133,1.386h2.629V31.57
		c-0.309,0-0.275-0.352-0.275-1.386c0-1.595-0.506-1.793-1.342-2.101c0.924-0.253,1.332-1.023,1.332-1.937
		c0-1.54-0.869-2.255-3.51-2.255h-3.741v7.921h2.597V29.051z M25.518,25.739h1.21c0.604,0,1.046,0.264,1.046,0.825
		c0,0.55-0.43,0.748-1.232,0.748h-1.023V25.739z"/>
	<rect x="31.094" y="23.891" width="2.597" height="7.921"/>
</g>
</svg>
