<?xml version="1.0" encoding="utf-8"?>
<!-- Generator: Adobe Illustrator 16.0.0, SVG Export Plug-In . SVG Version: 6.00 Build 0)  -->
<!DOCTYPE svg PUBLIC "-//W3C//DTD SVG 1.1//EN" "http://www.w3.org/Graphics/SVG/1.1/DTD/svg11.dtd">
<svg version="1.1" id="Layer_1" xmlns="http://www.w3.org/2000/svg" xmlns:xlink="http://www.w3.org/1999/xlink" x="0px" y="0px"
	 width="50px" height="50px" viewBox="0 0 50 50" enable-background="new 0 0 50 50" xml:space="preserve">
<g>
	<path d="M37.269,14.215h-3.346l-8.035-6.837c0.045-0.111,0.072-0.233,0.072-0.36c0-0.529-0.43-0.96-0.96-0.96
		c-0.531,0-0.961,0.431-0.961,0.96c0,0.127,0.027,0.249,0.072,0.36l-8.034,6.837h-3.346c-1.432,0-2.595,1.164-2.595,2.595v24.538
		c0,1.432,1.163,2.595,2.595,2.595h21.606l5.525-5.525V16.81C39.863,15.379,38.698,14.215,37.269,14.215z M34.732,17.538
		c0,0.771-0.626,1.396-1.396,1.396c-0.771,0-1.396-0.625-1.396-1.396s0.625-1.396,1.396-1.396
		C34.106,16.142,34.732,16.768,34.732,17.538z M24.514,7.825C24.658,7.913,24.818,7.979,25,7.979s0.342-0.065,0.488-0.153
		l7.508,6.39H17.004L24.514,7.825z M30.564,17.538c0,0.771-0.625,1.396-1.398,1.396c-0.77,0-1.394-0.625-1.394-1.396
		s0.624-1.396,1.394-1.396C29.939,16.142,30.564,16.768,30.564,17.538z M26.396,17.538c0,0.771-0.626,1.396-1.396,1.396
		c-0.771,0-1.396-0.625-1.396-1.396s0.626-1.396,1.396-1.396C25.77,16.142,26.396,16.768,26.396,17.538z M22.227,17.538
		c0,0.771-0.623,1.396-1.393,1.396c-0.774,0-1.399-0.625-1.399-1.396s0.625-1.396,1.399-1.396
		C21.604,16.142,22.227,16.768,22.227,17.538z M16.664,16.142c0.771,0,1.396,0.626,1.396,1.396s-0.625,1.396-1.396,1.396
		c-0.771,0-1.396-0.625-1.396-1.396S15.894,16.142,16.664,16.142z M38.448,37.831l-0.293,0.292h-2.224
		c-1.038,0-1.887,0.851-1.887,1.888v2.224l-0.293,0.293H12.731c-0.651,0-1.18-0.529-1.18-1.18V20.585h26.896V37.831z"/>
	<path d="M17.137,30.829l1.356,0.543c0,0.56,0.073,1.122,0.223,1.676l-1.171,0.876c-0.18,0.134-0.234,0.403-0.122,0.597l1.059,1.834
		c0.112,0.194,0.371,0.28,0.578,0.192l1.345-0.575c0.404,0.404,0.854,0.749,1.339,1.028l-0.207,1.447
		c-0.03,0.221,0.12,0.45,0.337,0.508l2.043,0.549c0.216,0.058,0.461-0.064,0.545-0.272l0.544-1.358c0.559,0,1.121-0.073,1.675-0.222
		l0.877,1.171c0.133,0.179,0.402,0.234,0.596,0.122l1.834-1.059c0.194-0.112,0.281-0.372,0.193-0.578l-0.576-1.345
		c0.405-0.404,0.751-0.855,1.03-1.34l1.447,0.207c0.221,0.032,0.449-0.12,0.507-0.335l0.549-2.046
		c0.058-0.216-0.065-0.461-0.273-0.545l-1.356-0.543c0-0.56-0.073-1.121-0.222-1.674l1.171-0.877
		c0.179-0.135,0.234-0.402,0.122-0.597L31.52,26.38c-0.112-0.194-0.372-0.28-0.578-0.192l-1.345,0.575
		c-0.405-0.405-0.855-0.75-1.342-1.031l0.208-1.445c0.031-0.222-0.119-0.451-0.336-0.509l-2.045-0.548
		c-0.216-0.058-0.461,0.064-0.545,0.272l-0.543,1.358c-0.559,0-1.121,0.073-1.674,0.221l-0.877-1.171
		c-0.133-0.18-0.402-0.234-0.596-0.122l-1.834,1.059c-0.194,0.112-0.281,0.372-0.193,0.577l0.576,1.346
		c-0.405,0.404-0.751,0.855-1.03,1.339l-1.447-0.207c-0.221-0.032-0.449,0.119-0.507,0.335l-0.549,2.046
		C16.806,30.5,16.929,30.745,17.137,30.829z M22.965,27.843c1.947-1.124,4.436-0.457,5.56,1.49s0.457,4.436-1.489,5.559
		c-1.947,1.124-4.436,0.457-5.56-1.49S21.019,28.966,22.965,27.843z"/>
</g>
</svg>
