<?xml version="1.0" encoding="utf-8"?>
<!-- Generator: Adobe Illustrator 16.0.0, SVG Export Plug-In . SVG Version: 6.00 Build 0)  -->
<!DOCTYPE svg PUBLIC "-//W3C//DTD SVG 1.1//EN" "http://www.w3.org/Graphics/SVG/1.1/DTD/svg11.dtd">
<svg version="1.1" id="Layer_1" xmlns="http://www.w3.org/2000/svg" xmlns:xlink="http://www.w3.org/1999/xlink" x="0px" y="0px"
	 width="50px" height="50px" viewBox="0 0 50 50" enable-background="new 0 0 50 50" xml:space="preserve">
<g>
	<path d="M38,9.25h-1.123c0.029-0.093,0.058-0.186,0.058-0.289C36.935,8.431,36.504,8,35.973,8s-0.961,0.431-0.961,0.961
		c0,0.103,0.028,0.196,0.059,0.289h-3.68c0.029-0.093,0.058-0.186,0.058-0.289C31.448,8.431,31.018,8,30.486,8
		c-0.53,0-0.961,0.431-0.961,0.961c0,0.103,0.029,0.196,0.059,0.289h-3.681c0.029-0.093,0.058-0.186,0.058-0.289
		C25.961,8.431,25.531,8,25,8s-0.961,0.431-0.961,0.961c0,0.103,0.028,0.196,0.058,0.289h-3.681
		c0.029-0.093,0.059-0.186,0.059-0.289C20.475,8.431,20.044,8,19.514,8c-0.531,0-0.962,0.431-0.962,0.961
		c0,0.103,0.028,0.196,0.058,0.289h-3.68c0.03-0.093,0.059-0.186,0.059-0.289c0-0.531-0.43-0.961-0.961-0.961
		s-0.962,0.431-0.962,0.961c0,0.103,0.028,0.196,0.058,0.289H12c-1.518,0-2.75,1.233-2.75,2.75v26c0,1.517,1.232,2.75,2.75,2.75
		h22.895l5.855-5.856V12C40.75,10.483,39.517,9.25,38,9.25z M39.25,34.273l-0.311,0.311h-2.355c-0.549,0-1.046,0.224-1.408,0.583
		v-7.772h-5.598l-0.174-0.303c1.709-0.092,2.343-0.817,2.343-1.451v-0.716h3.429v-8.116c0-0.453-0.371-0.825-0.824-0.825h-8.116
		v5.789c-0.531,0.335-0.978,0.667-1.241,0.873c-0.263-0.198-0.703-0.515-1.229-0.84v-5.822h-8.117c-0.453,0-0.824,0.372-0.824,0.825
		v8.116h3.429v0.716c0,0.634,0.634,1.359,2.343,1.451l-0.174,0.303l-5.598,0v8.116c0,0.453,0.371,0.825,0.824,0.825h8.116v-7.154
		l1.195-2.07h0.08l1.194,2.068v7.155h8.117c0.093,0,0.179-0.025,0.263-0.054c-0.016,0.1-0.03,0.199-0.03,0.302v2.356l-0.311,0.31H12
		c-0.689,0-1.25-0.561-1.25-1.25V13h28.5V34.273z M20.956,26.704c-1.753,0-2.296-0.629-2.296-1.064V22.1
		c0-0.435,0.485-1.334,2.296-1.064C22.686,21.295,25,23.164,25,23.164s2.303-1.945,4.044-2.127c1.768-0.185,2.296,0.629,2.296,1.064
		v3.54c0,0.435-0.543,1.064-2.296,1.064c-1.751,0-4.044,0-4.044,0S22.705,26.704,20.956,26.704z M24.49,27.111l-3.979,6.892
		l-0.396-2.29l-2.18,0.802l3.119-5.404H24.49z M28.945,27.111l3.119,5.404l-2.18-0.802l-0.396,2.29l-3.979-6.892H28.945z"/>
	<path d="M30.757,22.469c0-0.322-0.431-0.879-1.713-0.697c-0.8,0.114-1.997,0.715-2.876,1.391h2.876
		C30.308,23.164,30.757,22.789,30.757,22.469z"/>
	<path d="M19.243,22.469c0,0.32,0.449,0.694,1.713,0.694h2.874c-0.879-0.676-2.074-1.289-2.874-1.391
		C19.695,21.611,19.243,22.147,19.243,22.469z"/>
	<circle cx="25" cy="24.933" r="0.814"/>
</g>
</svg>
