<?xml version="1.0" encoding="utf-8"?>
<!-- Generator: Adobe Illustrator 16.0.0, SVG Export Plug-In . SVG Version: 6.00 Build 0)  -->
<!DOCTYPE svg PUBLIC "-//W3C//DTD SVG 1.1//EN" "http://www.w3.org/Graphics/SVG/1.1/DTD/svg11.dtd">
<svg version="1.1" id="Layer_1" xmlns="http://www.w3.org/2000/svg" xmlns:xlink="http://www.w3.org/1999/xlink" x="0px" y="0px"
	 width="50px" height="50px" viewBox="0 0 50 50" enable-background="new 0 0 50 50" xml:space="preserve">
<g>
	<path d="M38.25,10.25h-1.123c0.029-0.092,0.058-0.186,0.058-0.288c0-0.53-0.431-0.962-0.962-0.962s-0.961,0.432-0.961,0.962
		c0,0.103,0.028,0.196,0.059,0.288h-3.68c0.029-0.092,0.058-0.186,0.058-0.288c0-0.53-0.431-0.962-0.962-0.962
		c-0.53,0-0.961,0.432-0.961,0.962c0,0.103,0.029,0.196,0.059,0.288h-3.681c0.029-0.092,0.058-0.186,0.058-0.288
		c0-0.53-0.43-0.962-0.961-0.962s-0.961,0.432-0.961,0.962c0,0.103,0.028,0.196,0.058,0.288h-3.681
		c0.029-0.092,0.059-0.186,0.059-0.288c0-0.53-0.431-0.962-0.961-0.962c-0.531,0-0.962,0.432-0.962,0.962
		c0,0.103,0.028,0.196,0.058,0.288h-3.68c0.03-0.092,0.059-0.186,0.059-0.288c0-0.53-0.43-0.962-0.961-0.962
		s-0.962,0.432-0.962,0.962c0,0.103,0.028,0.196,0.058,0.288H12.25c-1.518,0-2.75,1.234-2.75,2.75v26c0,1.518,1.232,2.75,2.75,2.75
		h22.895L41,35.895V13C41,11.484,39.767,10.25,38.25,10.25z M39.5,35.273l-0.311,0.311h-2.355c-1.101,0-2,0.9-2,2v2.356l-0.311,0.31
		H12.25C11.561,40.25,11,39.689,11,39V14h28.5V35.273z"/>
	<path d="M20.14,21.917v3.521c0,0.706,2.289,1.789,5.11,1.789s5.11-1.083,5.11-1.789v-3.521l-5.11,1.825L20.14,21.917z"/>
	<path d="M19.139,21.034v5.452c-0.176,0.104-0.298,0.286-0.298,0.504c0,0.33,0.266,0.596,0.595,0.596s0.598-0.266,0.598-0.596
		c0-0.218-0.124-0.4-0.3-0.504v-5.452H19.139z"/>
	<path d="M24.67,19.928c0.085-0.242,0.31-0.419,0.579-0.419c0.344,0,0.621,0.279,0.621,0.623c0,0.342-0.277,0.62-0.621,0.62
		c-0.197,0-0.362-0.097-0.478-0.238l-4.746,0.73l5.225,1.865l8.34-2.978l-8.34-2.979l-8.34,2.979l1.937,0.691L24.67,19.928z"/>
	<polygon points="38.734,27.617 32.958,27.617 25.25,33.395 17.542,27.617 11.766,27.617 25.25,37.487 	"/>
</g>
</svg>
