<?xml version="1.0" encoding="utf-8"?>
<!-- Generator: Adobe Illustrator 16.0.0, SVG Export Plug-In . SVG Version: 6.00 Build 0)  -->
<!DOCTYPE svg PUBLIC "-//W3C//DTD SVG 1.1//EN" "http://www.w3.org/Graphics/SVG/1.1/DTD/svg11.dtd">
<svg version="1.1" id="Layer_1" xmlns="http://www.w3.org/2000/svg" xmlns:xlink="http://www.w3.org/1999/xlink" x="0px" y="0px"
	 width="50px" height="50px" viewBox="0 0 50 50" enable-background="new 0 0 50 50" xml:space="preserve">
<g>
	<path d="M38.25,10.25h-1.123c0.029-0.092,0.058-0.186,0.058-0.288c0-0.53-0.431-0.962-0.962-0.962s-0.961,0.432-0.961,0.962
		c0,0.103,0.028,0.196,0.059,0.288h-3.68c0.029-0.092,0.058-0.186,0.058-0.288c0-0.53-0.431-0.962-0.962-0.962
		c-0.53,0-0.961,0.432-0.961,0.962c0,0.103,0.029,0.196,0.059,0.288h-3.681c0.029-0.092,0.058-0.186,0.058-0.288
		c0-0.53-0.43-0.962-0.961-0.962s-0.961,0.432-0.961,0.962c0,0.103,0.028,0.196,0.058,0.288h-3.681
		c0.029-0.092,0.059-0.186,0.059-0.288c0-0.53-0.431-0.962-0.961-0.962c-0.531,0-0.962,0.432-0.962,0.962
		c0,0.103,0.028,0.196,0.058,0.288h-3.68c0.03-0.092,0.059-0.186,0.059-0.288c0-0.53-0.43-0.962-0.961-0.962
		s-0.962,0.432-0.962,0.962c0,0.103,0.028,0.196,0.058,0.288H12.25c-1.518,0-2.75,1.234-2.75,2.75v26c0,1.518,1.232,2.75,2.75,2.75
		h22.895L41,35.895V13C41,11.484,39.767,10.25,38.25,10.25z M39.5,35.273l-0.311,0.311h-2.355c-1.101,0-2,0.9-2,2v2.356l-0.311,0.31
		H12.25C11.561,40.25,11,39.689,11,39V14h28.5V35.273z"/>
	<path d="M26.726,27.128l6.095-6.095c0.722,0.197,1.525,0.023,2.094-0.544c0.841-0.843,0.84-2.207,0-3.047
		c-0.841-0.843-2.207-0.843-3.048,0c-0.566,0.567-0.742,1.369-0.544,2.092l-6.094,6.095l0.14,0.141l1.217,1.219L26.726,27.128z"/>
	<path d="M20.924,30.211c-0.302-0.771-0.144-1.684,0.48-2.307c0.625-0.626,1.536-0.784,2.309-0.481l1.654-1.653
		c-1.516-1.516-3.833-1.651-5.179-0.306c-0.441,0.442-0.708,0.992-0.834,1.582c-1.578-0.355-3.175-0.01-4.274,1.089
		c-1.85,1.85-1.579,5.123,0.609,7.311L20.924,30.211z"/>
	<path d="M24.452,30.949c-0.624,0.625-1.536,0.783-2.309,0.482l-5.234,5.232c2.188,2.188,5.461,2.461,7.312,0.61
		c1.099-1.098,1.444-2.698,1.09-4.273c0.588-0.126,1.139-0.393,1.581-0.835c1.346-1.346,1.209-3.664-0.306-5.178l-1.653,1.652
		C25.234,29.415,25.075,30.326,24.452,30.949z"/>
	<circle cx="32.259" cy="16.265" r="0.555"/>
	<circle cx="30.69" cy="17.834" r="0.554"/>
	<circle cx="36.091" cy="20.097" r="0.555"/>
	<circle cx="34.522" cy="21.666" r="0.555"/>
	<path d="M17.61,20.664c0.515,0.068,0.977-0.21,1.032-0.621l0.275-2.066l2.432,0.324l-0.189,1.415
		c-0.125-0.076-0.27-0.133-0.433-0.153c-0.514-0.068-0.977,0.209-1.031,0.621c-0.055,0.411,0.319,0.801,0.833,0.869
		c0.514,0.069,0.976-0.209,1.031-0.621l0.421-3.161l-3.404-0.453l-0.334,2.511c-0.125-0.076-0.271-0.134-0.433-0.155
		c-0.515-0.068-0.977,0.21-1.031,0.622S17.095,20.596,17.61,20.664z M18.998,17.369l2.431,0.324l-0.048,0.363l-2.431-0.324
		L18.998,17.369z"/>
	<path d="M25.516,21.338c-0.247-0.08-0.499,0.017-0.562,0.214c-0.063,0.198,0.085,0.422,0.332,0.501
		c0.248,0.08,0.5-0.017,0.563-0.214l0.487-1.518l-1.635-0.524l-0.387,1.205c-0.055-0.049-0.122-0.089-0.2-0.114
		c-0.247-0.079-0.499,0.017-0.563,0.215c-0.063,0.197,0.085,0.423,0.333,0.501c0.247,0.079,0.499-0.017,0.562-0.215l0.319-0.992
		l1.168,0.375l-0.218,0.68C25.661,21.403,25.594,21.362,25.516,21.338z M24.804,20.279l0.056-0.175l1.168,0.375l-0.056,0.176
		L24.804,20.279z"/>
	<path d="M23.24,18.973c0.108,0.254,0.454,0.352,0.772,0.215c0.318-0.135,0.488-0.451,0.379-0.705l-0.542-1.278l1.503-0.639
		l0.372,0.875c-0.097-0.001-0.2,0.017-0.299,0.06c-0.319,0.134-0.489,0.451-0.381,0.705c0.109,0.255,0.454,0.352,0.771,0.216
		c0.32-0.135,0.489-0.452,0.382-0.706l-0.831-1.953l-2.104,0.895l0.66,1.552c-0.098-0.002-0.2,0.016-0.3,0.059
		C23.302,18.401,23.131,18.717,23.24,18.973z M23.688,16.829l1.504-0.64l0.097,0.227l-1.504,0.638L23.688,16.829z"/>
</g>
</svg>
