<?xml version="1.0" encoding="utf-8"?>
<!-- Generator: Adobe Illustrator 16.0.0, SVG Export Plug-In . SVG Version: 6.00 Build 0)  -->
<!DOCTYPE svg PUBLIC "-//W3C//DTD SVG 1.1//EN" "http://www.w3.org/Graphics/SVG/1.1/DTD/svg11.dtd">
<svg version="1.1" id="Layer_1" xmlns="http://www.w3.org/2000/svg" xmlns:xlink="http://www.w3.org/1999/xlink" x="0px" y="0px"
	 width="50px" height="50px" viewBox="0 0 50 50" enable-background="new 0 0 50 50" xml:space="preserve">
<g>
	<path d="M37,10.724h-1.098V9.526c0-1.516-1.197-2.75-2.67-2.75s-2.67,1.234-2.67,2.75v1.197h-2.74V9.526
		c0-1.516-1.197-2.75-2.67-2.75s-2.67,1.234-2.67,2.75v1.197h-2.74V9.526c0-1.516-1.197-2.75-2.67-2.75s-2.67,1.234-2.67,2.75v1.197
		H13c-2.343,0-4.25,1.907-4.25,4.25v24c0,2.343,1.907,4.25,4.25,4.25h24c2.344,0,4.25-1.907,4.25-4.25v-24
		C41.25,12.63,39.344,10.724,37,10.724z M32.063,9.526c0-0.689,0.525-1.25,1.17-1.25s1.17,0.561,1.17,1.25v4.895
		c0,0.689-0.525,1.25-1.17,1.25s-1.17-0.561-1.17-1.25V9.526z M23.982,9.526c0-0.689,0.525-1.25,1.17-1.25s1.17,0.561,1.17,1.25
		v4.895c0,0.689-0.525,1.25-1.17,1.25s-1.17-0.561-1.17-1.25V9.526z M15.902,9.526c0-0.689,0.525-1.25,1.17-1.25
		s1.17,0.561,1.17,1.25v4.895c0,0.689-0.525,1.25-1.17,1.25s-1.17-0.561-1.17-1.25V9.526z M38.75,38.974
		c0,0.965-0.785,1.75-1.75,1.75H13c-0.965,0-1.75-0.785-1.75-1.75v-22h27.5V38.974z"/>
	<path d="M19.421,36.71l2.213,1.277c0.589,0.341,1.333,0.404,2.095,0.18c0.992-0.292,1.887-1.019,2.337-1.895l0.828-1.617
		c0.21-0.417,0.021-0.897-0.162-1.361c-0.191-0.483-0.371-0.94-0.16-1.306c0.219-0.38,0.843-0.545,1.343-0.677
		c0.464-0.123,0.797-0.211,0.897-0.488c0.508-1.43-0.061-3.06-1.317-3.86l2.741-5.489l0.584,0.337
		c0.095,0.055,0.129,0.179,0.073,0.275c-0.055,0.096-0.051,0.202,0.008,0.235c0.06,0.035,0.153-0.016,0.209-0.111l0.197-0.344
		c0.056-0.095,0.022-0.219-0.073-0.274l-0.821-0.474l0.129-0.258l0.837,0.484c0.095,0.055,0.219,0.021,0.273-0.074l0.198-0.343
		c0.057-0.096,0.053-0.202-0.007-0.237c-0.059-0.034-0.153,0.017-0.208,0.112c-0.056,0.095-0.18,0.129-0.275,0.073l-0.642-0.37
		l0.062-0.12c0.231-0.017,0.453-0.131,0.578-0.348c0.2-0.346,0.082-0.79-0.265-0.989c-0.347-0.2-0.789-0.081-0.989,0.266
		c-0.125,0.216-0.114,0.464-0.015,0.672L30.015,20.1l-0.639-0.37c-0.097-0.055-0.128-0.179-0.073-0.274s0.052-0.202-0.008-0.236
		c-0.06-0.034-0.153,0.016-0.209,0.111l-0.199,0.343c-0.055,0.096-0.021,0.22,0.074,0.274l0.834,0.482l-0.158,0.241l-0.818-0.473
		c-0.097-0.055-0.221-0.022-0.275,0.073l-0.198,0.344c-0.056,0.096-0.052,0.202,0.008,0.236c0.06,0.035,0.152-0.016,0.208-0.112
		c0.055-0.095,0.179-0.128,0.274-0.073l0.583,0.336l-3.384,5.119c-1.321-0.687-3.016-0.365-3.998,0.788
		c-0.288,0.312-0.145,0.776,0.008,1.267c0.137,0.437,0.29,0.932,0.103,1.257c-0.201,0.347-0.709,0.414-1.201,0.479
		c-0.537,0.07-1.093,0.144-1.293,0.62l-0.962,1.482c-0.535,0.828-0.717,1.965-0.475,2.97C18.403,35.756,18.831,36.369,19.421,36.71z
		 M19.166,32.323l0.986-1.526c0.097-0.22,0.488-0.271,0.866-0.321c0.569-0.075,1.278-0.168,1.62-0.758
		c0.311-0.54,0.109-1.189-0.054-1.71c-0.074-0.24-0.198-0.642-0.125-0.721c0.808-0.948,2.176-1.22,3.258-0.688l-1.982,3l1.898,1.096
		l1.605-3.218c1.003,0.671,1.451,1.993,1.038,3.156c-0.031,0.004-0.308,0.077-0.51,0.13c-0.57,0.15-1.352,0.357-1.689,0.942
		c-0.347,0.603-0.086,1.266,0.125,1.798c0.144,0.364,0.278,0.707,0.184,0.894l-0.828,1.616c-0.375,0.732-1.156,1.363-1.99,1.609
		c-0.433,0.127-1.069,0.209-1.651-0.127l-0.564-0.325l2.027-2.982l-1.543-0.891l-1.569,3.246l-0.563-0.326
		c-0.582-0.335-0.83-0.929-0.937-1.366C18.563,34.006,18.722,33.014,19.166,32.323z"/>
</g>
</svg>
