<?xml version="1.0" encoding="utf-8"?>
<!-- Generator: Adobe Illustrator 16.0.0, SVG Export Plug-In . SVG Version: 6.00 Build 0)  -->
<!DOCTYPE svg PUBLIC "-//W3C//DTD SVG 1.1//EN" "http://www.w3.org/Graphics/SVG/1.1/DTD/svg11.dtd">
<svg version="1.1" id="Layer_1" xmlns="http://www.w3.org/2000/svg" xmlns:xlink="http://www.w3.org/1999/xlink" x="0px" y="0px"
	 width="50px" height="50px" viewBox="0 0 50 50" enable-background="new 0 0 50 50" xml:space="preserve">
<g>
	<path d="M37.269,14.215h-3.346l-8.035-6.837c0.045-0.111,0.072-0.233,0.072-0.36c0-0.529-0.43-0.96-0.96-0.96
		c-0.531,0-0.961,0.431-0.961,0.96c0,0.127,0.027,0.249,0.072,0.36l-8.034,6.837h-3.346c-1.432,0-2.595,1.164-2.595,2.595v24.538
		c0,1.432,1.163,2.595,2.595,2.595h21.606l5.525-5.525V16.81C39.863,15.379,38.698,14.215,37.269,14.215z M34.732,17.538
		c0,0.771-0.626,1.396-1.396,1.396c-0.771,0-1.396-0.625-1.396-1.396s0.625-1.396,1.396-1.396
		C34.106,16.142,34.732,16.768,34.732,17.538z M24.514,7.825C24.658,7.913,24.818,7.979,25,7.979s0.342-0.065,0.488-0.153
		l7.508,6.39H17.004L24.514,7.825z M30.564,17.538c0,0.771-0.625,1.396-1.398,1.396c-0.77,0-1.394-0.625-1.394-1.396
		s0.624-1.396,1.394-1.396C29.939,16.142,30.564,16.768,30.564,17.538z M26.396,17.538c0,0.771-0.626,1.396-1.396,1.396
		c-0.771,0-1.396-0.625-1.396-1.396s0.626-1.396,1.396-1.396C25.77,16.142,26.396,16.768,26.396,17.538z M22.227,17.538
		c0,0.771-0.623,1.396-1.393,1.396c-0.774,0-1.399-0.625-1.399-1.396s0.625-1.396,1.399-1.396
		C21.604,16.142,22.227,16.768,22.227,17.538z M16.664,16.142c0.771,0,1.396,0.626,1.396,1.396s-0.625,1.396-1.396,1.396
		c-0.771,0-1.396-0.625-1.396-1.396S15.894,16.142,16.664,16.142z M38.448,37.831l-0.293,0.292h-2.097v-2.878h-4.423v4.423h2.444
		c-0.021,0.111-0.035,0.225-0.035,0.342v2.224l-0.293,0.293H12.731c-0.651,0-1.18-0.529-1.18-1.18V20.585h26.896V37.831z"/>
	<rect x="19.841" y="23.451" width="4.423" height="4.423"/>
	<rect x="25.739" y="23.451" width="4.421" height="4.423"/>
	<rect x="31.636" y="23.451" width="4.423" height="4.423"/>
	<rect x="13.942" y="29.348" width="4.424" height="4.423"/>
	<rect x="19.841" y="29.348" width="4.423" height="4.423"/>
	<rect x="25.739" y="29.348" width="4.421" height="4.423"/>
	<rect x="31.636" y="29.348" width="4.423" height="4.423"/>
	<rect x="13.942" y="35.245" width="4.424" height="4.423"/>
	<rect x="19.841" y="35.245" width="4.423" height="4.423"/>
	<rect x="25.739" y="35.245" width="4.421" height="4.423"/>
</g>
</svg>
