<?xml version="1.0" encoding="utf-8"?>
<!-- Generator: Adobe Illustrator 16.0.0, SVG Export Plug-In . SVG Version: 6.00 Build 0)  -->
<!DOCTYPE svg PUBLIC "-//W3C//DTD SVG 1.1//EN" "http://www.w3.org/Graphics/SVG/1.1/DTD/svg11.dtd">
<svg version="1.1" id="Layer_1" xmlns="http://www.w3.org/2000/svg" xmlns:xlink="http://www.w3.org/1999/xlink" x="0px" y="0px"
	 width="50px" height="50px" viewBox="0 0 50 50" enable-background="new 0 0 50 50" xml:space="preserve">
<g>
	<path d="M37,10.724h-1.098V9.526c0-1.516-1.197-2.75-2.67-2.75s-2.67,1.234-2.67,2.75v1.197h-2.74V9.526
		c0-1.516-1.197-2.75-2.67-2.75s-2.67,1.234-2.67,2.75v1.197h-2.74V9.526c0-1.516-1.197-2.75-2.67-2.75s-2.67,1.234-2.67,2.75v1.197
		H13c-2.343,0-4.25,1.907-4.25,4.25v24c0,2.343,1.907,4.25,4.25,4.25h24c2.344,0,4.25-1.907,4.25-4.25v-24
		C41.25,12.63,39.344,10.724,37,10.724z M32.063,9.526c0-0.689,0.525-1.25,1.17-1.25s1.17,0.561,1.17,1.25v4.895
		c0,0.689-0.525,1.25-1.17,1.25s-1.17-0.561-1.17-1.25V9.526z M23.982,9.526c0-0.689,0.525-1.25,1.17-1.25s1.17,0.561,1.17,1.25
		v4.895c0,0.689-0.525,1.25-1.17,1.25s-1.17-0.561-1.17-1.25V9.526z M15.902,9.526c0-0.689,0.525-1.25,1.17-1.25
		s1.17,0.561,1.17,1.25v4.895c0,0.689-0.525,1.25-1.17,1.25s-1.17-0.561-1.17-1.25V9.526z M38.75,38.974
		c0,0.965-0.785,1.75-1.75,1.75H13c-0.965,0-1.75-0.785-1.75-1.75v-22h27.5V38.974z"/>
	<path d="M25,36.79c4.418,0,8-3.583,8-8s-3.582-8-8-8c-4.419,0-8,3.583-8,8S20.581,36.79,25,36.79z M28.232,26
		c0.829,0,1.5,0.672,1.5,1.5s-0.671,1.5-1.5,1.5c-0.828,0-1.5-0.672-1.5-1.5S27.404,26,28.232,26z M28.5,31.198
		c0,1.44-1.567,3.609-3.5,3.609c-1.935,0-3.5-2.169-3.5-3.609s1.565,0.391,3.5,0.391C26.933,31.589,28.5,29.758,28.5,31.198z
		 M21.767,26c0.829,0,1.5,0.672,1.5,1.5s-0.671,1.5-1.5,1.5c-0.828,0-1.5-0.672-1.5-1.5S20.938,26,21.767,26z"/>
</g>
</svg>
