<?xml version="1.0" encoding="utf-8"?>
<!-- Generator: Adobe Illustrator 16.0.0, SVG Export Plug-In . SVG Version: 6.00 Build 0)  -->
<!DOCTYPE svg PUBLIC "-//W3C//DTD SVG 1.1//EN" "http://www.w3.org/Graphics/SVG/1.1/DTD/svg11.dtd">
<svg version="1.1" id="Layer_1" xmlns="http://www.w3.org/2000/svg" xmlns:xlink="http://www.w3.org/1999/xlink" x="0px" y="0px"
	 width="50px" height="50px" viewBox="0 0 50 50" enable-background="new 0 0 50 50" xml:space="preserve">
<g>
	<path d="M37.269,14.215h-3.346l-8.035-6.837c0.045-0.111,0.072-0.233,0.072-0.36c0-0.529-0.43-0.96-0.96-0.96
		c-0.531,0-0.961,0.431-0.961,0.96c0,0.127,0.027,0.249,0.072,0.36l-8.034,6.837h-3.346c-1.432,0-2.595,1.164-2.595,2.595v24.538
		c0,1.432,1.163,2.595,2.595,2.595h21.606l5.525-5.525V16.81C39.863,15.379,38.698,14.215,37.269,14.215z M34.732,17.538
		c0,0.771-0.626,1.396-1.396,1.396c-0.771,0-1.396-0.625-1.396-1.396s0.625-1.396,1.396-1.396
		C34.106,16.142,34.732,16.768,34.732,17.538z M24.514,7.825C24.658,7.913,24.818,7.979,25,7.979s0.342-0.065,0.488-0.153
		l7.508,6.39H17.004L24.514,7.825z M30.564,17.538c0,0.771-0.625,1.396-1.398,1.396c-0.77,0-1.394-0.625-1.394-1.396
		s0.624-1.396,1.394-1.396C29.939,16.142,30.564,16.768,30.564,17.538z M26.396,17.538c0,0.771-0.626,1.396-1.396,1.396
		c-0.771,0-1.396-0.625-1.396-1.396s0.626-1.396,1.396-1.396C25.77,16.142,26.396,16.768,26.396,17.538z M22.227,17.538
		c0,0.771-0.623,1.396-1.393,1.396c-0.774,0-1.399-0.625-1.399-1.396s0.625-1.396,1.399-1.396
		C21.604,16.142,22.227,16.768,22.227,17.538z M16.664,16.142c0.771,0,1.396,0.626,1.396,1.396s-0.625,1.396-1.396,1.396
		c-0.771,0-1.396-0.625-1.396-1.396S15.894,16.142,16.664,16.142z M38.448,37.831l-0.293,0.292h-2.224
		c-1.038,0-1.887,0.851-1.887,1.888v2.224l-0.293,0.293H12.731c-0.651,0-1.18-0.529-1.18-1.18V20.585h26.896V37.831z"/>
	<path d="M17.734,36.964c0.073,0.127,0.208,0.199,0.346,0.199c0.016,0,0.03-0.01,0.046-0.013c0.015,0.102,0.022,0.202,0.05,0.304
		c0.403,1.507,1.952,2.402,3.461,1.998c1.507-0.402,0.045-5.862-1.464-5.458c-1.029,0.276-1.76,1.092-2,2.059
		c-0.491-1.023-0.764-2.143-0.764-3.288c0-1.146,0.262-2.228,0.718-3.203c0.258-0.016,0.505-0.152,0.644-0.392
		c1.283-2.218,3.671-3.596,6.229-3.596c2.558,0,4.945,1.377,6.229,3.594c0.138,0.239,0.384,0.364,0.639,0.382
		c0.46,0.977,0.724,2.065,0.724,3.214c0,1.145-0.273,2.266-0.765,3.289c-0.24-0.967-0.971-1.784-2.001-2.06
		c-1.508-0.404-2.971,5.056-1.463,5.458c1.507,0.404,3.057-0.491,3.461-1.998c0.027-0.099,0.033-0.199,0.049-0.297
		c0.152,0.019,0.312-0.053,0.395-0.195c0.734-1.27,1.123-2.721,1.123-4.196c0-1.276-0.295-2.482-0.808-3.566
		c0.159-0.245,0.185-0.562,0.029-0.831c-1.568-2.709-4.485-4.392-7.611-4.392c-3.129,0-6.046,1.683-7.613,4.393
		c-0.154,0.269-0.129,0.587,0.03,0.831c-0.514,1.083-0.808,2.289-0.808,3.565C16.609,34.242,16.999,35.693,17.734,36.964z"/>
</g>
</svg>
