<?xml version="1.0" encoding="utf-8"?>
<!-- Generator: Adobe Illustrator 16.0.0, SVG Export Plug-In . SVG Version: 6.00 Build 0)  -->
<!DOCTYPE svg PUBLIC "-//W3C//DTD SVG 1.1//EN" "http://www.w3.org/Graphics/SVG/1.1/DTD/svg11.dtd">
<svg version="1.1" id="Layer_1" xmlns="http://www.w3.org/2000/svg" xmlns:xlink="http://www.w3.org/1999/xlink" x="0px" y="0px"
	 width="50px" height="50px" viewBox="0 0 50 50" enable-background="new 0 0 50 50" xml:space="preserve">
<g>
	<path d="M38.25,10.25h-1.123c0.029-0.092,0.058-0.186,0.058-0.288c0-0.53-0.431-0.962-0.962-0.962s-0.961,0.432-0.961,0.962
		c0,0.103,0.028,0.196,0.059,0.288h-3.68c0.029-0.092,0.058-0.186,0.058-0.288c0-0.53-0.431-0.962-0.962-0.962
		c-0.53,0-0.961,0.432-0.961,0.962c0,0.103,0.029,0.196,0.059,0.288h-3.681c0.029-0.092,0.058-0.186,0.058-0.288
		c0-0.53-0.43-0.962-0.961-0.962s-0.961,0.432-0.961,0.962c0,0.103,0.028,0.196,0.058,0.288h-3.681
		c0.029-0.092,0.059-0.186,0.059-0.288c0-0.53-0.431-0.962-0.961-0.962c-0.531,0-0.962,0.432-0.962,0.962
		c0,0.103,0.028,0.196,0.058,0.288h-3.68c0.03-0.092,0.059-0.186,0.059-0.288c0-0.53-0.43-0.962-0.961-0.962
		s-0.962,0.432-0.962,0.962c0,0.103,0.028,0.196,0.058,0.288H12.25c-1.518,0-2.75,1.234-2.75,2.75v26c0,1.518,1.232,2.75,2.75,2.75
		h22.895L41,35.895V13C41,11.484,39.767,10.25,38.25,10.25z M39.5,35.273l-0.311,0.311h-2.355c-1.101,0-2,0.9-2,2v2.356l-0.311,0.31
		H12.25C11.561,40.25,11,39.689,11,39V14h28.5V35.273z"/>
	<path d="M25.25,21.005c4.748,0,5.74,1.859,5.74,2.871h5.741c0-3.817-4.936-6.697-11.481-6.697s-11.481,2.88-11.481,6.697h5.741
		C19.51,22.864,20.502,21.005,25.25,21.005z"/>
	<rect x="13.769" y="24.355" width="5.741" height="2.958"/>
	<rect x="30.99" y="24.355" width="5.741" height="2.958"/>
	<circle cx="25.25" cy="32.009" r="2.392"/>
	<path d="M28.12,22.299c-0.546-0.156-1.236-0.271-2.093-0.314v3.984h-1.555v-3.984c-0.856,0.044-1.547,0.158-2.093,0.314v4.447
		l-6.696,3.827v6.697h19.133v-6.697l-6.696-3.827V22.299z M29.076,32.008c0,2.114-1.712,3.827-3.826,3.827s-3.826-1.713-3.826-3.827
		c0-2.113,1.712-3.826,3.826-3.826S29.076,29.895,29.076,32.008z"/>
</g>
</svg>
