<?xml version="1.0" encoding="utf-8"?>
<!-- Generator: Adobe Illustrator 16.0.0, SVG Export Plug-In . SVG Version: 6.00 Build 0)  -->
<!DOCTYPE svg PUBLIC "-//W3C//DTD SVG 1.1//EN" "http://www.w3.org/Graphics/SVG/1.1/DTD/svg11.dtd">
<svg version="1.1" id="Layer_1" xmlns="http://www.w3.org/2000/svg" xmlns:xlink="http://www.w3.org/1999/xlink" x="0px" y="0px"
	 width="50px" height="50px" viewBox="0 0 50 50" enable-background="new 0 0 50 50" xml:space="preserve">
<g>
	<path d="M38,9.25h-1.123c0.029-0.093,0.058-0.186,0.058-0.289c0-0.53-0.431-0.961-0.962-0.961s-0.961,0.431-0.961,0.961
		c0,0.104,0.028,0.196,0.059,0.289h-3.68c0.029-0.093,0.058-0.186,0.058-0.289c0-0.53-0.431-0.961-0.962-0.961
		c-0.53,0-0.961,0.431-0.961,0.961c0,0.104,0.029,0.196,0.059,0.289h-3.681c0.029-0.093,0.058-0.186,0.058-0.289
		C25.961,8.431,25.531,8,25,8s-0.961,0.431-0.961,0.961c0,0.104,0.028,0.196,0.058,0.289h-3.681
		c0.029-0.093,0.059-0.186,0.059-0.289c0-0.53-0.431-0.961-0.961-0.961c-0.531,0-0.962,0.431-0.962,0.961
		c0,0.104,0.028,0.196,0.058,0.289h-3.68c0.03-0.093,0.059-0.186,0.059-0.289c0-0.53-0.43-0.961-0.961-0.961
		s-0.962,0.431-0.962,0.961c0,0.104,0.028,0.196,0.058,0.289H12c-1.518,0-2.75,1.233-2.75,2.75v26c0,1.517,1.232,2.75,2.75,2.75
		h22.895l5.855-5.855V12C40.75,10.483,39.517,9.25,38,9.25z M32.516,12.258l0.365,1.201c0.041,0.146,0.091,0.326,0.121,0.456h0.015
		c0.035-0.13,0.075-0.315,0.11-0.456l0.3-1.201h0.815l-0.57,1.611c-0.35,0.972-0.586,1.361-0.86,1.607
		c-0.266,0.23-0.546,0.311-0.735,0.335l-0.16-0.646c0.095-0.016,0.215-0.061,0.33-0.13c0.115-0.061,0.24-0.181,0.314-0.306
		c0.025-0.035,0.041-0.075,0.041-0.109c0-0.025-0.006-0.065-0.035-0.126l-0.896-2.237H32.516z M30.467,12.258l0.024,0.451h0.021
		c0.125-0.355,0.425-0.506,0.66-0.506c0.07,0,0.105,0,0.16,0.01v0.716c-0.055-0.01-0.12-0.021-0.205-0.021
		c-0.28,0-0.471,0.15-0.521,0.386c-0.01,0.05-0.015,0.11-0.015,0.171v1.24H29.83v-1.641c0-0.361-0.01-0.596-0.02-0.807H30.467z
		 M27.896,12.724c-0.25,0-0.516,0.085-0.676,0.185l-0.141-0.49c0.171-0.095,0.506-0.215,0.951-0.215c0.816,0,1.076,0.48,1.076,1.057
		v0.85c0,0.236,0.01,0.461,0.035,0.596h-0.686l-0.045-0.244h-0.016c-0.16,0.194-0.41,0.3-0.7,0.3c-0.495,0-0.791-0.36-0.791-0.751
		c0-0.636,0.571-0.941,1.437-0.936v-0.035C28.342,12.908,28.271,12.724,27.896,12.724z M24.016,12.258h0.766v1.316
		c0,0.355,0.115,0.57,0.381,0.57c0.21,0,0.33-0.145,0.38-0.265c0.021-0.045,0.024-0.105,0.024-0.165v-1.457h0.767v1.662
		c0,0.32,0.01,0.58,0.02,0.785h-0.66l-0.035-0.345h-0.015c-0.096,0.149-0.326,0.4-0.766,0.4c-0.496,0-0.861-0.311-0.861-1.066
		V12.258z M21.611,12.258l0.035,0.336h0.015c0.101-0.155,0.351-0.391,0.756-0.391c0.5,0,0.876,0.33,0.876,1.051v1.451h-0.762V13.35
		c0-0.315-0.109-0.531-0.385-0.531c-0.21,0-0.336,0.146-0.385,0.285c-0.021,0.045-0.031,0.121-0.031,0.19v1.411h-0.76v-1.666
		c0-0.306-0.01-0.565-0.021-0.781H21.611z M19.036,12.724c-0.251,0-0.516,0.085-0.676,0.185l-0.14-0.49
		c0.17-0.095,0.505-0.215,0.95-0.215c0.815,0,1.076,0.48,1.076,1.057v0.85c0,0.236,0.011,0.461,0.035,0.596h-0.686l-0.045-0.244
		h-0.015c-0.16,0.194-0.411,0.3-0.701,0.3c-0.496,0-0.791-0.36-0.791-0.751c0-0.636,0.57-0.941,1.437-0.936v-0.035
		C19.481,12.908,19.411,12.724,19.036,12.724z M15.824,14.064c0.105,0.035,0.24,0.061,0.391,0.061c0.32,0,0.521-0.145,0.521-0.671
		v-2.122h0.761v2.133c0,0.961-0.46,1.296-1.201,1.296c-0.175,0-0.405-0.03-0.555-0.08L15.824,14.064z M39.25,34.273l-0.311,0.311
		h-2.355c-1.101,0-2,0.899-2,2v2.355l-0.311,0.311H12c-0.689,0-1.25-0.561-1.25-1.25V17h28.5V34.273z"/>
	<path d="M18.796,13.935c0,0.195,0.13,0.29,0.3,0.29c0.19,0,0.346-0.125,0.396-0.279c0.011-0.041,0.015-0.086,0.015-0.131v-0.266
		C19.105,13.545,18.796,13.64,18.796,13.935z"/>
	<path d="M27.656,13.935c0,0.195,0.13,0.29,0.301,0.29c0.189,0,0.345-0.125,0.395-0.279c0.01-0.041,0.016-0.086,0.016-0.131v-0.266
		C27.967,13.545,27.656,13.64,27.656,13.935z"/>
	<path d="M24.401,32.402c-1.438,0-2.746-0.467-3.675-0.975l-0.665,2.591c0.841,0.488,2.281,0.887,3.765,0.953v2.103h2.17v-2.258
		c2.546-0.443,3.942-2.127,3.942-4.096c0-1.994-1.063-3.212-3.697-4.143c-1.884-0.709-2.658-1.174-2.658-1.904
		c0-0.621,0.463-1.24,1.904-1.24c1.593,0,2.61,0.509,3.188,0.753l0.642-2.502c-0.729-0.354-1.729-0.664-3.211-0.731v-1.948h-2.17
		v2.103c-2.37,0.465-3.741,1.994-3.741,3.942c0,2.149,1.615,3.256,3.986,4.052c1.638,0.554,2.344,1.086,2.344,1.928
		C26.525,31.915,25.664,32.402,24.401,32.402z"/>
</g>
</svg>
