<?xml version="1.0" encoding="utf-8"?>
<!-- Generator: Adobe Illustrator 16.0.0, SVG Export Plug-In . SVG Version: 6.00 Build 0)  -->
<!DOCTYPE svg PUBLIC "-//W3C//DTD SVG 1.1//EN" "http://www.w3.org/Graphics/SVG/1.1/DTD/svg11.dtd">
<svg version="1.1" id="Layer_1" xmlns="http://www.w3.org/2000/svg" xmlns:xlink="http://www.w3.org/1999/xlink" x="0px" y="0px"
	 width="50px" height="50px" viewBox="0 0 50 50" enable-background="new 0 0 50 50" xml:space="preserve">
<g>
	<path d="M37.032,10h-24c-1.65,0-3,1.35-3,3v24c0,1.65,1.35,3,3,3h24c1.65,0,3-1.35,3-3V13C40.032,11.35,38.682,10,37.032,10z
		 M39.032,14v10.5h-28V14H39.032z M11.032,36V25.5h28V36H11.032z"/>
	<path d="M15.553,21.279c0.956,0,1.407-0.536,1.407-1.486v-2.212h-1.181v2.377c0,0.29-0.12,0.44-0.3,0.44
		c-0.311,0-0.311-0.405-0.311-0.781h-1.051C14.021,20.699,14.512,21.279,15.553,21.279z"/>
	<path d="M17.441,20.468c0,0.545,0.44,0.791,0.936,0.791c0.39,0,0.691-0.08,0.986-0.355l0.05,0.28h1.076v-0.05
		c-0.135-0.11-0.14-0.185-0.14-0.335v-1.227c0-0.625-0.075-1.086-1.316-1.086c-1.036,0-1.432,0.325-1.432,0.881h1.001
		c0.025-0.225,0.22-0.255,0.365-0.255c0.11,0,0.341,0.025,0.341,0.215C19.309,19.818,17.441,19.277,17.441,20.468z M18.848,20.668
		c-0.205,0-0.33-0.09-0.33-0.22c0-0.34,0.45-0.26,0.791-0.425C19.333,20.383,19.213,20.668,18.848,20.668z"/>
	<path d="M21.933,19.848c0-0.335,0.085-0.541,0.405-0.541c0.295,0,0.365,0.23,0.365,0.491v1.386h1.041v-1.572
		c0-0.721-0.325-1.126-1.016-1.126c-0.396,0-0.651,0.17-0.886,0.485v-0.41h-0.951v2.623h1.041V19.848z"/>
	<path d="M25.167,21.259c0.43,0,0.686-0.1,0.946-0.46v0.385h0.966v-2.623h-1.041v1.261c0,0.405-0.095,0.63-0.395,0.63
		c-0.25,0-0.375-0.115-0.375-0.475v-1.417h-1.041v1.597C24.227,20.909,24.597,21.259,25.167,21.259z"/>
	<path d="M27.446,20.468c0,0.545,0.44,0.791,0.936,0.791c0.39,0,0.691-0.08,0.986-0.355l0.05,0.28h1.076v-0.05
		c-0.135-0.11-0.14-0.185-0.14-0.335v-1.227c0-0.625-0.075-1.086-1.316-1.086c-1.036,0-1.432,0.325-1.432,0.881h1.001
		c0.025-0.225,0.22-0.255,0.365-0.255c0.11,0,0.341,0.025,0.341,0.215C29.313,19.818,27.446,19.277,27.446,20.468z M28.853,20.668
		c-0.205,0-0.33-0.09-0.33-0.22c0-0.34,0.45-0.26,0.791-0.425C29.338,20.383,29.218,20.668,28.853,20.668z"/>
	<path d="M31.958,20.278c0-0.565,0.215-0.766,0.641-0.766c0.07,0,0.145,0.02,0.215,0.03v-1.041c-0.045-0.005-0.09-0.015-0.135-0.015
		c-0.405,0-0.661,0.195-0.806,0.605h-0.01v-0.53h-0.946v2.623h1.041V20.278z"/>
	<path d="M33.562,21.334c-0.07,0-0.14-0.005-0.215-0.005v0.726c0.08,0,0.271,0.021,0.46,0.021c0.926,0,1.036-0.255,1.311-1.066
		l0.841-2.447h-1.001l-0.455,1.617l-0.46-1.617h-1.046l0.861,2.387C33.962,21.239,33.887,21.334,33.562,21.334z"/>
	<path d="M19.468,29.5c0-1.311-1.095-1.823-2.263-1.823c-1.463,0-2.367,0.671-2.391,2.327h1.495c-0.008-0.544,0.176-1.08,0.815-1.08
		c0.336,0,0.68,0.208,0.68,0.568c0,0.936-1.479,1.319-2.422,2.303c-0.448,0.464-0.704,0.943-0.672,1.599h4.741v-1.359h-2.614
		c0.296-0.208,0.728-0.424,1.135-0.68C18.708,30.9,19.468,30.492,19.468,29.5z"/>
	<path d="M22.269,27.678c-1.287,0-2.438,0.775-2.446,2.846c0,1.615,0.624,2.991,2.446,2.991c1.823,0,2.439-1.392,2.439-2.999
		C24.708,28.645,23.732,27.678,22.269,27.678z M22.269,32.267c-0.631,0-0.783-0.664-0.783-1.647c0-0.536,0.016-1.695,0.768-1.695
		c0.823,0,0.792,1.087,0.792,1.679C23.045,31.547,22.861,32.267,22.269,32.267z"/>
	<path d="M25.718,28.973v1.135h1.303v3.286h1.663v-5.717h-1.263C27.237,28.653,26.598,28.957,25.718,28.973z"/>
	<path d="M34.652,27.758h-1.551l-2.631,3.126v1.335h2.599v1.175h1.583v-1.175h0.704V30.98h-0.704V27.758z M33.069,30.98h-1.343
		l1.343-1.719V30.98z"/>
</g>
</svg>
