<?xml version="1.0" encoding="utf-8"?>
<!-- Generator: Adobe Illustrator 16.0.0, SVG Export Plug-In . SVG Version: 6.00 Build 0)  -->
<!DOCTYPE svg PUBLIC "-//W3C//DTD SVG 1.1//EN" "http://www.w3.org/Graphics/SVG/1.1/DTD/svg11.dtd">
<svg version="1.1" id="Layer_1" xmlns="http://www.w3.org/2000/svg" xmlns:xlink="http://www.w3.org/1999/xlink" x="0px" y="0px"
	 width="50px" height="50px" viewBox="0 0 50 50" enable-background="new 0 0 50 50" xml:space="preserve">
<path d="M40,35.833h-3.416c-1.101,0-2,0.9-2,2v3.417L40,35.833L40,35.833z"/>
<g>
	<path d="M38,10.5h-1.124c0.03-0.093,0.059-0.186,0.059-0.289c0-0.531-0.431-0.961-0.962-0.961s-0.961,0.431-0.961,0.961
		c0,0.103,0.028,0.196,0.059,0.289H31.39c0.03-0.093,0.059-0.186,0.059-0.289c0-0.531-0.431-0.961-0.962-0.961
		c-0.53,0-0.961,0.431-0.961,0.961c0,0.103,0.028,0.196,0.059,0.289h-3.682c0.03-0.093,0.059-0.186,0.059-0.289
		c0-0.531-0.43-0.961-0.961-0.961s-0.961,0.431-0.961,0.961c0,0.103,0.028,0.196,0.059,0.289h-3.682
		c0.03-0.093,0.059-0.186,0.059-0.289c0-0.531-0.431-0.961-0.961-0.961c-0.531,0-0.962,0.431-0.962,0.961
		c0,0.103,0.028,0.196,0.059,0.289H14.93c0.03-0.093,0.059-0.186,0.059-0.289c0-0.531-0.43-0.961-0.961-0.961
		s-0.962,0.431-0.962,0.961c0,0.103,0.028,0.196,0.059,0.289H12c-1.518,0-2.75,1.233-2.75,2.75v26C9.25,40.767,10.482,42,12,42
		h22.895l5.855-5.856V13.25C40.75,11.733,39.517,10.5,38,10.5z M12,12h26c0.689,0,1.25,0.561,1.25,1.25v6h-28.5v-6
		C10.75,12.561,11.311,12,12,12z M16.218,27.313c-0.72,0-0.927,0.604-0.919,1.215h-1.684c0.027-1.863,1.045-2.62,2.692-2.62
		c1.314,0,2.548,0.576,2.548,2.053c0,1.116-0.855,1.576-1.684,2.088c-0.459,0.288-0.945,0.531-1.278,0.766h2.944v1.53h-5.339
		c-0.036-0.738,0.252-1.278,0.756-1.801c1.063-1.107,2.728-1.539,2.728-2.593C16.982,27.548,16.596,27.313,16.218,27.313z
		 M19.25,29.114c0.009-2.332,1.305-3.205,2.754-3.205c1.648,0,2.746,1.089,2.746,3.196c0,1.81-0.693,3.376-2.746,3.376
		S19.25,30.933,19.25,29.114z M25.883,28.646v-1.278c0.99-0.018,1.711-0.36,1.918-1.458h1.422v6.437H27.35v-3.7H25.883z
		 M34.01,29.321c-0.278,0-0.611,0.072-0.756,0.351l-1.764-0.063L32.119,26h4.07v1.53h-2.756l-0.207,0.954
		c0.396-0.288,0.838-0.342,1.314-0.342c1.216,0,2.161,0.738,2.161,2.007c0,1.756-1.396,2.332-2.845,2.332
		c-1.387,0-2.287-0.622-2.646-1.792l1.881-0.189c0,0.018,0.018,0.045,0.018,0.063c0.109,0.333,0.469,0.513,0.811,0.513
		c0.549,0,0.91-0.369,0.91-0.837C34.83,29.717,34.578,29.321,34.01,29.321z"/>
	<path d="M15.552,17.22c0.956,0,1.406-0.536,1.406-1.487v-2.212h-1.181v2.377c0,0.29-0.12,0.44-0.301,0.44
		c-0.31,0-0.31-0.406-0.31-0.781h-1.052C14.021,16.64,14.511,17.22,15.552,17.22z"/>
	<path d="M17.44,16.409c0,0.546,0.44,0.791,0.937,0.791c0.39,0,0.69-0.08,0.985-0.355l0.05,0.28h1.076v-0.05
		c-0.135-0.11-0.14-0.186-0.14-0.335v-1.226c0-0.626-0.075-1.086-1.316-1.086c-1.036,0-1.432,0.326-1.432,0.881h1.001
		c0.025-0.225,0.221-0.255,0.365-0.255c0.11,0,0.341,0.025,0.341,0.215C19.308,15.759,17.44,15.218,17.44,16.409z M18.847,16.609
		c-0.205,0-0.33-0.09-0.33-0.22c0-0.34,0.45-0.26,0.791-0.425C19.332,16.324,19.212,16.609,18.847,16.609z"/>
	<path d="M21.932,15.789c0-0.335,0.085-0.541,0.405-0.541c0.296,0,0.365,0.23,0.365,0.491v1.386h1.041v-1.571
		c0-0.721-0.325-1.126-1.016-1.126c-0.396,0-0.65,0.17-0.886,0.486v-0.411h-0.951v2.623h1.041V15.789z"/>
	<path d="M25.166,17.2c0.431,0,0.687-0.1,0.946-0.46v0.385h0.966v-2.623h-1.041v1.261c0,0.405-0.095,0.631-0.396,0.631
		c-0.25,0-0.375-0.115-0.375-0.476v-1.417h-1.041v1.597C24.226,16.85,24.596,17.2,25.166,17.2z"/>
	<path d="M27.445,16.409c0,0.546,0.44,0.791,0.936,0.791c0.391,0,0.691-0.08,0.986-0.355l0.05,0.28h1.076v-0.05
		c-0.135-0.11-0.14-0.186-0.14-0.335v-1.226c0-0.626-0.075-1.086-1.316-1.086c-1.036,0-1.432,0.326-1.432,0.881h1.001
		c0.025-0.225,0.221-0.255,0.365-0.255c0.11,0,0.341,0.025,0.341,0.215C29.313,15.759,27.445,15.218,27.445,16.409z M28.852,16.609
		c-0.205,0-0.33-0.09-0.33-0.22c0-0.34,0.45-0.26,0.791-0.425C29.337,16.324,29.217,16.609,28.852,16.609z"/>
	<path d="M31.957,16.219c0-0.566,0.215-0.766,0.641-0.766c0.069,0,0.145,0.021,0.215,0.03v-1.041
		c-0.045-0.005-0.09-0.015-0.135-0.015c-0.406,0-0.661,0.195-0.807,0.606h-0.01v-0.531h-0.945v2.623h1.041V16.219z"/>
	<path d="M33.561,17.275c-0.07,0-0.141-0.005-0.215-0.005v0.726c0.08,0,0.27,0.02,0.46,0.02c0.926,0,1.036-0.255,1.312-1.066
		l0.841-2.447h-1.001l-0.456,1.617l-0.46-1.617h-1.046l0.86,2.387C33.961,17.18,33.886,17.275,33.561,17.275z"/>
	<path d="M22.878,29.204c0-0.666,0.036-1.891-0.892-1.891c-0.846,0-0.864,1.306-0.864,1.909c0,1.107,0.171,1.854,0.882,1.854
		C22.671,31.077,22.878,30.267,22.878,29.204z"/>
</g>
</svg>
