<?xml version="1.0" encoding="utf-8"?>
<!-- Generator: Adobe Illustrator 16.0.0, SVG Export Plug-In . SVG Version: 6.00 Build 0)  -->
<!DOCTYPE svg PUBLIC "-//W3C//DTD SVG 1.1//EN" "http://www.w3.org/Graphics/SVG/1.1/DTD/svg11.dtd">
<svg version="1.1" id="Layer_1" xmlns="http://www.w3.org/2000/svg" xmlns:xlink="http://www.w3.org/1999/xlink" x="0px" y="0px"
	 width="50px" height="50px" viewBox="0 0 50 50" enable-background="new 0 0 50 50" xml:space="preserve">
<g>
	<path d="M18.54,34.291h3.36v-14.16h-2.36c-0.04,0.227-0.116,0.47-0.229,0.73c-0.113,0.26-0.291,0.5-0.53,0.72
		c-0.24,0.22-0.563,0.403-0.97,0.55c-0.407,0.147-0.931,0.22-1.57,0.22h-0.42v2.12h2.72V34.291z"/>
	<path d="M29.971,25.641c-0.475,0.928-0.895,1.897-1.261,2.91c-0.366,1.014-0.673,2.021-0.92,3.021s-0.397,1.906-0.45,2.72h3.48
		c0.039-0.786,0.16-1.667,0.359-2.64c0.2-0.974,0.467-1.971,0.801-2.99c0.332-1.021,0.727-2.026,1.18-3.021
		c0.453-0.993,0.953-1.902,1.5-2.729v-2.5h-9.02v2.84h5.799C30.934,23.918,30.443,24.715,29.971,25.641z"/>
	<path d="M38,9.875h-1.123c0.029-0.093,0.058-0.186,0.058-0.289c0-0.53-0.431-0.961-0.962-0.961s-0.961,0.431-0.961,0.961
		c0,0.104,0.028,0.196,0.059,0.289h-3.68c0.029-0.093,0.058-0.186,0.058-0.289c0-0.53-0.431-0.961-0.962-0.961
		c-0.53,0-0.961,0.431-0.961,0.961c0,0.104,0.029,0.196,0.059,0.289h-3.681c0.029-0.093,0.058-0.186,0.058-0.289
		c0-0.53-0.43-0.961-0.961-0.961s-0.961,0.431-0.961,0.961c0,0.104,0.028,0.196,0.058,0.289h-3.681
		c0.029-0.093,0.059-0.186,0.059-0.289c0-0.53-0.431-0.961-0.961-0.961c-0.531,0-0.962,0.431-0.962,0.961
		c0,0.104,0.028,0.196,0.058,0.289h-3.68c0.03-0.093,0.059-0.186,0.059-0.289c0-0.53-0.43-0.961-0.961-0.961
		s-0.962,0.431-0.962,0.961c0,0.104,0.028,0.196,0.058,0.289H12c-1.518,0-2.75,1.233-2.75,2.75v26c0,1.517,1.232,2.75,2.75,2.75
		h22.895l5.855-5.855V12.625C40.75,11.108,39.517,9.875,38,9.875z M39.25,34.898l-0.311,0.311h-2.355c-1.101,0-2,0.899-2,2v2.355
		l-0.311,0.311H12c-0.689,0-1.25-0.561-1.25-1.25v-21h28.5V34.898z M39.25,15.833c0,0.55-0.45,1-1,1h-26.5c-0.55,0-1-0.45-1-1v-4
		c0-0.55,0.45-1,1-1h26.5c0.55,0,1,0.45,1,1V15.833z"/>
	<path d="M21.7,14.192c0,0.092-0.003,0.177-0.009,0.256c-0.005,0.079-0.018,0.146-0.038,0.203c-0.021,0.058-0.05,0.103-0.088,0.135
		c-0.038,0.033-0.091,0.05-0.157,0.05c-0.072,0-0.131-0.016-0.173-0.047s-0.072-0.072-0.091-0.124
		c-0.018-0.051-0.029-0.108-0.033-0.173s-0.006-0.129-0.006-0.195v-0.17h-0.857v0.241c0,0.345,0.092,0.611,0.275,0.801
		c0.184,0.188,0.482,0.283,0.896,0.283c0.227,0,0.418-0.031,0.572-0.094c0.153-0.063,0.277-0.149,0.371-0.261
		c0.094-0.112,0.16-0.245,0.2-0.399c0.04-0.153,0.061-0.322,0.061-0.506v-2.744H21.7V14.192z"/>
	<path d="M24.626,14.347c0,0.146-0.032,0.254-0.097,0.321c-0.063,0.068-0.138,0.102-0.223,0.102c-0.084,0-0.148-0.029-0.191-0.09
		c-0.045-0.061-0.066-0.145-0.066-0.251v-2.029h-0.891v2.228c0,0.286,0.065,0.495,0.197,0.627c0.133,0.132,0.324,0.198,0.578,0.198
		c0.164,0,0.31-0.039,0.434-0.115c0.125-0.077,0.219-0.182,0.281-0.313h0.011v0.352h0.858v-2.976h-0.892V14.347z"/>
	<rect x="26.034" y="11.448" width="0.892" height="3.927"/>
	<path d="M28.548,14.484h-0.011l-0.363-2.085H27.25l0.842,2.998c-0.026,0.128-0.074,0.215-0.144,0.261s-0.146,0.068-0.231,0.068
		c-0.036,0-0.072-0.001-0.109-0.005s-0.074-0.01-0.109-0.017v0.627c0.029,0.004,0.059,0.006,0.09,0.008s0.062,0.003,0.091,0.003
		h0.204c0.172,0,0.316-0.014,0.433-0.041s0.216-0.076,0.298-0.146c0.082-0.07,0.151-0.166,0.207-0.289
		c0.057-0.123,0.111-0.279,0.162-0.47l0.803-2.998h-0.891L28.548,14.484z"/>
</g>
</svg>
