<?xml version="1.0" encoding="utf-8"?>
<!-- Generator: Adobe Illustrator 16.0.0, SVG Export Plug-In . SVG Version: 6.00 Build 0)  -->
<!DOCTYPE svg PUBLIC "-//W3C//DTD SVG 1.1//EN" "http://www.w3.org/Graphics/SVG/1.1/DTD/svg11.dtd">
<svg version="1.1" id="Layer_1" xmlns="http://www.w3.org/2000/svg" xmlns:xlink="http://www.w3.org/1999/xlink" x="0px" y="0px"
	 width="50px" height="50px" viewBox="0 0 50 50" enable-background="new 0 0 50 50" xml:space="preserve">
<g>
	<rect x="11.834" y="24.298" width="3.667" height="3.667"/>
	<rect x="17.5" y="24.298" width="3.667" height="3.667"/>
	<rect x="23.167" y="24.298" width="3.667" height="3.667"/>
	<rect x="28.833" y="24.298" width="3.667" height="3.667"/>
	<rect x="34.5" y="24.298" width="3.667" height="3.667"/>
	<rect x="11.833" y="29.965" width="3.667" height="3.667"/>
	<rect x="17.5" y="29.965" width="3.667" height="3.667"/>
	<rect x="23.167" y="29.965" width="3.667" height="3.667"/>
	<rect x="28.833" y="29.965" width="3.667" height="3.667"/>
	<rect x="34.5" y="29.965" width="3.667" height="3.667"/>
	<path d="M37.901,13.381v-1.762h-1.174v1.762h-1.904v-1.762h-1.174v1.762h-1.904v-1.762H30.57v1.762h-1.904v-1.762h-1.174v1.762
		h-1.904v-1.762h-1.174v1.762h-1.904v-1.762h-1.174v1.762H19.43v-1.762h-1.174v1.762h-1.904v-1.762h-1.174v1.762h-1.904v-1.762
		h-1.174v1.762H8.5v25h33v-25H37.901z M29.554,15.736h3.414v0.895H30.67v0.75h2.1v0.863h-2.1v0.816h2.358v0.96h-3.474V15.736z
		 M25.097,15.736h1.146l1.488,2.641h0.012v-2.641h1.05v4.284h-1.146l-1.488-2.67h-0.012v2.67h-1.05V15.736z M20.633,15.736h1.116
		v2.58c0,0.276,0.056,0.484,0.168,0.624c0.112,0.141,0.306,0.21,0.582,0.21c0.276,0,0.47-0.069,0.582-0.21
		c0.112-0.14,0.168-0.348,0.168-0.624v-2.58h1.116v2.515c0,0.619-0.149,1.085-0.447,1.395c-0.298,0.31-0.771,0.465-1.419,0.465
		c-0.648,0-1.121-0.155-1.419-0.465c-0.298-0.31-0.447-0.775-0.447-1.395V15.736z M16.889,18.316h1.05v0.396
		c0,0.14,0.037,0.248,0.111,0.323c0.074,0.076,0.181,0.114,0.321,0.114c0.128,0,0.227-0.041,0.297-0.123
		c0.07-0.082,0.105-0.227,0.105-0.435v-2.856h1.116v2.928c0,0.965-0.5,1.446-1.5,1.446c-0.284,0-0.522-0.039-0.714-0.117
		s-0.346-0.188-0.462-0.33c-0.116-0.142-0.199-0.311-0.249-0.507c-0.05-0.195-0.075-0.414-0.075-0.653V18.316z M39.5,35.881h-29v-14
		h29V35.881z"/>
</g>
</svg>
