<?xml version="1.0" encoding="utf-8"?>
<!-- Generator: Adobe Illustrator 16.0.0, SVG Export Plug-In . SVG Version: 6.00 Build 0)  -->
<!DOCTYPE svg PUBLIC "-//W3C//DTD SVG 1.1//EN" "http://www.w3.org/Graphics/SVG/1.1/DTD/svg11.dtd">
<svg version="1.1" id="Layer_1" xmlns="http://www.w3.org/2000/svg" xmlns:xlink="http://www.w3.org/1999/xlink" x="0px" y="0px"
	 width="50px" height="50px" viewBox="0 0 50 50" enable-background="new 0 0 50 50" xml:space="preserve">
<g>
	<path d="M38,9.875h-1.123c0.029-0.093,0.058-0.186,0.058-0.289c0-0.53-0.431-0.961-0.962-0.961s-0.961,0.431-0.961,0.961
		c0,0.104,0.028,0.196,0.059,0.289h-3.68c0.029-0.093,0.058-0.186,0.058-0.289c0-0.53-0.431-0.961-0.962-0.961
		c-0.53,0-0.961,0.431-0.961,0.961c0,0.104,0.029,0.196,0.059,0.289h-3.681c0.029-0.093,0.058-0.186,0.058-0.289
		c0-0.53-0.43-0.961-0.961-0.961s-0.961,0.431-0.961,0.961c0,0.104,0.028,0.196,0.058,0.289h-3.681
		c0.029-0.093,0.059-0.186,0.059-0.289c0-0.53-0.431-0.961-0.961-0.961c-0.531,0-0.962,0.431-0.962,0.961
		c0,0.104,0.028,0.196,0.058,0.289h-3.68c0.03-0.093,0.059-0.186,0.059-0.289c0-0.53-0.43-0.961-0.961-0.961
		s-0.962,0.431-0.962,0.961c0,0.104,0.028,0.196,0.058,0.289H12c-1.518,0-2.75,1.233-2.75,2.75v26c0,1.517,1.232,2.75,2.75,2.75
		h22.895l5.855-5.855V12.625C40.75,11.108,39.517,9.875,38,9.875z M39.25,34.898l-0.311,0.311h-2.355c-1.101,0-2,0.899-2,2v2.355
		l-0.311,0.311H12c-0.689,0-1.25-0.561-1.25-1.25v-21h28.5V34.898z M39.25,15.833c0,0.55-0.45,1-1,1h-26.5c-0.55,0-1-0.45-1-1v-4
		c0-0.55,0.45-1,1-1h26.5c0.55,0,1,0.45,1,1V15.833z"/>
	<path d="M20.988,14.192c0,0.092-0.004,0.177-0.009,0.256s-0.019,0.146-0.038,0.203c-0.021,0.058-0.05,0.103-0.088,0.135
		c-0.039,0.033-0.092,0.05-0.157,0.05c-0.073,0-0.132-0.016-0.173-0.047c-0.043-0.031-0.072-0.072-0.092-0.124
		c-0.018-0.051-0.029-0.108-0.032-0.173c-0.004-0.064-0.006-0.129-0.006-0.195v-0.17h-0.858v0.241c0,0.345,0.092,0.611,0.275,0.801
		c0.184,0.188,0.482,0.283,0.896,0.283c0.228,0,0.418-0.031,0.572-0.094s0.277-0.149,0.371-0.261
		c0.094-0.112,0.16-0.245,0.201-0.399c0.04-0.153,0.061-0.322,0.061-0.506v-2.744h-0.924V14.192z"/>
	<path d="M23.914,14.347c0,0.146-0.032,0.254-0.097,0.321c-0.063,0.068-0.138,0.102-0.223,0.102s-0.148-0.029-0.192-0.09
		s-0.066-0.145-0.066-0.251v-2.029h-0.891v2.228c0,0.286,0.066,0.495,0.197,0.627c0.133,0.132,0.325,0.198,0.578,0.198
		c0.165,0,0.311-0.039,0.435-0.115c0.124-0.077,0.218-0.182,0.28-0.313h0.012v0.352h0.857v-2.976h-0.891V14.347z"/>
	<path d="M26.884,12.322c-0.165,0-0.31,0.039-0.435,0.116c-0.125,0.076-0.219,0.181-0.28,0.313h-0.011v-0.353H25.3v2.976h0.892
		v-1.947c0-0.146,0.031-0.254,0.096-0.321c0.064-0.068,0.139-0.102,0.223-0.102s0.148,0.03,0.192,0.091
		c0.044,0.06,0.065,0.144,0.065,0.25v2.029h0.892v-2.228c0-0.286-0.065-0.495-0.198-0.627
		C27.329,12.389,27.137,12.322,26.884,12.322z"/>
	<path d="M30.447,14.033c0-0.253-0.01-0.484-0.029-0.693c-0.021-0.209-0.07-0.39-0.148-0.542c-0.08-0.151-0.197-0.27-0.355-0.352
		c-0.158-0.083-0.374-0.124-0.648-0.124c-0.242,0-0.441,0.037-0.598,0.11c-0.155,0.073-0.279,0.175-0.371,0.305
		c-0.092,0.131-0.154,0.284-0.189,0.463c-0.035,0.178-0.053,0.371-0.053,0.58c0,0.22,0.011,0.431,0.031,0.632
		c0.02,0.202,0.071,0.38,0.153,0.534c0.083,0.153,0.204,0.276,0.363,0.368s0.38,0.138,0.663,0.138c0.373,0,0.658-0.089,0.852-0.267
		c0.195-0.178,0.296-0.454,0.303-0.828h-0.824c-0.012,0.188-0.039,0.324-0.083,0.412c-0.044,0.089-0.124,0.133-0.242,0.133
		c-0.128,0-0.214-0.058-0.259-0.171c-0.043-0.113-0.065-0.286-0.065-0.517v-0.182H30.447z M29.007,13.043
		c0.04-0.113,0.134-0.171,0.28-0.171c0.125,0,0.207,0.056,0.245,0.165c0.038,0.11,0.058,0.27,0.058,0.479h-0.644
		C28.946,13.314,28.967,13.156,29.007,13.043z"/>
	<path d="M18.54,34.291h3.36v-14.16h-2.36c-0.04,0.227-0.116,0.47-0.229,0.73c-0.113,0.26-0.291,0.5-0.53,0.72
		c-0.24,0.22-0.563,0.403-0.97,0.55c-0.407,0.147-0.931,0.22-1.57,0.22h-0.42v2.12h2.72V34.291z"/>
	<path d="M26.311,32.711c0.326,0.6,0.799,1.061,1.42,1.38c0.619,0.32,1.449,0.48,2.49,0.48c0.933,0,1.699-0.137,2.299-0.41
		c0.601-0.273,1.074-0.644,1.42-1.11c0.348-0.467,0.587-1.013,0.721-1.64c0.133-0.627,0.199-1.293,0.199-2
		c0-1.587-0.297-2.717-0.889-3.39c-0.594-0.674-1.431-1.011-2.511-1.011c-0.601,0-1.113,0.101-1.54,0.3
		c-0.427,0.2-0.754,0.514-0.98,0.94H28.9c0-0.773,0.02-1.42,0.06-1.94c0.04-0.52,0.116-0.93,0.229-1.229s0.261-0.513,0.44-0.64
		c0.181-0.127,0.41-0.19,0.69-0.19c0.373,0,0.646,0.146,0.82,0.44c0.08,0.146,0.133,0.31,0.159,0.489
		c0.026,0.181,0.04,0.37,0.04,0.57h3.24c-0.027-1.28-0.403-2.203-1.13-2.77c-0.728-0.567-1.724-0.851-2.99-0.851
		c-1.147,0-2.047,0.17-2.7,0.51c-0.653,0.341-1.146,0.837-1.48,1.49c-0.332,0.653-0.539,1.447-0.619,2.38
		c-0.08,0.934-0.12,1.987-0.12,3.16c0,1.067,0.046,2.023,0.14,2.87S25.982,32.111,26.311,32.711z M29.07,28.861
		c0.033-0.273,0.093-0.514,0.18-0.721c0.086-0.206,0.21-0.366,0.37-0.479c0.159-0.113,0.366-0.17,0.62-0.17
		c0.533,0,0.877,0.196,1.029,0.59c0.154,0.394,0.23,1.03,0.23,1.91c0,0.773-0.087,1.377-0.26,1.81c-0.174,0.434-0.5,0.65-0.98,0.65
		c-0.493,0-0.823-0.24-0.99-0.72c-0.166-0.48-0.25-1.141-0.25-1.98C29.02,29.431,29.037,29.135,29.07,28.861z"/>
</g>
</svg>
