<?xml version="1.0" encoding="utf-8"?>
<!-- Generator: Adobe Illustrator 16.0.0, SVG Export Plug-In . SVG Version: 6.00 Build 0)  -->
<!DOCTYPE svg PUBLIC "-//W3C//DTD SVG 1.1//EN" "http://www.w3.org/Graphics/SVG/1.1/DTD/svg11.dtd">
<svg version="1.1" id="Layer_1" xmlns="http://www.w3.org/2000/svg" xmlns:xlink="http://www.w3.org/1999/xlink" x="0px" y="0px"
	 width="50px" height="50px" viewBox="0 0 50 50" enable-background="new 0 0 50 50" xml:space="preserve">
<g>
	<path d="M37.521,12.91v-2.821h-7v2.821H28.5v-2.821h-7v2.821h-2.021v-2.821h-7v2.821H8.5v27h33v-27H37.521z M31.521,11.089h5v4h-5
		V11.089z M22.5,11.089h5v4h-5V11.089z M13.479,11.089h5v4h-5V11.089z M39.5,37.41h-29v-18h29V37.41z"/>
	<path d="M13.381,30.891c0.174,0.213,0.405,0.378,0.693,0.495c0.288,0.116,0.645,0.175,1.071,0.175c1.5,0,2.25-0.723,2.25-2.169V25
		h-1.674v4.284c0,0.312-0.053,0.529-0.158,0.652s-0.253,0.185-0.445,0.185c-0.21,0-0.371-0.058-0.481-0.171
		c-0.111-0.114-0.167-0.276-0.167-0.486V28.87h-1.575v0.278c0,0.36,0.038,0.688,0.112,0.981
		C13.083,30.424,13.207,30.678,13.381,30.891z"/>
	<path d="M21.31,31.561c0.972,0,1.681-0.232,2.128-0.697c0.447-0.465,0.67-1.162,0.67-2.093V25h-1.674v3.87
		c0,0.414-0.084,0.726-0.252,0.936s-0.459,0.315-0.873,0.315s-0.705-0.105-0.873-0.315s-0.252-0.521-0.252-0.936V25h-1.674v3.771
		c0,0.931,0.224,1.628,0.671,2.093C19.628,31.328,20.338,31.561,21.31,31.561z"/>
	<polygon points="26.782,27.421 26.799,27.421 29.032,31.426 30.75,31.426 30.75,25 29.176,25 29.176,28.96 29.158,28.96 26.926,25 
		25.208,25 25.208,31.426 26.782,31.426 	"/>
	<polygon points="37.105,29.985 33.568,29.985 33.568,28.762 36.717,28.762 36.717,27.466 33.568,27.466 33.568,26.341 
		37.014,26.341 37.014,25 31.894,25 31.894,31.426 37.105,31.426 	"/>
</g>
</svg>
