<?xml version="1.0" encoding="utf-8"?>
<!-- Generator: Adobe Illustrator 16.0.0, SVG Export Plug-In . SVG Version: 6.00 Build 0)  -->
<!DOCTYPE svg PUBLIC "-//W3C//DTD SVG 1.1//EN" "http://www.w3.org/Graphics/SVG/1.1/DTD/svg11.dtd">
<svg version="1.1" id="Layer_1" xmlns="http://www.w3.org/2000/svg" xmlns:xlink="http://www.w3.org/1999/xlink" x="0px" y="0px"
	 width="50px" height="50px" viewBox="0 0 50 50" enable-background="new 0 0 50 50" xml:space="preserve">
<g>
	<path d="M36.989,10.954V8.598h-1.277v2.356h-4.398V8.598h-1.277v2.356h-4.398V8.598h-1.277v2.356h-4.398V8.598h-1.277v2.356h-4.398
		V8.598h-1.277v2.356H9.775v30.449h30.449V10.954H36.989z M29.953,14.06h3.712v0.973h-2.499v0.815h2.284v0.938h-2.284v0.889h2.564
		v1.044h-3.778V14.06z M25.105,14.06h1.247l1.618,2.871h0.013V14.06h1.142v4.659h-1.246l-1.618-2.904h-0.014v2.904h-1.142V14.06z
		 M20.251,14.06h1.214v2.806c0,0.301,0.061,0.526,0.183,0.679c0.122,0.152,0.332,0.229,0.633,0.229c0.3,0,0.511-0.076,0.632-0.229
		c0.122-0.152,0.183-0.378,0.183-0.679V14.06h1.213v2.734c0,0.674-0.162,1.18-0.486,1.517s-0.838,0.506-1.543,0.506
		c-0.705,0-1.219-0.169-1.543-0.506s-0.486-0.843-0.486-1.517V14.06z M16.179,16.865h1.142v0.431c0,0.152,0.041,0.271,0.121,0.352
		c0.08,0.083,0.196,0.125,0.349,0.125c0.139,0,0.247-0.045,0.323-0.134c0.076-0.09,0.114-0.247,0.114-0.473V14.06h1.214v3.184
		c0,1.05-0.543,1.573-1.631,1.573c-0.309,0-0.568-0.043-0.776-0.128c-0.209-0.085-0.376-0.204-0.502-0.358
		c-0.126-0.154-0.217-0.338-0.271-0.552c-0.055-0.212-0.082-0.45-0.082-0.71V16.865z M38.379,38.359H11.621V21.307h26.758V38.359z"
		/>
	<path d="M24.019,36.073h3.06V24.225h-2.397c-0.034,0.465-0.156,0.855-0.366,1.173c-0.21,0.317-0.479,0.572-0.808,0.765
		c-0.329,0.193-0.694,0.329-1.096,0.408c-0.402,0.079-0.813,0.113-1.232,0.102v2.125h2.839V36.073z"/>
</g>
</svg>
