<?xml version="1.0" encoding="utf-8"?>
<!-- Generator: Adobe Illustrator 16.0.0, SVG Export Plug-In . SVG Version: 6.00 Build 0)  -->
<!DOCTYPE svg PUBLIC "-//W3C//DTD SVG 1.1//EN" "http://www.w3.org/Graphics/SVG/1.1/DTD/svg11.dtd">
<svg version="1.1" id="Layer_1" xmlns="http://www.w3.org/2000/svg" xmlns:xlink="http://www.w3.org/1999/xlink" x="0px" y="0px"
	 width="50px" height="50px" viewBox="0 0 50 50" enable-background="new 0 0 50 50" xml:space="preserve">
<g>
	<path d="M35.91,9H35V8c0-0.553-0.447-1-1-1s-1,0.447-1,1v1h-7V8c0-0.553-0.447-1-1-1s-1,0.447-1,1v1h-7V8c0-0.553-0.447-1-1-1
		s-1,0.447-1,1v1h-0.91C11.283,9,9,11.283,9,14.09v21.82C9,38.717,11.283,41,14.09,41h21.82c2.807,0,5.09-2.283,5.09-5.09V14.09
		C41,11.283,38.717,9,35.91,9z M39,35.91c0,1.704-1.386,3.09-3.09,3.09H14.09C12.386,39,11,37.614,11,35.91V19h28V35.91z M39,17H11
		v-2.91c0-1.704,1.386-3.09,3.09-3.09H15v3c0,0.553,0.447,1,1,1s1-0.447,1-1v-3h7v3c0,0.553,0.447,1,1,1s1-0.447,1-1v-3h7v3
		c0,0.553,0.447,1,1,1s1-0.447,1-1v-3h0.91c1.704,0,3.09,1.386,3.09,3.09V17z"/>
	<polygon points="37.18,31.037 33.609,31.037 33.609,29.799 36.79,29.799 36.79,28.491 33.609,28.491 33.609,27.355 37.09,27.355 
		37.09,26 31.917,26 31.917,32.491 37.18,32.491 	"/>
	<polygon points="26.754,28.444 26.774,28.444 29.027,32.491 30.763,32.491 30.763,26 29.173,26 29.173,30 29.154,30 26.9,26 
		25.164,26 25.164,32.491 26.754,32.491 	"/>
	<path d="M21.229,32.627c0.981,0,1.698-0.234,2.149-0.704s0.677-1.175,0.677-2.113V26h-1.69v3.909c0,0.419-0.085,0.732-0.255,0.945
		c-0.169,0.213-0.463,0.318-0.88,0.318c-0.419,0-0.712-0.105-0.882-0.318c-0.17-0.213-0.254-0.526-0.254-0.945V26h-1.691v3.81
		c0,0.938,0.226,1.644,0.677,2.113S20.247,32.627,21.229,32.627z"/>
	<path d="M13.221,31.949c0.175,0.215,0.408,0.381,0.7,0.5c0.291,0.117,0.651,0.178,1.082,0.178c1.515,0,2.272-0.729,2.272-2.192V26
		h-1.691v4.328c0,0.313-0.052,0.533-0.158,0.657c-0.106,0.125-0.257,0.188-0.45,0.188c-0.212,0-0.375-0.059-0.486-0.175
		c-0.112-0.112-0.169-0.277-0.169-0.489v-0.6h-1.59v0.282c0,0.361,0.037,0.694,0.113,0.989
		C12.918,31.479,13.044,31.734,13.221,31.949z"/>
</g>
</svg>
