<?xml version="1.0" encoding="utf-8"?>
<!-- Generator: Adobe Illustrator 16.0.0, SVG Export Plug-In . SVG Version: 6.00 Build 0)  -->
<!DOCTYPE svg PUBLIC "-//W3C//DTD SVG 1.1//EN" "http://www.w3.org/Graphics/SVG/1.1/DTD/svg11.dtd">
<svg version="1.1" id="Layer_1" xmlns="http://www.w3.org/2000/svg" xmlns:xlink="http://www.w3.org/1999/xlink" x="0px" y="0px"
	 width="50px" height="50px" viewBox="0 0 50 50" enable-background="new 0 0 50 50" xml:space="preserve">
<g>
	<path d="M38.25,10.25h-26c-1.518,0-2.75,1.233-2.75,2.75v26c0,1.517,1.232,2.75,2.75,2.75h22.895L41,35.895V13
		C41,11.484,39.767,10.25,38.25,10.25z M34.083,12.292c0.817,0,1.479,0.662,1.479,1.479c0,0.817-0.662,1.479-1.479,1.479
		s-1.479-0.662-1.479-1.479C32.604,12.954,33.266,12.292,34.083,12.292z M29.666,12.292c0.817,0,1.479,0.662,1.479,1.479
		c0,0.817-0.662,1.479-1.479,1.479c-0.816,0-1.479-0.662-1.479-1.479C28.188,12.954,28.85,12.292,29.666,12.292z M25.25,12.292
		c0.816,0,1.479,0.662,1.479,1.479c0,0.817-0.662,1.479-1.479,1.479c-0.817,0-1.479-0.662-1.479-1.479
		C23.771,12.954,24.433,12.292,25.25,12.292z M20.834,12.292c0.816,0,1.479,0.662,1.479,1.479c0,0.817-0.662,1.479-1.479,1.479
		c-0.818,0-1.48-0.662-1.48-1.479C19.354,12.954,20.016,12.292,20.834,12.292z M16.417,12.292c0.817,0,1.479,0.662,1.479,1.479
		c0,0.817-0.662,1.479-1.479,1.479s-1.479-0.662-1.479-1.479C14.938,12.954,15.6,12.292,16.417,12.292z M39.5,35.273l-0.311,0.311
		h-2.355c-1.101,0-2,0.9-2,2v2.356l-0.311,0.31H12.25C11.561,40.25,11,39.69,11,39V17h28.5V35.273z"/>
	<path d="M22.592,33.868h1.994v2.326h-3.323c-0.551,0-0.997,0.447-0.997,0.997s0.446,0.997,0.997,0.997h7.976
		c0.55,0,0.997-0.447,0.997-0.997s-0.446-0.997-0.997-0.997h-3.324v-2.326h1.994c2.199,0,3.987-1.789,3.987-3.988v-4.652
		c0-0.368-0.297-0.665-0.665-0.665c-0.367,0-0.664,0.297-0.664,0.665v4.652c0,1.467-1.194,2.659-2.659,2.659h-5.317
		c-1.466,0-2.659-1.192-2.659-2.659v-4.652c0-0.368-0.297-0.665-0.665-0.665s-0.665,0.297-0.665,0.665v4.652
		C18.604,32.079,20.393,33.868,22.592,33.868z"/>
	<path d="M23.589,31.375h3.323c1.375,0,2.493-1.119,2.493-2.493v-7.312c0-1.374-1.118-2.492-2.493-2.492h-3.323
		c-1.375,0-2.493,1.118-2.493,2.492v7.312C21.096,30.257,22.214,31.375,23.589,31.375z M24.253,30.378h-0.664V25.56h0.664V30.378z
		 M25.583,30.378h-0.665V25.56h0.665V30.378z M26.912,30.378h-0.665V25.56h0.665V30.378z M28.407,28.883
		c0,0.585-0.339,1.086-0.831,1.333V25.56h0.831V28.883z M22.093,21.571c0-0.824,0.671-1.495,1.496-1.495h3.323
		c0.825,0,1.496,0.671,1.496,1.495v3.323h-6.314V21.571z M22.093,25.56h0.831v4.656c-0.49-0.246-0.831-0.748-0.831-1.333V25.56z"/>
</g>
</svg>
