<?xml version="1.0" encoding="utf-8"?>
<!-- Generator: Adobe Illustrator 16.0.0, SVG Export Plug-In . SVG Version: 6.00 Build 0)  -->
<!DOCTYPE svg PUBLIC "-//W3C//DTD SVG 1.1//EN" "http://www.w3.org/Graphics/SVG/1.1/DTD/svg11.dtd">
<svg version="1.1" id="Layer_1" xmlns="http://www.w3.org/2000/svg" xmlns:xlink="http://www.w3.org/1999/xlink" x="0px" y="0px"
	 width="50px" height="50px" viewBox="0 0 50 50" enable-background="new 0 0 50 50" xml:space="preserve">
<g>
	<path d="M38.25,10.25h-1.123c0.029-0.092,0.058-0.186,0.058-0.288c0-0.53-0.431-0.962-0.962-0.962s-0.961,0.432-0.961,0.962
		c0,0.103,0.028,0.196,0.059,0.288h-3.68c0.029-0.092,0.058-0.186,0.058-0.288c0-0.53-0.431-0.962-0.962-0.962
		c-0.53,0-0.961,0.432-0.961,0.962c0,0.103,0.029,0.196,0.059,0.288h-3.681c0.029-0.092,0.058-0.186,0.058-0.288
		c0-0.53-0.43-0.962-0.961-0.962s-0.961,0.432-0.961,0.962c0,0.103,0.028,0.196,0.058,0.288h-3.681
		c0.029-0.092,0.059-0.186,0.059-0.288c0-0.53-0.431-0.962-0.961-0.962c-0.531,0-0.962,0.432-0.962,0.962
		c0,0.103,0.028,0.196,0.058,0.288h-3.68c0.03-0.092,0.059-0.186,0.059-0.288c0-0.53-0.43-0.962-0.961-0.962
		s-0.962,0.432-0.962,0.962c0,0.103,0.028,0.196,0.058,0.288H12.25c-1.518,0-2.75,1.234-2.75,2.75v26c0,1.518,1.232,2.75,2.75,2.75
		h22.895L41,35.895V13C41,11.484,39.767,10.25,38.25,10.25z M39.5,35.273l-0.311,0.311h-2.355c-1.101,0-2,0.9-2,2v2.356l-0.311,0.31
		H12.25C11.561,40.25,11,39.689,11,39V14h28.5V35.273z"/>
	<path d="M26.66,22.209c0.139,0.08,0.317,0.031,0.396-0.105l0.145-0.252c0.082-0.14,0.034-0.317-0.105-0.397l-5.033-2.904
		c-0.139-0.08-0.316-0.032-0.396,0.106l-0.145,0.251c-0.08,0.139-0.033,0.316,0.106,0.397L26.66,22.209z"/>
	<path d="M22.303,29.757c0.139,0.08,0.316,0.032,0.397-0.106l0.145-0.251c0.081-0.138,0.033-0.316-0.106-0.396l-5.032-2.905
		c-0.139-0.08-0.316-0.032-0.397,0.105l-0.145,0.252c-0.081,0.14-0.033,0.317,0.106,0.396L22.303,29.757z"/>
	<path d="M22.705,28.479c0.138,0.082,0.317,0.033,0.396-0.104l1.354-2.345l9.556,6.111c0.135,0.086,0.31,0.043,0.39-0.096
		l0.726-1.258c0.08-0.139,0.029-0.313-0.112-0.385l-10.071-5.22l1.353-2.345c0.08-0.138,0.033-0.317-0.106-0.396l-4.53-2.614
		c-0.138-0.08-0.316-0.033-0.396,0.106l-3.196,5.536c-0.079,0.137-0.032,0.316,0.107,0.395L22.705,28.479z"/>
	<path d="M34.937,32.859l0.503,0.29c0.139,0.081,0.317,0.031,0.397-0.105l0.872-1.51c0.08-0.14,0.032-0.317-0.106-0.397
		l-0.503-0.291c-0.138-0.08-0.317-0.032-0.397,0.105l-0.872,1.51C34.751,32.601,34.799,32.778,34.937,32.859z"/>
	<path d="M14.232,35.803H25.73c0.265,0,0.479-0.216,0.479-0.479v-1.916c0-0.264-0.215-0.479-0.479-0.479h-0.606
		c0.077-0.086,0.127-0.196,0.127-0.32V32.13c0-0.263-0.215-0.479-0.479-0.479h-9.582c-0.264,0-0.48,0.217-0.48,0.479v0.479
		c0,0.124,0.052,0.234,0.128,0.32h-0.607c-0.265,0-0.479,0.216-0.479,0.479v1.916C13.753,35.587,13.968,35.803,14.232,35.803z
		 M14.454,34.135c0.001-0.278,0.227-0.505,0.504-0.505h10.091c0.279,0,0.506,0.227,0.505,0.505l0.001,0.504
		c-0.001,0.278-0.227,0.504-0.506,0.504H14.958c-0.277,0-0.504-0.226-0.504-0.504V34.135z"/>
</g>
</svg>
