<?xml version="1.0" encoding="utf-8"?>
<!-- Generator: Adobe Illustrator 16.0.4, SVG Export Plug-In . SVG Version: 6.00 Build 0)  -->
<!DOCTYPE svg PUBLIC "-//W3C//DTD SVG 1.1//EN" "http://www.w3.org/Graphics/SVG/1.1/DTD/svg11.dtd">
<svg version="1.1" id="Layer_1" xmlns="http://www.w3.org/2000/svg" xmlns:xlink="http://www.w3.org/1999/xlink" x="0px" y="0px"
	 width="50px" height="50px" viewBox="0 0 50 50" enable-background="new 0 0 50 50" xml:space="preserve">
<path d="M38,9.25h-1.124c0.028-0.093,0.058-0.186,0.058-0.289C36.936,8.431,36.504,8,35.973,8s-0.961,0.431-0.961,0.961
	c0,0.103,0.028,0.196,0.059,0.289h-3.68c0.029-0.093,0.058-0.186,0.058-0.289C31.448,8.43,31.018,8,30.486,8
	c-0.53,0-0.961,0.431-0.961,0.961c0,0.103,0.029,0.196,0.059,0.289h-3.68c0.029-0.093,0.058-0.186,0.058-0.289
	C25.961,8.431,25.531,8,25,8s-0.961,0.431-0.961,0.961c0,0.103,0.029,0.196,0.058,0.289h-3.68c0.029-0.093,0.058-0.186,0.058-0.289
	c0-0.53-0.431-0.961-0.962-0.961c-0.531,0-0.961,0.431-0.961,0.961c0,0.103,0.028,0.196,0.058,0.289h-3.68
	c0.03-0.093,0.058-0.186,0.058-0.289C14.988,8.43,14.558,8,14.027,8c-0.531,0-0.961,0.431-0.961,0.961
	c0,0.103,0.029,0.196,0.058,0.289H12c-1.517,0-2.75,1.233-2.75,2.75v26c0,1.518,1.233,2.75,2.75,2.75h22.895l5.855-5.855V12
	C40.75,10.483,39.518,9.25,38,9.25z M39.25,34.273l-0.311,0.311h-2.356c-1.101,0-2,0.9-2,2v2.355l-0.31,0.311H12
	c-0.689,0-1.25-0.561-1.25-1.25V17h28.5V34.273z M27.811,30.846c3.2-1.846,4.299-5.953,2.453-9.15
	c-1.847-3.199-5.954-4.297-9.152-2.452c-3.198,1.847-4.298,5.953-2.451,9.148C20.507,31.596,24.613,32.689,27.811,30.846z
	 M21.667,20.203c2.668-1.539,6.094-0.621,7.638,2.048c1.539,2.669,0.622,6.093-2.049,7.636c-2.669,1.545-6.093,0.621-7.633-2.049
	C18.079,25.169,18.998,21.745,21.667,20.203z M29.496,30.432l2.219,3.838l-2.881,1.665l-2.219-3.838L29.496,30.432z M29.131,36.459
	l2.881-1.663c0.459,0.797,0.188,1.815-0.609,2.272C30.607,37.525,29.591,37.256,29.131,36.459z"/>
</svg>
