<?xml version="1.0" encoding="utf-8"?>
<!-- Generator: Adobe Illustrator 16.0.0, SVG Export Plug-In . SVG Version: 6.00 Build 0)  -->
<!DOCTYPE svg PUBLIC "-//W3C//DTD SVG 1.1//EN" "http://www.w3.org/Graphics/SVG/1.1/DTD/svg11.dtd">
<svg version="1.1" id="Layer_1" xmlns="http://www.w3.org/2000/svg" xmlns:xlink="http://www.w3.org/1999/xlink" x="0px" y="0px"
	 width="50px" height="50px" viewBox="0 0 50 50" enable-background="new 0 0 50 50" xml:space="preserve">
<g>
	<path fill-rule="evenodd" clip-rule="evenodd" d="M18.54,34.291h3.36v-14.16h-2.36c-0.04,0.227-0.117,0.47-0.23,0.73
		c-0.113,0.26-0.29,0.5-0.53,0.72c-0.24,0.22-0.563,0.403-0.97,0.55c-0.407,0.147-0.93,0.22-1.57,0.22h-0.42v2.12h2.72V34.291z"/>
	<path fill-rule="evenodd" clip-rule="evenodd" d="M30.12,32.451c-0.253,0-0.46-0.063-0.62-0.19c-0.16-0.126-0.287-0.293-0.38-0.5
		c-0.094-0.206-0.157-0.45-0.19-0.729c-0.034-0.28-0.05-0.58-0.05-0.9h-3.24c0,0.907,0.11,1.647,0.33,2.22
		c0.22,0.574,0.536,1.023,0.95,1.351c0.413,0.327,0.903,0.554,1.47,0.68c0.566,0.127,1.203,0.19,1.91,0.19
		c0.613,0,1.193-0.08,1.74-0.24c0.546-0.16,1.02-0.41,1.42-0.75s0.717-0.78,0.95-1.32c0.233-0.54,0.35-1.189,0.35-1.95
		c0-1-0.18-1.77-0.54-2.31c-0.36-0.54-0.96-0.903-1.8-1.09v-0.04c0.653-0.146,1.153-0.477,1.5-0.99c0.347-0.513,0.52-1.13,0.52-1.85
		c0-1.373-0.337-2.367-1.01-2.98c-0.674-0.613-1.71-0.92-3.11-0.92c-1.573,0-2.727,0.347-3.46,1.04
		c-0.72,0.667-1.08,1.707-1.08,3.12h3c0-0.8,0.124-1.34,0.37-1.62s0.557-0.42,0.93-0.42c0.387,0,0.67,0.13,0.85,0.39
		c0.18,0.261,0.27,0.67,0.27,1.23c0,0.693-0.1,1.22-0.3,1.58c-0.2,0.359-0.58,0.54-1.14,0.54h-0.92v2.12h0.8
		c0.333,0,0.61,0.033,0.83,0.1c0.22,0.067,0.4,0.184,0.54,0.35c0.14,0.167,0.24,0.397,0.3,0.69c0.06,0.294,0.09,0.667,0.09,1.12
		c0,0.8-0.107,1.347-0.32,1.64C30.867,32.305,30.546,32.451,30.12,32.451z"/>
	<path fill-rule="evenodd" clip-rule="evenodd" d="M23.174,14.127c-0.048,0.036-0.083,0.079-0.104,0.129s-0.033,0.116-0.033,0.2
		c0,0.118,0.022,0.21,0.066,0.278c0.044,0.067,0.108,0.102,0.193,0.102c0.095,0,0.179-0.029,0.25-0.088
		c0.072-0.059,0.107-0.165,0.107-0.319c0-0.124,0.001-0.227,0.003-0.308c0.001-0.081,0.002-0.152,0.002-0.215
		c-0.139,0.073-0.245,0.12-0.316,0.141C23.27,14.067,23.214,14.094,23.174,14.127z"/>
	<path fill-rule="evenodd" clip-rule="evenodd" d="M38,9.875h-1.123c0.029-0.093,0.058-0.186,0.058-0.289
		c0-0.53-0.431-0.961-0.962-0.961s-0.961,0.431-0.961,0.961c0,0.104,0.028,0.196,0.059,0.289h-3.68
		c0.029-0.093,0.058-0.186,0.058-0.289c0-0.53-0.431-0.961-0.962-0.961c-0.53,0-0.961,0.431-0.961,0.961
		c0,0.104,0.029,0.196,0.059,0.289h-3.681c0.029-0.093,0.058-0.186,0.058-0.289c0-0.53-0.43-0.961-0.961-0.961
		s-0.961,0.431-0.961,0.961c0,0.104,0.028,0.196,0.058,0.289h-3.681c0.029-0.093,0.059-0.186,0.059-0.289
		c0-0.53-0.431-0.961-0.961-0.961c-0.531,0-0.962,0.431-0.962,0.961c0,0.104,0.028,0.196,0.058,0.289h-3.68
		c0.03-0.093,0.059-0.186,0.059-0.289c0-0.53-0.43-0.961-0.961-0.961s-0.962,0.431-0.962,0.961c0,0.104,0.028,0.196,0.058,0.289H12
		c-1.518,0-2.75,1.233-2.75,2.75v26c0,1.517,1.232,2.75,2.75,2.75h22.895l5.855-5.855V12.625C40.75,11.108,39.517,9.875,38,9.875z
		 M29.642,11.448h0.891v1.275h0.011c0.073-0.146,0.167-0.25,0.281-0.311c0.113-0.061,0.248-0.091,0.401-0.091
		c0.253,0,0.445,0.066,0.578,0.198c0.132,0.132,0.198,0.341,0.198,0.627v2.228H31.11v-2.029c0-0.106-0.022-0.19-0.066-0.25
		c-0.044-0.061-0.108-0.091-0.192-0.091s-0.159,0.033-0.223,0.102c-0.064,0.067-0.096,0.175-0.096,0.321v1.947h-0.891V11.448z
		 M26.95,13.2c0.035-0.179,0.098-0.332,0.19-0.463c0.091-0.13,0.215-0.231,0.371-0.305s0.355-0.11,0.597-0.11
		c0.235,0,0.428,0.029,0.581,0.088c0.152,0.059,0.272,0.141,0.36,0.245c0.088,0.104,0.149,0.231,0.185,0.38
		c0.035,0.148,0.052,0.311,0.052,0.486h-0.825c0-0.22-0.026-0.378-0.08-0.473c-0.053-0.096-0.139-0.144-0.256-0.144
		c-0.073,0-0.132,0.023-0.176,0.069c-0.044,0.046-0.078,0.11-0.102,0.195c-0.024,0.084-0.04,0.187-0.047,0.308
		s-0.011,0.259-0.011,0.412c0,0.169,0.003,0.314,0.011,0.438s0.023,0.225,0.047,0.306c0.024,0.08,0.058,0.14,0.102,0.179
		c0.044,0.038,0.103,0.058,0.176,0.058c0.066,0,0.12-0.012,0.162-0.036c0.042-0.023,0.075-0.063,0.099-0.118
		s0.042-0.127,0.052-0.217c0.011-0.09,0.019-0.201,0.022-0.333h0.825c-0.004,0.458-0.1,0.787-0.289,0.987s-0.485,0.3-0.888,0.3
		c-0.282,0-0.503-0.046-0.663-0.138s-0.281-0.215-0.363-0.368c-0.082-0.154-0.134-0.332-0.154-0.534
		c-0.02-0.201-0.03-0.412-0.03-0.632C26.897,13.571,26.915,13.378,26.95,13.2z M25.027,12.399h0.858v0.418h0.011
		c0.059-0.132,0.146-0.247,0.261-0.347c0.115-0.099,0.267-0.148,0.454-0.148h0.066c0.015,0,0.041,0.004,0.077,0.012v0.836
		c-0.044-0.008-0.085-0.014-0.124-0.017c-0.039-0.004-0.08-0.006-0.124-0.006c-0.18,0-0.323,0.04-0.429,0.121
		s-0.159,0.22-0.159,0.418v1.688h-0.891V12.399z M23.592,12.985c-0.044-0.053-0.116-0.08-0.214-0.08
		c-0.125,0-0.209,0.036-0.253,0.107c-0.044,0.071-0.068,0.172-0.072,0.3h-0.792c0.003-0.209,0.034-0.376,0.091-0.501
		c0.057-0.124,0.138-0.223,0.245-0.297c0.106-0.073,0.225-0.123,0.355-0.151c0.13-0.027,0.289-0.041,0.476-0.041
		c0.367,0,0.634,0.067,0.803,0.201c0.168,0.134,0.253,0.36,0.253,0.679v1.529c0,0.113,0.004,0.233,0.014,0.357
		c0.009,0.125,0.04,0.22,0.091,0.286h-0.858c-0.019-0.052-0.03-0.106-0.036-0.165c-0.005-0.059-0.01-0.117-0.014-0.176h-0.011
		c-0.063,0.132-0.156,0.234-0.281,0.308s-0.264,0.11-0.418,0.11c-0.253,0-0.448-0.07-0.585-0.212
		c-0.138-0.141-0.207-0.373-0.207-0.695c0-0.177,0.033-0.331,0.099-0.465s0.154-0.232,0.264-0.295
		c0.11-0.062,0.239-0.109,0.388-0.143s0.285-0.066,0.41-0.099c0.066-0.019,0.12-0.036,0.162-0.053s0.075-0.036,0.099-0.061
		c0.024-0.023,0.039-0.054,0.047-0.091c0.007-0.036,0.011-0.082,0.011-0.138C23.658,13.111,23.636,13.038,23.592,12.985z
		 M18.064,11.448h1.353l0.484,2.579h0.011l0.467-2.579h1.336v3.927h-0.858v-3.058h-0.011l-0.6,3.058h-0.715L18.9,12.317H18.89v3.058
		h-0.825V11.448z M39.25,34.898l-0.311,0.311h-2.355c-1.101,0-2,0.899-2,2v2.355l-0.311,0.311H12c-0.689,0-1.25-0.561-1.25-1.25v-21
		h28.5V34.898z"/>
</g>
</svg>
