<?xml version="1.0" encoding="utf-8"?>
<!-- Generator: Adobe Illustrator 16.0.0, SVG Export Plug-In . SVG Version: 6.00 Build 0)  -->
<!DOCTYPE svg PUBLIC "-//W3C//DTD SVG 1.1//EN" "http://www.w3.org/Graphics/SVG/1.1/DTD/svg11.dtd">
<svg version="1.1" id="Layer_1" xmlns="http://www.w3.org/2000/svg" xmlns:xlink="http://www.w3.org/1999/xlink" x="0px" y="0px"
	 width="50px" height="50px" viewBox="0 0 50 50" enable-background="new 0 0 50 50" xml:space="preserve">
<g>
	<path d="M37,10.724h-1.098V9.526c0-1.516-1.197-2.75-2.67-2.75s-2.67,1.234-2.67,2.75v1.197h-2.74V9.526
		c0-1.516-1.197-2.75-2.67-2.75s-2.67,1.234-2.67,2.75v1.197h-2.74V9.526c0-1.516-1.197-2.75-2.67-2.75s-2.67,1.234-2.67,2.75v1.197
		H13c-2.343,0-4.25,1.907-4.25,4.25v24c0,2.343,1.907,4.25,4.25,4.25h24c2.344,0,4.25-1.907,4.25-4.25v-24
		C41.25,12.63,39.344,10.724,37,10.724z M32.063,9.526c0-0.689,0.525-1.25,1.17-1.25s1.17,0.561,1.17,1.25v4.895
		c0,0.689-0.525,1.25-1.17,1.25s-1.17-0.561-1.17-1.25V9.526z M23.982,9.526c0-0.689,0.525-1.25,1.17-1.25s1.17,0.561,1.17,1.25
		v4.895c0,0.689-0.525,1.25-1.17,1.25s-1.17-0.561-1.17-1.25V9.526z M15.902,9.526c0-0.689,0.525-1.25,1.17-1.25
		s1.17,0.561,1.17,1.25v4.895c0,0.689-0.525,1.25-1.17,1.25s-1.17-0.561-1.17-1.25V9.526z M38.75,38.974
		c0,0.965-0.785,1.75-1.75,1.75H13c-0.965,0-1.75-0.785-1.75-1.75v-22h27.5V38.974z"/>
	<path d="M20.304,37.537c0.518,0.725,1.407,1.123,2.503,1.123c0.388,0,0.794-0.055,1.207-0.15c0.243,0.042,0.489,0.071,0.74,0.071
		c3.366,0,6.119-4.062,6.375-7.502c0.323-0.491,0.517-1.074,0.517-1.699c0-1.723-1.402-3.125-3.125-3.125
		c-0.742,0-1.415,0.271-1.951,0.704c-0.227-0.177-0.396-0.38-0.474-0.627c1.415-0.542,2.424-1.903,2.424-3.509
		c0-2.08-1.687-3.766-3.766-3.766c-2.08,0-3.767,1.686-3.767,3.766c0,1.588,0.987,2.94,2.378,3.494
		c-0.68,1.231-5.011,1.44-5.011,4.25c0,1.59,0.583,3.371,1.545,4.85C19.758,36.201,19.879,36.941,20.304,37.537z M23.178,32.15
		c1.214-0.868,2.524-1.293,3.587-1.273c-0.346-0.405-0.562-0.923-0.562-1.498c0-1.279,1.037-2.317,2.317-2.317
		s2.318,1.038,2.318,2.317c0,1.264-1.013,2.286-2.27,2.313c0.82,1.227-0.166,3.392-2.238,4.872c-2.095,1.496-4.499,1.721-5.37,0.502
		S21.083,33.646,23.178,32.15z"/>
	<path d="M27.078,32.675c-0.67-0.588-1.68,0.542-1.68,0.542s-0.246-1.357-1.018-0.965c-0.771,0.393-0.245,1.959,0.807,2.941
		C27.011,34.315,27.749,33.263,27.078,32.675z"/>
</g>
</svg>
