<?xml version="1.0" encoding="utf-8"?>
<!-- Generator: Adobe Illustrator 16.0.0, SVG Export Plug-In . SVG Version: 6.00 Build 0)  -->
<!DOCTYPE svg PUBLIC "-//W3C//DTD SVG 1.1//EN" "http://www.w3.org/Graphics/SVG/1.1/DTD/svg11.dtd">
<svg version="1.1" id="Layer_1" xmlns="http://www.w3.org/2000/svg" xmlns:xlink="http://www.w3.org/1999/xlink" x="0px" y="0px"
	 width="50px" height="50px" viewBox="0 0 50 50" enable-background="new 0 0 50 50" xml:space="preserve">
<g>
	<path fill-rule="evenodd" clip-rule="evenodd" d="M18.54,34.291h3.36v-14.16h-2.36c-0.04,0.227-0.117,0.47-0.23,0.73
		c-0.113,0.26-0.29,0.5-0.53,0.72c-0.24,0.22-0.563,0.403-0.97,0.55c-0.407,0.147-0.93,0.22-1.57,0.22h-0.42v2.12h2.72V34.291z"/>
	<path fill-rule="evenodd" clip-rule="evenodd" d="M30.02,34.571c1.573,0,2.74-0.394,3.5-1.181c0.76-0.786,1.14-2.08,1.14-3.88
		c0-1.72-0.297-2.97-0.89-3.75c-0.593-0.779-1.537-1.17-2.83-1.17c-0.227,0-0.457,0.023-0.69,0.07
		c-0.233,0.047-0.457,0.12-0.67,0.22c-0.213,0.101-0.407,0.22-0.58,0.36c-0.173,0.14-0.307,0.297-0.4,0.47l-0.04-0.04l0.16-2.66
		h5.36v-2.6h-7.94l-0.44,7.66h3.12c0.053-0.413,0.197-0.703,0.43-0.87c0.233-0.167,0.503-0.25,0.81-0.25c0.44,0,0.756,0.2,0.95,0.6
		c0.193,0.4,0.29,1.021,0.29,1.86c0,0.974-0.083,1.724-0.25,2.25c-0.167,0.526-0.517,0.79-1.05,0.79c-0.24,0-0.44-0.05-0.6-0.15
		c-0.16-0.1-0.283-0.232-0.37-0.399c-0.086-0.167-0.146-0.356-0.18-0.57c-0.034-0.213-0.05-0.44-0.05-0.68v-0.521h-3.24v0.521
		c0,1.253,0.363,2.22,1.09,2.899C27.376,34.231,28.5,34.571,30.02,34.571z"/>
	<path fill-rule="evenodd" clip-rule="evenodd" d="M25.635,14.127c-0.048,0.036-0.083,0.079-0.104,0.129s-0.033,0.116-0.033,0.2
		c0,0.118,0.022,0.21,0.066,0.278c0.044,0.067,0.108,0.102,0.193,0.102c0.095,0,0.179-0.029,0.25-0.088
		c0.072-0.059,0.107-0.165,0.107-0.319c0-0.124,0.001-0.227,0.003-0.308c0.001-0.081,0.002-0.152,0.002-0.215
		c-0.139,0.073-0.245,0.12-0.316,0.141C25.731,14.067,25.675,14.094,25.635,14.127z"/>
	<path fill-rule="evenodd" clip-rule="evenodd" d="M38,9.875h-1.123c0.029-0.093,0.058-0.186,0.058-0.289
		c0-0.53-0.431-0.961-0.962-0.961s-0.961,0.431-0.961,0.961c0,0.104,0.028,0.196,0.059,0.289h-3.68
		c0.029-0.093,0.058-0.186,0.058-0.289c0-0.53-0.431-0.961-0.962-0.961c-0.53,0-0.961,0.431-0.961,0.961
		c0,0.104,0.029,0.196,0.059,0.289h-3.681c0.029-0.093,0.058-0.186,0.058-0.289c0-0.53-0.43-0.961-0.961-0.961
		s-0.961,0.431-0.961,0.961c0,0.104,0.028,0.196,0.058,0.289h-3.681c0.029-0.093,0.059-0.186,0.059-0.289
		c0-0.53-0.431-0.961-0.961-0.961c-0.531,0-0.962,0.431-0.962,0.961c0,0.104,0.028,0.196,0.058,0.289h-3.68
		c0.03-0.093,0.059-0.186,0.059-0.289c0-0.53-0.43-0.961-0.961-0.961s-0.962,0.431-0.962,0.961c0,0.104,0.028,0.196,0.058,0.289H12
		c-1.518,0-2.75,1.233-2.75,2.75v26c0,1.517,1.232,2.75,2.75,2.75h22.895l5.855-5.855V12.625C40.75,11.108,39.517,9.875,38,9.875z
		 M28.122,12.399l0.363,2.085h0.011l0.347-2.085h0.891l-0.803,2.998c-0.051,0.19-0.105,0.347-0.162,0.47
		c-0.056,0.123-0.125,0.219-0.208,0.289c-0.082,0.069-0.181,0.118-0.298,0.146s-0.261,0.041-0.433,0.041h-0.204
		c-0.029,0-0.06-0.001-0.091-0.003s-0.061-0.004-0.09-0.008v-0.627c0.036,0.007,0.073,0.013,0.11,0.017s0.073,0.005,0.11,0.005
		c0.084,0,0.161-0.022,0.231-0.068s0.117-0.133,0.143-0.261l-0.841-2.998H28.122z M26.053,12.985
		c-0.044-0.053-0.116-0.08-0.214-0.08c-0.125,0-0.209,0.036-0.253,0.107c-0.044,0.071-0.068,0.172-0.072,0.3h-0.792
		c0.003-0.209,0.034-0.376,0.091-0.501c0.057-0.124,0.138-0.223,0.245-0.297c0.106-0.073,0.225-0.123,0.355-0.151
		c0.13-0.027,0.289-0.041,0.476-0.041c0.367,0,0.634,0.067,0.803,0.201c0.168,0.134,0.253,0.36,0.253,0.679v1.529
		c0,0.113,0.004,0.233,0.014,0.357c0.009,0.125,0.04,0.22,0.091,0.286h-0.858c-0.019-0.052-0.03-0.106-0.036-0.165
		c-0.005-0.059-0.01-0.117-0.014-0.176H26.13c-0.063,0.132-0.156,0.234-0.281,0.308s-0.264,0.11-0.418,0.11
		c-0.253,0-0.448-0.07-0.585-0.212c-0.138-0.141-0.207-0.373-0.207-0.695c0-0.177,0.033-0.331,0.099-0.465s0.154-0.232,0.264-0.295
		c0.11-0.062,0.239-0.109,0.388-0.143s0.285-0.066,0.41-0.099c0.066-0.019,0.12-0.036,0.162-0.053s0.075-0.036,0.099-0.061
		c0.024-0.023,0.039-0.054,0.047-0.091c0.007-0.036,0.011-0.082,0.011-0.138C26.119,13.111,26.097,13.038,26.053,12.985z
		 M20.526,11.448h1.353l0.484,2.579h0.011l0.467-2.579h1.336v3.927H23.32v-3.058h-0.011l-0.6,3.058h-0.715l-0.633-3.058h-0.011
		v3.058h-0.825V11.448z M39.25,34.898l-0.311,0.311h-2.355c-1.101,0-2,0.899-2,2v2.355l-0.311,0.311H12
		c-0.689,0-1.25-0.561-1.25-1.25v-21h28.5V34.898z"/>
</g>
</svg>
