<?xml version="1.0" encoding="utf-8"?>
<!-- Generator: Adobe Illustrator 16.0.0, SVG Export Plug-In . SVG Version: 6.00 Build 0)  -->
<!DOCTYPE svg PUBLIC "-//W3C//DTD SVG 1.1//EN" "http://www.w3.org/Graphics/SVG/1.1/DTD/svg11.dtd">
<svg version="1.1" id="Layer_1" xmlns="http://www.w3.org/2000/svg" xmlns:xlink="http://www.w3.org/1999/xlink" x="0px" y="0px"
	 width="50px" height="50px" viewBox="0 0 50 50" enable-background="new 0 0 50 50" xml:space="preserve">
<g>
	<path d="M37,8.5H13c-2.481,0-4.5,2.019-4.5,4.5v24c0,2.481,2.019,4.5,4.5,4.5h24c2.481,0,4.5-2.019,4.5-4.5V13
		C41.5,10.519,39.481,8.5,37,8.5z M40,37c0,1.649-1.35,3-3,3H13c-1.65,0-3-1.351-3-3V13c0-1.649,1.35-3,3-3h24c1.65,0,3,1.351,3,3
		V37z"/>
	<polygon points="26.338,22.204 25.51,26.057 27.189,26.057 26.362,22.204 	"/>
	<path d="M34.818,11.5H15.182c-2.03,0-3.682,1.65-3.682,3.681v19.639c0,2.03,1.652,3.681,3.682,3.681h19.636
		c2.03,0,3.682-1.65,3.682-3.681V15.181C38.5,13.15,36.848,11.5,34.818,11.5z M22.378,29.284h-1.584v-6.84H20.77l-1.524,6.84h-1.344
		l-1.524-6.84h-0.024v6.84H14.77v-8.568h2.568l1.224,6.049h0.024l1.236-6.049h2.556V29.284z M27.886,29.284l-0.396-1.812h-2.28
		l-0.396,1.812h-1.8l2.268-8.568h2.136l2.268,8.568H27.886z M33.01,25.912v3.372h-1.728v-3.372l-2.22-5.196h1.944l1.128,3.313h0.024
		l1.2-3.313h1.872L33.01,25.912z"/>
</g>
</svg>
