<?xml version="1.0" encoding="utf-8"?>
<!-- Generator: Adobe Illustrator 16.0.0, SVG Export Plug-In . SVG Version: 6.00 Build 0)  -->
<!DOCTYPE svg PUBLIC "-//W3C//DTD SVG 1.1//EN" "http://www.w3.org/Graphics/SVG/1.1/DTD/svg11.dtd">
<svg version="1.1" id="Layer_1" xmlns="http://www.w3.org/2000/svg" xmlns:xlink="http://www.w3.org/1999/xlink" x="0px" y="0px"
	 width="50px" height="50px" viewBox="0 0 50 50" enable-background="new 0 0 50 50" xml:space="preserve">
<g>
	<polygon points="26.229,23.41 25.42,25.91 27.04,25.91 26.25,23.41 	"/>
	<path d="M25,9C16.162,9,9,16.163,9,25c0,8.838,7.162,16,16,16c8.837,0,16-7.162,16-16C41,16.163,33.837,9,25,9z M25,10
		c0.738,0,1.337,0.599,1.337,1.338c0,0.738-0.599,1.337-1.337,1.337c-0.739,0-1.338-0.599-1.338-1.337
		C23.662,10.599,24.261,10,25,10z M22.07,28.57h-1.75v-5.42H20.3l-1.5,5.42h-1.42l-1.5-5.42h-0.02v5.42h-1.75v-7.14h2.739l1.23,4.76
		h0.02l1.23-4.76h2.74V28.57z M27.92,28.57l-0.44-1.28h-2.49l-0.449,1.28h-1.91l2.67-7.14h1.89l2.67,7.14H27.92z M33.289,25.91v2.66
		H31.43v-2.66l-2.601-4.479h2.11l1.42,2.899l1.42-2.899h2.11L33.289,25.91z"/>
</g>
</svg>
