<?xml version="1.0" encoding="utf-8"?>
<!-- Generator: Adobe Illustrator 16.0.0, SVG Export Plug-In . SVG Version: 6.00 Build 0)  -->
<!DOCTYPE svg PUBLIC "-//W3C//DTD SVG 1.1//EN" "http://www.w3.org/Graphics/SVG/1.1/DTD/svg11.dtd">
<svg version="1.1" id="Layer_1" xmlns="http://www.w3.org/2000/svg" xmlns:xlink="http://www.w3.org/1999/xlink" x="0px" y="0px"
	 width="50px" height="50px" viewBox="0 0 50 50" enable-background="new 0 0 50 50" xml:space="preserve">
<g>
	<path d="M38,9.25h-1.124c0.029-0.093,0.058-0.186,0.058-0.289C36.935,8.431,36.504,8,35.973,8c-0.531,0-0.961,0.431-0.961,0.961
		c0,0.103,0.028,0.196,0.058,0.289h-3.68c0.03-0.093,0.058-0.186,0.058-0.289c0-0.531-0.43-0.961-0.961-0.961
		c-0.531,0-0.961,0.431-0.961,0.961c0,0.103,0.029,0.196,0.058,0.289h-3.68c0.029-0.093,0.058-0.186,0.058-0.289
		C25.961,8.431,25.531,8,25,8s-0.961,0.431-0.961,0.961c0,0.103,0.029,0.196,0.058,0.289h-3.68c0.029-0.093,0.058-0.186,0.058-0.289
		C20.475,8.431,20.044,8,19.513,8c-0.531,0-0.961,0.431-0.961,0.961c0,0.103,0.028,0.196,0.058,0.289h-3.68
		c0.03-0.093,0.058-0.186,0.058-0.289c0-0.531-0.43-0.961-0.961-0.961c-0.531,0-0.961,0.431-0.961,0.961
		c0,0.103,0.029,0.196,0.058,0.289H12c-1.517,0-2.75,1.233-2.75,2.75v26c0,1.517,1.233,2.75,2.75,2.75h22.895l5.855-5.856V12
		C40.75,10.483,39.517,9.25,38,9.25z M39.25,34.273l-0.311,0.311h-2.356c-1.1,0-2,0.9-2,2v2.356l-0.31,0.31H12
		c-0.689,0-1.25-0.561-1.25-1.25V15h28.5V34.273z"/>
	<path d="M19.661,35.875h10.678c1.958,0,3.559-1.602,3.559-3.559V21.638c0-1.958-1.602-3.559-3.559-3.559H19.661
		c-1.958,0-3.559,1.602-3.559,3.559v10.678C16.102,34.273,17.704,35.875,19.661,35.875z M21.447,34.985h-0.72
		c-0.098,0-0.178-0.08-0.178-0.178s0.08-0.178,0.178-0.178h0.72c0.098,0,0.178,0.08,0.178,0.178S21.545,34.985,21.447,34.985z
		 M23.607,34.985h-0.72c-0.098,0-0.178-0.08-0.178-0.178s0.08-0.178,0.178-0.178h0.72c0.098,0,0.178,0.08,0.178,0.178
		S23.706,34.985,23.607,34.985z M25.769,34.985h-0.721c-0.098,0-0.178-0.08-0.178-0.178s0.08-0.178,0.178-0.178h0.721
		c0.098,0,0.178,0.08,0.178,0.178S25.867,34.985,25.769,34.985z M27.929,34.985h-0.72c-0.098,0-0.178-0.08-0.178-0.178
		s0.08-0.178,0.178-0.178h0.72c0.098,0,0.178,0.08,0.178,0.178S28.027,34.985,27.929,34.985z M30.09,34.985h-0.72
		c-0.098,0-0.178-0.08-0.178-0.178s0.08-0.178,0.178-0.178h0.72c0.098,0,0.178,0.08,0.178,0.178S30.188,34.985,30.09,34.985z
		 M33.008,30.717c0,0.098-0.08,0.178-0.178,0.178c-0.098,0-0.178-0.08-0.178-0.178v-0.72c0-0.098,0.08-0.178,0.178-0.178
		c0.098,0,0.178,0.08,0.178,0.178V30.717z M33.008,28.557c0,0.098-0.08,0.178-0.178,0.178c-0.098,0-0.178-0.08-0.178-0.178v-0.72
		c0-0.098,0.08-0.178,0.178-0.178c0.098,0,0.178,0.08,0.178,0.178V28.557z M33.008,26.396c0,0.098-0.08,0.178-0.178,0.178
		c-0.098,0-0.178-0.08-0.178-0.178v-0.72c0-0.098,0.08-0.178,0.178-0.178c0.098,0,0.178,0.08,0.178,0.178V26.396z M33.008,24.235
		c0,0.098-0.08,0.178-0.178,0.178c-0.098,0-0.178-0.08-0.178-0.178v-0.72c0-0.098,0.08-0.178,0.178-0.178
		c0.098,0,0.178,0.08,0.178,0.178V24.235z M32.795,21.178c0.096-0.011,0.186,0.06,0.196,0.157c0.011,0.1,0.018,0.2,0.018,0.303
		v0.436c0,0.098-0.08,0.178-0.178,0.178c-0.098,0-0.178-0.08-0.178-0.178v-0.436c0-0.089-0.005-0.177-0.015-0.264
		C32.626,21.277,32.697,21.188,32.795,21.178z M32.652,32.315v-0.158c0-0.098,0.08-0.178,0.178-0.178
		c0.098,0,0.178,0.08,0.178,0.178v0.159c-0.001,0.203-0.024,0.404-0.067,0.597c-0.02,0.083-0.093,0.138-0.174,0.138
		c-0.013,0-0.026-0.001-0.04-0.004c-0.096-0.022-0.156-0.117-0.134-0.213C32.632,32.666,32.651,32.492,32.652,32.315z
		 M31.575,19.469c0.056-0.082,0.166-0.103,0.248-0.049c0.213,0.144,0.406,0.317,0.571,0.515c0.063,0.076,0.052,0.188-0.023,0.251
		c-0.034,0.028-0.074,0.041-0.114,0.041c-0.051,0-0.102-0.021-0.137-0.064c-0.143-0.172-0.31-0.322-0.496-0.447
		C31.542,19.661,31.521,19.551,31.575,19.469z M31.402,34.37c0.197-0.103,0.379-0.234,0.541-0.39
		c0.071-0.068,0.184-0.066,0.251,0.004c0.068,0.071,0.066,0.184-0.004,0.251c-0.187,0.18-0.396,0.331-0.624,0.449
		c-0.026,0.014-0.054,0.02-0.082,0.02c-0.064,0-0.126-0.035-0.158-0.096C31.281,34.523,31.315,34.415,31.402,34.37z M29.619,18.969
		h0.72c0.098,0,0.192,0.08,0.192,0.179c0,0.098-0.065,0.178-0.163,0.178c-0.004,0-0.038-0.001-0.042-0.001l-0.708,0
		c-0.098,0-0.178-0.08-0.178-0.178S29.521,18.969,29.619,18.969z M27.458,18.969h0.72c0.098,0,0.178,0.08,0.178,0.178
		s-0.08,0.178-0.178,0.178h-0.72c-0.098,0-0.178-0.08-0.178-0.178S27.36,18.969,27.458,18.969z M25.297,18.969h0.72
		c0.098,0,0.178,0.08,0.178,0.178s-0.08,0.178-0.178,0.178h-0.72c-0.098,0-0.178-0.08-0.178-0.178S25.2,18.969,25.297,18.969z
		 M23.137,18.969h0.72c0.098,0,0.178,0.08,0.178,0.178s-0.08,0.178-0.178,0.178h-0.72c-0.098,0-0.178-0.08-0.178-0.178
		S23.039,18.969,23.137,18.969z M20.976,18.969h0.72c0.098,0,0.178,0.08,0.178,0.178s-0.08,0.178-0.178,0.178h-0.72
		c-0.098,0-0.178-0.08-0.178-0.178S20.878,18.969,20.976,18.969z M20.091,25.013h2.945v-2.945h3.927v2.945h2.946v3.928h-2.946v2.945
		h-3.927v-2.945h-2.945V25.013z M18.772,19.122c0.243-0.086,0.497-0.137,0.754-0.15c0.102-0.006,0.182,0.071,0.187,0.169
		c0.005,0.098-0.071,0.182-0.169,0.187c-0.224,0.011-0.443,0.055-0.654,0.129c-0.02,0.007-0.04,0.01-0.059,0.01
		c-0.073,0-0.142-0.046-0.167-0.119C18.631,19.256,18.679,19.154,18.772,19.122z M18.44,34.495c0.042-0.09,0.149-0.126,0.237-0.085
		c0.203,0.096,0.417,0.161,0.637,0.194c0.097,0.015,0.164,0.105,0.149,0.202c-0.013,0.088-0.089,0.152-0.176,0.152
		c-0.008,0-0.018-0.001-0.026-0.002c-0.254-0.038-0.501-0.113-0.736-0.223C18.437,34.69,18.399,34.584,18.44,34.495z M17.542,20.017
		c0.059-0.079,0.171-0.093,0.25-0.033c0.078,0.06,0.092,0.171,0.032,0.25c-0.136,0.177-0.246,0.373-0.326,0.582
		c-0.027,0.071-0.095,0.114-0.167,0.114c-0.021,0-0.043-0.003-0.064-0.012c-0.091-0.036-0.137-0.138-0.102-0.23
		C17.258,20.447,17.385,20.222,17.542,20.017z M16.992,22.171c0-0.098,0.08-0.178,0.178-0.178c0.098,0,0.178,0.08,0.178,0.178v0.72
		c0,0.098-0.08,0.178-0.178,0.178c-0.098,0-0.178-0.08-0.178-0.178V22.171z M16.992,24.332c0-0.098,0.08-0.178,0.178-0.178
		c0.098,0,0.178,0.08,0.178,0.178v0.72c0,0.098-0.08,0.178-0.178,0.178c-0.098,0-0.178-0.08-0.178-0.178V24.332z M16.992,26.493
		c0-0.098,0.08-0.178,0.178-0.178c0.098,0,0.178,0.08,0.178,0.178v0.72c0,0.098-0.08,0.178-0.178,0.178
		c-0.098,0-0.178-0.08-0.178-0.178V26.493z M16.992,28.653c0-0.098,0.08-0.178,0.178-0.178c0.098,0,0.178,0.08,0.178,0.178v0.72
		c0,0.098-0.08,0.178-0.178,0.178c-0.098,0-0.178-0.08-0.178-0.178V28.653z M16.992,31.534v-0.72c0-0.098,0.08-0.178,0.178-0.178
		c0.098,0,0.178,0.08,0.178,0.178v0.72c0,0.098-0.08,0.178-0.178,0.178C17.072,31.712,16.992,31.632,16.992,31.534z M17.209,32.795
		c0.095-0.026,0.192,0.03,0.218,0.125c0.059,0.215,0.148,0.42,0.266,0.61c0.052,0.083,0.026,0.193-0.058,0.245
		c-0.029,0.019-0.062,0.027-0.094,0.027c-0.059,0-0.118-0.03-0.152-0.084c-0.135-0.219-0.239-0.456-0.306-0.705
		C17.059,32.918,17.114,32.82,17.209,32.795z"/>
</g>
</svg>
