<?xml version="1.0" encoding="utf-8"?>
<!-- Generator: Adobe Illustrator 16.0.0, SVG Export Plug-In . SVG Version: 6.00 Build 0)  -->
<!DOCTYPE svg PUBLIC "-//W3C//DTD SVG 1.1//EN" "http://www.w3.org/Graphics/SVG/1.1/DTD/svg11.dtd">
<svg version="1.1" id="Layer_1" xmlns="http://www.w3.org/2000/svg" xmlns:xlink="http://www.w3.org/1999/xlink" x="0px" y="0px"
	 width="50px" height="50px" viewBox="0 0 50 50" enable-background="new 0 0 50 50" xml:space="preserve">
<g>
	<path d="M37.269,14.215h-3.346l-8.035-6.837c0.045-0.111,0.072-0.233,0.072-0.36c0-0.529-0.43-0.96-0.96-0.96
		c-0.531,0-0.961,0.431-0.961,0.96c0,0.127,0.027,0.249,0.072,0.36l-8.034,6.837h-3.346c-1.432,0-2.595,1.164-2.595,2.595v24.538
		c0,1.432,1.163,2.595,2.595,2.595h21.606l5.525-5.525V16.81C39.863,15.379,38.698,14.215,37.269,14.215z M34.732,17.538
		c0,0.771-0.626,1.396-1.396,1.396c-0.771,0-1.396-0.625-1.396-1.396s0.625-1.396,1.396-1.396
		C34.106,16.142,34.732,16.768,34.732,17.538z M24.514,7.825C24.658,7.913,24.818,7.979,25,7.979s0.342-0.065,0.488-0.153
		l7.508,6.39H17.004L24.514,7.825z M30.564,17.538c0,0.771-0.625,1.396-1.398,1.396c-0.77,0-1.394-0.625-1.394-1.396
		s0.624-1.396,1.394-1.396C29.939,16.142,30.564,16.768,30.564,17.538z M26.396,17.538c0,0.771-0.626,1.396-1.396,1.396
		c-0.771,0-1.396-0.625-1.396-1.396s0.626-1.396,1.396-1.396C25.77,16.142,26.396,16.768,26.396,17.538z M22.227,17.538
		c0,0.771-0.623,1.396-1.393,1.396c-0.774,0-1.399-0.625-1.399-1.396s0.625-1.396,1.399-1.396
		C21.604,16.142,22.227,16.768,22.227,17.538z M16.664,16.142c0.771,0,1.396,0.626,1.396,1.396s-0.625,1.396-1.396,1.396
		c-0.771,0-1.396-0.625-1.396-1.396S15.894,16.142,16.664,16.142z M38.448,37.831l-0.293,0.292h-2.224
		c-1.038,0-1.887,0.851-1.887,1.888v2.224l-0.293,0.293H12.731c-0.651,0-1.18-0.529-1.18-1.18V20.585h26.896V37.831z"/>
	<path d="M24.883,28.491c1.792,0,3.244-0.58,3.244-1.297v-1.297c0,0.716-1.452,1.297-3.244,1.297s-3.244-0.581-3.244-1.297v1.297
		C21.639,27.911,23.091,28.491,24.883,28.491z"/>
	<path d="M24.883,26.813c1.792,0,3.244-0.581,3.244-1.298v-1.297c0-0.717-1.452-1.298-3.244-1.298s-3.244,0.581-3.244,1.298v1.297
		C21.639,26.233,23.091,26.813,24.883,26.813z M24.883,23.245c1.782,0,2.918,0.576,2.918,0.973c0,0.396-1.136,0.973-2.918,0.973
		s-2.919-0.576-2.919-0.973C21.964,23.821,23.101,23.245,24.883,23.245z"/>
	<path d="M24.763,24.564c-0.286,0-0.546-0.039-0.731-0.082l-0.132,0.22c0.166,0.042,0.454,0.076,0.75,0.082v0.178h0.432V24.77
		c0.507-0.038,0.785-0.182,0.785-0.349c0-0.169-0.212-0.273-0.736-0.352c-0.375-0.061-0.529-0.1-0.529-0.162
		c0-0.053,0.092-0.106,0.379-0.106c0.317,0,0.521,0.043,0.635,0.064l0.129-0.213c-0.146-0.03-0.345-0.057-0.64-0.062v-0.166h-0.433
		v0.179c-0.473,0.04-0.745,0.169-0.745,0.335c0,0.183,0.321,0.276,0.794,0.345c0.326,0.047,0.467,0.092,0.467,0.163
		C25.187,24.523,25.015,24.564,24.763,24.564z"/>
	<path d="M21.639,27.585v0.018c0.001,0,0.003,0.001,0.005,0.001C21.644,27.598,21.639,27.592,21.639,27.585z"/>
	<path d="M28.127,27.585c0,0.717-1.452,1.297-3.244,1.297c-0.675,0-1.301-0.082-1.819-0.223c0.106,0.197,0.168,0.413,0.168,0.651
		v0.684c0.486,0.116,1.046,0.186,1.651,0.186c1.792,0,3.244-0.58,3.244-1.298V27.585z"/>
	<path d="M24.883,30.572c-0.605,0-1.165-0.071-1.651-0.187v0.918c0.792-0.48,1.984-0.709,3.129-0.709
		c0.579,0,1.169,0.06,1.716,0.179c0.025-0.066,0.051-0.132,0.051-0.201v-1.298C28.127,29.992,26.675,30.572,24.883,30.572z"/>
	<path d="M19.19,33.585c1.792,0,3.245-0.58,3.245-1.297V30.99c0,0.717-1.453,1.297-3.245,1.297c-1.791,0-3.244-0.581-3.244-1.297
		v1.297C15.946,33.005,17.399,33.585,19.19,33.585z"/>
	<path d="M19.19,35.274c1.792,0,3.245-0.581,3.245-1.298v-1.297c0,0.717-1.453,1.297-3.245,1.297c-1.791,0-3.244-0.58-3.244-1.297
		v1.297C15.946,34.693,17.399,35.274,19.19,35.274z"/>
	<path d="M19.19,36.963c1.792,0,3.245-0.58,3.245-1.297v-1.298c0,0.717-1.453,1.298-3.245,1.298c-1.791,0-3.244-0.581-3.244-1.298
		v1.298C15.946,36.383,17.399,36.963,19.19,36.963z"/>
	<path d="M19.19,38.652c1.792,0,3.245-0.581,3.245-1.298v-1.298c0,0.717-1.453,1.298-3.245,1.298c-1.791,0-3.244-0.581-3.244-1.298
		v1.298C15.946,38.071,17.399,38.652,19.19,38.652z"/>
	<path d="M19.19,40.341c1.792,0,3.245-0.581,3.245-1.298v-1.298c0,0.717-1.453,1.298-3.245,1.298c-1.791,0-3.244-0.581-3.244-1.298
		v1.298C15.946,39.76,17.399,40.341,19.19,40.341z"/>
	<path d="M19.19,31.907c1.792,0,3.245-0.581,3.245-1.298v-1.298c0-0.716-1.453-1.297-3.245-1.297c-1.791,0-3.244,0.581-3.244,1.297
		v1.298C15.946,31.326,17.399,31.907,19.19,31.907z M19.19,28.338c1.782,0,2.92,0.576,2.92,0.973c0,0.397-1.138,0.974-2.92,0.974
		c-1.781,0-2.919-0.577-2.919-0.974C16.271,28.915,17.409,28.338,19.19,28.338z"/>
	<path d="M19.071,29.658c-0.286,0-0.546-0.04-0.731-0.083l-0.132,0.22c0.166,0.042,0.454,0.076,0.75,0.082v0.179h0.432v-0.192
		c0.507-0.038,0.784-0.18,0.784-0.348c0-0.169-0.211-0.273-0.735-0.352c-0.375-0.061-0.53-0.101-0.53-0.162
		c0-0.053,0.093-0.105,0.379-0.105c0.317,0,0.521,0.043,0.636,0.064l0.129-0.213c-0.146-0.03-0.345-0.057-0.64-0.062V28.52h-0.434
		v0.178c-0.472,0.04-0.744,0.17-0.744,0.335c0,0.182,0.321,0.276,0.793,0.344c0.326,0.047,0.468,0.093,0.468,0.164
		C19.495,29.617,19.323,29.658,19.071,29.658z"/>
	<path d="M26.36,35.665c-1.791,0-3.243-0.581-3.243-1.297v1.297c0,0.718,1.452,1.298,3.243,1.298c1.792,0,3.244-0.58,3.244-1.298
		v-1.297C29.604,35.084,28.152,35.665,26.36,35.665z"/>
	<path d="M26.36,37.354c-1.791,0-3.243-0.582-3.243-1.298v1.298c0,0.717,1.452,1.298,3.243,1.298c1.792,0,3.244-0.581,3.244-1.298
		v-1.298C29.604,36.773,28.152,37.354,26.36,37.354z"/>
	<path d="M26.36,39.043c-1.791,0-3.243-0.581-3.243-1.298v1.298c0,0.717,1.452,1.298,3.243,1.298c1.792,0,3.244-0.581,3.244-1.298
		v-1.298C29.604,38.462,28.152,39.043,26.36,39.043z"/>
	<path d="M23.117,32.689v1.297c0,0.717,1.452,1.298,3.243,1.298c1.792,0,3.244-0.581,3.244-1.298v-1.297
		c0-0.717-1.452-1.298-3.244-1.298C24.569,31.391,23.117,31.972,23.117,32.689z M29.279,32.689c0,0.397-1.136,0.974-2.919,0.974
		c-1.782,0-2.919-0.577-2.919-0.974c0-0.397,1.137-0.973,2.919-0.973C28.144,31.716,29.279,32.292,29.279,32.689z"/>
	<path d="M26.148,31.896v0.179c-0.472,0.04-0.744,0.17-0.744,0.335c0,0.183,0.321,0.277,0.793,0.344
		c0.326,0.047,0.468,0.093,0.468,0.165c0,0.075-0.172,0.116-0.424,0.116c-0.286,0-0.547-0.04-0.731-0.083l-0.132,0.22
		c0.165,0.042,0.454,0.076,0.75,0.082v0.179h0.431v-0.192c0.508-0.038,0.785-0.181,0.785-0.349c0-0.17-0.211-0.273-0.735-0.353
		c-0.375-0.06-0.53-0.099-0.53-0.161c0-0.053,0.093-0.105,0.379-0.105c0.317,0,0.521,0.044,0.636,0.064l0.129-0.212
		c-0.146-0.03-0.345-0.056-0.64-0.063v-0.165H26.148z"/>
	<polygon points="30.947,38.747 32.711,38.747 32.711,28.519 34.054,28.519 31.829,24.687 29.604,28.519 30.947,28.519 	"/>
</g>
</svg>
