<?xml version="1.0" encoding="utf-8"?>
<!-- Generator: Adobe Illustrator 16.0.0, SVG Export Plug-In . SVG Version: 6.00 Build 0)  -->
<!DOCTYPE svg PUBLIC "-//W3C//DTD SVG 1.1//EN" "http://www.w3.org/Graphics/SVG/1.1/DTD/svg11.dtd">
<svg version="1.1" id="Layer_1" xmlns="http://www.w3.org/2000/svg" xmlns:xlink="http://www.w3.org/1999/xlink" x="0px" y="0px"
	 width="50px" height="50px" viewBox="0 0 50 50" enable-background="new 0 0 50 50" xml:space="preserve">
<g>
	<path d="M38.25,10.25h-1.123c0.029-0.092,0.058-0.186,0.058-0.288c0-0.53-0.431-0.962-0.962-0.962s-0.961,0.432-0.961,0.962
		c0,0.103,0.028,0.196,0.059,0.288h-3.68c0.029-0.092,0.058-0.186,0.058-0.288c0-0.53-0.431-0.962-0.962-0.962
		c-0.53,0-0.961,0.432-0.961,0.962c0,0.103,0.029,0.196,0.059,0.288h-3.681c0.029-0.092,0.058-0.186,0.058-0.288
		c0-0.53-0.43-0.962-0.961-0.962s-0.961,0.432-0.961,0.962c0,0.103,0.028,0.196,0.058,0.288h-3.681
		c0.029-0.092,0.059-0.186,0.059-0.288c0-0.53-0.431-0.962-0.961-0.962c-0.531,0-0.962,0.432-0.962,0.962
		c0,0.103,0.028,0.196,0.058,0.288h-3.68c0.03-0.092,0.059-0.186,0.059-0.288c0-0.53-0.43-0.962-0.961-0.962
		s-0.962,0.432-0.962,0.962c0,0.103,0.028,0.196,0.058,0.288H12.25c-1.518,0-2.75,1.234-2.75,2.75v26c0,1.518,1.232,2.75,2.75,2.75
		h22.895L41,35.895V13C41,11.484,39.767,10.25,38.25,10.25z M39.5,35.273l-0.311,0.311h-2.355c-1.101,0-2,0.9-2,2v2.356l-0.311,0.31
		H12.25C11.561,40.25,11,39.689,11,39V14h28.5V35.273z"/>
	<path d="M17.899,29.891c-1.122,0-2.03,0.909-2.03,2.03c0,1.12,0.908,2.029,2.03,2.029c1.12,0,2.03-0.909,2.03-2.029
		C19.929,30.8,19.019,29.891,17.899,29.891z M17.899,32.985c-0.589,0-1.065-0.477-1.065-1.064s0.476-1.065,1.065-1.065
		c0.588,0,1.064,0.478,1.064,1.065S18.487,32.985,17.899,32.985z"/>
	<path d="M28.23,29.891c-1.121,0-2.03,0.909-2.03,2.03c0,1.12,0.909,2.029,2.03,2.029c1.121,0,2.03-0.909,2.03-2.029
		C30.26,30.8,29.351,29.891,28.23,29.891z M28.23,32.985c-0.588,0-1.065-0.477-1.065-1.064s0.477-1.065,1.065-1.065
		s1.064,0.478,1.064,1.065S28.818,32.985,28.23,32.985z"/>
	<path d="M33,29.891c-1.121,0-2.03,0.909-2.03,2.03c0,1.12,0.909,2.029,2.03,2.029c1.121,0,2.03-0.909,2.03-2.029
		C35.029,30.8,34.121,29.891,33,29.891z M33,32.985c-0.588,0-1.064-0.477-1.064-1.064s0.477-1.065,1.064-1.065
		s1.065,0.478,1.065,1.065S33.587,32.985,33,32.985z"/>
	<path d="M13.931,31.921h1.406c0-1.413,1.149-2.563,2.562-2.563c1.413,0,2.562,1.149,2.562,2.563h5.208
		c0-1.413,1.149-2.563,2.562-2.563c1.088,0,2.014,0.685,2.384,1.644c0.371-0.959,1.296-1.644,2.385-1.644
		c1.413,0,2.562,1.149,2.562,2.563h0.042c0.39,0,0.709-0.32,0.709-0.71v-0.894c0.271-0.1,0.466-0.355,0.466-0.659v-9.982
		c0-0.391-0.319-0.71-0.709-0.71H21.983c-0.391,0-0.71,0.319-0.71,0.71v8.866h13.893v0.273H20.585v-4.438
		c0-0.39-0.319-0.709-0.709-0.709h-1.664c-0.39,0-0.879,0.271-1.085,0.602l-1.33,2.128c-0.207,0.331-0.669,0.727-1.03,0.878
		l-0.892,0.375c-0.36,0.152-0.654,0.596-0.654,0.986v0.887v1.687C13.221,31.601,13.541,31.921,13.931,31.921z M16.32,26.7
		l1.397-2.238c0.104-0.165,0.348-0.301,0.543-0.301h1.313c0.195,0,0.355,0.16,0.355,0.355v2.129c0,0.195-0.16,0.355-0.355,0.355
		h-3.088C16.291,27.001,16.216,26.865,16.32,26.7z"/>
</g>
</svg>
