<?xml version="1.0" encoding="utf-8"?>
<!-- Generator: Adobe Illustrator 16.0.0, SVG Export Plug-In . SVG Version: 6.00 Build 0)  -->
<!DOCTYPE svg PUBLIC "-//W3C//DTD SVG 1.1//EN" "http://www.w3.org/Graphics/SVG/1.1/DTD/svg11.dtd">
<svg version="1.1" id="Layer_1" xmlns="http://www.w3.org/2000/svg" xmlns:xlink="http://www.w3.org/1999/xlink" x="0px" y="0px"
	 width="50px" height="50px" viewBox="0 0 50 50" enable-background="new 0 0 50 50" xml:space="preserve">
<g>
	<path d="M36.848,10.355H35.75V9.158c0-1.516-1.198-2.75-2.67-2.75s-2.67,1.234-2.67,2.75v1.197h-2.741V9.158
		c0-1.516-1.197-2.75-2.669-2.75s-2.669,1.234-2.669,2.75v1.197H19.59V9.158c0-1.516-1.198-2.75-2.67-2.75s-2.67,1.234-2.67,2.75
		v1.197h-1.402c-2.343,0-4.25,1.907-4.25,4.25v24c0,2.343,1.907,4.25,4.25,4.25h24c2.343,0,4.25-1.907,4.25-4.25v-24
		C41.098,12.262,39.191,10.355,36.848,10.355z M31.91,9.158c0-0.689,0.525-1.25,1.17-1.25s1.17,0.561,1.17,1.25v4.895
		c0,0.689-0.525,1.25-1.17,1.25s-1.17-0.561-1.17-1.25V9.158z M23.831,9.158c0-0.689,0.524-1.25,1.169-1.25s1.169,0.561,1.169,1.25
		v4.895c0,0.689-0.524,1.25-1.169,1.25s-1.169-0.561-1.169-1.25V9.158z M15.75,9.158c0-0.689,0.525-1.25,1.17-1.25
		s1.17,0.561,1.17,1.25v4.895c0,0.689-0.525,1.25-1.17,1.25s-1.17-0.561-1.17-1.25V9.158z M38.598,38.605
		c0,0.965-0.785,1.75-1.75,1.75h-24c-0.965,0-1.75-0.785-1.75-1.75v-18h27.5V38.605z"/>
	<path d="M18.303,38.118c2.028,0,3.672-1.315,3.672-2.938v-8.144h9.583v5.58c-0.524-0.231-1.117-0.374-1.757-0.374
		c-2.028,0-3.672,1.317-3.672,2.938c0,1.623,1.644,2.938,3.672,2.938s3.673-1.315,3.673-2.938V22.724H20.059v9.892
		c-0.523-0.231-1.116-0.374-1.756-0.374c-2.029,0-3.673,1.317-3.673,2.938C14.63,36.803,16.274,38.118,18.303,38.118z M21.976,24.64
		h9.583v1.437h-9.583V24.64z"/>
</g>
</svg>
