<?xml version="1.0" encoding="utf-8"?>
<!-- Generator: Adobe Illustrator 16.0.0, SVG Export Plug-In . SVG Version: 6.00 Build 0)  -->
<!DOCTYPE svg PUBLIC "-//W3C//DTD SVG 1.1//EN" "http://www.w3.org/Graphics/SVG/1.1/DTD/svg11.dtd">
<svg version="1.1" id="Layer_1" xmlns="http://www.w3.org/2000/svg" xmlns:xlink="http://www.w3.org/1999/xlink" x="0px" y="0px"
	 width="50px" height="50px" viewBox="0 0 50 50" enable-background="new 0 0 50 50" xml:space="preserve">
<g>
	<path d="M38.25,10.25h-1.123c0.029-0.093,0.058-0.186,0.058-0.289C37.185,9.431,36.754,9,36.223,9s-0.961,0.431-0.961,0.961
		c0,0.103,0.028,0.196,0.059,0.289h-3.68c0.029-0.093,0.058-0.186,0.058-0.289C31.698,9.431,31.268,9,30.736,9
		c-0.53,0-0.961,0.431-0.961,0.961c0,0.103,0.029,0.196,0.059,0.289h-3.681c0.029-0.093,0.058-0.186,0.058-0.289
		C26.211,9.431,25.781,9,25.25,9s-0.961,0.431-0.961,0.961c0,0.103,0.028,0.196,0.058,0.289h-3.681
		c0.029-0.093,0.059-0.186,0.059-0.289C20.725,9.431,20.294,9,19.764,9c-0.531,0-0.962,0.431-0.962,0.961
		c0,0.103,0.028,0.196,0.058,0.289h-3.68c0.03-0.093,0.059-0.186,0.059-0.289c0-0.531-0.43-0.961-0.961-0.961
		s-0.962,0.431-0.962,0.961c0,0.103,0.028,0.196,0.058,0.289H12.25c-1.518,0-2.75,1.233-2.75,2.75v26c0,1.517,1.232,2.75,2.75,2.75
		h22.895L41,35.895V13C41,11.484,39.767,10.25,38.25,10.25z M39.5,35.273l-0.311,0.311h-2.005V17.943
		c0-1.576-1.289-2.864-2.864-2.864H16.181c-1.576,0-2.864,1.289-2.864,2.864v18.14c0,1.576,1.289,2.864,2.864,2.864H34.32
		c0.176,0,0.347-0.021,0.514-0.052v1.045l-0.311,0.31H12.25C11.561,40.25,11,39.69,11,39V14h28.5V35.273z M18.829,18.734v-1.477
		h1.049v5.053h-1.199l-1.08-1.95c-0.299-0.538-0.63-1.19-0.876-1.782L16.7,18.585c0.031,0.666,0.046,1.378,0.046,2.203v1.521h-1.05
		v-5.053h1.335l1.049,1.852c0.299,0.531,0.6,1.163,0.825,1.732h0.022C18.852,20.173,18.829,19.492,18.829,18.734z M15.703,24.149
		h19.094v11.457c0,0.525-0.431,0.955-0.955,0.955H16.658c-0.526,0-0.955-0.43-0.955-0.955V24.149z M23.877,19.244v0.929h-1.86v1.198
		h2.077v0.938h-3.223v-5.053h3.119v0.937h-1.973v1.05H23.877z M24.545,17.257h1.223l0.382,2.083
		c0.113,0.601,0.217,1.253,0.299,1.764h0.015c0.083-0.549,0.203-1.155,0.33-1.778l0.427-2.069h1.214l0.406,2.129
		c0.112,0.594,0.194,1.133,0.269,1.694h0.015c0.076-0.561,0.188-1.153,0.292-1.753l0.412-2.069h1.162l-1.303,5.053h-1.236
		l-0.427-2.174c-0.097-0.509-0.181-0.981-0.24-1.557h-0.015c-0.089,0.569-0.173,1.048-0.292,1.557l-0.479,2.174h-1.253
		L24.545,17.257z M32.765,22.384c-0.576,0-1.146-0.15-1.432-0.307l0.233-0.945c0.308,0.16,0.779,0.314,1.266,0.314
		c0.524,0,0.802-0.216,0.802-0.545c0-0.314-0.239-0.496-0.847-0.713c-0.839-0.292-1.387-0.756-1.387-1.49
		c0-0.864,0.72-1.523,1.913-1.523c0.569,0,0.988,0.122,1.289,0.256l-0.254,0.92c-0.203-0.096-0.563-0.238-1.059-0.238
		c-0.494,0-0.733,0.225-0.733,0.487c0,0.323,0.284,0.463,0.937,0.712c0.891,0.328,1.311,0.792,1.311,1.507
		C34.803,21.664,34.152,22.384,32.765,22.384z"/>
	<path d="M17.02,26.275h7.213c0.262,0,0.477-0.179,0.477-0.397c0-0.219-0.215-0.398-0.477-0.398H17.02
		c-0.263,0-0.477,0.179-0.477,0.398C16.542,26.096,16.757,26.275,17.02,26.275z"/>
	<path d="M17.02,28.066h7.213c0.262,0,0.477-0.179,0.477-0.397c0-0.219-0.215-0.398-0.477-0.398H17.02
		c-0.263,0-0.477,0.179-0.477,0.398C16.542,27.887,16.757,28.066,17.02,28.066z"/>
	<path d="M17.02,29.857h7.213c0.262,0,0.477-0.179,0.477-0.397c0-0.219-0.215-0.398-0.477-0.398H17.02
		c-0.263,0-0.477,0.179-0.477,0.398C16.542,29.678,16.757,29.857,17.02,29.857z"/>
	<path d="M17.02,31.648h7.213c0.262,0,0.477-0.179,0.477-0.397c0-0.219-0.215-0.398-0.477-0.398H17.02
		c-0.263,0-0.477,0.179-0.477,0.398C16.542,31.469,16.757,31.648,17.02,31.648z"/>
	<path d="M17.02,33.439h7.213c0.262,0,0.477-0.179,0.477-0.397c0-0.219-0.215-0.398-0.477-0.398H17.02
		c-0.263,0-0.477,0.179-0.477,0.398C16.542,33.26,16.757,33.439,17.02,33.439z"/>
	<path d="M17.02,35.23h7.213c0.262,0,0.477-0.179,0.477-0.397c0-0.219-0.215-0.398-0.477-0.398H17.02
		c-0.263,0-0.477,0.179-0.477,0.398C16.542,35.051,16.757,35.23,17.02,35.23z"/>
	<path d="M26.269,26.275h7.212c0.263,0,0.477-0.179,0.477-0.397c0-0.219-0.214-0.398-0.477-0.398h-7.212
		c-0.263,0-0.478,0.179-0.478,0.398C25.791,26.096,26.006,26.275,26.269,26.275z"/>
	<path d="M26.269,28.066h7.212c0.263,0,0.477-0.179,0.477-0.397c0-0.219-0.214-0.398-0.477-0.398h-7.212
		c-0.263,0-0.478,0.179-0.478,0.398C25.791,27.887,26.006,28.066,26.269,28.066z"/>
	<path d="M26.269,29.857h7.212c0.263,0,0.477-0.179,0.477-0.397c0-0.219-0.214-0.398-0.477-0.398h-7.212
		c-0.263,0-0.478,0.179-0.478,0.398C25.791,29.678,26.006,29.857,26.269,29.857z"/>
	<path d="M26.269,31.648h7.212c0.263,0,0.477-0.179,0.477-0.397c0-0.219-0.214-0.398-0.477-0.398h-7.212
		c-0.263,0-0.478,0.179-0.478,0.398C25.791,31.469,26.006,31.648,26.269,31.648z"/>
	<path d="M26.269,33.439h7.212c0.263,0,0.477-0.179,0.477-0.397c0-0.219-0.214-0.398-0.477-0.398h-7.212
		c-0.263,0-0.478,0.179-0.478,0.398C25.791,33.26,26.006,33.439,26.269,33.439z"/>
	<path d="M26.269,35.23h7.212c0.263,0,0.477-0.179,0.477-0.397c0-0.219-0.214-0.398-0.477-0.398h-7.212
		c-0.263,0-0.478,0.179-0.478,0.398C25.791,35.051,26.006,35.23,26.269,35.23z"/>
</g>
</svg>
