<?xml version="1.0" encoding="utf-8"?>
<!-- Generator: Adobe Illustrator 16.0.0, SVG Export Plug-In . SVG Version: 6.00 Build 0)  -->
<!DOCTYPE svg PUBLIC "-//W3C//DTD SVG 1.1//EN" "http://www.w3.org/Graphics/SVG/1.1/DTD/svg11.dtd">
<svg version="1.1" id="Layer_1" xmlns="http://www.w3.org/2000/svg" xmlns:xlink="http://www.w3.org/1999/xlink" x="0px" y="0px"
	 width="50px" height="50px" viewBox="0 0 50 50" enable-background="new 0 0 50 50" xml:space="preserve">
<g>
	<path d="M20.62,25.601c-0.16,0.273-0.407,0.594-0.74,0.96c-0.333,0.367-0.8,0.817-1.399,1.351c-0.307,0.267-0.645,0.594-1.01,0.979
		c-0.367,0.388-0.714,0.841-1.041,1.36c-0.326,0.521-0.6,1.113-0.82,1.78c-0.219,0.667-0.329,1.42-0.329,2.26h9.04v-2.6h-5.02
		c0.172-0.4,0.502-0.83,0.989-1.29s1.077-1.03,1.771-1.71c0.439-0.413,0.803-0.787,1.09-1.12c0.286-0.333,0.516-0.67,0.689-1.011
		c0.174-0.34,0.293-0.703,0.36-1.09c0.066-0.387,0.101-0.847,0.101-1.38c0-0.56-0.067-1.08-0.201-1.56
		c-0.133-0.48-0.366-0.896-0.699-1.25c-0.334-0.354-0.783-0.634-1.35-0.84c-0.567-0.207-1.277-0.311-2.131-0.311
		c-3.04,0-4.561,1.42-4.561,4.26v0.46h3.121c0-0.267,0.006-0.553,0.02-0.859s0.061-0.59,0.141-0.851
		c0.08-0.26,0.206-0.473,0.379-0.64c0.174-0.167,0.42-0.25,0.74-0.25c0.48,0,0.797,0.17,0.95,0.51s0.229,0.79,0.229,1.351
		c0,0.267-0.013,0.513-0.039,0.739C20.873,25.078,20.78,25.328,20.62,25.601z"/>
	<path d="M26.279,32.671c0.32,0.613,0.787,1.084,1.4,1.41s1.453,0.49,2.521,0.49c1.053,0,1.886-0.188,2.5-0.561
		c0.612-0.373,1.079-0.883,1.399-1.529c0.32-0.647,0.527-1.41,0.621-2.29c0.092-0.881,0.139-1.827,0.139-2.841
		c0-1.133-0.043-2.149-0.129-3.05c-0.088-0.899-0.291-1.656-0.61-2.27c-0.32-0.613-0.79-1.083-1.41-1.41
		c-0.62-0.326-1.457-0.49-2.51-0.49c-1.054,0-1.888,0.188-2.5,0.561c-0.614,0.373-1.08,0.883-1.4,1.529
		c-0.319,0.647-0.526,1.41-0.62,2.29s-0.14,1.827-0.14,2.84c0,1.147,0.043,2.167,0.13,3.061
		C25.756,31.305,25.96,32.058,26.279,32.671z M28.939,24.861c0.027-0.66,0.087-1.184,0.181-1.57c0.093-0.387,0.227-0.656,0.399-0.81
		c0.174-0.153,0.4-0.23,0.681-0.23s0.507,0.077,0.68,0.23s0.307,0.423,0.399,0.81c0.094,0.387,0.154,0.91,0.181,1.57
		s0.04,1.496,0.04,2.51c0,1-0.014,1.827-0.04,2.479c-0.026,0.654-0.087,1.174-0.181,1.561c-0.093,0.387-0.227,0.657-0.399,0.81
		c-0.173,0.153-0.399,0.23-0.68,0.23s-0.507-0.077-0.681-0.23c-0.173-0.152-0.307-0.423-0.399-0.81
		c-0.094-0.387-0.153-0.906-0.181-1.561c-0.026-0.652-0.039-1.479-0.039-2.479C28.9,26.357,28.913,25.521,28.939,24.861z"/>
	<path d="M38,9.875h-1.123c0.029-0.093,0.058-0.186,0.058-0.289c0-0.53-0.431-0.961-0.962-0.961s-0.961,0.431-0.961,0.961
		c0,0.104,0.028,0.196,0.059,0.289h-3.68c0.029-0.093,0.058-0.186,0.058-0.289c0-0.53-0.431-0.961-0.962-0.961
		c-0.53,0-0.961,0.431-0.961,0.961c0,0.104,0.029,0.196,0.059,0.289h-3.681c0.029-0.093,0.058-0.186,0.058-0.289
		c0-0.53-0.43-0.961-0.961-0.961s-0.961,0.431-0.961,0.961c0,0.104,0.028,0.196,0.058,0.289h-3.681
		c0.029-0.093,0.059-0.186,0.059-0.289c0-0.53-0.431-0.961-0.961-0.961c-0.531,0-0.962,0.431-0.962,0.961
		c0,0.104,0.028,0.196,0.058,0.289h-3.68c0.03-0.093,0.059-0.186,0.059-0.289c0-0.53-0.43-0.961-0.961-0.961
		s-0.962,0.431-0.962,0.961c0,0.104,0.028,0.196,0.058,0.289H12c-1.518,0-2.75,1.233-2.75,2.75v26c0,1.517,1.232,2.75,2.75,2.75
		h22.895l5.855-5.855V12.625C40.75,11.108,39.517,9.875,38,9.875z M39.25,34.898l-0.311,0.311h-2.355c-1.101,0-2,0.899-2,2v2.355
		l-0.311,0.311H12c-0.689,0-1.25-0.561-1.25-1.25v-21h28.5V34.898z M39.25,15.833c0,0.55-0.45,1-1,1h-26.5c-0.55,0-1-0.45-1-1v-4
		c0-0.55,0.45-1,1-1h26.5c0.55,0,1,0.45,1,1V15.833z"/>
	<path d="M18.849,11.981c-0.09-0.187-0.228-0.335-0.413-0.445c-0.185-0.11-0.44-0.165-0.767-0.165c-0.305,0-0.548,0.048-0.729,0.143
		c-0.181,0.096-0.32,0.232-0.418,0.41c-0.097,0.178-0.16,0.393-0.189,0.644s-0.043,0.532-0.043,0.844
		c0,0.313,0.014,0.594,0.043,0.845s0.093,0.466,0.189,0.644c0.098,0.178,0.237,0.314,0.418,0.409
		c0.182,0.096,0.425,0.144,0.729,0.144c0.326,0,0.582-0.055,0.767-0.165c0.186-0.11,0.323-0.259,0.413-0.445
		c0.09-0.188,0.146-0.404,0.167-0.652c0.023-0.247,0.033-0.507,0.033-0.778c0-0.271-0.01-0.53-0.033-0.778
		C18.994,12.386,18.938,12.169,18.849,11.981z M18.078,14.091c-0.009,0.182-0.029,0.327-0.061,0.438
		c-0.031,0.109-0.074,0.188-0.131,0.236c-0.058,0.048-0.132,0.071-0.223,0.071c-0.092,0-0.166-0.023-0.221-0.071
		s-0.098-0.127-0.127-0.236c-0.029-0.11-0.049-0.256-0.057-0.438c-0.01-0.182-0.015-0.408-0.015-0.68
		c0-0.268,0.005-0.493,0.015-0.676c0.008-0.184,0.027-0.33,0.057-0.44s0.072-0.188,0.127-0.236s0.129-0.071,0.221-0.071
		c0.091,0,0.165,0.023,0.223,0.071c0.057,0.048,0.1,0.126,0.131,0.236s0.052,0.257,0.061,0.44c0.01,0.183,0.014,0.408,0.014,0.676
		C18.092,13.683,18.088,13.909,18.078,14.091z"/>
	<path d="M20.344,13.17c0.024-0.085,0.059-0.149,0.103-0.195s0.103-0.069,0.176-0.069c0.117,0,0.202,0.048,0.256,0.144
		c0.054,0.095,0.079,0.253,0.079,0.473h0.826c0-0.176-0.018-0.338-0.053-0.486s-0.096-0.275-0.185-0.38
		c-0.088-0.104-0.208-0.187-0.36-0.245s-0.346-0.088-0.58-0.088c-0.242,0-0.441,0.037-0.597,0.11s-0.28,0.175-0.371,0.305
		c-0.092,0.131-0.155,0.284-0.19,0.463c-0.034,0.178-0.052,0.371-0.052,0.58c0,0.22,0.011,0.431,0.03,0.632
		c0.02,0.202,0.072,0.38,0.154,0.534c0.082,0.153,0.203,0.276,0.363,0.368c0.159,0.092,0.38,0.138,0.662,0.138
		c0.403,0,0.699-0.1,0.889-0.3c0.188-0.2,0.285-0.529,0.289-0.987h-0.826c-0.003,0.132-0.01,0.243-0.021,0.333
		c-0.011,0.09-0.028,0.162-0.053,0.217c-0.023,0.055-0.057,0.095-0.099,0.118c-0.042,0.024-0.097,0.036-0.162,0.036
		c-0.073,0-0.132-0.02-0.176-0.058c-0.044-0.039-0.078-0.099-0.103-0.179c-0.023-0.081-0.039-0.183-0.047-0.306
		c-0.007-0.123-0.01-0.269-0.01-0.438c0-0.153,0.003-0.291,0.01-0.412C20.305,13.356,20.32,13.254,20.344,13.17z"/>
	<path d="M23.146,11.525h-0.891v0.874h-0.369v0.616h0.369v1.59c0,0.172,0.012,0.312,0.035,0.418
		c0.023,0.105,0.066,0.188,0.127,0.244s0.143,0.095,0.244,0.113c0.104,0.018,0.231,0.027,0.385,0.027c0.17,0,0.34-0.011,0.512-0.033
		v-0.594c-0.018,0.004-0.039,0.006-0.063,0.008s-0.045,0.003-0.063,0.003c-0.106,0-0.181-0.02-0.223-0.058
		c-0.042-0.039-0.063-0.111-0.063-0.218v-1.501h0.412v-0.616h-0.412V11.525z"/>
	<path d="M26.02,12.768c-0.086-0.139-0.209-0.248-0.371-0.327c-0.16-0.078-0.377-0.118-0.648-0.118
		c-0.257,0-0.465,0.041-0.624,0.121c-0.159,0.081-0.284,0.191-0.374,0.333c-0.09,0.141-0.15,0.307-0.182,0.498
		c-0.031,0.19-0.047,0.397-0.047,0.621s0.013,0.43,0.039,0.619c0.025,0.188,0.08,0.353,0.164,0.492
		c0.085,0.139,0.209,0.248,0.371,0.327c0.164,0.078,0.381,0.118,0.652,0.118c0.257,0,0.465-0.041,0.624-0.121
		c0.159-0.081,0.284-0.191,0.374-0.333c0.09-0.141,0.15-0.307,0.182-0.497c0.031-0.191,0.047-0.398,0.047-0.622
		s-0.014-0.43-0.039-0.619C26.162,13.071,26.106,12.907,26.02,12.768z M25.322,14.352c-0.01,0.125-0.026,0.226-0.05,0.303
		c-0.024,0.077-0.058,0.132-0.099,0.165c-0.043,0.033-0.099,0.05-0.168,0.05c-0.133,0-0.223-0.073-0.27-0.22
		c-0.048-0.147-0.072-0.402-0.072-0.765c0-0.359,0.024-0.612,0.072-0.759c0.047-0.147,0.137-0.221,0.27-0.221
		c0.069,0,0.125,0.017,0.168,0.05c0.041,0.033,0.074,0.088,0.099,0.165c0.023,0.077,0.04,0.179,0.05,0.305
		c0.009,0.127,0.014,0.282,0.014,0.465C25.336,14.073,25.331,14.228,25.322,14.352z"/>
	<path d="M28.895,12.771c-0.063-0.141-0.15-0.251-0.265-0.33c-0.114-0.078-0.261-0.118-0.44-0.118c-0.063,0-0.124,0.007-0.187,0.02
		s-0.123,0.034-0.182,0.063s-0.113,0.07-0.165,0.123c-0.051,0.054-0.096,0.119-0.132,0.195h-0.011v-1.275h-0.891v3.927h0.857v-0.363
		h0.012c0.014,0.052,0.037,0.103,0.068,0.154s0.073,0.098,0.126,0.141c0.054,0.042,0.116,0.076,0.19,0.104
		c0.072,0.027,0.159,0.041,0.258,0.041c0.146,0,0.277-0.028,0.394-0.085c0.115-0.058,0.212-0.147,0.288-0.27
		c0.078-0.123,0.137-0.282,0.177-0.477s0.061-0.431,0.061-0.709c0-0.231-0.011-0.443-0.033-0.638S28.957,12.912,28.895,12.771z
		 M28.154,14.217c-0.006,0.112-0.02,0.211-0.041,0.298c-0.022,0.086-0.057,0.155-0.105,0.209c-0.047,0.053-0.111,0.079-0.191,0.079
		c-0.133,0-0.219-0.077-0.259-0.23c-0.04-0.154-0.061-0.376-0.061-0.666c0-0.132,0.003-0.255,0.009-0.368
		c0.005-0.113,0.019-0.213,0.041-0.297c0.021-0.085,0.054-0.15,0.096-0.198c0.043-0.048,0.102-0.071,0.179-0.071
		c0.081,0,0.144,0.021,0.19,0.063c0.045,0.042,0.079,0.103,0.102,0.181c0.021,0.079,0.035,0.174,0.041,0.283
		c0.006,0.11,0.008,0.233,0.008,0.369C28.162,13.989,28.16,14.105,28.154,14.217z"/>
	<path d="M31.771,14.033c0-0.253-0.011-0.484-0.03-0.693s-0.07-0.39-0.148-0.542c-0.079-0.151-0.197-0.27-0.355-0.352
		c-0.157-0.083-0.373-0.124-0.648-0.124c-0.242,0-0.441,0.037-0.597,0.11s-0.28,0.175-0.371,0.305
		c-0.092,0.131-0.155,0.284-0.19,0.463c-0.034,0.178-0.052,0.371-0.052,0.58c0,0.22,0.011,0.431,0.03,0.632
		c0.02,0.202,0.072,0.38,0.154,0.534c0.082,0.153,0.203,0.276,0.363,0.368c0.159,0.092,0.38,0.138,0.662,0.138
		c0.374,0,0.658-0.089,0.853-0.267s0.296-0.454,0.303-0.828h-0.825c-0.011,0.188-0.039,0.324-0.082,0.412
		c-0.045,0.089-0.125,0.133-0.242,0.133c-0.129,0-0.215-0.058-0.259-0.171s-0.065-0.286-0.065-0.517v-0.182H31.771z M30.33,13.043
		c0.039-0.113,0.133-0.171,0.279-0.171c0.125,0,0.207,0.056,0.246,0.165c0.037,0.11,0.057,0.27,0.057,0.479H30.27
		C30.27,13.314,30.289,13.156,30.33,13.043z"/>
	<path d="M33.707,12.322c-0.188,0-0.339,0.05-0.454,0.148c-0.116,0.1-0.202,0.215-0.261,0.347H32.98v-0.418h-0.857v2.976h0.891
		v-1.688c0-0.198,0.053-0.337,0.159-0.418s0.249-0.121,0.429-0.121c0.045,0,0.086,0.002,0.124,0.006
		c0.038,0.003,0.08,0.009,0.124,0.017v-0.836c-0.037-0.008-0.063-0.012-0.077-0.012H33.707z"/>
</g>
</svg>
