<?xml version="1.0" encoding="utf-8"?>
<!-- Generator: Adobe Illustrator 16.0.0, SVG Export Plug-In . SVG Version: 6.00 Build 0)  -->
<!DOCTYPE svg PUBLIC "-//W3C//DTD SVG 1.1//EN" "http://www.w3.org/Graphics/SVG/1.1/DTD/svg11.dtd">
<svg version="1.1" id="Layer_1" xmlns="http://www.w3.org/2000/svg" xmlns:xlink="http://www.w3.org/1999/xlink" x="0px" y="0px"
	 width="50px" height="50px" viewBox="0 0 50 50" enable-background="new 0 0 50 50" xml:space="preserve">
<g>
	<path d="M38,9.875h-1.123c0.029-0.093,0.058-0.186,0.058-0.289c0-0.531-0.431-0.961-0.962-0.961s-0.961,0.431-0.961,0.961
		c0,0.103,0.028,0.196,0.059,0.289h-3.68c0.029-0.093,0.058-0.186,0.058-0.289c0-0.531-0.431-0.961-0.962-0.961
		c-0.53,0-0.961,0.431-0.961,0.961c0,0.103,0.029,0.196,0.059,0.289h-3.681c0.029-0.093,0.058-0.186,0.058-0.289
		c0-0.531-0.43-0.961-0.961-0.961s-0.961,0.431-0.961,0.961c0,0.103,0.028,0.196,0.058,0.289h-3.681
		c0.029-0.093,0.059-0.186,0.059-0.289c0-0.531-0.431-0.961-0.961-0.961c-0.531,0-0.962,0.431-0.962,0.961
		c0,0.103,0.028,0.196,0.058,0.289h-3.68c0.03-0.093,0.059-0.186,0.059-0.289c0-0.531-0.43-0.961-0.961-0.961
		s-0.962,0.431-0.962,0.961c0,0.103,0.028,0.196,0.058,0.289H12c-1.518,0-2.75,1.233-2.75,2.75v26c0,1.518,1.232,2.75,2.75,2.75
		h22.895l5.855-5.855V12.625C40.75,11.109,39.517,9.875,38,9.875z M39.25,34.898l-0.311,0.311h-2.355c-1.101,0-2,0.9-2,2v2.356
		l-0.311,0.31H12c-0.689,0-1.25-0.561-1.25-1.25v-25h28.5V34.898z"/>
	<path d="M32.484,20.238c0.598-0.161,1.213,0.196,1.372,0.792l2.322,8.66c0.159,0.597-0.196,1.212-0.793,1.373l-8.194,2.195
		l-4.5,2.599l13.042-3.496c1.313-0.351,2.095-1.706,1.743-3.019l-2.32-8.661c-0.352-1.313-1.707-2.094-3.02-1.744l-1.11,0.298
		l0.695,1.205L32.484,20.238z"/>
	<path d="M17.251,35.338c0.679,1.178,2.19,1.582,3.368,0.901l12.422-7.172c1.178-0.68,1.583-2.189,0.903-3.367l-4.483-7.765
		c-0.68-1.178-2.19-1.582-3.368-0.902l-12.422,7.172c-1.177,0.68-1.583,2.189-0.902,3.367L17.251,35.338z M14.344,25.37
		l12.421-7.172c0.536-0.309,1.222-0.125,1.531,0.41l4.483,7.765c0.309,0.535,0.126,1.221-0.411,1.53l-12.421,7.172
		c-0.536,0.309-1.223,0.125-1.531-0.41L13.934,26.9C13.625,26.366,13.808,25.679,14.344,25.37z"/>
	<path d="M20.149,26.096c0.542,0.313,2.232,0.698,2.546,0.155c0.312-0.539-0.87-1.809-1.412-2.122
		c-0.542-0.314-1.236-0.128-1.549,0.413C19.421,25.087,19.606,25.782,20.149,26.096z"/>
	<path d="M26.563,27.177c-0.541-0.312-2.232-0.698-2.546-0.155c-0.312,0.539,0.87,1.81,1.411,2.121
		c0.543,0.314,1.239,0.128,1.551-0.413C27.292,28.187,27.107,27.491,26.563,27.177z"/>
	<path d="M21.284,29.144c0.541-0.313,1.721-1.583,1.407-2.128c-0.311-0.539-2.002-0.151-2.542,0.161
		c-0.544,0.314-0.729,1.008-0.418,1.548C20.045,29.27,20.74,29.457,21.284,29.144z"/>
	<path d="M24.02,26.257c0.312,0.54,2.002,0.15,2.544-0.161c0.542-0.314,0.729-1.008,0.417-1.547
		c-0.313-0.545-1.011-0.733-1.553-0.419C24.887,24.441,23.706,25.712,24.02,26.257z"/>
	<path d="M23.353,27.401c-0.624,0-1.131,1.657-1.132,2.283c0,0.625,0.508,1.136,1.132,1.134c0.627,0.001,1.137-0.508,1.14-1.134
		C24.49,29.059,23.982,27.402,23.353,27.401z"/>
	<path d="M23.359,25.871c0.624-0.001,1.132-1.659,1.133-2.284c-0.001-0.627-0.51-1.134-1.133-1.134
		c-0.629-0.002-1.14,0.508-1.138,1.134C22.221,24.212,22.729,25.871,23.359,25.871z"/>
	<circle cx="23.356" cy="26.637" r="0.455"/>
</g>
</svg>
