<?xml version="1.0" encoding="utf-8"?>
<!-- Generator: Adobe Illustrator 16.0.0, SVG Export Plug-In . SVG Version: 6.00 Build 0)  -->
<!DOCTYPE svg PUBLIC "-//W3C//DTD SVG 1.1//EN" "http://www.w3.org/Graphics/SVG/1.1/DTD/svg11.dtd">
<svg version="1.1" id="Layer_1" xmlns="http://www.w3.org/2000/svg" xmlns:xlink="http://www.w3.org/1999/xlink" x="0px" y="0px"
	 width="50px" height="50px" viewBox="0 0 50 50" enable-background="new 0 0 50 50" xml:space="preserve">
<g>
	<path d="M38,9.25h-1.124c0.029-0.093,0.058-0.186,0.058-0.289C36.935,8.431,36.504,8,35.973,8c-0.531,0-0.961,0.431-0.961,0.961
		c0,0.103,0.028,0.196,0.058,0.289h-3.68c0.03-0.093,0.058-0.186,0.058-0.289c0-0.531-0.43-0.961-0.961-0.961
		c-0.531,0-0.961,0.431-0.961,0.961c0,0.103,0.029,0.196,0.058,0.289h-3.68c0.029-0.093,0.058-0.186,0.058-0.289
		C25.961,8.431,25.531,8,25,8s-0.961,0.431-0.961,0.961c0,0.103,0.029,0.196,0.058,0.289h-3.68c0.029-0.093,0.058-0.186,0.058-0.289
		C20.475,8.431,20.044,8,19.513,8c-0.531,0-0.961,0.431-0.961,0.961c0,0.103,0.028,0.196,0.058,0.289h-3.68
		c0.03-0.093,0.058-0.186,0.058-0.289c0-0.531-0.43-0.961-0.961-0.961c-0.531,0-0.961,0.431-0.961,0.961
		c0,0.103,0.029,0.196,0.058,0.289H12c-1.517,0-2.75,1.233-2.75,2.75v26c0,1.517,1.233,2.75,2.75,2.75h22.895l5.855-5.856V12
		C40.75,10.483,39.517,9.25,38,9.25z M39.25,34.273l-0.311,0.311h-2.356c-1.1,0-2,0.9-2,2v2.356l-0.31,0.31H12
		c-0.689,0-1.25-0.561-1.25-1.25V17h28.5V34.273z"/>
	<path d="M16.074,32.818h7.041l-0.492-0.851c-0.186-0.324-0.274-0.684-0.279-1.048c-1.541-0.608-2.636-2.103-2.636-3.859
		c0-2.294,1.862-4.154,4.156-4.154c2.065,0,3.767,1.513,4.087,3.489l2.843-1.642c0.328-0.19,0.701-0.291,1.08-0.291
		c0.763,0,1.471,0.406,1.858,1.059v-2.14c0-1.142-0.935-2.077-2.076-2.077h-9.042c0-1.05-0.936-1.909-2.077-1.909h-2.391
		c-1.142,0-2.077,0.859-2.077,1.909v0.001c-1.14,0.003-2.072,0.937-2.072,2.076v7.358C13.996,31.883,14.932,32.818,16.074,32.818z"
		/>
	<path d="M26.46,27.061c0-1.433-1.164-2.597-2.596-2.597s-2.598,1.164-2.598,2.597c0,1.084,0.669,2.013,1.615,2.402
		c0.154-0.174,0.329-0.329,0.535-0.449l3.022-1.746C26.445,27.2,26.46,27.132,26.46,27.061z"/>
	<path d="M31.144,25.358l-7.378,4.261c-0.7,0.403-0.94,1.301-0.537,2l2.664,4.612c0.403,0.7,1.3,0.939,2,0.536l7.379-4.26
		c0.699-0.404,0.94-1.301,0.536-2l-2.664-4.612C32.741,25.194,31.844,24.954,31.144,25.358z M34.871,31.815l-7.378,4.26
		c-0.318,0.183-0.726,0.074-0.91-0.244l-2.663-4.612c-0.183-0.318-0.075-0.726,0.244-0.91l7.378-4.259
		c0.318-0.184,0.726-0.073,0.909,0.244l2.663,4.612C35.299,31.223,35.189,31.631,34.871,31.815z"/>
	<path d="M27.613,30.741c0.32,0.186,1.326,0.415,1.511,0.092c0.186-0.32-0.516-1.073-0.838-1.261
		c-0.322-0.185-0.733-0.075-0.92,0.246C27.18,30.142,27.29,30.556,27.613,30.741z"/>
	<path d="M31.422,31.384c-0.32-0.186-1.325-0.415-1.512-0.093c-0.185,0.32,0.518,1.076,0.839,1.26
		c0.323,0.188,0.735,0.078,0.921-0.244C31.855,31.984,31.746,31.57,31.422,31.384z"/>
	<path d="M29.123,31.288c-0.185-0.32-1.189-0.089-1.509,0.096c-0.324,0.186-0.434,0.598-0.249,0.919
		c0.186,0.324,0.6,0.434,0.922,0.249C28.607,32.365,29.309,31.611,29.123,31.288z"/>
	<path d="M30.749,29.572c-0.321,0.187-1.023,0.941-0.837,1.265c0.186,0.32,1.188,0.089,1.51-0.096
		c0.323-0.187,0.434-0.598,0.249-0.919C31.485,29.498,31.07,29.388,30.749,29.572z"/>
	<path d="M29.517,31.516c-0.371,0-0.673,0.985-0.674,1.356c0.001,0.372,0.301,0.674,0.674,0.674c0.372,0,0.675-0.301,0.676-0.674
		C30.192,32.501,29.889,31.517,29.517,31.516z"/>
	<path d="M29.519,30.607c0.37,0,0.673-0.985,0.674-1.356c-0.001-0.374-0.304-0.673-0.674-0.675c-0.373,0-0.676,0.302-0.675,0.675
		C28.844,29.623,29.144,30.607,29.519,30.607z"/>
	<circle cx="29.518" cy="31.063" r="0.269"/>
</g>
</svg>
