<?xml version="1.0" encoding="utf-8"?>
<!-- Generator: Adobe Illustrator 16.0.0, SVG Export Plug-In . SVG Version: 6.00 Build 0)  -->
<!DOCTYPE svg PUBLIC "-//W3C//DTD SVG 1.1//EN" "http://www.w3.org/Graphics/SVG/1.1/DTD/svg11.dtd">
<svg version="1.1" id="Layer_1" xmlns="http://www.w3.org/2000/svg" xmlns:xlink="http://www.w3.org/1999/xlink" x="0px" y="0px"
	 width="50px" height="50px" viewBox="0 0 50 50" enable-background="new 0 0 50 50" xml:space="preserve">
<g>
	<path d="M38.25,10.25h-1.123c0.029-0.092,0.058-0.186,0.058-0.288c0-0.53-0.431-0.962-0.962-0.962s-0.961,0.432-0.961,0.962
		c0,0.103,0.028,0.196,0.059,0.288h-3.68c0.029-0.092,0.058-0.186,0.058-0.288c0-0.53-0.431-0.962-0.962-0.962
		c-0.53,0-0.961,0.432-0.961,0.962c0,0.103,0.029,0.196,0.059,0.288h-3.681c0.029-0.092,0.058-0.186,0.058-0.288
		c0-0.53-0.43-0.962-0.961-0.962s-0.961,0.432-0.961,0.962c0,0.103,0.028,0.196,0.058,0.288h-3.681
		c0.029-0.092,0.059-0.186,0.059-0.288c0-0.53-0.431-0.962-0.961-0.962c-0.531,0-0.962,0.432-0.962,0.962
		c0,0.103,0.028,0.196,0.058,0.288h-3.68c0.03-0.092,0.059-0.186,0.059-0.288c0-0.53-0.43-0.962-0.961-0.962
		s-0.962,0.432-0.962,0.962c0,0.103,0.028,0.196,0.058,0.288H12.25c-1.518,0-2.75,1.234-2.75,2.75v26c0,1.518,1.232,2.75,2.75,2.75
		h22.895L41,35.895V13C41,11.484,39.767,10.25,38.25,10.25z M39.5,35.273l-0.311,0.311h-2.355c-1.101,0-2,0.9-2,2v2.356l-0.311,0.31
		H12.25C11.561,40.25,11,39.689,11,39V14h28.5V35.273z"/>
	<path d="M25.25,38.875c6.468,0,11.729-5.262,11.729-11.729S31.718,15.418,25.25,15.418S13.521,20.68,13.521,27.146
		S18.782,38.875,25.25,38.875z M21.035,34.152c0.58-0.265,1.181-0.479,1.799-0.631c0.175,1.259,0.425,2.473,0.781,3.405
		C22.626,36.407,21.74,35.434,21.035,34.152z M22.436,28.016c0.02,0.974,0.076,2.56,0.244,4.214
		c-0.758,0.176-1.496,0.423-2.204,0.748c-0.589-1.439-0.97-3.14-1.063-4.962H22.436z M19.412,26.277
		c0.094-1.822,0.475-3.522,1.063-4.962c0.708,0.325,1.446,0.572,2.204,0.748c-0.168,1.654-0.225,3.24-0.244,4.214H19.412z
		 M25.383,37.131c-0.045,0.001-0.088,0.007-0.133,0.007s-0.088-0.006-0.133-0.007c-0.32-0.524-0.709-1.837-0.993-3.832
		c0.372-0.042,0.747-0.071,1.126-0.071s0.754,0.029,1.126,0.071C26.092,35.294,25.703,36.606,25.383,37.131z M29.883,35.99
		c0.273-0.368,0.526-0.775,0.763-1.206c0.188,0.117,0.368,0.244,0.549,0.373C30.779,35.467,30.343,35.748,29.883,35.99z
		 M28.064,28.016h3.024c-0.09,1.84-0.46,3.54-1.038,4.973c-0.715-0.33-1.462-0.582-2.23-0.759
		C27.987,30.575,28.045,28.989,28.064,28.016z M27.82,22.063c0.769-0.177,1.516-0.429,2.23-0.759
		c0.578,1.433,0.948,3.133,1.038,4.973h-3.024C28.045,25.304,27.987,23.718,27.82,22.063z M32.216,19.998
		c1.668,1.626,2.769,3.826,2.981,6.279h-2.807c-0.092-2.073-0.506-3.982-1.174-5.589C31.562,20.478,31.894,20.245,32.216,19.998z
		 M32.391,28.016h2.807c-0.213,2.453-1.313,4.653-2.981,6.279c-0.322-0.247-0.654-0.479-0.999-0.69
		C31.885,31.998,32.299,30.089,32.391,28.016z M31.194,19.136c-0.181,0.129-0.361,0.256-0.549,0.373
		c-0.236-0.431-0.489-0.838-0.763-1.206C30.343,18.545,30.779,18.826,31.194,19.136z M29.495,20.125
		c-0.589,0.271-1.199,0.492-1.829,0.646c-0.176-1.268-0.428-2.489-0.788-3.424C27.891,17.858,28.789,18.83,29.495,20.125z
		 M27.666,33.521c0.63,0.154,1.24,0.375,1.829,0.646c-0.706,1.295-1.604,2.267-2.617,2.777
		C27.238,36.011,27.49,34.789,27.666,33.521z M25.117,17.162c0.045-0.001,0.088-0.007,0.133-0.007s0.088,0.006,0.133,0.007
		c0.32,0.524,0.709,1.837,0.993,3.832c-0.372,0.042-0.747,0.071-1.126,0.071s-0.754-0.029-1.126-0.071
		C24.408,18.999,24.797,17.687,25.117,17.162z M23.964,22.287c0.426,0.048,0.854,0.081,1.286,0.081s0.86-0.033,1.286-0.081
		c0.12,1.16,0.202,2.497,0.226,3.99h-3.023C23.762,24.784,23.844,23.447,23.964,22.287z M26.762,28.016
		c-0.023,1.493-0.105,2.83-0.226,3.99c-0.426-0.048-0.854-0.081-1.286-0.081s-0.86,0.033-1.286,0.081
		c-0.12-1.16-0.202-2.497-0.226-3.99H26.762z M23.615,17.366c-0.356,0.933-0.606,2.146-0.781,3.405
		c-0.618-0.152-1.219-0.366-1.799-0.631C21.74,18.859,22.626,17.886,23.615,17.366z M20.617,18.303
		c-0.273,0.368-0.526,0.775-0.763,1.206c-0.188-0.117-0.368-0.244-0.549-0.374C19.721,18.826,20.157,18.545,20.617,18.303z
		 M19.854,34.784c0.236,0.431,0.489,0.838,0.763,1.206c-0.46-0.242-0.896-0.523-1.312-0.832
		C19.486,35.028,19.667,34.901,19.854,34.784z M18.284,19.998c0.323,0.246,0.654,0.479,0.999,0.689
		c-0.668,1.607-1.082,3.517-1.174,5.59h-2.807C15.516,23.824,16.616,21.623,18.284,19.998z M18.109,28.016
		c0.092,2.073,0.506,3.982,1.174,5.59c-0.345,0.21-0.676,0.443-0.999,0.689c-1.668-1.625-2.769-3.826-2.981-6.279H18.109z"/>
</g>
</svg>
