<?xml version="1.0" encoding="utf-8"?>
<!-- Generator: Adobe Illustrator 16.0.0, SVG Export Plug-In . SVG Version: 6.00 Build 0)  -->
<!DOCTYPE svg PUBLIC "-//W3C//DTD SVG 1.1//EN" "http://www.w3.org/Graphics/SVG/1.1/DTD/svg11.dtd">
<svg version="1.1" id="Layer_1" xmlns="http://www.w3.org/2000/svg" xmlns:xlink="http://www.w3.org/1999/xlink" x="0px" y="0px"
	 width="50px" height="50px" viewBox="0 0 50 50" enable-background="new 0 0 50 50" xml:space="preserve">
<g>
	<path d="M36.848,10.355H35.75V9.158c0-1.516-1.197-2.75-2.67-2.75s-2.67,1.234-2.67,2.75v1.197h-2.74V9.158
		c0-1.516-1.197-2.75-2.67-2.75s-2.67,1.234-2.67,2.75v1.197h-2.74V9.158c0-1.516-1.197-2.75-2.67-2.75s-2.67,1.234-2.67,2.75v1.197
		h-1.402c-2.343,0-4.25,1.907-4.25,4.25v24c0,2.343,1.907,4.25,4.25,4.25h24c2.344,0,4.25-1.907,4.25-4.25v-24
		C41.098,12.262,39.191,10.355,36.848,10.355z M31.91,9.158c0-0.689,0.525-1.25,1.17-1.25s1.17,0.561,1.17,1.25v4.895
		c0,0.689-0.525,1.25-1.17,1.25s-1.17-0.561-1.17-1.25V9.158z M23.83,9.158c0-0.689,0.525-1.25,1.17-1.25s1.17,0.561,1.17,1.25
		v4.895c0,0.689-0.525,1.25-1.17,1.25s-1.17-0.561-1.17-1.25V9.158z M15.75,9.158c0-0.689,0.525-1.25,1.17-1.25
		s1.17,0.561,1.17,1.25v4.895c0,0.689-0.525,1.25-1.17,1.25s-1.17-0.561-1.17-1.25V9.158z M38.598,38.605
		c0,0.965-0.785,1.75-1.75,1.75h-24c-0.965,0-1.75-0.785-1.75-1.75v-22h27.5V38.605z"/>
	<path d="M25.927,31.812v-2.156h-2.158v2.156h-6.471c-0.592,0-1.14-0.171-1.617-0.45v3.686c0,1.187,0.971,2.158,2.157,2.158h14.02
		c1.187,0,2.157-0.971,2.157-2.158v-3.686c-0.478,0.279-1.025,0.45-1.618,0.45H25.927z"/>
	<path d="M17.298,30.733h5.394v-2.157h1.077v-3.705v-1.078v-1.147h2.158v1.147v1.078v3.705h1.077v2.157h5.393
		c1.188,0,2.158-0.97,2.158-2.157v-4.314c0-1.186-0.971-2.157-2.158-2.157h-2.845c0-1.487-1.21-2.696-2.697-2.696h-4.014
		c-1.465,0-2.654,1.175-2.691,2.696h-2.852c-1.187,0-2.157,0.971-2.157,2.157v4.314C15.141,29.763,16.111,30.733,17.298,30.733z
		 M22.841,20.488h4.014c0.871,0,1.577,0.691,1.612,1.618h-7.244C21.223,21.214,21.948,20.488,22.841,20.488z"/>
</g>
</svg>
