<?xml version="1.0" encoding="utf-8"?>
<!-- Generator: Adobe Illustrator 16.0.0, SVG Export Plug-In . SVG Version: 6.00 Build 0)  -->
<!DOCTYPE svg PUBLIC "-//W3C//DTD SVG 1.1//EN" "http://www.w3.org/Graphics/SVG/1.1/DTD/svg11.dtd">
<svg version="1.1" id="Layer_1" xmlns="http://www.w3.org/2000/svg" xmlns:xlink="http://www.w3.org/1999/xlink" x="0px" y="0px"
	 width="50px" height="50px" viewBox="0 0 50 50" enable-background="new 0 0 50 50" xml:space="preserve">
<g>
	<path d="M38,9.875h-1.123c0.029-0.093,0.058-0.186,0.058-0.289c0-0.531-0.431-0.961-0.962-0.961s-0.961,0.431-0.961,0.961
		c0,0.103,0.028,0.196,0.059,0.289h-3.68c0.029-0.093,0.058-0.186,0.058-0.289c0-0.531-0.431-0.961-0.962-0.961
		c-0.53,0-0.961,0.431-0.961,0.961c0,0.103,0.029,0.196,0.059,0.289h-3.681c0.029-0.093,0.058-0.186,0.058-0.289
		c0-0.531-0.43-0.961-0.961-0.961s-0.961,0.431-0.961,0.961c0,0.103,0.028,0.196,0.058,0.289h-3.681
		c0.029-0.093,0.059-0.186,0.059-0.289c0-0.531-0.431-0.961-0.961-0.961c-0.531,0-0.962,0.431-0.962,0.961
		c0,0.103,0.028,0.196,0.058,0.289h-3.68c0.03-0.093,0.059-0.186,0.059-0.289c0-0.531-0.43-0.961-0.961-0.961
		s-0.962,0.431-0.962,0.961c0,0.103,0.028,0.196,0.058,0.289H12c-1.518,0-2.75,1.233-2.75,2.75v26c0,1.518,1.232,2.75,2.75,2.75
		h22.895l5.855-5.855V12.625C40.75,11.109,39.517,9.875,38,9.875z M39.25,34.898l-0.311,0.311h-2.355c-1.101,0-2,0.9-2,2v2.356
		l-0.311,0.31H12c-0.689,0-1.25-0.561-1.25-1.25v-25h28.5V34.898z"/>
	<path d="M14.542,28.946c0.057,0.013,0.113,0.019,0.169,0.019c0.355,0,0.676-0.246,0.756-0.607l1.145-5.15
		c0.08-0.025,0.171-0.051,0.269-0.08v5.292l-0.617,7.672c-0.042,0.512,0.34,0.961,0.853,1.002c0.025,0.002,0.05,0.003,0.076,0.003
		c0.479,0,0.886-0.369,0.926-0.856l0.557-6.934c0.116,0.05,0.242,0.08,0.376,0.08c0.134,0,0.261-0.03,0.375-0.08l0.558,6.934
		c0.039,0.487,0.446,0.856,0.926,0.856c0.026,0,0.05-0.001,0.076-0.003c0.513-0.041,0.894-0.49,0.853-1.002l-0.617-7.672v-5.292
		c0.394,0.112,0.66,0.207,0.667,0.208c0.003,0.001,0.006,0,0.009,0.002c0.003,0.001,0.006,0.003,0.009,0.005l1.137,0.379v4.175
		c0,0.685,0.556,1.241,1.24,1.241h2.258l-1.98,7.393c-0.067,0.248,0.081,0.503,0.329,0.57c0.04,0.011,0.081,0.016,0.121,0.016
		c0.205,0,0.394-0.137,0.45-0.345l2.044-7.633h1.585v5.41c0,0.256,0.208,0.464,0.465,0.464c0.257,0,0.465-0.208,0.465-0.464v-5.41
		h1.585l2.045,7.633c0.056,0.208,0.244,0.345,0.45,0.345c0.039,0,0.08-0.005,0.121-0.016c0.247-0.067,0.395-0.322,0.328-0.57
		l-1.98-7.393h2.258c0.684,0,1.241-0.556,1.241-1.241v-7.442c0-0.684-0.557-1.241-1.241-1.241h-4.806v-0.931
		c0-0.256-0.208-0.465-0.465-0.465c-0.256,0-0.465,0.208-0.465,0.465v0.931h-4.807c-0.684,0-1.24,0.557-1.24,1.241v1.633
		l-0.646-0.215c-0.169-0.06-1.673-0.584-3.059-0.652l-0.185,0.369h-0.004l0.522,4.066l-0.621,1.084l-0.62-1.084l0.522-4.066h-0.006
		l-0.184-0.369c-1.438,0.07-3.007,0.633-3.078,0.659c-0.026,0.009-0.042,0.029-0.066,0.041c-0.05,0.024-0.098,0.051-0.142,0.086
		c-0.038,0.029-0.07,0.06-0.1,0.095c-0.034,0.039-0.063,0.077-0.089,0.122c-0.026,0.044-0.045,0.09-0.062,0.14
		c-0.009,0.027-0.028,0.048-0.034,0.077l-1.24,5.581C13.86,28.439,14.123,28.853,14.542,28.946z M23.664,23.929l1.964,0.655
		c0.082,0.027,0.164,0.04,0.245,0.04c0.325,0,0.628-0.206,0.735-0.53c0.018-0.055,0.015-0.11,0.02-0.165l4.66-2.156
		c0.078-0.036,0.112-0.128,0.075-0.206c-0.036-0.078-0.127-0.112-0.206-0.076l-4.563,2.111c-0.075-0.221-0.238-0.411-0.477-0.49
		l-2.455-0.817v-1.84c0-0.342,0.278-0.62,0.62-0.62h10.543c0.342,0,0.621,0.278,0.621,0.62v7.442c0,0.342-0.278,0.621-0.621,0.621
		H24.284c-0.342,0-0.62-0.278-0.62-0.621V23.929z"/>
	<path d="M19.051,21.053c1.082,0,1.96-1.255,1.96-2.337c0-1.083-0.878-1.96-1.96-1.96c-1.083,0-1.961,0.877-1.961,1.96
		C17.089,19.797,17.968,21.053,19.051,21.053z"/>
</g>
</svg>
