<?xml version="1.0" encoding="utf-8"?>
<!-- Generator: Adobe Illustrator 16.0.0, SVG Export Plug-In . SVG Version: 6.00 Build 0)  -->
<!DOCTYPE svg PUBLIC "-//W3C//DTD SVG 1.1//EN" "http://www.w3.org/Graphics/SVG/1.1/DTD/svg11.dtd">
<svg version="1.1" id="Layer_1" xmlns="http://www.w3.org/2000/svg" xmlns:xlink="http://www.w3.org/1999/xlink" x="0px" y="0px"
	 width="50px" height="50px" viewBox="0 0 50 50" enable-background="new 0 0 50 50" xml:space="preserve">
<g>
	<path d="M37,10.724h-1.098V9.526c0-1.516-1.197-2.75-2.67-2.75s-2.67,1.234-2.67,2.75v1.197h-2.74V9.526
		c0-1.516-1.197-2.75-2.67-2.75s-2.67,1.234-2.67,2.75v1.197h-2.74V9.526c0-1.516-1.197-2.75-2.67-2.75s-2.67,1.234-2.67,2.75v1.197
		H13c-2.343,0-4.25,1.907-4.25,4.25v24c0,2.343,1.907,4.25,4.25,4.25h24c2.344,0,4.25-1.907,4.25-4.25v-24
		C41.25,12.63,39.344,10.724,37,10.724z M32.063,9.526c0-0.689,0.525-1.25,1.17-1.25s1.17,0.561,1.17,1.25v4.895
		c0,0.689-0.525,1.25-1.17,1.25s-1.17-0.561-1.17-1.25V9.526z M23.982,9.526c0-0.689,0.525-1.25,1.17-1.25s1.17,0.561,1.17,1.25
		v4.895c0,0.689-0.525,1.25-1.17,1.25s-1.17-0.561-1.17-1.25V9.526z M15.902,9.526c0-0.689,0.525-1.25,1.17-1.25
		s1.17,0.561,1.17,1.25v4.895c0,0.689-0.525,1.25-1.17,1.25s-1.17-0.561-1.17-1.25V9.526z M38.75,38.974
		c0,0.965-0.785,1.75-1.75,1.75H13c-0.965,0-1.75-0.785-1.75-1.75v-22h27.5V38.974z"/>
	<path d="M19.16,30.099c0.423,0,0.826-0.086,1.204-0.221c0.656,0.903,1.714,1.497,2.916,1.497c0.735,0,1.416-0.224,1.987-0.601
		c0.65,0.632,1.535,1.026,2.516,1.026c1.441,0,2.676-0.853,3.256-2.074c0.177,0.034,0.356,0.055,0.545,0.055
		c1.583,0,2.868-1.283,2.868-2.867c0-1.493-1.145-2.704-2.601-2.84c-0.25-2.001-1.938-3.553-4.003-3.553
		c-0.989,0-1.882,0.366-2.584,0.951c-0.66-0.844-1.678-1.398-2.834-1.398c-1.725,0-3.161,1.211-3.521,2.829
		c-1.876,0.131-3.362,1.678-3.362,3.586C15.548,28.481,17.165,30.099,19.16,30.099z"/>
	<path d="M18.14,34.219c0,0.613,0.497,1.11,1.11,1.11s1.11-0.498,1.11-1.11c0-0.613-1.11-2.42-1.11-2.42S18.14,33.606,18.14,34.219z
		"/>
	<path d="M21.014,36.837c0,0.613,0.498,1.11,1.111,1.11s1.11-0.498,1.11-1.11c0-0.613-1.11-2.419-1.11-2.419
		S21.014,36.224,21.014,36.837z"/>
	<path d="M23.89,34.219c0,0.613,0.498,1.11,1.11,1.11s1.11-0.498,1.11-1.11c0-0.613-1.11-2.42-1.11-2.42S23.89,33.606,23.89,34.219z
		"/>
	<path d="M26.765,36.837c0,0.613,0.497,1.11,1.109,1.11c0.614,0,1.112-0.498,1.112-1.11c0-0.613-1.112-2.419-1.112-2.419
		S26.765,36.224,26.765,36.837z"/>
	<path d="M29.64,34.219c0,0.613,0.497,1.11,1.111,1.11c0.612,0,1.109-0.498,1.109-1.11c0-0.613-1.109-2.42-1.109-2.42
		S29.64,33.606,29.64,34.219z"/>
</g>
</svg>
