<?xml version="1.0" encoding="utf-8"?>
<!-- Generator: Adobe Illustrator 16.0.0, SVG Export Plug-In . SVG Version: 6.00 Build 0)  -->
<!DOCTYPE svg PUBLIC "-//W3C//DTD SVG 1.1//EN" "http://www.w3.org/Graphics/SVG/1.1/DTD/svg11.dtd">
<svg version="1.1" id="Layer_1" xmlns="http://www.w3.org/2000/svg" xmlns:xlink="http://www.w3.org/1999/xlink" x="0px" y="0px"
	 width="50px" height="50px" viewBox="0 0 50 50" enable-background="new 0 0 50 50" xml:space="preserve">
<g>
	<path d="M38.25,10.25h-26c-1.518,0-2.75,1.233-2.75,2.75v26c0,1.517,1.232,2.75,2.75,2.75h22.895L41,35.895V13
		C41,11.484,39.767,10.25,38.25,10.25z M34.083,12.292c0.817,0,1.479,0.662,1.479,1.479c0,0.817-0.662,1.479-1.479,1.479
		s-1.479-0.662-1.479-1.479C32.604,12.954,33.266,12.292,34.083,12.292z M29.666,12.292c0.817,0,1.479,0.662,1.479,1.479
		c0,0.817-0.662,1.479-1.479,1.479c-0.816,0-1.479-0.662-1.479-1.479C28.188,12.954,28.85,12.292,29.666,12.292z M25.25,12.292
		c0.816,0,1.479,0.662,1.479,1.479c0,0.817-0.662,1.479-1.479,1.479c-0.817,0-1.479-0.662-1.479-1.479
		C23.771,12.954,24.433,12.292,25.25,12.292z M20.834,12.292c0.816,0,1.479,0.662,1.479,1.479c0,0.817-0.662,1.479-1.479,1.479
		c-0.818,0-1.48-0.662-1.48-1.479C19.354,12.954,20.016,12.292,20.834,12.292z M16.417,12.292c0.817,0,1.479,0.662,1.479,1.479
		c0,0.817-0.662,1.479-1.479,1.479s-1.479-0.662-1.479-1.479C14.938,12.954,15.6,12.292,16.417,12.292z M39.5,35.273l-0.311,0.311
		h-2.355c-1.101,0-2,0.9-2,2v2.356l-0.311,0.31H12.25C11.561,40.25,11,39.69,11,39V17h28.5V35.273z"/>
	<path d="M20.681,27.401v8.416c0,1.179,0.965,2.144,2.144,2.144h6.431c1.18,0,2.144-0.964,2.144-2.144v-9.288H29.8
		c0.035-0.171-0.07-0.358-0.422-0.436c-0.045-0.463-0.816-1.391-1.304-0.706c-0.065-0.287-0.471-0.639-0.882,0
		c0.043-0.949-0.861-1.457-1.878-0.707c-0.153-0.331-1.234-0.367-1.234,0.707c-0.222-0.333-0.929-0.331-1.061,0
		c-0.133,0.331,0.088,0.64,0.309,0.883c-0.188,0.046-0.326,0.142-0.43,0.259h-1.346l6.388-6.387c-0.948-0.949-2.502-0.95-3.45,0
		l-0.514,0.512c-0.433-0.161-0.939-0.07-1.286,0.277l-2.588,2.588c-0.347,0.346-0.438,0.854-0.277,1.287l-0.512,0.512
		c-0.948,0.95-0.948,2.501,0.001,3.45L20.681,27.401z M28.184,28.673c0-0.395,0.318-0.714,0.715-0.714
		c0.394,0,0.714,0.319,0.714,0.714v7.145c0,0.395-0.32,0.714-0.714,0.714c-0.396,0-0.715-0.32-0.715-0.714V28.673z M25.325,28.673
		c0-0.395,0.319-0.714,0.715-0.714s0.714,0.319,0.714,0.714v7.145c0,0.395-0.318,0.714-0.714,0.714s-0.715-0.32-0.715-0.714V28.673z
		 M22.467,28.673c0-0.395,0.32-0.714,0.715-0.714c0.396,0,0.715,0.319,0.715,0.714v7.145c0,0.395-0.319,0.714-0.715,0.714
		c-0.395,0-0.715-0.32-0.715-0.714V28.673z"/>
</g>
</svg>
