<?xml version="1.0" encoding="utf-8"?>
<!-- Generator: Adobe Illustrator 16.0.0, SVG Export Plug-In . SVG Version: 6.00 Build 0)  -->
<!DOCTYPE svg PUBLIC "-//W3C//DTD SVG 1.1//EN" "http://www.w3.org/Graphics/SVG/1.1/DTD/svg11.dtd">
<svg version="1.1" id="Layer_1" xmlns="http://www.w3.org/2000/svg" xmlns:xlink="http://www.w3.org/1999/xlink" x="0px" y="0px"
	 width="50px" height="50px" viewBox="0 0 50 50" enable-background="new 0 0 50 50" xml:space="preserve">
<g>
	<path d="M36.848,10.355H35.75V9.158c0-1.516-1.197-2.75-2.67-2.75s-2.67,1.234-2.67,2.75v1.197h-2.74V9.158
		c0-1.516-1.197-2.75-2.67-2.75s-2.67,1.234-2.67,2.75v1.197h-2.74V9.158c0-1.516-1.197-2.75-2.67-2.75s-2.67,1.234-2.67,2.75v1.197
		h-1.402c-2.343,0-4.25,1.907-4.25,4.25v24c0,2.343,1.907,4.25,4.25,4.25h24c2.344,0,4.25-1.907,4.25-4.25v-24
		C41.098,12.262,39.191,10.355,36.848,10.355z M31.91,9.158c0-0.689,0.525-1.25,1.17-1.25s1.17,0.561,1.17,1.25v4.895
		c0,0.689-0.525,1.25-1.17,1.25s-1.17-0.561-1.17-1.25V9.158z M23.83,9.158c0-0.689,0.525-1.25,1.17-1.25s1.17,0.561,1.17,1.25
		v4.895c0,0.689-0.525,1.25-1.17,1.25s-1.17-0.561-1.17-1.25V9.158z M15.75,9.158c0-0.689,0.525-1.25,1.17-1.25
		s1.17,0.561,1.17,1.25v4.895c0,0.689-0.525,1.25-1.17,1.25s-1.17-0.561-1.17-1.25V9.158z M38.598,38.605
		c0,0.965-0.785,1.75-1.75,1.75h-24c-0.965,0-1.75-0.785-1.75-1.75v-22h27.5V38.605z"/>
	<path d="M18.71,34.858c0.196,0.463,0.642,0.962,1.177,1l4.322,0.301l0.019-0.226l0.152-3.789c0,0-4.442-0.159-5.239-0.283
		C18.833,32.775,18.301,33.907,18.71,34.858z"/>
	<path d="M27.832,31.952l-0.075-1.779L25.588,33.9l2.37,3.771l-0.084-1.688c0,0,1.515-0.056,2.254-0.121
		c0.74-0.067,1.005-0.731,1.005-0.731l1.935-3.693C31.314,32.369,27.832,31.952,27.832,31.952z"/>
	<path d="M28.313,27.212c0,0,2.379,3.757,2.723,4.484c0.93-0.26,2.164-0.46,2.719-1.334c0.271-0.424,0.432-1.073,0.16-1.537
		l-2.19-3.738l-0.195,0.113L28.313,27.212z"/>
	<path d="M26.696,24.654l-1.547,0.885l4.308,0.209l2.26-3.839l-1.461,0.851c0,0-0.746-1.32-1.146-1.945
		c-0.399-0.625-1.111-0.556-1.111-0.556l-4.169-0.019C25.462,21.37,26.696,24.654,26.696,24.654z"/>
	<path d="M22.265,26.407c0,0,2.241-3.838,2.727-4.482c-0.658-0.705-1.404-1.707-2.436-1.798c-0.502-0.045-1.151,0.111-1.436,0.566
		l-2.312,3.664l0.19,0.121L22.265,26.407z"/>
	<path d="M16.215,28.761c-0.362,0.648,0.035,1.242,0.035,1.242l1.958,3.682c0.221-1.972,2.531-4.613,2.531-4.613l1.512,0.944
		l-1.855-3.894l-4.451-0.174l1.441,0.883C17.386,26.83,16.575,28.113,16.215,28.761z"/>
</g>
</svg>
