<?xml version="1.0" encoding="utf-8"?>
<!-- Generator: Adobe Illustrator 16.0.0, SVG Export Plug-In . SVG Version: 6.00 Build 0)  -->
<!DOCTYPE svg PUBLIC "-//W3C//DTD SVG 1.1//EN" "http://www.w3.org/Graphics/SVG/1.1/DTD/svg11.dtd">
<svg version="1.1" id="Layer_1" xmlns="http://www.w3.org/2000/svg" xmlns:xlink="http://www.w3.org/1999/xlink" x="0px" y="0px"
	 width="50px" height="50px" viewBox="0 0 50 50" enable-background="new 0 0 50 50" xml:space="preserve">
<g>
	<path d="M38.25,10.25h-26c-1.518,0-2.75,1.233-2.75,2.75v26c0,1.517,1.232,2.75,2.75,2.75h22.895L41,35.895V13
		C41,11.484,39.767,10.25,38.25,10.25z M34.083,12.292c0.817,0,1.479,0.662,1.479,1.479c0,0.817-0.662,1.479-1.479,1.479
		s-1.479-0.662-1.479-1.479C32.604,12.954,33.266,12.292,34.083,12.292z M29.666,12.292c0.817,0,1.479,0.662,1.479,1.479
		c0,0.817-0.662,1.479-1.479,1.479c-0.816,0-1.479-0.662-1.479-1.479C28.188,12.954,28.85,12.292,29.666,12.292z M25.25,12.292
		c0.816,0,1.479,0.662,1.479,1.479c0,0.817-0.662,1.479-1.479,1.479c-0.817,0-1.479-0.662-1.479-1.479
		C23.771,12.954,24.433,12.292,25.25,12.292z M20.834,12.292c0.816,0,1.479,0.662,1.479,1.479c0,0.817-0.662,1.479-1.479,1.479
		c-0.818,0-1.48-0.662-1.48-1.479C19.354,12.954,20.016,12.292,20.834,12.292z M16.417,12.292c0.817,0,1.479,0.662,1.479,1.479
		c0,0.817-0.662,1.479-1.479,1.479s-1.479-0.662-1.479-1.479C14.938,12.954,15.6,12.292,16.417,12.292z M39.5,35.273l-0.311,0.311
		h-2.355c-1.101,0-2,0.9-2,2v2.356l-0.311,0.31H12.25C11.561,40.25,11,39.69,11,39V17h28.5V35.273z"/>
	<path d="M17.009,36.781c-0.36,0.358-0.36,0.939-0.002,1.297c0.359,0.359,0.94,0.359,1.299,0l5.724-5.723l-1.298-1.298
		L17.009,36.781z"/>
	<path d="M25.133,28.656l1.298,1.297l0.958-0.958c0.026-0.026,0.036-0.06,0.06-0.089c1.188,0.765,2.65,0.756,4.073-0.511
		c0.038-0.02,0.076-0.04,0.108-0.071l4.169-4.17c0.194-0.193,0.194-0.504,0-0.697c-0.19-0.192-0.502-0.192-0.696,0.001l-4.029,4.032
		l-0.696-0.695l4.031-4.031c0.194-0.193,0.194-0.504,0.003-0.696c-0.194-0.192-0.503-0.192-0.695,0.001L29.684,26.1l-0.697-0.695
		l4.031-4.032c0.193-0.193,0.193-0.504,0.002-0.696s-0.503-0.191-0.696,0.001l-4.031,4.031l-0.695-0.695l4.03-4.032
		c0.195-0.192,0.195-0.503,0.003-0.695c-0.193-0.194-0.504-0.194-0.696,0l-4.171,4.169c-0.031,0.032-0.05,0.071-0.07,0.107
		c-1.269,1.422-1.277,2.884-0.512,4.074c-0.029,0.022-0.064,0.033-0.09,0.059L25.133,28.656z"/>
	<path d="M21.107,28.284c0.033,0.048,0.056,0.101,0.099,0.144l9.731,9.732c0.359,0.358,0.938,0.359,1.299,0
		c0.358-0.357,0.357-0.938,0-1.297l-9.732-9.732c-0.045-0.043-0.099-0.064-0.146-0.097c0.669-1.409,0.188-3.43-1.314-4.932
		c-1.791-1.792-4.333-2.155-5.676-0.813c-1.344,1.344-0.981,3.886,0.81,5.679C17.68,28.471,19.699,28.954,21.107,28.284z"/>
</g>
</svg>
