<?xml version="1.0" encoding="utf-8"?>
<!-- Generator: Adobe Illustrator 16.0.0, SVG Export Plug-In . SVG Version: 6.00 Build 0)  -->
<!DOCTYPE svg PUBLIC "-//W3C//DTD SVG 1.1//EN" "http://www.w3.org/Graphics/SVG/1.1/DTD/svg11.dtd">
<svg version="1.1" id="Layer_1" xmlns="http://www.w3.org/2000/svg" xmlns:xlink="http://www.w3.org/1999/xlink" x="0px" y="0px"
	 width="50px" height="50px" viewBox="0 0 50 50" enable-background="new 0 0 50 50" xml:space="preserve">
<g>
	<path d="M38,9.25h-1.123c0.029-0.093,0.058-0.186,0.058-0.289C36.935,8.431,36.504,8,35.973,8s-0.961,0.431-0.961,0.961
		c0,0.103,0.028,0.196,0.059,0.289h-3.68c0.029-0.093,0.058-0.186,0.058-0.289C31.448,8.431,31.018,8,30.486,8
		c-0.53,0-0.961,0.431-0.961,0.961c0,0.103,0.029,0.196,0.059,0.289h-3.681c0.029-0.093,0.058-0.186,0.058-0.289
		C25.961,8.431,25.531,8,25,8s-0.961,0.431-0.961,0.961c0,0.103,0.028,0.196,0.058,0.289h-3.681
		c0.029-0.093,0.059-0.186,0.059-0.289C20.475,8.431,20.044,8,19.514,8c-0.531,0-0.962,0.431-0.962,0.961
		c0,0.103,0.028,0.196,0.058,0.289h-3.68c0.03-0.093,0.059-0.186,0.059-0.289c0-0.531-0.43-0.961-0.961-0.961
		s-0.962,0.431-0.962,0.961c0,0.103,0.028,0.196,0.058,0.289H12c-1.518,0-2.75,1.233-2.75,2.75v26c0,1.517,1.232,2.75,2.75,2.75
		h22.895l5.855-5.856V12C40.75,10.483,39.517,9.25,38,9.25z M39.25,34.273l-0.311,0.311h-2.355c-1.101,0-2,0.9-2,2v2.356
		l-0.311,0.31H12c-0.689,0-1.25-0.561-1.25-1.25V17h28.5V34.273z"/>
	<path d="M17.851,30.195c-0.253,0-0.528-0.066-0.737-0.198c-0.22-0.132-0.374-0.341-0.429-0.627h-2.486
		c0.055,1.43,1.419,2.651,3.509,2.651c2.179,0,3.708-0.891,3.708-2.729c0-2.882-4.555-2.145-4.555-3.333
		c0-0.286,0.253-0.451,0.825-0.451c0.253,0,0.484,0.044,0.671,0.143c0.187,0.099,0.33,0.264,0.374,0.54h2.465
		c-0.188-1.386-1.188-2.509-3.389-2.509c-1.98,0-3.433,0.847-3.433,2.531c0,3.025,4.555,2.2,4.555,3.399
		C18.929,29.986,18.5,30.195,17.851,30.195z"/>
	<path d="M23.889,31.812l0.297-1.045h2.586l0.309,1.045h2.584l-2.838-7.921h-2.641l-2.838,7.921H23.889z M25.484,26.278l0.836,2.838
		h-1.639L25.484,26.278z"/>
	<polygon points="30.896,31.812 33.492,31.812 33.492,25.97 35.824,25.97 35.824,23.891 28.563,23.891 28.563,25.97 30.896,25.97 	
		"/>
</g>
</svg>
