<?xml version="1.0" encoding="utf-8"?>
<!-- Generator: Adobe Illustrator 16.0.0, SVG Export Plug-In . SVG Version: 6.00 Build 0)  -->
<!DOCTYPE svg PUBLIC "-//W3C//DTD SVG 1.1//EN" "http://www.w3.org/Graphics/SVG/1.1/DTD/svg11.dtd">
<svg version="1.1" id="Layer_1" xmlns="http://www.w3.org/2000/svg" xmlns:xlink="http://www.w3.org/1999/xlink" x="0px" y="0px"
	 width="50px" height="50px" viewBox="0 0 50 50" enable-background="new 0 0 50 50" xml:space="preserve">
<g>
	<path d="M18.54,34.291h3.36v-14.16h-2.36c-0.04,0.227-0.116,0.47-0.229,0.73c-0.113,0.26-0.291,0.5-0.53,0.72
		c-0.24,0.22-0.563,0.403-0.97,0.55c-0.407,0.147-0.931,0.22-1.57,0.22h-0.42v2.12h2.72V34.291z"/>
	<path d="M28.939,29.691c0.601,0,1.113-0.101,1.541-0.301c0.426-0.199,0.752-0.513,0.979-0.939h0.04c0,0.787-0.02,1.437-0.061,1.95
		c-0.039,0.513-0.116,0.92-0.229,1.22s-0.26,0.514-0.44,0.64c-0.18,0.127-0.41,0.19-0.689,0.19c-0.373,0-0.646-0.146-0.82-0.44
		c-0.08-0.146-0.133-0.31-0.16-0.489c-0.026-0.181-0.039-0.363-0.039-0.551h-3.24c0.026,1.28,0.4,2.2,1.119,2.761
		c0.721,0.56,1.721,0.84,3,0.84c1.146,0,2.047-0.17,2.701-0.511c0.652-0.34,1.146-0.836,1.479-1.489s0.54-1.443,0.62-2.37
		s0.119-1.983,0.119-3.17c0-1.054-0.047-2.007-0.139-2.86c-0.094-0.853-0.305-1.58-0.631-2.18c-0.326-0.601-0.8-1.061-1.42-1.38
		c-0.62-0.32-1.449-0.48-2.49-0.48c-0.934,0-1.699,0.137-2.3,0.41s-1.073,0.644-1.42,1.11s-0.587,1.013-0.72,1.64
		c-0.134,0.627-0.2,1.293-0.2,2c0,1.587,0.296,2.717,0.89,3.39C27.023,29.354,27.859,29.691,28.939,29.691z M29.16,22.901
		c0.173-0.434,0.5-0.65,0.98-0.65c0.492,0,0.822,0.24,0.989,0.72c0.167,0.48,0.25,1.141,0.25,1.98c0,0.32-0.017,0.617-0.05,0.89
		c-0.033,0.273-0.098,0.514-0.189,0.72c-0.094,0.207-0.217,0.367-0.371,0.48c-0.152,0.113-0.356,0.17-0.609,0.17
		c-0.533,0-0.877-0.196-1.03-0.59s-0.229-1.03-0.229-1.91C28.9,23.938,28.986,23.334,29.16,22.901z"/>
	<path d="M38,9.875h-1.123c0.029-0.093,0.058-0.186,0.058-0.289c0-0.53-0.431-0.961-0.962-0.961s-0.961,0.431-0.961,0.961
		c0,0.104,0.028,0.196,0.059,0.289h-3.68c0.029-0.093,0.058-0.186,0.058-0.289c0-0.53-0.431-0.961-0.962-0.961
		c-0.53,0-0.961,0.431-0.961,0.961c0,0.104,0.029,0.196,0.059,0.289h-3.681c0.029-0.093,0.058-0.186,0.058-0.289
		c0-0.53-0.43-0.961-0.961-0.961s-0.961,0.431-0.961,0.961c0,0.104,0.028,0.196,0.058,0.289h-3.681
		c0.029-0.093,0.059-0.186,0.059-0.289c0-0.53-0.431-0.961-0.961-0.961c-0.531,0-0.962,0.431-0.962,0.961
		c0,0.104,0.028,0.196,0.058,0.289h-3.68c0.03-0.093,0.059-0.186,0.059-0.289c0-0.53-0.43-0.961-0.961-0.961
		s-0.962,0.431-0.962,0.961c0,0.104,0.028,0.196,0.058,0.289H12c-1.518,0-2.75,1.233-2.75,2.75v26c0,1.517,1.232,2.75,2.75,2.75
		h22.895l5.855-5.855V12.625C40.75,11.108,39.517,9.875,38,9.875z M39.25,34.898l-0.311,0.311h-2.355c-1.101,0-2,0.899-2,2v2.355
		l-0.311,0.311H12c-0.689,0-1.25-0.561-1.25-1.25v-21h28.5V34.898z M39.25,15.833c0,0.55-0.45,1-1,1h-26.5c-0.55,0-1-0.45-1-1v-4
		c0-0.55,0.45-1,1-1h26.5c0.55,0,1,0.45,1,1V15.833z"/>
	<path d="M14.984,13.305c-0.126-0.087-0.262-0.156-0.406-0.209c-0.146-0.054-0.281-0.107-0.407-0.163
		c-0.127-0.055-0.231-0.121-0.313-0.197c-0.082-0.077-0.124-0.186-0.124-0.325c0-0.282,0.123-0.423,0.368-0.423
		c0.133,0,0.227,0.046,0.281,0.137c0.051,0.085,0.076,0.223,0.076,0.413h0.892v-0.094c0-0.15-0.022-0.29-0.065-0.421
		c-0.045-0.13-0.116-0.243-0.215-0.341c-0.1-0.097-0.229-0.173-0.389-0.229c-0.159-0.055-0.354-0.082-0.586-0.082
		c-0.238,0-0.438,0.031-0.602,0.094s-0.296,0.146-0.398,0.25c-0.104,0.104-0.176,0.227-0.221,0.365
		c-0.043,0.14-0.065,0.288-0.065,0.446c0,0.245,0.041,0.441,0.124,0.588c0.082,0.146,0.187,0.266,0.313,0.355
		c0.127,0.09,0.263,0.16,0.408,0.211c0.145,0.052,0.279,0.104,0.406,0.16c0.127,0.055,0.23,0.122,0.313,0.2
		c0.083,0.079,0.124,0.188,0.124,0.327c0,0.056-0.006,0.111-0.02,0.168c-0.013,0.057-0.035,0.107-0.068,0.151
		s-0.076,0.08-0.129,0.107c-0.054,0.027-0.121,0.041-0.201,0.041c-0.162,0-0.269-0.05-0.322-0.148
		c-0.053-0.099-0.08-0.224-0.08-0.374v-0.138h-0.891v0.253c0,0.206,0.036,0.374,0.107,0.506c0.072,0.133,0.167,0.237,0.286,0.313
		c0.119,0.077,0.257,0.131,0.413,0.16c0.155,0.029,0.317,0.044,0.486,0.044c0.213,0,0.401-0.023,0.566-0.069
		c0.165-0.045,0.305-0.119,0.421-0.22c0.115-0.101,0.203-0.229,0.264-0.388c0.061-0.157,0.091-0.349,0.091-0.572
		c0-0.23-0.041-0.417-0.123-0.558C15.216,13.504,15.111,13.391,14.984,13.305z"/>
	<path d="M18.123,14.033c0-0.253-0.011-0.484-0.031-0.693c-0.02-0.209-0.069-0.39-0.148-0.542c-0.078-0.151-0.197-0.27-0.354-0.352
		c-0.157-0.083-0.374-0.124-0.649-0.124c-0.241,0-0.44,0.037-0.596,0.11c-0.156,0.073-0.28,0.175-0.371,0.305
		c-0.092,0.131-0.156,0.284-0.19,0.463c-0.034,0.178-0.052,0.371-0.052,0.58c0,0.22,0.01,0.431,0.029,0.632
		c0.021,0.202,0.072,0.38,0.154,0.534c0.082,0.153,0.203,0.276,0.363,0.368s0.381,0.138,0.662,0.138
		c0.375,0,0.658-0.089,0.854-0.267c0.193-0.178,0.295-0.454,0.303-0.828H17.27c-0.01,0.188-0.038,0.324-0.082,0.412
		c-0.044,0.089-0.125,0.133-0.242,0.133c-0.128,0-0.215-0.058-0.258-0.171c-0.045-0.113-0.066-0.286-0.066-0.517v-0.182H18.123z
		 M16.682,13.043c0.04-0.113,0.134-0.171,0.28-0.171c0.124,0,0.206,0.056,0.245,0.165c0.038,0.11,0.058,0.27,0.058,0.479h-0.644
		C16.621,13.314,16.641,13.156,16.682,13.043z"/>
	<path d="M20.668,12.678c-0.076-0.123-0.173-0.213-0.288-0.27c-0.116-0.058-0.247-0.086-0.394-0.086
		c-0.099,0-0.186,0.014-0.258,0.041c-0.074,0.028-0.137,0.063-0.19,0.104c-0.053,0.043-0.095,0.091-0.126,0.144
		s-0.055,0.104-0.068,0.151h-0.012v-0.363h-0.857v3.943h0.891v-1.292h0.011c0.073,0.161,0.173,0.269,0.297,0.321
		c0.125,0.054,0.247,0.08,0.368,0.08c0.18,0,0.326-0.04,0.44-0.118c0.114-0.079,0.202-0.189,0.265-0.33
		c0.063-0.142,0.104-0.309,0.126-0.503s0.033-0.407,0.033-0.639c0-0.278-0.021-0.515-0.061-0.709S20.746,12.8,20.668,12.678z
		 M20.006,14.275c-0.006,0.109-0.02,0.204-0.041,0.283c-0.022,0.078-0.057,0.139-0.102,0.182c-0.047,0.042-0.109,0.063-0.19,0.063
		c-0.077,0-0.136-0.023-0.179-0.071c-0.042-0.048-0.074-0.113-0.096-0.198c-0.022-0.084-0.036-0.183-0.041-0.297
		c-0.006-0.113-0.009-0.236-0.009-0.368c0-0.29,0.021-0.512,0.061-0.666c0.04-0.153,0.126-0.23,0.259-0.23
		c0.08,0,0.145,0.026,0.191,0.079c0.049,0.054,0.083,0.123,0.105,0.209c0.021,0.087,0.035,0.186,0.041,0.298
		c0.006,0.111,0.008,0.228,0.008,0.349C20.014,14.042,20.012,14.165,20.006,14.275z"/>
	<path d="M22.335,11.525h-0.892v0.874h-0.367v0.616h0.367v1.59c0,0.172,0.013,0.312,0.037,0.418
		c0.023,0.105,0.065,0.188,0.126,0.244s0.142,0.095,0.245,0.113c0.102,0.018,0.23,0.027,0.385,0.027
		c0.168,0,0.339-0.011,0.512-0.033v-0.594c-0.02,0.004-0.04,0.006-0.064,0.008c-0.023,0.002-0.045,0.003-0.063,0.003
		c-0.106,0-0.181-0.02-0.223-0.058c-0.043-0.039-0.063-0.111-0.063-0.218v-1.501h0.413v-0.616h-0.413V11.525z"/>
	<path d="M25.354,14.033c0-0.253-0.011-0.484-0.03-0.693s-0.07-0.39-0.148-0.542c-0.079-0.151-0.197-0.27-0.355-0.352
		c-0.157-0.083-0.373-0.124-0.648-0.124c-0.242,0-0.441,0.037-0.597,0.11s-0.28,0.175-0.371,0.305
		c-0.092,0.131-0.155,0.284-0.19,0.463c-0.034,0.178-0.052,0.371-0.052,0.58c0,0.22,0.011,0.431,0.03,0.632
		c0.02,0.202,0.072,0.38,0.154,0.534c0.082,0.153,0.203,0.276,0.363,0.368c0.159,0.092,0.38,0.138,0.662,0.138
		c0.374,0,0.658-0.089,0.853-0.267s0.296-0.454,0.303-0.828h-0.825c-0.011,0.188-0.039,0.324-0.082,0.412
		c-0.045,0.089-0.125,0.133-0.242,0.133c-0.129,0-0.215-0.058-0.259-0.171s-0.065-0.286-0.065-0.517v-0.182H25.354z M23.914,13.043
		c0.039-0.113,0.133-0.171,0.279-0.171c0.125,0,0.207,0.056,0.246,0.165c0.037,0.11,0.057,0.27,0.057,0.479h-0.643
		C23.854,13.314,23.873,13.156,23.914,13.043z"/>
	<path d="M28.787,12.322c-0.166,0-0.305,0.033-0.416,0.1c-0.111,0.065-0.219,0.185-0.322,0.357
		c-0.032-0.103-0.077-0.185-0.135-0.245c-0.057-0.061-0.117-0.106-0.184-0.138s-0.135-0.051-0.206-0.061
		c-0.071-0.009-0.141-0.014-0.206-0.014c-0.166,0-0.311,0.039-0.436,0.116c-0.124,0.076-0.217,0.181-0.279,0.313h-0.012v-0.353
		h-0.857v2.976h0.891v-1.947c0-0.146,0.032-0.254,0.096-0.321c0.064-0.068,0.139-0.102,0.223-0.102c0.085,0,0.148,0.03,0.193,0.091
		c0.044,0.06,0.066,0.144,0.066,0.25v2.029h0.891v-1.947c0-0.146,0.031-0.254,0.096-0.321c0.064-0.068,0.139-0.102,0.223-0.102
		s0.148,0.03,0.193,0.091c0.043,0.06,0.065,0.144,0.065,0.25v2.029h0.892v-2.228c0-0.286-0.066-0.495-0.199-0.627
		C29.232,12.389,29.039,12.322,28.787,12.322z"/>
	<path d="M32.355,12.771c-0.063-0.141-0.15-0.251-0.264-0.33c-0.113-0.078-0.26-0.118-0.439-0.118c-0.063,0-0.125,0.007-0.188,0.02
		s-0.123,0.034-0.182,0.063s-0.113,0.07-0.164,0.123c-0.053,0.054-0.096,0.119-0.133,0.195h-0.011v-1.275h-0.892v3.927h0.858v-0.363
		h0.011c0.016,0.052,0.038,0.103,0.068,0.154c0.031,0.052,0.074,0.098,0.127,0.141c0.053,0.042,0.117,0.076,0.189,0.104
		c0.074,0.027,0.16,0.041,0.259,0.041c0.147,0,0.278-0.028,0.394-0.085c0.115-0.058,0.212-0.147,0.289-0.27
		c0.076-0.123,0.135-0.282,0.176-0.477c0.04-0.194,0.061-0.431,0.061-0.709c0-0.231-0.012-0.443-0.033-0.638
		S32.418,12.912,32.355,12.771z M31.616,14.217c-0.005,0.112-0.02,0.211-0.042,0.298c-0.021,0.086-0.057,0.155-0.104,0.209
		c-0.048,0.053-0.112,0.079-0.193,0.079c-0.131,0-0.218-0.077-0.258-0.23c-0.041-0.154-0.061-0.376-0.061-0.666
		c0-0.132,0.002-0.255,0.008-0.368s0.02-0.213,0.041-0.297c0.022-0.085,0.055-0.15,0.097-0.198s0.103-0.071,0.179-0.071
		c0.081,0,0.145,0.021,0.189,0.063c0.047,0.042,0.08,0.103,0.102,0.181c0.022,0.079,0.037,0.174,0.042,0.283
		c0.005,0.11,0.009,0.233,0.009,0.369C31.625,13.989,31.621,14.105,31.616,14.217z"/>
	<path d="M35.232,14.033c0-0.253-0.01-0.484-0.03-0.693s-0.069-0.39-0.148-0.542c-0.079-0.151-0.197-0.27-0.354-0.352
		c-0.158-0.083-0.375-0.124-0.649-0.124c-0.241,0-0.44,0.037-0.597,0.11s-0.279,0.175-0.371,0.305
		c-0.092,0.131-0.155,0.284-0.189,0.463c-0.035,0.178-0.053,0.371-0.053,0.58c0,0.22,0.01,0.431,0.03,0.632
		c0.021,0.202,0.071,0.38,0.153,0.534c0.083,0.153,0.204,0.276,0.363,0.368c0.16,0.092,0.381,0.138,0.663,0.138
		c0.374,0,0.658-0.089,0.853-0.267s0.295-0.454,0.303-0.828H34.38c-0.011,0.188-0.038,0.324-0.083,0.412
		c-0.043,0.089-0.124,0.133-0.242,0.133c-0.127,0-0.214-0.058-0.258-0.171s-0.066-0.286-0.066-0.517v-0.182H35.232z M33.791,13.043
		c0.041-0.113,0.135-0.171,0.281-0.171c0.124,0,0.206,0.056,0.244,0.165c0.039,0.11,0.059,0.27,0.059,0.479H33.73
		C33.73,13.314,33.751,13.156,33.791,13.043z"/>
	<path d="M37.168,12.322c-0.187,0-0.338,0.05-0.453,0.148c-0.115,0.1-0.203,0.215-0.262,0.347h-0.011v-0.418h-0.858v2.976h0.892
		v-1.688c0-0.198,0.053-0.337,0.159-0.418s0.25-0.121,0.43-0.121c0.043,0,0.084,0.002,0.123,0.006
		c0.039,0.003,0.08,0.009,0.124,0.017v-0.836c-0.036-0.008-0.063-0.012-0.077-0.012H37.168z"/>
</g>
</svg>
