<?xml version="1.0" encoding="utf-8"?>
<!-- Generator: Adobe Illustrator 16.0.0, SVG Export Plug-In . SVG Version: 6.00 Build 0)  -->
<!DOCTYPE svg PUBLIC "-//W3C//DTD SVG 1.1//EN" "http://www.w3.org/Graphics/SVG/1.1/DTD/svg11.dtd">
<svg version="1.1" id="Layer_1" xmlns="http://www.w3.org/2000/svg" xmlns:xlink="http://www.w3.org/1999/xlink" x="0px" y="0px"
	 width="50px" height="50px" viewBox="0 0 50 50" enable-background="new 0 0 50 50" xml:space="preserve">
<g>
	<path d="M38.25,10.25h-1.123c0.029-0.092,0.058-0.186,0.058-0.288c0-0.53-0.431-0.962-0.962-0.962s-0.961,0.432-0.961,0.962
		c0,0.103,0.028,0.196,0.059,0.288h-3.68c0.029-0.092,0.058-0.186,0.058-0.288c0-0.53-0.431-0.962-0.962-0.962
		c-0.53,0-0.961,0.432-0.961,0.962c0,0.103,0.029,0.196,0.059,0.288h-3.681c0.029-0.092,0.058-0.186,0.058-0.288
		c0-0.53-0.43-0.962-0.961-0.962s-0.961,0.432-0.961,0.962c0,0.103,0.028,0.196,0.058,0.288h-3.681
		c0.029-0.092,0.059-0.186,0.059-0.288c0-0.53-0.431-0.962-0.961-0.962c-0.531,0-0.962,0.432-0.962,0.962
		c0,0.103,0.028,0.196,0.058,0.288h-3.68c0.03-0.092,0.059-0.186,0.059-0.288c0-0.53-0.43-0.962-0.961-0.962
		s-0.962,0.432-0.962,0.962c0,0.103,0.028,0.196,0.058,0.288H12.25c-1.518,0-2.75,1.234-2.75,2.75v26c0,1.518,1.232,2.75,2.75,2.75
		h22.895L41,35.895V13C41,11.484,39.767,10.25,38.25,10.25z M39.5,35.273l-0.311,0.311h-2.355c-1.101,0-2,0.9-2,2v2.356l-0.311,0.31
		H12.25C11.561,40.25,11,39.689,11,39V14h28.5V35.273z"/>
	<circle cx="21.806" cy="34.285" r="1.423"/>
	<circle cx="32.718" cy="34.285" r="1.423"/>
	<path d="M16.359,22.957h2.316l2.695,8.982c0.09,0.3,0.367,0.508,0.682,0.508H32.49c0.333,0,0.623-0.233,0.694-0.559l1.652-7.431
		c0.005-0.025-0.001-0.05,0.001-0.076c0.003-0.026,0.016-0.05,0.016-0.077c0-0.023-0.011-0.042-0.013-0.064
		c-0.004-0.048-0.014-0.094-0.028-0.138c-0.012-0.045-0.028-0.086-0.048-0.126c-0.022-0.04-0.046-0.074-0.075-0.11
		c-0.029-0.036-0.059-0.069-0.094-0.1c-0.034-0.027-0.069-0.05-0.108-0.072c-0.042-0.023-0.085-0.044-0.132-0.059
		c-0.021-0.008-0.038-0.021-0.059-0.024c-0.026-0.008-0.052,0-0.079-0.002c-0.027-0.004-0.049-0.017-0.076-0.017h-1.65v-0.645
		c0-0.257-0.211-0.469-0.469-0.469H29.52c-0.258,0-0.47,0.212-0.47,0.469v0.644l-3.397-0.001l0.814-1.145
		c0.218-0.306,0.145-0.734-0.161-0.951l-2.967-2.109c-0.306-0.217-0.734-0.145-0.951,0.162l-2.109,2.966
		c-0.098,0.138-0.128,0.299-0.114,0.455l-0.278-0.927c-0.09-0.301-0.368-0.509-0.682-0.509h-2.846c-0.394,0-0.712,0.319-0.712,0.713
		C15.647,22.639,15.966,22.957,16.359,22.957z M22.62,25.015l0.787,0.559c0.305,0.218,0.733,0.145,0.952-0.161l0.186-0.262
		c-0.015,0.063-0.04,0.123-0.04,0.191v4.558c0,0.47,0.385,0.854,0.854,0.854h4.557c0.469,0,0.854-0.385,0.854-0.854v-3.98h1.25
		c0.258,0,0.469-0.21,0.469-0.47v-0.433h0.764l-1.335,6.006h-9.337l-1.802-6.008H22.62z M20.441,23.466l0.176,0.124h-0.235
		c-0.01,0-0.019,0.006-0.029,0.006l-0.103-0.343C20.298,23.333,20.36,23.407,20.441,23.466z"/>
	<polygon points="18.409,24.5 15.647,24.8 18.409,25.102 	"/>
	<polygon points="18.977,25.855 15.647,26.217 18.977,26.58 	"/>
	<polygon points="19.563,27.695 15.647,28.121 19.563,28.549 	"/>
</g>
</svg>
