<?xml version="1.0" encoding="utf-8"?>
<!-- Generator: Adobe Illustrator 16.0.0, SVG Export Plug-In . SVG Version: 6.00 Build 0)  -->
<!DOCTYPE svg PUBLIC "-//W3C//DTD SVG 1.1//EN" "http://www.w3.org/Graphics/SVG/1.1/DTD/svg11.dtd">
<svg version="1.1" id="Layer_1" xmlns="http://www.w3.org/2000/svg" xmlns:xlink="http://www.w3.org/1999/xlink" x="0px" y="0px"
	 width="50px" height="50px" viewBox="0 0 50 50" enable-background="new 0 0 50 50" xml:space="preserve">
<g>
	<path d="M35.91,9H35V8c0-0.553-0.447-1-1-1s-1,0.447-1,1v1h-7V8c0-0.553-0.447-1-1-1s-1,0.447-1,1v1h-7V8c0-0.553-0.447-1-1-1
		s-1,0.447-1,1v1h-0.91C11.283,9,9,11.283,9,14.09v21.82C9,38.717,11.283,41,14.09,41h21.82c2.807,0,5.09-2.283,5.09-5.09V14.09
		C41,11.283,38.717,9,35.91,9z M39,35.91c0,1.704-1.386,3.09-3.09,3.09H14.09C12.386,39,11,37.614,11,35.91V19h28V35.91z M39,17H11
		v-2.91c0-1.704,1.386-3.09,3.09-3.09H15v3c0,0.553,0.447,1,1,1s1-0.447,1-1v-3h7v3c0,0.553,0.447,1,1,1s1-0.447,1-1v-3h7v3
		c0,0.553,0.447,1,1,1s1-0.447,1-1v-3h0.91c1.704,0,3.09,1.386,3.09,3.09V17z"/>
	<path d="M24.864,33.66c0,0-0.331-0.253-0.569-0.27s-1.242,0.693-1.242,0.693c0,0.001,0.597-0.154,1.121-0.154
		c0.298,0,0.586,0.155,0.69,0.154c0.13,0,0.476-0.132,0.852-0.132c0.466,0,0.961,0.132,0.961,0.132s-0.816-0.693-1.106-0.693
		C25.281,33.391,24.864,33.66,24.864,33.66z"/>
	<path d="M24.864,34.327c-0.242,0-0.49,0.063-0.702,0.055c-0.662-0.031-1.109-0.298-1.109-0.298s0.681,0.942,1.812,0.942
		c1.132,0,1.813-0.942,1.813-0.942s-0.402,0.243-0.994,0.275C25.438,34.373,25.159,34.327,24.864,34.327z"/>
	<path d="M18.952,27.544c0.038-1.216,0.445-2.341,1.112-3.269c1.403-0.429,3.245-0.523,5.038-0.095
		c-1.029,0.223-1.989,0.723-2.793,1.479c-0.779,0.734-1.346,1.652-1.62,2.564c-0.001,0.003-0.002,0.005-0.003,0.008
		c0.145,0.082,0.315,0.173,0.503,0.26c0.729-1.298,2.101-2.174,3.675-2.174c0.781,0,1.51,0.219,2.137,0.594
		c-0.063,0.27-0.074,0.552-0.022,0.822l0.053,0.263c-0.018,0.03-0.032,0.059-0.043,0.085c-0.148,0.361-0.149,0.758-0.031,1.131
		c0.052-0.062,0.14-0.111,0.249-0.158c-0.068-0.267-0.064-0.567,0.056-0.861c0.24-0.585,1.596,0.066,1.596,0.066
		s-1.286-1.115-1.589-0.579c-0.176-0.929,0.479-2.004,1.482-1.782c-0.795,0.731,0.382,2.08,0.382,2.08s-0.438-1.471-0.112-1.834
		c0.481-0.541,1.583,0.289,1.591,1.086c-0.381-0.029-0.743,0.468-0.94,0.799l0.009-0.006c0.41-0.226,0.77-0.315,1.06-0.388
		c0.107-0.026,0.203-0.052,0.286-0.079c0.104-0.035,0.224-0.134,0.358-0.281c-0.233-3.397-3.064-6.091-6.52-6.091
		c-3.35,0-6.115,2.532-6.494,5.782C18.599,27.283,18.795,27.48,18.952,27.544z M30.774,27.539c0,0.013,0.002,0.023,0.002,0.035
		c-0.007-0.013-0.016-0.023-0.022-0.037L30.774,27.539z M27.385,26.113c-0.052,0.063-0.09,0.136-0.133,0.205
		c-0.699-0.366-1.514-0.548-2.388-0.548c-0.819,0-1.592,0.156-2.261,0.48c0.045-0.045,0.087-0.094,0.133-0.138
		c1.07-1.007,2.443-1.517,3.872-1.435c0.567,0.244,1.109,0.56,1.616,0.937C27.904,25.678,27.611,25.84,27.385,26.113z
		 M24.864,21.807c2.818,0,5.177,1.98,5.77,4.62c-0.288-0.428-0.762-0.751-1.219-0.751c-0.044,0-0.085,0.008-0.126,0.015
		c-2.405-2.24-5.922-2.722-8.524-2.223C21.829,22.442,23.272,21.807,24.864,21.807z"/>
	<path d="M28.351,30.313c0.011,0.099,0.034,0.191,0.073,0.276c0.099,0.212,0.287,0.355,0.507,0.448
		c0.039-0.082,0.076-0.169,0.119-0.267c-0.165-0.069-0.295-0.171-0.357-0.307c-0.049-0.104-0.055-0.24-0.045-0.384
		c-0.155,0.048-0.306,0.088-0.438,0.091h-0.001c-0.174,0-0.375-0.036-0.57-0.094c0.107,0.066,0.222,0.126,0.353,0.164L28.351,30.313
		z"/>
	<path d="M27.927,34.587c-0.072,0-0.17-0.019-0.267-0.089c-0.873,1.211-1.975,2.075-2.796,2.075c-0.802,0-1.872-0.824-2.736-1.991
		c-0.019,0.003-0.039,0.005-0.055,0.005c-0.171,0-0.332-0.092-0.494-0.258c0.155,0.269,0.282,0.519,0.36,0.74
		c1.015,1.181,2.226,1.917,2.925,1.917c0.813,0,2.313-0.993,3.395-2.52C28.151,34.543,28.041,34.587,27.927,34.587z"/>
	<path d="M17.344,32.225c0.207,0.638,1.088,2.729,1.563,2.797c0.541,0.077-0.927-2.15-0.541-2.298
		c0.136-0.052,0.392,0.562,0.678,1.174c0.388,0.834,0.936,2.06,1.231,1.926c0.764-0.344-1.617-3.283-1.108-3.36
		c0.182-0.028,0.665,0.733,1.078,1.501c0.468,0.866,1.142,2.032,1.464,1.684c0.273-0.296-0.452-1.347-0.937-2.161
		c-0.43-0.724-0.797-1.453-0.615-1.553c0.219-0.12,0.455,0.333,0.715,0.803c0.416,0.751,1.006,1.905,1.36,1.517
		c0.346-0.375-0.8-1.841-1.314-2.934c-0.194-0.414-0.523-1.091-0.45-1.501c0.074-0.41,0.928,0.087,1.328,0.096
		c0.402,0.01,1.079-0.24,1.069-0.503c-0.006-0.143-0.73-0.279-1.41-0.53c-0.569-0.211-1.096-0.544-1.258-0.633
		c-0.539-0.298-1.003-0.345-1.306-0.449c-0.262-0.089-0.535-0.386-0.83-0.822l-2.255,1.303c0.302,0.542,0.536,1.064,0.598,1.469
		C16.606,31.058,17.164,31.667,17.344,32.225z"/>
	<path d="M29.803,28.248c-0.161,0.089-0.688,0.422-1.257,0.633c-0.68,0.251-1.404,0.388-1.411,0.53
		c-0.009,0.263,0.667,0.513,1.069,0.503c0.401-0.009,1.255-0.506,1.329-0.096c0.073,0.41-0.257,1.087-0.451,1.501
		c-0.514,1.093-1.66,2.559-1.315,2.934c0.356,0.389,0.944-0.766,1.361-1.517c0.261-0.47,0.496-0.923,0.716-0.803
		c0.182,0.1-0.187,0.829-0.616,1.553c-0.484,0.814-1.21,1.865-0.937,2.161c0.322,0.349,0.997-0.817,1.463-1.684
		c0.414-0.768,0.897-1.529,1.079-1.501c0.509,0.077-1.871,3.017-1.108,3.36c0.296,0.134,0.844-1.092,1.232-1.926
		c0.285-0.612,0.541-1.226,0.678-1.174c0.386,0.147-1.082,2.375-0.541,2.298c0.474-0.067,1.354-2.159,1.562-2.797
		c0.181-0.558,0.737-1.167,0.94-2.477c0.063-0.404,0.297-0.927,0.599-1.469l-2.256-1.303c-0.295,0.437-0.568,0.733-0.829,0.822
		C30.806,27.903,30.342,27.95,29.803,28.248z"/>
	<path d="M26.314,30.355c-0.324,0.156-0.408,0.506-0.428,0.644c-0.021,0.138,0.273,0.052,0.284-0.036
		c0.006-0.062-0.018-0.157,0.135-0.299c-0.012,0.032-0.012,0.063,0.004,0.089c0.115,0.2,0.372,0.27,0.573,0.153
		c0.2-0.115,0.269-0.37,0.155-0.571c0.312-0.048,0.645-0.056,0.645-0.056S26.751,30.145,26.314,30.355z"/>
	<path d="M26.19,31.091c0,0,0.497,0.072,0.761,0.072c0.265,0,0.609-0.336,0.609-0.336s-0.295,0.136-0.555,0.188
		C26.771,31.065,26.19,31.091,26.19,31.091z"/>
	<path d="M23.414,30.355c-0.436-0.211-1.366-0.076-1.366-0.076s0.333,0.008,0.644,0.056c-0.114,0.201-0.045,0.456,0.155,0.571
		c0.201,0.116,0.457,0.047,0.574-0.153c0.015-0.026,0.015-0.057,0.004-0.089c0.151,0.142,0.128,0.237,0.134,0.299
		c0.011,0.088,0.305,0.174,0.285,0.036C23.823,30.861,23.739,30.512,23.414,30.355z"/>
	<path d="M23.538,31.091c0,0-0.58-0.025-0.814-0.075c-0.26-0.053-0.555-0.188-0.555-0.188s0.345,0.336,0.608,0.336
		C23.042,31.163,23.538,31.091,23.538,31.091z"/>
</g>
</svg>
