<?xml version="1.0" encoding="utf-8"?>
<!-- Generator: Adobe Illustrator 16.0.0, SVG Export Plug-In . SVG Version: 6.00 Build 0)  -->
<!DOCTYPE svg PUBLIC "-//W3C//DTD SVG 1.1//EN" "http://www.w3.org/Graphics/SVG/1.1/DTD/svg11.dtd">
<svg version="1.1" id="Layer_1" xmlns="http://www.w3.org/2000/svg" xmlns:xlink="http://www.w3.org/1999/xlink" x="0px" y="0px"
	 width="50px" height="50px" viewBox="0 0 50 50" enable-background="new 0 0 50 50" xml:space="preserve">
<g>
	<path d="M38.25,10.25h-26c-1.518,0-2.75,1.233-2.75,2.75v26c0,1.517,1.232,2.75,2.75,2.75h22.895L41,35.895V13
		C41,11.484,39.767,10.25,38.25,10.25z M34.083,12.292c0.817,0,1.479,0.662,1.479,1.479c0,0.817-0.662,1.479-1.479,1.479
		s-1.479-0.662-1.479-1.479C32.604,12.954,33.266,12.292,34.083,12.292z M29.666,12.292c0.817,0,1.479,0.662,1.479,1.479
		c0,0.817-0.662,1.479-1.479,1.479c-0.816,0-1.479-0.662-1.479-1.479C28.188,12.954,28.85,12.292,29.666,12.292z M25.25,12.292
		c0.816,0,1.479,0.662,1.479,1.479c0,0.817-0.662,1.479-1.479,1.479c-0.817,0-1.479-0.662-1.479-1.479
		C23.771,12.954,24.433,12.292,25.25,12.292z M20.834,12.292c0.816,0,1.479,0.662,1.479,1.479c0,0.817-0.662,1.479-1.479,1.479
		c-0.818,0-1.48-0.662-1.48-1.479C19.354,12.954,20.016,12.292,20.834,12.292z M16.417,12.292c0.817,0,1.479,0.662,1.479,1.479
		c0,0.817-0.662,1.479-1.479,1.479s-1.479-0.662-1.479-1.479C14.938,12.954,15.6,12.292,16.417,12.292z M39.5,35.273l-0.311,0.311
		h-2.355c-1.101,0-2,0.9-2,2v2.356l-0.311,0.31H12.25C11.561,40.25,11,39.69,11,39V17h28.5V35.273z"/>
	<path d="M20.983,36.594l-0.438,1.473c-0.055,0.187,0.009,0.225,0.144,0.083l1.429-1.508h5.764l1.429,1.508
		c0.135,0.141,0.198,0.104,0.144-0.083l-0.438-1.473c1.728-0.234,3.075-1.708,3.075-3.498v-7.092c0-1.95-1.596-3.546-3.546-3.546
		h-1.918c-0.003-0.014-0.006-0.028-0.008-0.042l3.036-3.234c0.187,0.114,0.431,0.1,0.593-0.062c0.189-0.19,0.189-0.497,0-0.687
		c-0.189-0.189-0.497-0.189-0.687,0c-0.162,0.163-0.177,0.406-0.063,0.594l-3.13,2.938c-0.146-0.131-0.334-0.217-0.544-0.217h-1.652
		c-0.21,0-0.398,0.085-0.544,0.217l-3.13-2.938c0.114-0.188,0.1-0.431-0.063-0.594c-0.189-0.189-0.497-0.189-0.687,0
		c-0.189,0.19-0.189,0.497,0,0.687c0.162,0.162,0.406,0.176,0.593,0.062l3.036,3.234c-0.002,0.014-0.005,0.028-0.008,0.042h-1.918
		c-1.95,0-3.546,1.596-3.546,3.546v7.092C17.908,34.885,19.256,36.36,20.983,36.594z M25,36.331c-0.319,0-0.578-0.259-0.578-0.578
		c0-0.32,0.259-0.579,0.578-0.579s0.578,0.259,0.578,0.579C25.578,36.072,25.319,36.331,25,36.331z M18.972,26.536
		c0-1.658,1.357-3.014,3.014-3.014h6.029c1.656,0,3.014,1.356,3.014,3.014v5.319c0,1.657-1.357,3.014-3.014,3.014h-6.029
		c-1.656,0-3.014-1.357-3.014-3.014V26.536z"/>
	<polygon points="22.621,31.208 23.646,31.208 23.646,28.71 24.691,28.71 24.691,27.891 21.576,27.891 21.576,28.71 22.621,28.71 	
		"/>
	<polygon points="27.192,31.208 28.424,27.891 27.384,27.891 26.646,30.277 25.9,27.891 24.829,27.891 26.082,31.208 	"/>
</g>
</svg>
