<?xml version="1.0" encoding="utf-8"?>
<!-- Generator: Adobe Illustrator 16.0.4, SVG Export Plug-In . SVG Version: 6.00 Build 0)  -->
<!DOCTYPE svg PUBLIC "-//W3C//DTD SVG 1.1//EN" "http://www.w3.org/Graphics/SVG/1.1/DTD/svg11.dtd">
<svg version="1.1" id="Layer_1" xmlns="http://www.w3.org/2000/svg" xmlns:xlink="http://www.w3.org/1999/xlink" x="0px" y="0px"
	 width="50px" height="50px" viewBox="0 0 50 50" enable-background="new 0 0 50 50" xml:space="preserve">
<path d="M37,10.724h-1.098V9.526c0-1.516-1.197-2.75-2.67-2.75c-1.474,0-2.67,1.234-2.67,2.75v1.197h-2.74V9.526
	c0-1.516-1.197-2.75-2.67-2.75c-1.473,0-2.67,1.234-2.67,2.75v1.197h-2.74V9.526c0-1.516-1.197-2.75-2.67-2.75
	c-1.473,0-2.67,1.234-2.67,2.75v1.197H13c-2.343,0-4.25,1.907-4.25,4.25v24c0,2.344,1.907,4.25,4.25,4.25h24
	c2.344,0,4.25-1.906,4.25-4.25v-24C41.25,12.63,39.344,10.724,37,10.724z M32.062,9.526c0-0.689,0.525-1.25,1.17-1.25
	c0.646,0,1.17,0.561,1.17,1.25v4.895c0,0.689-0.524,1.25-1.17,1.25c-0.645,0-1.17-0.561-1.17-1.25V9.526z M23.982,9.526
	c0-0.689,0.525-1.25,1.17-1.25s1.17,0.561,1.17,1.25v4.895c0,0.689-0.525,1.25-1.17,1.25s-1.17-0.561-1.17-1.25V9.526z
	 M15.902,9.526c0-0.689,0.525-1.25,1.17-1.25s1.17,0.561,1.17,1.25v4.895c0,0.689-0.525,1.25-1.17,1.25s-1.17-0.561-1.17-1.25V9.526
	z M38.75,38.975c0,0.965-0.785,1.75-1.75,1.75H13c-0.965,0-1.75-0.785-1.75-1.75v-22h27.5V38.975z M25.446,34.441l-5.2-5.197
	l6.615-6.617l5.199,5.198L25.446,34.441z M17.793,33.35L17.793,33.35h1.772v1.771l1.772,0.001v1.772h0.001h1.772v1.771
	l10.867-10.869l-7.088-7.089L16.022,31.577h1.771V33.35z M26.891,21.652l6.145,6.144l-7.62,7.62l-6.144-6.143L26.891,21.652z
	 M19.077,30.411l5.198,5.198l-0.462,0.461l-5.197-5.198L19.077,30.411z"/>
</svg>
