<?xml version="1.0" encoding="utf-8"?>
<!-- Generator: Adobe Illustrator 16.0.0, SVG Export Plug-In . SVG Version: 6.00 Build 0)  -->
<!DOCTYPE svg PUBLIC "-//W3C//DTD SVG 1.1//EN" "http://www.w3.org/Graphics/SVG/1.1/DTD/svg11.dtd">
<svg version="1.1" id="Layer_1" xmlns="http://www.w3.org/2000/svg" xmlns:xlink="http://www.w3.org/1999/xlink" x="0px" y="0px"
	 width="50px" height="50px" viewBox="0 0 50 50" enable-background="new 0 0 50 50" xml:space="preserve">
<g>
	<path d="M37.269,14.215h-3.346l-8.035-6.837c0.045-0.111,0.072-0.233,0.072-0.36c0-0.529-0.43-0.96-0.96-0.96
		c-0.531,0-0.961,0.431-0.961,0.96c0,0.127,0.027,0.249,0.072,0.36l-8.034,6.837h-3.346c-1.432,0-2.595,1.164-2.595,2.595v24.538
		c0,1.432,1.163,2.595,2.595,2.595h21.606l5.525-5.525V16.81C39.863,15.379,38.698,14.215,37.269,14.215z M34.732,17.538
		c0,0.771-0.626,1.396-1.396,1.396c-0.771,0-1.396-0.625-1.396-1.396s0.625-1.396,1.396-1.396
		C34.106,16.142,34.732,16.768,34.732,17.538z M24.514,7.825C24.658,7.913,24.818,7.979,25,7.979s0.342-0.065,0.488-0.153
		l7.508,6.39H17.004L24.514,7.825z M30.564,17.538c0,0.771-0.625,1.396-1.398,1.396c-0.77,0-1.394-0.625-1.394-1.396
		s0.624-1.396,1.394-1.396C29.939,16.142,30.564,16.768,30.564,17.538z M26.396,17.538c0,0.771-0.626,1.396-1.396,1.396
		c-0.771,0-1.396-0.625-1.396-1.396s0.626-1.396,1.396-1.396C25.77,16.142,26.396,16.768,26.396,17.538z M22.227,17.538
		c0,0.771-0.623,1.396-1.393,1.396c-0.774,0-1.399-0.625-1.399-1.396s0.625-1.396,1.399-1.396
		C21.604,16.142,22.227,16.768,22.227,17.538z M16.664,16.142c0.771,0,1.396,0.626,1.396,1.396s-0.625,1.396-1.396,1.396
		c-0.771,0-1.396-0.625-1.396-1.396S15.894,16.142,16.664,16.142z M38.448,37.831l-0.293,0.292h-2.224
		c-1.038,0-1.887,0.851-1.887,1.888v2.224l-0.293,0.293H12.731c-0.651,0-1.18-0.529-1.18-1.18V20.585h26.896V37.831z"/>
	<path d="M15.688,34.75c0.33,0,0.609-0.172,0.792-0.421v0.421c0,0.55,0.45,1,1,1c0.356,0,0.656-0.199,0.833-0.481v0.481
		c0,0.55,0.45,1,1,1s1-0.45,1-1v-3.208h9.375v3.208c0,0.55,0.45,1,1,1s1-0.45,1-1v-0.481c0.177,0.282,0.477,0.481,0.833,0.481
		c0.55,0,1-0.45,1-1v-0.421c0.183,0.249,0.462,0.421,0.792,0.421c0.55,0,1-0.45,1-1v-4c0-0.55-0.45-1-1-1
		c-0.33,0-0.609,0.172-0.792,0.421V28.75c0-0.55-0.45-1-1-1c-0.356,0-0.656,0.199-0.833,0.481V27.75c0-0.55-0.45-1-1-1s-1,0.45-1,1
		v2.792h-9.375V27.75c0-0.55-0.45-1-1-1s-1,0.45-1,1v0.481c-0.177-0.282-0.477-0.481-0.833-0.481c-0.55,0-1,0.45-1,1v0.421
		c-0.183-0.249-0.462-0.421-0.792-0.421c-0.55,0-1,0.45-1,1v4C14.688,34.3,15.138,34.75,15.688,34.75z"/>
</g>
</svg>
