<?xml version="1.0" encoding="utf-8"?>
<!-- Generator: Adobe Illustrator 16.0.0, SVG Export Plug-In . SVG Version: 6.00 Build 0)  -->
<!DOCTYPE svg PUBLIC "-//W3C//DTD SVG 1.1//EN" "http://www.w3.org/Graphics/SVG/1.1/DTD/svg11.dtd">
<svg version="1.1" id="Layer_1" xmlns="http://www.w3.org/2000/svg" xmlns:xlink="http://www.w3.org/1999/xlink" x="0px" y="0px"
	 width="50px" height="50px" viewBox="0 0 50 50" enable-background="new 0 0 50 50" xml:space="preserve">
<g>
	<path d="M37,10.724h-1.098V9.526c0-1.516-1.197-2.75-2.67-2.75s-2.67,1.234-2.67,2.75v1.197h-2.74V9.526
		c0-1.516-1.197-2.75-2.67-2.75s-2.67,1.234-2.67,2.75v1.197h-2.74V9.526c0-1.516-1.197-2.75-2.67-2.75s-2.67,1.234-2.67,2.75v1.197
		H13c-2.343,0-4.25,1.907-4.25,4.25v24c0,2.343,1.907,4.25,4.25,4.25h24c2.344,0,4.25-1.907,4.25-4.25v-24
		C41.25,12.63,39.344,10.724,37,10.724z M32.063,9.526c0-0.689,0.525-1.25,1.17-1.25s1.17,0.561,1.17,1.25v4.895
		c0,0.689-0.525,1.25-1.17,1.25s-1.17-0.561-1.17-1.25V9.526z M23.982,9.526c0-0.689,0.525-1.25,1.17-1.25s1.17,0.561,1.17,1.25
		v4.895c0,0.689-0.525,1.25-1.17,1.25s-1.17-0.561-1.17-1.25V9.526z M15.902,9.526c0-0.689,0.525-1.25,1.17-1.25
		s1.17,0.561,1.17,1.25v4.895c0,0.689-0.525,1.25-1.17,1.25s-1.17-0.561-1.17-1.25V9.526z M38.75,38.974
		c0,0.965-0.785,1.75-1.75,1.75H13c-0.965,0-1.75-0.785-1.75-1.75v-22h27.5V38.974z"/>
	<path d="M15.981,29.815l1.642,1.092c0.62,0.411,1.007,1.345,0.86,2.075l-0.39,1.933c-0.147,0.73,0.33,1.206,1.06,1.059l1.933-0.39
		c0.73-0.147,1.663,0.24,2.075,0.859l1.092,1.643c0.412,0.62,1.085,0.62,1.497,0l1.092-1.643c0.412-0.62,1.345-1.006,2.075-0.859
		l1.933,0.39c0.73,0.147,1.207-0.329,1.06-1.059l-0.39-1.933c-0.147-0.73,0.24-1.664,0.86-2.075l1.642-1.092
		c0.62-0.412,0.62-1.085,0-1.497l-1.642-1.092c-0.62-0.412-1.007-1.345-0.86-2.075l0.39-1.933c0.147-0.729-0.33-1.206-1.06-1.059
		l-1.933,0.39c-0.73,0.148-1.663-0.239-2.075-0.859l-1.092-1.643c-0.412-0.62-1.085-0.62-1.497,0L23.16,21.69
		c-0.412,0.62-1.345,1.007-2.075,0.859l-1.933-0.39c-0.73-0.147-1.207,0.33-1.06,1.059l0.39,1.933c0.147,0.73-0.24,1.664-0.86,2.075
		l-1.642,1.092C15.361,28.73,15.361,29.404,15.981,29.815z M20.276,28.835c0.051-1.06,0.458-2.103,1.219-2.943l-0.083-0.413
		l0.413,0.083c0.84-0.762,1.883-1.168,2.943-1.22L25,23.994l0.232,0.349c1.06,0.052,2.104,0.458,2.943,1.22l0.413-0.083
		l-0.083,0.413c0.762,0.84,1.168,1.883,1.219,2.943l0.35,0.232l-0.35,0.232c-0.051,1.06-0.458,2.103-1.219,2.943l0.083,0.413
		l-0.413-0.083c-0.839,0.761-1.883,1.168-2.943,1.219L25,34.14l-0.232-0.35c-1.06-0.051-2.103-0.458-2.943-1.219l-0.413,0.083
		l0.083-0.413c-0.762-0.84-1.168-1.883-1.219-2.943l-0.35-0.232L20.276,28.835z"/>
</g>
</svg>
