<?xml version="1.0" encoding="utf-8"?>
<!-- Generator: Adobe Illustrator 16.0.0, SVG Export Plug-In . SVG Version: 6.00 Build 0)  -->
<!DOCTYPE svg PUBLIC "-//W3C//DTD SVG 1.1//EN" "http://www.w3.org/Graphics/SVG/1.1/DTD/svg11.dtd">
<svg version="1.1" id="Layer_1" xmlns="http://www.w3.org/2000/svg" xmlns:xlink="http://www.w3.org/1999/xlink" x="0px" y="0px"
	 width="50px" height="50px" viewBox="0 0 50 50" enable-background="new 0 0 50 50" xml:space="preserve">
<g>
	<path d="M38,9.25h-1.124c0.029-0.093,0.058-0.186,0.058-0.289C36.935,8.431,36.504,8,35.973,8c-0.531,0-0.961,0.431-0.961,0.961
		c0,0.103,0.028,0.196,0.058,0.289h-3.68c0.03-0.093,0.058-0.186,0.058-0.289c0-0.531-0.43-0.961-0.961-0.961
		c-0.531,0-0.961,0.431-0.961,0.961c0,0.103,0.029,0.196,0.058,0.289h-3.68c0.029-0.093,0.058-0.186,0.058-0.289
		C25.961,8.431,25.531,8,25,8s-0.961,0.431-0.961,0.961c0,0.103,0.029,0.196,0.058,0.289h-3.68c0.029-0.093,0.058-0.186,0.058-0.289
		C20.475,8.431,20.044,8,19.513,8c-0.531,0-0.961,0.431-0.961,0.961c0,0.103,0.028,0.196,0.058,0.289h-3.68
		c0.03-0.093,0.058-0.186,0.058-0.289c0-0.531-0.43-0.961-0.961-0.961c-0.531,0-0.961,0.431-0.961,0.961
		c0,0.103,0.029,0.196,0.058,0.289H12c-1.517,0-2.75,1.233-2.75,2.75v26c0,1.517,1.233,2.75,2.75,2.75h22.895l5.855-5.856V12
		C40.75,10.483,39.517,9.25,38,9.25z M39.25,34.273l-0.311,0.311h-2.356c-1.1,0-2,0.9-2,2v2.356l-0.31,0.31H12
		c-0.689,0-1.25-0.561-1.25-1.25V17h28.5V34.273z"/>
	<path d="M16.432,30.195c-0.253,0-0.528-0.066-0.737-0.198c-0.22-0.132-0.374-0.341-0.429-0.627h-2.486
		c0.055,1.43,1.419,2.651,3.509,2.651c2.178,0,3.708-0.891,3.708-2.729c0-2.882-4.555-2.145-4.555-3.333
		c0-0.286,0.253-0.451,0.825-0.451c0.253,0,0.484,0.044,0.671,0.143c0.187,0.099,0.33,0.264,0.374,0.54h2.464
		c-0.187-1.386-1.188-2.509-3.388-2.509c-1.98,0-3.433,0.847-3.433,2.531c0,3.025,4.555,2.2,4.555,3.399
		C17.51,29.986,17.081,30.195,16.432,30.195z"/>
	<path d="M24.396,32.021c2.629,0,3.806-1.111,3.806-3.652v-4.478h-2.596v4.741c0,0.858-0.275,1.453-1.21,1.453
		c-1.067,0-1.221-0.671-1.221-1.453v-4.741h-2.597v4.466C20.578,31.086,21.942,32.021,24.396,32.021z"/>
	<polygon points="31.667,29.304 31.567,27.5 34.395,31.812 36.826,31.812 36.826,23.891 34.34,23.891 34.34,26.41 34.439,28.214 
		31.611,23.891 29.18,23.891 29.18,31.812 31.667,31.812 	"/>
</g>
</svg>
