<?xml version="1.0" encoding="utf-8"?>
<!-- Generator: Adobe Illustrator 16.0.0, SVG Export Plug-In . SVG Version: 6.00 Build 0)  -->
<!DOCTYPE svg PUBLIC "-//W3C//DTD SVG 1.1//EN" "http://www.w3.org/Graphics/SVG/1.1/DTD/svg11.dtd">
<svg version="1.1" id="Layer_1" xmlns="http://www.w3.org/2000/svg" xmlns:xlink="http://www.w3.org/1999/xlink" x="0px" y="0px"
	 width="50px" height="50px" viewBox="0 0 50 50" enable-background="new 0 0 50 50" xml:space="preserve">
<g>
	<path d="M38,10.25h-1.123c0.029-0.093,0.058-0.186,0.058-0.289C36.935,9.431,36.504,9,35.973,9s-0.961,0.431-0.961,0.961
		c0,0.103,0.028,0.196,0.059,0.289h-3.68c0.029-0.093,0.058-0.186,0.058-0.289C31.448,9.431,31.018,9,30.486,9
		c-0.53,0-0.961,0.431-0.961,0.961c0,0.103,0.029,0.196,0.059,0.289h-3.681c0.029-0.093,0.058-0.186,0.058-0.289
		C25.961,9.431,25.531,9,25,9s-0.961,0.431-0.961,0.961c0,0.103,0.028,0.196,0.058,0.289h-3.681
		c0.029-0.093,0.059-0.186,0.059-0.289C20.475,9.431,20.044,9,19.514,9c-0.531,0-0.962,0.431-0.962,0.961
		c0,0.103,0.028,0.196,0.058,0.289h-3.68c0.03-0.093,0.059-0.186,0.059-0.289c0-0.531-0.43-0.961-0.961-0.961
		s-0.962,0.431-0.962,0.961c0,0.103,0.028,0.196,0.058,0.289H12c-1.518,0-2.75,1.233-2.75,2.75v26c0,1.517,1.232,2.75,2.75,2.75
		h22.895l5.855-5.856V13C40.75,11.483,39.517,10.25,38,10.25z M32.516,14.258l0.365,1.201c0.041,0.145,0.091,0.325,0.121,0.456
		h0.015c0.035-0.13,0.075-0.315,0.11-0.456l0.3-1.201h0.815l-0.57,1.611c-0.35,0.971-0.586,1.361-0.86,1.607
		c-0.266,0.23-0.546,0.31-0.735,0.335l-0.16-0.646c0.095-0.015,0.215-0.06,0.33-0.13c0.115-0.061,0.24-0.181,0.314-0.306
		c0.025-0.035,0.041-0.075,0.041-0.11c0-0.025-0.006-0.065-0.035-0.125l-0.896-2.237H32.516z M30.467,14.258l0.024,0.45h0.021
		c0.125-0.355,0.425-0.505,0.66-0.505c0.07,0,0.105,0,0.16,0.01v0.716c-0.055-0.01-0.12-0.02-0.205-0.02
		c-0.28,0-0.471,0.15-0.521,0.385c-0.01,0.05-0.015,0.11-0.015,0.17v1.241H29.83v-1.642c0-0.36-0.01-0.596-0.02-0.806H30.467z
		 M27.896,14.724c-0.25,0-0.516,0.085-0.676,0.185l-0.141-0.49c0.171-0.095,0.506-0.215,0.951-0.215c0.816,0,1.076,0.48,1.076,1.056
		v0.851c0,0.235,0.01,0.46,0.035,0.596h-0.686l-0.045-0.245h-0.016c-0.16,0.195-0.41,0.3-0.7,0.3c-0.495,0-0.791-0.36-0.791-0.751
		c0-0.636,0.571-0.941,1.437-0.936v-0.035C28.342,14.909,28.271,14.724,27.896,14.724z M24.016,14.258h0.766v1.316
		c0,0.355,0.115,0.571,0.381,0.571c0.21,0,0.33-0.145,0.38-0.265c0.021-0.045,0.024-0.105,0.024-0.165v-1.457h0.767v1.662
		c0,0.32,0.01,0.581,0.02,0.786h-0.66l-0.035-0.345h-0.015c-0.096,0.15-0.326,0.4-0.766,0.4c-0.496,0-0.861-0.311-0.861-1.066
		V14.258z M21.611,14.258l0.035,0.335h0.015c0.101-0.155,0.351-0.391,0.756-0.391c0.5,0,0.876,0.33,0.876,1.051v1.452h-0.762v-1.356
		c0-0.315-0.109-0.53-0.385-0.53c-0.21,0-0.336,0.145-0.385,0.285c-0.021,0.045-0.031,0.12-0.031,0.19v1.412h-0.76v-1.667
		c0-0.306-0.01-0.565-0.021-0.781H21.611z M19.036,14.724c-0.251,0-0.516,0.085-0.676,0.185l-0.14-0.49
		c0.17-0.095,0.505-0.215,0.95-0.215c0.815,0,1.076,0.48,1.076,1.056v0.851c0,0.235,0.011,0.46,0.035,0.596h-0.686l-0.045-0.245
		h-0.015c-0.16,0.195-0.411,0.3-0.701,0.3c-0.496,0-0.791-0.36-0.791-0.751c0-0.636,0.57-0.941,1.437-0.936v-0.035
		C19.481,14.909,19.411,14.724,19.036,14.724z M15.824,16.065c0.105,0.035,0.24,0.06,0.391,0.06c0.32,0,0.521-0.145,0.521-0.671
		v-2.122h0.761v2.132c0,0.961-0.46,1.296-1.201,1.296c-0.175,0-0.405-0.03-0.555-0.08L15.824,16.065z M39.25,35.273l-0.311,0.311
		h-2.355c-1.101,0-2,0.9-2,2v2.356l-0.311,0.31H12c-0.689,0-1.25-0.561-1.25-1.25V20h28.5V35.273z"/>
	<path d="M18.796,15.935c0,0.195,0.13,0.291,0.3,0.291c0.19,0,0.346-0.125,0.396-0.28c0.011-0.04,0.015-0.085,0.015-0.13v-0.265
		C19.105,15.544,18.796,15.64,18.796,15.935z"/>
	<path d="M27.656,15.935c0,0.195,0.13,0.291,0.301,0.291c0.189,0,0.345-0.125,0.395-0.28c0.01-0.04,0.016-0.085,0.016-0.13v-0.265
		C27.967,15.544,27.656,15.64,27.656,15.935z"/>
	<path d="M22.65,37.829h5.886c0.819,0,1.484-0.666,1.484-1.484c0-0.498-0.263-0.918-0.64-1.187c0.377-0.27,0.64-0.689,0.64-1.188
		c0-0.498-0.263-0.917-0.64-1.187c0.377-0.269,0.64-0.689,0.64-1.187s-0.263-0.918-0.64-1.187c0.377-0.269,0.64-0.689,0.64-1.188
		c0-0.818-0.665-1.484-1.484-1.484h-2.918v-4.171c0-0.818-0.799-1.484-1.78-1.484c-0.982,0-1.781,0.666-1.781,1.484v4.243
		c-1.188,0.271-2.077,1.331-2.077,2.6v4.749C19.979,36.631,21.178,37.829,22.65,37.829z M22.65,23.567
		c0-0.491,0.532-0.89,1.188-0.89c0.654,0,1.187,0.399,1.187,0.89v4.171H22.65V23.567z M20.572,30.409
		c0-1.146,0.933-2.078,2.078-2.078h5.886c0.491,0,0.891,0.399,0.891,0.89c0,0.491-0.399,0.891-0.891,0.891h-4.748
		c-0.164,0-0.298,0.133-0.298,0.297c0,0.164,0.134,0.296,0.298,0.296h4.748c0.491,0,0.891,0.399,0.891,0.891
		c0,0.491-0.399,0.891-0.891,0.891h-4.748c-0.164,0-0.298,0.133-0.298,0.296c0,0.164,0.134,0.297,0.298,0.297h4.748
		c0.491,0,0.891,0.399,0.891,0.89c0,0.491-0.399,0.891-0.891,0.891h-4.748c-0.164,0-0.298,0.133-0.298,0.297
		c0,0.164,0.134,0.296,0.298,0.296h4.748c0.491,0,0.891,0.4,0.891,0.891c0,0.491-0.399,0.89-0.891,0.89H22.65
		c-1.146,0-2.078-0.932-2.078-2.077V30.409z"/>
</g>
</svg>
