<?xml version="1.0" encoding="utf-8"?>
<!-- Generator: Adobe Illustrator 16.0.0, SVG Export Plug-In . SVG Version: 6.00 Build 0)  -->
<!DOCTYPE svg PUBLIC "-//W3C//DTD SVG 1.1//EN" "http://www.w3.org/Graphics/SVG/1.1/DTD/svg11.dtd">
<svg version="1.1" id="Layer_1" xmlns="http://www.w3.org/2000/svg" xmlns:xlink="http://www.w3.org/1999/xlink" x="0px" y="0px"
	 width="50px" height="50px" viewBox="0 0 50 50" enable-background="new 0 0 50 50" xml:space="preserve">
<g>
	<path d="M38,9.25h-1.123c0.029-0.093,0.058-0.186,0.058-0.289C36.935,8.431,36.504,8,35.973,8s-0.961,0.431-0.961,0.961
		c0,0.103,0.028,0.196,0.059,0.289h-3.68c0.029-0.093,0.058-0.186,0.058-0.289C31.448,8.431,31.018,8,30.486,8
		c-0.53,0-0.961,0.431-0.961,0.961c0,0.103,0.029,0.196,0.059,0.289h-3.681c0.029-0.093,0.058-0.186,0.058-0.289
		C25.961,8.431,25.531,8,25,8s-0.961,0.431-0.961,0.961c0,0.103,0.028,0.196,0.058,0.289h-3.681
		c0.029-0.093,0.059-0.186,0.059-0.289C20.475,8.431,20.044,8,19.514,8c-0.531,0-0.962,0.431-0.962,0.961
		c0,0.103,0.028,0.196,0.058,0.289h-3.68c0.03-0.093,0.059-0.186,0.059-0.289c0-0.531-0.43-0.961-0.961-0.961
		s-0.962,0.431-0.962,0.961c0,0.103,0.028,0.196,0.058,0.289H12c-1.518,0-2.75,1.233-2.75,2.75v26c0,1.517,1.232,2.75,2.75,2.75
		h22.895l5.855-5.856V12C40.75,10.483,39.517,9.25,38,9.25z M39.25,34.273l-0.311,0.311h-2.355c-1.101,0-2,0.9-2,2v2.356
		l-0.311,0.31H12c-0.689,0-1.25-0.561-1.25-1.25V17h28.5V34.273z"/>
	<polygon points="15.7,31.812 18.297,31.812 18.297,25.97 20.629,25.97 20.629,23.891 13.367,23.891 13.367,25.97 15.7,25.97 	"/>
	<path d="M25.006,32.021c2.629,0,3.807-1.111,3.807-3.652v-4.478h-2.596v4.741c0,0.858-0.275,1.453-1.211,1.453
		c-1.066,0-1.221-0.671-1.221-1.453v-4.741h-2.597v4.466C21.188,31.086,22.553,32.021,25.006,32.021z"/>
	<polygon points="36.48,29.964 32.465,29.964 32.465,28.721 35.732,28.721 35.732,26.872 32.465,26.872 32.465,25.739 
		36.326,25.739 36.326,23.891 29.867,23.891 29.867,31.812 36.48,31.812 	"/>
</g>
</svg>
