<?xml version="1.0" encoding="utf-8"?>
<!-- Generator: Adobe Illustrator 16.0.0, SVG Export Plug-In . SVG Version: 6.00 Build 0)  -->
<!DOCTYPE svg PUBLIC "-//W3C//DTD SVG 1.1//EN" "http://www.w3.org/Graphics/SVG/1.1/DTD/svg11.dtd">
<svg version="1.1" id="Layer_1" xmlns="http://www.w3.org/2000/svg" xmlns:xlink="http://www.w3.org/1999/xlink" x="0px" y="0px"
	 width="50px" height="50px" viewBox="0 0 50 50" enable-background="new 0 0 50 50" xml:space="preserve">
<g>
	<path d="M36.848,10.355H35.75V9.158c0-1.516-1.198-2.75-2.67-2.75s-2.67,1.234-2.67,2.75v1.197h-2.741V9.158
		c0-1.516-1.197-2.75-2.669-2.75s-2.669,1.234-2.669,2.75v1.197H19.59V9.158c0-1.516-1.198-2.75-2.67-2.75s-2.67,1.234-2.67,2.75
		v1.197h-1.402c-2.343,0-4.25,1.907-4.25,4.25v24c0,2.343,1.907,4.25,4.25,4.25h24c2.343,0,4.25-1.907,4.25-4.25v-24
		C41.098,12.262,39.191,10.355,36.848,10.355z M31.91,9.158c0-0.689,0.525-1.25,1.17-1.25s1.17,0.561,1.17,1.25v4.895
		c0,0.689-0.525,1.25-1.17,1.25s-1.17-0.561-1.17-1.25V9.158z M23.831,9.158c0-0.689,0.524-1.25,1.169-1.25s1.169,0.561,1.169,1.25
		v4.895c0,0.689-0.524,1.25-1.169,1.25s-1.169-0.561-1.169-1.25V9.158z M15.75,9.158c0-0.689,0.525-1.25,1.17-1.25
		s1.17,0.561,1.17,1.25v4.895c0,0.689-0.525,1.25-1.17,1.25s-1.17-0.561-1.17-1.25V9.158z M38.598,38.605
		c0,0.965-0.785,1.75-1.75,1.75h-24c-0.965,0-1.75-0.785-1.75-1.75v-18h27.5V38.605z"/>
	<path d="M22.493,28.046c0,0.976,0.392,1.979,0.968,2.952c0.44-0.53,0.81-1.049,1.074-1.536c-0.222-0.492-0.356-0.97-0.356-1.416
		c0-1.587,0.834-2.573,2.177-2.573c0.999,0,2.121,0.556,3.082,1.524l0.598,0.604l0.598-0.604c0.961-0.968,2.083-1.524,3.083-1.524
		c1.342,0,2.176,0.986,2.176,2.573c0,2.453-3.861,5.851-5.857,7.345c-0.92-0.689-2.232-1.79-3.384-3.01
		c-0.332,0.461-0.691,0.908-1.07,1.335c1.724,1.793,3.597,3.146,3.971,3.407l0.483,0.338l0.483-0.338
		c0.723-0.505,7.06-5.053,7.06-9.077c0-2.508-1.588-4.259-3.862-4.259c-1.246,0-2.53,0.518-3.681,1.474
		c-1.151-0.956-2.435-1.474-3.68-1.474C24.081,23.787,22.493,25.539,22.493,28.046z"/>
	<path d="M19.48,37.123l0.483,0.338l0.483-0.338c0.723-0.505,7.06-5.053,7.06-9.077c0-0.549-0.086-1.054-0.234-1.517
		c-0.317-0.127-0.63-0.213-0.917-0.213c-0.376,0-0.641,0.12-0.836,0.296c0.195,0.392,0.302,0.874,0.302,1.434
		c0,2.453-3.861,5.851-5.858,7.345c-1.996-1.494-5.856-4.891-5.856-7.345c0-1.587,0.834-2.573,2.176-2.573
		c0.999,0,2.121,0.556,3.082,1.524l0.598,0.604l0.599-0.604c0.466-0.471,0.972-0.838,1.483-1.096c0.344-0.874,0.898-1.6,1.611-2.112
		c-0.003,0-0.008-0.001-0.012-0.001c-1.246,0-2.53,0.518-3.681,1.474c-1.151-0.956-2.435-1.474-3.68-1.474
		c-2.274,0-3.862,1.751-3.862,4.259C12.421,32.07,18.758,36.618,19.48,37.123z"/>
</g>
</svg>
