<?xml version="1.0" encoding="utf-8"?>
<!-- Generator: Adobe Illustrator 16.0.0, SVG Export Plug-In . SVG Version: 6.00 Build 0)  -->
<!DOCTYPE svg PUBLIC "-//W3C//DTD SVG 1.1//EN" "http://www.w3.org/Graphics/SVG/1.1/DTD/svg11.dtd">
<svg version="1.1" id="Layer_1" xmlns="http://www.w3.org/2000/svg" xmlns:xlink="http://www.w3.org/1999/xlink" x="0px" y="0px"
	 width="50px" height="50px" viewBox="0 0 50 50" enable-background="new 0 0 50 50" xml:space="preserve">
<g>
	<path d="M36.273,39.688H13.727c-1.945,0-3.664-0.978-4.7-2.464c0.14,2.482,2.184,4.464,4.7,4.464h22.547
		c2.517,0,4.561-1.981,4.7-4.464C39.938,38.71,38.219,39.688,36.273,39.688z"/>
	<path d="M36.273,9.688h-0.681V9.313c0-0.552-0.448-1-1-1s-1,0.448-1,1v0.375h-1.837V9.313c0-0.552-0.448-1-1-1s-1,0.448-1,1v0.375
		h-1.837V9.313c0-0.552-0.448-1-1-1s-1,0.448-1,1v0.375h-1.837V9.313c0-0.552-0.448-1-1-1s-1,0.448-1,1v0.375h-1.837V9.313
		c0-0.552-0.448-1-1-1s-1,0.448-1,1v0.375h-1.837V9.313c0-0.552-0.448-1-1-1s-1,0.448-1,1v0.375h-0.682
		C11.12,9.688,9,11.808,9,14.414v19.547c0,2.606,2.12,4.727,4.727,4.727h22.547c2.606,0,4.727-2.12,4.727-4.727V14.414
		C41,11.808,38.88,9.688,36.273,9.688z M34.093,9.313c0-0.276,0.224-0.5,0.5-0.5s0.5,0.224,0.5,0.5v6.482c0,0.276-0.224,0.5-0.5,0.5
		s-0.5-0.224-0.5-0.5V9.313z M30.256,9.313c0-0.276,0.224-0.5,0.5-0.5s0.5,0.224,0.5,0.5v6.482c0,0.276-0.224,0.5-0.5,0.5
		s-0.5-0.224-0.5-0.5V9.313z M26.419,9.313c0-0.276,0.224-0.5,0.5-0.5s0.5,0.224,0.5,0.5v6.482c0,0.276-0.224,0.5-0.5,0.5
		s-0.5-0.224-0.5-0.5V9.313z M22.582,9.313c0-0.276,0.224-0.5,0.5-0.5s0.5,0.224,0.5,0.5v6.482c0,0.276-0.224,0.5-0.5,0.5
		s-0.5-0.224-0.5-0.5V9.313z M18.745,9.313c0-0.276,0.224-0.5,0.5-0.5s0.5,0.224,0.5,0.5v6.482c0,0.276-0.224,0.5-0.5,0.5
		s-0.5-0.224-0.5-0.5V9.313z M14.908,9.313c0-0.276,0.224-0.5,0.5-0.5s0.5,0.224,0.5,0.5v6.482c0,0.276-0.224,0.5-0.5,0.5
		s-0.5-0.224-0.5-0.5V9.313z M38.592,33.961c0,1.278-1.04,2.318-2.318,2.318H13.727c-1.278,0-2.318-1.04-2.318-2.318V14.414
		c0-1.278,1.04-2.318,2.318-2.318h0.682v2.513c-0.339,0.286-0.56,0.709-0.56,1.187c0,0.86,0.699,1.56,1.56,1.56
		s1.56-0.699,1.56-1.56c0-0.478-0.221-0.9-0.56-1.187v-2.513h1.837v2.513c-0.339,0.286-0.56,0.709-0.56,1.187
		c0,0.86,0.699,1.56,1.56,1.56s1.56-0.699,1.56-1.56c0-0.478-0.221-0.9-0.56-1.187v-2.513h1.837v2.513
		c-0.339,0.286-0.56,0.709-0.56,1.187c0,0.86,0.699,1.56,1.56,1.56s1.56-0.699,1.56-1.56c0-0.478-0.221-0.9-0.56-1.187v-2.513h1.837
		v2.513c-0.339,0.286-0.56,0.709-0.56,1.187c0,0.86,0.699,1.56,1.56,1.56s1.56-0.699,1.56-1.56c0-0.478-0.221-0.9-0.56-1.187v-2.513
		h1.837v2.513c-0.339,0.286-0.56,0.709-0.56,1.187c0,0.86,0.699,1.56,1.56,1.56s1.56-0.699,1.56-1.56c0-0.478-0.221-0.9-0.56-1.187
		v-2.513h1.837v2.513c-0.339,0.286-0.56,0.709-0.56,1.187c0,0.86,0.699,1.56,1.56,1.56s1.56-0.699,1.56-1.56
		c0-0.478-0.221-0.9-0.56-1.187v-2.513h0.681c1.278,0,2.318,1.04,2.318,2.318V33.961z"/>
	<path d="M31.024,21.62l-7.215,7.854l-5.045-3.735c-0.666-0.494-1.604-0.354-2.098,0.313c-0.493,0.666-0.354,1.604,0.313,2.098
		l6.129,4.539c0.268,0.198,0.58,0.295,0.892,0.295c0.407,0,0.812-0.165,1.105-0.485l8.128-8.849c0.561-0.61,0.521-1.559-0.09-2.119
		C32.534,20.971,31.585,21.009,31.024,21.62z"/>
</g>
</svg>
