<?xml version="1.0" encoding="utf-8"?>
<!-- Generator: Adobe Illustrator 16.0.0, SVG Export Plug-In . SVG Version: 6.00 Build 0)  -->
<!DOCTYPE svg PUBLIC "-//W3C//DTD SVG 1.1//EN" "http://www.w3.org/Graphics/SVG/1.1/DTD/svg11.dtd">
<svg version="1.1" id="Layer_1" xmlns="http://www.w3.org/2000/svg" xmlns:xlink="http://www.w3.org/1999/xlink" x="0px" y="0px"
	 width="50px" height="50px" viewBox="0 0 50 50" enable-background="new 0 0 50 50" xml:space="preserve">
<g>
	<path d="M38.25,10.25h-1.123c0.029-0.092,0.058-0.186,0.058-0.288c0-0.53-0.431-0.962-0.962-0.962s-0.961,0.432-0.961,0.962
		c0,0.103,0.028,0.196,0.059,0.288h-3.68c0.029-0.092,0.058-0.186,0.058-0.288c0-0.53-0.431-0.962-0.962-0.962
		c-0.53,0-0.961,0.432-0.961,0.962c0,0.103,0.029,0.196,0.059,0.288h-3.681c0.029-0.092,0.058-0.186,0.058-0.288
		c0-0.53-0.43-0.962-0.961-0.962s-0.961,0.432-0.961,0.962c0,0.103,0.028,0.196,0.058,0.288h-3.681
		c0.029-0.092,0.059-0.186,0.059-0.288c0-0.53-0.431-0.962-0.961-0.962c-0.531,0-0.962,0.432-0.962,0.962
		c0,0.103,0.028,0.196,0.058,0.288h-3.68c0.03-0.092,0.059-0.186,0.059-0.288c0-0.53-0.43-0.962-0.961-0.962
		s-0.962,0.432-0.962,0.962c0,0.103,0.028,0.196,0.058,0.288H12.25c-1.518,0-2.75,1.234-2.75,2.75v26c0,1.518,1.232,2.75,2.75,2.75
		h22.895L41,35.895V13C41,11.484,39.767,10.25,38.25,10.25z M39.5,35.273l-0.311,0.311h-2.355c-1.101,0-2,0.9-2,2v2.356l-0.311,0.31
		H12.25C11.561,40.25,11,39.689,11,39V14h28.5V35.273z"/>
	<path d="M30.883,35.508l-1.691-1.271c-0.193-0.146-0.547-0.264-0.79-0.264h-2.274v0.295c0,0.484-0.394,0.878-0.877,0.878
		s-0.877-0.394-0.877-0.878v-0.295h-2.274c-0.242,0-0.597,0.118-0.791,0.264l-1.69,1.271c-0.193,0.143-0.155,0.262,0.086,0.262
		h11.094C31.038,35.77,31.076,35.65,30.883,35.508z"/>
	<path d="M15.164,31.967h9.647v2.302c0,0.243,0.197,0.438,0.439,0.438s0.439-0.194,0.439-0.438v-2.302h9.647
		c0.482,0,0.878-0.395,0.878-0.877V19.688c0-0.482-0.396-0.878-0.878-0.878H15.164c-0.482,0-0.878,0.396-0.878,0.878V31.09
		C14.286,31.572,14.681,31.967,15.164,31.967z M21.752,23.066c0-0.771,0.552-1.097,1.225-0.727l4.546,2.501
		c0.673,0.371,0.673,0.978,0,1.348l-4.546,2.498c-0.673,0.373-1.225,0.046-1.225-0.724V23.066z"/>
</g>
</svg>
