<?xml version="1.0" encoding="utf-8"?>
<!-- Generator: Adobe Illustrator 16.0.0, SVG Export Plug-In . SVG Version: 6.00 Build 0)  -->
<!DOCTYPE svg PUBLIC "-//W3C//DTD SVG 1.1//EN" "http://www.w3.org/Graphics/SVG/1.1/DTD/svg11.dtd">
<svg version="1.1" id="Layer_1" xmlns="http://www.w3.org/2000/svg" xmlns:xlink="http://www.w3.org/1999/xlink" x="0px" y="0px"
	 width="50px" height="50px" viewBox="0 0 50 50" enable-background="new 0 0 50 50" xml:space="preserve">
<g>
	<path d="M38,9.25h-1.123c0.029-0.093,0.058-0.186,0.058-0.289C36.935,8.431,36.504,8,35.973,8s-0.961,0.431-0.961,0.961
		c0,0.103,0.028,0.196,0.059,0.289h-3.68c0.029-0.093,0.058-0.186,0.058-0.289C31.448,8.431,31.018,8,30.486,8
		c-0.53,0-0.961,0.431-0.961,0.961c0,0.103,0.029,0.196,0.059,0.289h-3.681c0.029-0.093,0.058-0.186,0.058-0.289
		C25.961,8.431,25.531,8,25,8s-0.961,0.431-0.961,0.961c0,0.103,0.028,0.196,0.058,0.289h-3.681
		c0.029-0.093,0.059-0.186,0.059-0.289C20.475,8.431,20.044,8,19.514,8c-0.531,0-0.962,0.431-0.962,0.961
		c0,0.103,0.028,0.196,0.058,0.289h-3.68c0.03-0.093,0.059-0.186,0.059-0.289c0-0.531-0.43-0.961-0.961-0.961
		s-0.962,0.431-0.962,0.961c0,0.103,0.028,0.196,0.058,0.289H12c-1.518,0-2.75,1.233-2.75,2.75v26c0,1.517,1.232,2.75,2.75,2.75
		h22.895l5.855-5.856V12C40.75,10.483,39.517,9.25,38,9.25z M32.516,13.258l0.365,1.201c0.041,0.145,0.091,0.325,0.121,0.456h0.015
		c0.035-0.13,0.075-0.315,0.11-0.456l0.3-1.201h0.815l-0.57,1.611c-0.35,0.971-0.586,1.361-0.86,1.607
		c-0.266,0.23-0.546,0.31-0.735,0.335l-0.16-0.646c0.095-0.015,0.215-0.06,0.33-0.13c0.115-0.061,0.24-0.181,0.314-0.306
		c0.025-0.035,0.041-0.075,0.041-0.11c0-0.025-0.006-0.065-0.035-0.125l-0.896-2.237H32.516z M30.467,13.258l0.024,0.45h0.021
		c0.125-0.355,0.425-0.505,0.66-0.505c0.07,0,0.105,0,0.16,0.01v0.716c-0.055-0.01-0.12-0.02-0.205-0.02
		c-0.28,0-0.471,0.15-0.521,0.385c-0.01,0.05-0.015,0.11-0.015,0.17v1.241H29.83v-1.642c0-0.36-0.01-0.596-0.02-0.806H30.467z
		 M27.896,13.724c-0.25,0-0.516,0.085-0.676,0.185l-0.141-0.49c0.171-0.095,0.506-0.215,0.951-0.215c0.816,0,1.076,0.48,1.076,1.056
		v0.851c0,0.235,0.01,0.46,0.035,0.596h-0.686l-0.045-0.245h-0.016c-0.16,0.195-0.41,0.3-0.7,0.3c-0.495,0-0.791-0.36-0.791-0.751
		c0-0.636,0.571-0.941,1.437-0.936v-0.035C28.342,13.909,28.271,13.724,27.896,13.724z M24.016,13.258h0.766v1.316
		c0,0.355,0.115,0.571,0.381,0.571c0.21,0,0.33-0.145,0.38-0.265c0.021-0.045,0.024-0.105,0.024-0.165v-1.457h0.767v1.662
		c0,0.32,0.01,0.581,0.02,0.786h-0.66l-0.035-0.345h-0.015c-0.096,0.15-0.326,0.4-0.766,0.4c-0.496,0-0.861-0.311-0.861-1.066
		V13.258z M21.611,13.258l0.035,0.335h0.015c0.101-0.155,0.351-0.391,0.756-0.391c0.5,0,0.876,0.33,0.876,1.051v1.452h-0.762v-1.356
		c0-0.315-0.109-0.53-0.385-0.53c-0.21,0-0.336,0.145-0.385,0.285c-0.021,0.045-0.031,0.12-0.031,0.19v1.412h-0.76v-1.667
		c0-0.306-0.01-0.565-0.021-0.781H21.611z M19.036,13.724c-0.251,0-0.516,0.085-0.676,0.185l-0.14-0.49
		c0.17-0.095,0.505-0.215,0.95-0.215c0.815,0,1.076,0.48,1.076,1.056v0.851c0,0.235,0.011,0.46,0.035,0.596h-0.686l-0.045-0.245
		h-0.015c-0.16,0.195-0.411,0.3-0.701,0.3c-0.496,0-0.791-0.36-0.791-0.751c0-0.636,0.57-0.941,1.437-0.936v-0.035
		C19.481,13.909,19.411,13.724,19.036,13.724z M15.824,15.065c0.105,0.035,0.24,0.06,0.391,0.06c0.32,0,0.521-0.145,0.521-0.671
		v-2.122h0.761v2.132c0,0.961-0.46,1.296-1.201,1.296c-0.175,0-0.405-0.03-0.555-0.08L15.824,15.065z M39.25,34.273l-0.311,0.311
		h-2.355c-1.101,0-2,0.9-2,2v2.356l-0.311,0.31H12c-0.689,0-1.25-0.561-1.25-1.25V19h28.5V34.273z"/>
	<path d="M18.796,14.935c0,0.195,0.13,0.291,0.3,0.291c0.19,0,0.346-0.125,0.396-0.28c0.011-0.04,0.015-0.085,0.015-0.13v-0.265
		C19.105,14.544,18.796,14.64,18.796,14.935z"/>
	<path d="M27.656,14.935c0,0.195,0.13,0.291,0.301,0.291c0.189,0,0.345-0.125,0.395-0.28c0.01-0.04,0.016-0.085,0.016-0.13v-0.265
		C27.967,14.544,27.656,14.64,27.656,14.935z"/>
	<path d="M22.743,35.763c0.891,0,1.719-0.219,2.466-0.649c0.447-0.258,0.822-0.602,1.162-0.98c-0.099,0.003-0.198,0.02-0.296,0.02
		c-0.828,0-1.594-0.135-2.278-0.388c-0.333,0.117-0.68,0.197-1.054,0.197c-1.64,0-3.352-1.128-4.36-2.874
		c-0.699-1.211-0.98-2.557-0.793-3.791c0.177-1.159,0.752-2.073,1.62-2.575c0.469-0.271,0.995-0.408,1.565-0.408
		c1.64,0,3.352,1.128,4.36,2.874c0.699,1.211,0.98,2.557,0.793,3.791c-0.008,0.056-0.029,0.103-0.039,0.157
		c0.064,0.002,0.12,0.016,0.186,0.016c0.532,0,1.095-0.1,1.654-0.276c0.146-1.53-0.2-3.142-1.035-4.588
		c-1.324-2.292-3.647-3.773-5.919-3.773c-0.891,0-1.719,0.218-2.465,0.649c-1.352,0.78-2.239,2.152-2.499,3.862
		c-0.25,1.636,0.109,3.398,1.013,4.961C18.148,34.282,20.472,35.763,22.743,35.763z"/>
	<path d="M26.459,24.908c0.974-0.498,2.016-0.781,2.981-0.781c1.272,0,2.27,0.461,2.733,1.265c0.41,0.71,0.383,1.64-0.074,2.62
		c-0.507,1.088-1.463,2.077-2.692,2.787c-1.068,0.617-2.251,0.957-3.332,0.957c-1.272,0-2.269-0.461-2.733-1.265
		c-0.41-0.71-0.383-1.64,0.074-2.62c0.178-0.381,0.428-0.742,0.708-1.091c-0.388-0.488-0.839-0.9-1.326-1.21
		c-0.403,0.487-0.76,0.998-1.013,1.541c-0.712,1.527-0.714,3.047-0.001,4.281c0.794,1.375,2.358,2.165,4.291,2.165
		c1.412,0,2.876-0.414,4.232-1.198c1.545-0.892,2.761-2.165,3.423-3.584c0.713-1.527,0.714-3.047,0.002-4.28
		c-0.795-1.375-2.359-2.165-4.292-2.165c-1.412,0-2.875,0.414-4.231,1.198c-0.028,0.017-0.052,0.037-0.08,0.054
		C25.613,23.965,26.06,24.41,26.459,24.908z"/>
</g>
</svg>
