<?xml version="1.0" encoding="utf-8"?>
<!-- Generator: Adobe Illustrator 16.0.0, SVG Export Plug-In . SVG Version: 6.00 Build 0)  -->
<!DOCTYPE svg PUBLIC "-//W3C//DTD SVG 1.1//EN" "http://www.w3.org/Graphics/SVG/1.1/DTD/svg11.dtd">
<svg version="1.1" id="Layer_1" xmlns="http://www.w3.org/2000/svg" xmlns:xlink="http://www.w3.org/1999/xlink" x="0px" y="0px"
	 width="50px" height="50px" viewBox="0 0 50 50" enable-background="new 0 0 50 50" xml:space="preserve">
<g>
	<path d="M38,9.25h-1.123c0.029-0.093,0.058-0.186,0.058-0.289C36.935,8.431,36.504,8,35.973,8s-0.961,0.431-0.961,0.961
		c0,0.103,0.028,0.196,0.059,0.289h-3.68c0.029-0.093,0.058-0.186,0.058-0.289C31.448,8.431,31.018,8,30.486,8
		c-0.53,0-0.961,0.431-0.961,0.961c0,0.103,0.029,0.196,0.059,0.289h-3.681c0.029-0.093,0.058-0.186,0.058-0.289
		C25.961,8.431,25.531,8,25,8s-0.961,0.431-0.961,0.961c0,0.103,0.028,0.196,0.058,0.289h-3.681
		c0.029-0.093,0.059-0.186,0.059-0.289C20.475,8.431,20.044,8,19.514,8c-0.531,0-0.962,0.431-0.962,0.961
		c0,0.103,0.028,0.196,0.058,0.289h-3.68c0.03-0.093,0.059-0.186,0.059-0.289c0-0.531-0.43-0.961-0.961-0.961
		s-0.962,0.431-0.962,0.961c0,0.103,0.028,0.196,0.058,0.289H12c-1.518,0-2.75,1.233-2.75,2.75v26c0,1.517,1.232,2.75,2.75,2.75
		h22.895l5.855-5.856V12C40.75,10.483,39.517,9.25,38,9.25z M39.25,34.273l-0.311,0.311h-2.355c-1.101,0-2,0.9-2,2v2.356
		l-0.311,0.31H12c-0.689,0-1.25-0.561-1.25-1.25V17h28.5V34.273z"/>
	<polygon points="16.377,31.812 17.279,27.213 17.301,27.213 18.215,31.812 20.767,31.812 22.736,23.891 20.228,23.891 
		19.336,28.787 19.314,28.787 18.368,23.891 16.223,23.891 15.277,28.787 15.255,28.787 14.363,23.891 11.855,23.891 13.824,31.812 
			"/>
	<polygon points="29.699,29.964 25.684,29.964 25.684,28.721 28.951,28.721 28.951,26.872 25.684,26.872 25.684,25.739 
		29.545,25.739 29.545,23.891 23.086,23.891 23.086,31.812 29.699,31.812 	"/>
	<path d="M37.971,27.687c0-2.607-1.584-3.795-4.137-3.795h-3.477v7.921h3.41C36.309,31.812,37.971,30.668,37.971,27.687z
		 M32.953,29.964v-4.225h0.496c1.386,0,1.925,0.44,1.925,2.09c0,1.496-0.66,2.134-1.87,2.134H32.953z"/>
</g>
</svg>
