<?xml version="1.0" encoding="utf-8"?>
<!-- Generator: Adobe Illustrator 16.0.0, SVG Export Plug-In . SVG Version: 6.00 Build 0)  -->
<!DOCTYPE svg PUBLIC "-//W3C//DTD SVG 1.1//EN" "http://www.w3.org/Graphics/SVG/1.1/DTD/svg11.dtd">
<svg version="1.1" id="Layer_1" xmlns="http://www.w3.org/2000/svg" xmlns:xlink="http://www.w3.org/1999/xlink" x="0px" y="0px"
	 width="50px" height="50px" viewBox="0 0 50 50" enable-background="new 0 0 50 50" xml:space="preserve">
<path d="M37,10H13c-1.65,0-3,1.351-3,3v24c0,1.649,1.35,3,3,3h24c1.65,0,3-1.351,3-3V13C40,11.351,38.65,10,37,10z M18.096,36.402
	H13.5v-4.088h4.596V36.402z M18.096,30.944H13.5v-4.086h4.596V30.944z M17.75,14.547c-0.703,0-1.273-0.569-1.273-1.273
	S17.047,12,17.75,12s1.273,0.569,1.273,1.273S18.453,14.547,17.75,14.547z M24.229,36.402h-4.595v-4.088h4.595V36.402z
	 M24.229,30.944h-4.595v-4.086h4.595V30.944z M24.229,25.488h-4.595v-4.086h4.595V25.488z M23.727,13.273
	C23.727,12.569,24.297,12,25,12s1.273,0.569,1.273,1.273s-0.57,1.273-1.273,1.273S23.727,13.978,23.727,13.273z M30.366,30.944
	H25.77v-4.086h4.596V30.944z M30.366,25.488H25.77v-4.086h4.596V25.488z M30.977,13.273c0-0.704,0.57-1.273,1.273-1.273
	s1.273,0.569,1.273,1.273s-0.57,1.273-1.273,1.273S30.977,13.978,30.977,13.273z M36.5,30.944h-4.595v-4.086H36.5V30.944z
	 M36.5,25.488h-4.595v-4.086H36.5V25.488z"/>
</svg>
