<?xml version="1.0" encoding="utf-8"?>
<!-- Generator: Adobe Illustrator 16.0.0, SVG Export Plug-In . SVG Version: 6.00 Build 0)  -->
<!DOCTYPE svg PUBLIC "-//W3C//DTD SVG 1.1//EN" "http://www.w3.org/Graphics/SVG/1.1/DTD/svg11.dtd">
<svg version="1.1" id="Layer_1" xmlns="http://www.w3.org/2000/svg" xmlns:xlink="http://www.w3.org/1999/xlink" x="0px" y="0px"
	 width="50px" height="50px" viewBox="0 0 50 50" enable-background="new 0 0 50 50" xml:space="preserve">
<g>
	<path d="M38.25,10.25h-26c-1.518,0-2.75,1.233-2.75,2.75v26c0,1.517,1.232,2.75,2.75,2.75h22.895L41,35.895V13
		C41,11.484,39.767,10.25,38.25,10.25z M34.083,12.292c0.817,0,1.479,0.662,1.479,1.479c0,0.817-0.662,1.479-1.479,1.479
		s-1.479-0.662-1.479-1.479C32.604,12.954,33.266,12.292,34.083,12.292z M29.666,12.292c0.817,0,1.479,0.662,1.479,1.479
		c0,0.817-0.662,1.479-1.479,1.479c-0.816,0-1.479-0.662-1.479-1.479C28.188,12.954,28.85,12.292,29.666,12.292z M25.25,12.292
		c0.816,0,1.479,0.662,1.479,1.479c0,0.817-0.662,1.479-1.479,1.479c-0.817,0-1.479-0.662-1.479-1.479
		C23.771,12.954,24.433,12.292,25.25,12.292z M20.834,12.292c0.816,0,1.479,0.662,1.479,1.479c0,0.817-0.662,1.479-1.479,1.479
		c-0.818,0-1.48-0.662-1.48-1.479C19.354,12.954,20.016,12.292,20.834,12.292z M16.417,12.292c0.817,0,1.479,0.662,1.479,1.479
		c0,0.817-0.662,1.479-1.479,1.479s-1.479-0.662-1.479-1.479C14.938,12.954,15.6,12.292,16.417,12.292z M39.5,35.273l-0.311,0.311
		h-2.355c-1.101,0-2,0.9-2,2v2.356l-0.311,0.31H12.25C11.561,40.25,11,39.69,11,39V17h28.5V35.273z"/>
	<path d="M25.25,20.886c4.474,0,8.115,3.64,8.115,8.115h1.411c0-5.253-4.274-9.527-9.526-9.527c-5.252,0-9.525,4.273-9.525,9.527
		h1.411C17.135,24.525,20.775,20.886,25.25,20.886z"/>
	<path d="M25.25,22.121c-3.793,0-6.88,3.086-6.88,6.88h1.411c0-3.016,2.453-5.469,5.469-5.469s5.469,2.453,5.469,5.469h1.411
		C32.13,25.207,29.043,22.121,25.25,22.121z"/>
	<path d="M25.25,24.767c-2.334,0-4.233,1.899-4.233,4.234h1.411c0-1.558,1.266-2.823,2.822-2.823s2.823,1.265,2.823,2.823h1.41
		C29.483,26.666,27.584,24.767,25.25,24.767z"/>
	<path d="M26.029,29.001c0-0.43-0.349-0.779-0.779-0.779s-0.779,0.349-0.779,0.779c0,0.343,0.226,0.626,0.534,0.729l-2.948,8.797
		h6.386l-2.948-8.797C25.803,29.627,26.029,29.344,26.029,29.001z"/>
</g>
</svg>
