<?xml version="1.0" encoding="utf-8"?>
<!-- Generator: Adobe Illustrator 16.0.0, SVG Export Plug-In . SVG Version: 6.00 Build 0)  -->
<!DOCTYPE svg PUBLIC "-//W3C//DTD SVG 1.1//EN" "http://www.w3.org/Graphics/SVG/1.1/DTD/svg11.dtd">
<svg version="1.1" id="Layer_1" xmlns="http://www.w3.org/2000/svg" xmlns:xlink="http://www.w3.org/1999/xlink" x="0px" y="0px"
	 width="50px" height="50px" viewBox="0 0 50 50" enable-background="new 0 0 50 50" xml:space="preserve">
<g>
	<path d="M32.531,7.418c-1.017,0-1.842,1.099-1.842,2.457h3.685C34.374,8.518,33.549,7.418,32.531,7.418z"/>
	<path d="M25,7.418c-1.017,0-1.842,1.099-1.842,2.457h3.685C26.843,8.518,26.019,7.418,25,7.418z"/>
	<path d="M38,9.875h-3.627c0,1.357-0.824,2.457-1.842,2.457c-1.017,0-1.842-1.1-1.842-2.457h-3.846c0,1.357-0.824,2.457-1.842,2.457
		c-1.017,0-1.842-1.1-1.842-2.457h-3.846c0,1.357-0.824,2.457-1.842,2.457c-1.017,0-1.842-1.1-1.842-2.457H12
		c-1.517,0-2.75,1.233-2.75,2.75v26c0,1.517,1.233,2.75,2.75,2.75h22.895l5.855-5.856V12.625C40.75,11.108,39.517,9.875,38,9.875z
		 M39.25,34.898l-0.311,0.311h-2.356c-1.1,0-2,0.9-2,2v2.356l-0.31,0.31H12c-0.689,0-1.25-0.561-1.25-1.25v-21h28.5V34.898z"/>
	<path d="M17.47,7.418c-1.017,0-1.842,1.099-1.842,2.457h3.685C19.312,8.518,18.488,7.418,17.47,7.418z"/>
	<path d="M15.813,29.662c-0.288-0.075-0.577,0.094-0.653,0.377c-0.077,0.285,0.092,0.577,0.377,0.654l3.464,0.929l-1.87,1.08
		c-0.255,0.147-0.342,0.473-0.195,0.729c0.099,0.171,0.278,0.267,0.462,0.267c0.09,0,0.182-0.023,0.266-0.072l1.872-1.081
		l-0.929,3.465c-0.077,0.285,0.092,0.578,0.377,0.654c0.046,0.012,0.093,0.018,0.138,0.018c0.236,0,0.452-0.157,0.516-0.395
		l1.206-4.498l1.08-0.624l-0.335,1.96c-0.034,0.2,0.048,0.402,0.212,0.522c0.163,0.118,0.382,0.135,0.562,0.041l2.104-1.106v1.299
		l-3.292,3.292c-0.208,0.208-0.208,0.546,0,0.754c0.208,0.208,0.546,0.208,0.754,0l2.537-2.538v2.161
		c0,0.295,0.239,0.534,0.534,0.534c0.294,0,0.533-0.239,0.533-0.534v-2.159l2.537,2.536c0.104,0.104,0.24,0.156,0.377,0.156
		c0.137,0,0.273-0.052,0.377-0.156c0.208-0.208,0.208-0.546,0-0.754l-3.291-3.291v-1.301l2.102,1.105
		c0.078,0.041,0.164,0.061,0.248,0.061c0.111,0,0.221-0.034,0.313-0.102c0.165-0.12,0.247-0.322,0.212-0.522l-0.336-1.962
		l1.083,0.625l1.206,4.497c0.064,0.238,0.279,0.395,0.515,0.395c0.045,0,0.092-0.006,0.139-0.018
		c0.285-0.076,0.454-0.369,0.377-0.653l-0.929-3.466l1.871,1.081c0.084,0.048,0.176,0.071,0.266,0.071
		c0.185,0,0.364-0.095,0.463-0.267c0.147-0.255,0.06-0.582-0.195-0.729L31,31.621l3.465-0.928c0.284-0.077,0.454-0.369,0.377-0.654
		c-0.076-0.284-0.362-0.453-0.654-0.377l-4.496,1.205l-1.558-0.899l1.904-1.856c0.145-0.142,0.198-0.354,0.135-0.547
		c-0.063-0.193-0.229-0.334-0.431-0.363l-0.759-0.11l0.707-0.409l4.497,1.205c0.047,0.012,0.093,0.018,0.138,0.018
		c0.236,0,0.452-0.157,0.516-0.396c0.077-0.285-0.093-0.577-0.377-0.654l-3.467-0.928l1.872-1.081
		c0.255-0.147,0.342-0.473,0.195-0.729c-0.147-0.255-0.473-0.344-0.729-0.195l-1.869,1.079l0.928-3.465
		c0.076-0.285-0.093-0.577-0.377-0.653c-0.288-0.076-0.577,0.094-0.653,0.377l-1.205,4.496l-1.881,1.086l-0.483-0.07l-1.262-2.559
		v-0.551l3.291-3.291c0.208-0.208,0.208-0.546,0-0.754s-0.546-0.208-0.754,0l-2.537,2.536v-2.159c0-0.295-0.239-0.534-0.533-0.534
		c-0.295,0-0.534,0.239-0.534,0.534v2.162l-2.537-2.538c-0.208-0.208-0.545-0.209-0.754,0c-0.208,0.208-0.208,0.546,0,0.754
		l3.292,3.292v0.545l-1.264,2.561l-0.48,0.07l-1.881-1.086l-1.204-4.495c-0.076-0.284-0.362-0.453-0.654-0.377
		c-0.284,0.076-0.454,0.369-0.377,0.653l0.928,3.465l-1.87-1.08c-0.256-0.148-0.582-0.06-0.729,0.195
		c-0.147,0.255-0.06,0.582,0.195,0.729l1.873,1.081l-3.467,0.928c-0.284,0.077-0.454,0.369-0.377,0.654
		c0.063,0.238,0.279,0.396,0.515,0.396c0.045,0,0.092-0.006,0.138-0.018l4.498-1.205l0.708,0.408l-0.762,0.111
		c-0.202,0.029-0.368,0.17-0.431,0.363c-0.063,0.193-0.011,0.405,0.135,0.547l1.905,1.857l-1.557,0.899L15.813,29.662z
		 M21.479,28.102l2.155-0.313c0.174-0.025,0.325-0.134,0.402-0.292L25,25.543l0.964,1.953c0.078,0.157,0.228,0.266,0.402,0.292
		l2.155,0.313l-1.559,1.52c-0.125,0.123-0.184,0.299-0.153,0.472l0.367,2.147l-1.928-1.014c-0.077-0.041-0.163-0.061-0.248-0.061
		s-0.171,0.021-0.248,0.061l-1.928,1.014l0.368-2.147c0.03-0.173-0.028-0.35-0.154-0.472L21.479,28.102z"/>
</g>
</svg>
