<?xml version="1.0" encoding="utf-8"?>
<!-- Generator: Adobe Illustrator 16.0.0, SVG Export Plug-In . SVG Version: 6.00 Build 0)  -->
<!DOCTYPE svg PUBLIC "-//W3C//DTD SVG 1.1//EN" "http://www.w3.org/Graphics/SVG/1.1/DTD/svg11.dtd">
<svg version="1.1" id="Layer_1" xmlns="http://www.w3.org/2000/svg" xmlns:xlink="http://www.w3.org/1999/xlink" x="0px" y="0px"
	 width="50px" height="50px" viewBox="0 0 50 50" enable-background="new 0 0 50 50" xml:space="preserve">
<g>
	<path d="M37,10.724h-1.098V9.526c0-1.516-1.197-2.75-2.67-2.75s-2.67,1.234-2.67,2.75v1.197h-2.74V9.526
		c0-1.516-1.197-2.75-2.67-2.75s-2.67,1.234-2.67,2.75v1.197h-2.74V9.526c0-1.516-1.197-2.75-2.67-2.75s-2.67,1.234-2.67,2.75v1.197
		H13c-2.343,0-4.25,1.907-4.25,4.25v24c0,2.343,1.907,4.25,4.25,4.25h24c2.344,0,4.25-1.907,4.25-4.25v-24
		C41.25,12.63,39.344,10.724,37,10.724z M32.063,9.526c0-0.689,0.525-1.25,1.17-1.25s1.17,0.561,1.17,1.25v4.895
		c0,0.689-0.525,1.25-1.17,1.25s-1.17-0.561-1.17-1.25V9.526z M23.982,9.526c0-0.689,0.525-1.25,1.17-1.25s1.17,0.561,1.17,1.25
		v4.895c0,0.689-0.525,1.25-1.17,1.25s-1.17-0.561-1.17-1.25V9.526z M15.902,9.526c0-0.689,0.525-1.25,1.17-1.25
		s1.17,0.561,1.17,1.25v4.895c0,0.689-0.525,1.25-1.17,1.25s-1.17-0.561-1.17-1.25V9.526z M38.75,38.974
		c0,0.965-0.785,1.75-1.75,1.75H13c-0.965,0-1.75-0.785-1.75-1.75v-22h27.5V38.974z"/>
	<circle cx="24.999" cy="21.159" r="2.104"/>
	<path d="M19.741,33.57c0,1.098,1.504,1.779,3.372,2.047v2.011c0,0.665,0.538,1.202,1.201,1.202c0.662,0,1.203-0.538,1.203-1.202
		V35.73c2.446-0.09,4.74-0.804,4.74-2.16c0-2.08-1.209-5.161-2.958-6.75c0.14-0.316,0.224-0.664,0.224-1.034
		c0-1.393-1.129-2.524-2.523-2.524c-1.263,0-3.264,0.92-3.875,2.524C20.667,26.986,25,28.969,25,28.969s-2.201-0.369-3.298-1.016
		C20.507,29.622,19.741,31.916,19.741,33.57z M25.643,29.311c0.574-0.516,1.766-0.532,1.874,0.534
		c0.143,1.374-1.874,2.438-1.874,2.438s-2.017-1.064-1.875-2.438C23.879,28.778,25.068,28.795,25.643,29.311z"/>
</g>
</svg>
