<?xml version="1.0" encoding="utf-8"?>
<!-- Generator: Adobe Illustrator 16.0.0, SVG Export Plug-In . SVG Version: 6.00 Build 0)  -->
<!DOCTYPE svg PUBLIC "-//W3C//DTD SVG 1.1//EN" "http://www.w3.org/Graphics/SVG/1.1/DTD/svg11.dtd">
<svg version="1.1" id="Layer_1" xmlns="http://www.w3.org/2000/svg" xmlns:xlink="http://www.w3.org/1999/xlink" x="0px" y="0px"
	 width="50px" height="50px" viewBox="0 0 50 50" enable-background="new 0 0 50 50" xml:space="preserve">
<g>
	<path d="M38,9.875h-1.123c0.029-0.093,0.058-0.186,0.058-0.289c0-0.531-0.431-0.961-0.962-0.961s-0.961,0.431-0.961,0.961
		c0,0.103,0.028,0.196,0.059,0.289h-3.68c0.029-0.093,0.058-0.186,0.058-0.289c0-0.531-0.431-0.961-0.962-0.961
		c-0.53,0-0.961,0.431-0.961,0.961c0,0.103,0.029,0.196,0.059,0.289h-3.681c0.029-0.093,0.058-0.186,0.058-0.289
		c0-0.531-0.43-0.961-0.961-0.961s-0.961,0.431-0.961,0.961c0,0.103,0.028,0.196,0.058,0.289h-3.681
		c0.029-0.093,0.059-0.186,0.059-0.289c0-0.531-0.431-0.961-0.961-0.961c-0.531,0-0.962,0.431-0.962,0.961
		c0,0.103,0.028,0.196,0.058,0.289h-3.68c0.03-0.093,0.059-0.186,0.059-0.289c0-0.531-0.43-0.961-0.961-0.961
		s-0.962,0.431-0.962,0.961c0,0.103,0.028,0.196,0.058,0.289H12c-1.518,0-2.75,1.233-2.75,2.75v26c0,1.518,1.232,2.75,2.75,2.75
		h22.895l5.855-5.855V12.625C40.75,11.109,39.517,9.875,38,9.875z M39.25,34.898l-0.311,0.311h-2.355c-1.101,0-2,0.9-2,2v2.356
		l-0.311,0.31H12c-0.689,0-1.25-0.561-1.25-1.25v-25h28.5V34.898z"/>
	<path d="M26.238,34.141l3.31,2.942l5.631-5.631l-2.942-3.31c-0.247,1.451-0.923,2.842-2.04,3.959
		C29.08,33.219,27.688,33.895,26.238,34.141z"/>
	<path d="M20.236,31.668c2.627,2.627,6.901,2.627,9.528,0c2.628-2.627,2.628-6.901,0-9.529c-2.627-2.627-6.901-2.627-9.529,0
		C17.608,24.768,17.608,29.042,20.236,31.668z M21.102,30.803c-0.878-0.878-1.392-1.982-1.552-3.126l0.615,0.692
		c0.232,0.772,0.653,1.5,1.262,2.109c0.609,0.609,1.337,1.029,2.109,1.262l0.693,0.615C23.084,32.194,21.98,31.681,21.102,30.803z
		 M28.898,23.007c0.878,0.878,1.391,1.981,1.551,3.125l-0.615-0.692c-0.232-0.772-0.652-1.5-1.261-2.108
		c-0.61-0.609-1.337-1.029-2.109-1.261l-0.692-0.615C26.916,21.615,28.02,22.128,28.898,23.007z M21.643,23.548
		c1.851-1.851,4.862-1.852,6.714,0c1.851,1.852,1.851,4.863,0,6.714c-1.851,1.851-4.862,1.851-6.713,0
		C19.792,28.41,19.792,25.399,21.643,23.548z"/>
	<path d="M24.133,27.771c0.479,0.479,1.255,0.478,1.732,0c0.479-0.479,0.479-1.255,0.001-1.734
		c-0.088-0.086-0.187-0.152-0.291-0.208C25.445,23.811,25,22.311,25,22.311s-0.445,1.501-0.576,3.52
		c-0.104,0.056-0.203,0.121-0.292,0.208c-0.087,0.087-0.152,0.187-0.208,0.291c-2.018,0.13-3.519,0.576-3.519,0.576
		s1.501,0.445,3.52,0.575C23.981,27.583,24.047,27.684,24.133,27.771z"/>
	<path d="M19.802,21.708c1.118-1.118,2.51-1.794,3.961-2.04l-3.311-2.942l-2.49,2.49c0.179,0.18,0.179,0.472,0,0.65
		c-0.179,0.179-0.471,0.179-0.65,0l-2.491,2.491l2.942,3.31C18.01,24.216,18.686,22.824,19.802,21.708z M18.395,20.299
		c0.179-0.18,0.47-0.18,0.649,0c0.18,0.179,0.18,0.471,0,0.649c-0.179,0.18-0.47,0.18-0.649,0
		C18.215,20.77,18.215,20.479,18.395,20.299z"/>
</g>
</svg>
